<svg width="18" height="18" viewBox="0 0 18 18" fill="none" xmlns="http://www.w3.org/2000/svg">
<path d="M11.5601 9.00006C11.5601 10.4851 10.3601 11.6851 8.87506 11.6851C7.39006 11.6851 6.19006 10.4851 6.19006 9.00006C6.19006 7.51506 7.39006 6.31506 8.87506 6.31506C10.3601 6.31506 11.5601 7.51506 11.5601 9.00006Z" stroke="#F76F39" stroke-linecap="round" stroke-linejoin="round"/>
<path d="M8.875 15.2025C11.5225 15.2025 13.99 13.6425 15.7075 10.9425C16.3825 9.88498 16.3825 8.10748 15.7075 7.04998C13.99 4.34998 11.5225 2.78998 8.875 2.78998C6.2275 2.78998 3.76 4.34998 2.0425 7.04998C1.3675 8.10748 1.3675 9.88498 2.0425 10.9425C3.76 13.6425 6.2275 15.2025 8.875 15.2025Z" stroke="#F76F39" stroke-linecap="round" stroke-linejoin="round"/>
</svg>
