<svg width="65" height="65" viewBox="0 0 65 65" fill="none" xmlns="http://www.w3.org/2000/svg">
<path d="M32.5 65C50.4493 65 65 50.4493 65 32.5C65 14.5507 50.4493 0 32.5 0C14.5507 0 0 14.5507 0 32.5C0 50.4493 14.5507 65 32.5 65Z" fill="#EAEAFF"/>
<mask id="mask0_2_3498" style="mask-type:alpha" maskUnits="userSpaceOnUse" x="0" y="0" width="65" height="65">
<path d="M32.5 65C50.4493 65 65 50.4493 65 32.5C65 14.5507 50.4493 0 32.5 0C14.5507 0 0 14.5507 0 32.5C0 50.4493 14.5507 65 32.5 65Z" fill="#F6F3EF"/>
</mask>
<g mask="url(#mask0_2_3498)">
<path d="M21.1101 20.1761C21.8019 19.7542 22.7525 19.7261 23.5231 20.0636C23.09 15.755 24.125 11.4689 27.5617 8.99962C28.2873 8.47652 29.0579 8.09966 29.8454 7.84654C33.5802 6.64284 37.8269 8.26277 40.7406 11.0639C43.6542 13.8651 45.3079 17.9318 45.5329 22.0097C45.8366 27.4883 43.3167 33.2312 37.7538 34.4518C37.4726 34.5136 37.1857 34.5586 36.8988 34.5924L36.6963 43.5302C36.6345 47.31 33.2315 50.1562 29.5022 49.5374C26.2736 49.0031 24.0181 46.0501 24.3556 42.7933C24.3556 42.7933 25.458 29.277 25.5705 27.432C25.5761 27.3308 25.4805 27.2745 25.3849 27.3139C24.2937 27.7751 22.9325 27.7751 21.9088 27.2408C20.6376 26.5771 19.7207 25.1596 19.5914 23.6466C19.4789 22.2854 20.0301 20.8398 21.1101 20.1761Z" stroke="#000402" stroke-width="1.191" stroke-miterlimit="10" stroke-linecap="round" stroke-linejoin="round"/>
<path d="M23.6359 24.5017C22.8484 24.4679 22.2297 23.9504 22.2578 23.343C22.2747 22.8874 22.6515 22.5105 23.169 22.3643" stroke="#2E2E2E" stroke-width="1.258" stroke-miterlimit="10" stroke-linecap="round"/>
<path d="M40.4648 23.984C40.5604 23.7422 40.6954 23.5453 40.8417 23.3597C40.9879 23.1741 41.1567 23.0109 41.331 22.8591L41.4267 23.4384C41.0779 23.2472 40.9261 23.0166 40.7629 22.7916C40.6111 22.561 40.4817 22.3303 40.3748 22.0885C40.1555 21.6104 39.9867 21.1154 39.9023 20.5923C40.2286 21.0029 40.5211 21.4248 40.8192 21.8297C40.9711 22.0266 41.1173 22.2291 41.2748 22.4035C41.421 22.5778 41.6067 22.7578 41.7191 22.7972L42.2254 22.9772L41.8148 23.3822C41.646 23.5453 41.4773 23.7028 41.2804 23.8322C41.0892 23.9672 40.8811 24.0853 40.6336 24.164C40.5661 24.1865 40.4873 24.1471 40.4704 24.074C40.4536 24.0403 40.4592 24.0065 40.4648 23.984Z" fill="#2E2E2E"/>
<path d="M36.8708 37.6634L37.0058 34.4573C37.0058 34.4573 31.5947 35.301 27.5562 30.2612C27.5562 30.2556 29.508 36.1448 36.8708 37.6634Z" fill="#000402" stroke="#000402" stroke-width="0.696" stroke-miterlimit="10" stroke-linecap="round" stroke-linejoin="round"/>
<g opacity="0.4">
<g opacity="0.4">
<path opacity="0.4" d="M36.3818 20.238C36.0218 20.463 35.8868 20.9073 36.095 21.2898C36.275 21.6273 36.6968 21.7848 37.0624 21.6892C37.4618 21.5823 37.7599 21.1942 37.7037 20.7779C37.653 20.4236 37.3718 20.1423 37.0231 20.058C36.365 19.9005 35.645 20.3786 35.6787 21.0929C35.6956 21.4304 35.8475 21.7623 36.1175 21.9704C36.3875 22.1785 36.7474 22.2291 37.0737 22.1335C37.6868 21.9535 38.238 21.2279 37.8274 20.6036C37.5349 20.1536 36.9387 19.9623 36.4268 19.9623C35.8981 19.9567 35.3694 20.1648 35.0656 20.6036C34.7788 21.0198 34.8125 21.5935 35.1163 21.9873C35.8081 22.8816 37.2762 22.516 38.013 21.8748C38.4574 21.4867 38.643 20.7892 38.2999 20.2717C38.0018 19.8274 37.4224 19.5405 36.9106 19.428C35.7969 19.1861 34.6381 19.743 34.2782 20.8511C34.1882 21.1211 34.1544 21.4304 34.2219 21.706C34.3007 22.0154 34.5088 22.2516 34.7563 22.4373C35.1556 22.7354 35.7012 22.8591 36.1906 22.8591C36.6912 22.8591 37.2312 22.7297 37.6474 22.4429C38.0468 22.1673 38.4068 21.7623 38.4911 21.2673C38.5924 20.6654 38.3843 20.103 37.8949 19.7317C37.4168 19.3605 36.8206 19.2874 36.2356 19.3942C35.9993 19.4392 35.7744 19.5236 35.5494 19.608C35.2344 19.7261 34.9869 20.0467 35.0994 20.3955C35.2006 20.7048 35.555 20.9692 35.8868 20.8454C36.0275 20.7948 36.1625 20.7442 36.3031 20.6992C36.3818 20.6767 36.4662 20.6542 36.5449 20.6373C36.5674 20.6317 36.6799 20.6204 36.5956 20.6261C36.5056 20.6373 36.6574 20.6261 36.6743 20.6261C36.7137 20.6261 36.7474 20.6261 36.7868 20.6261C36.9443 20.6261 36.7699 20.6317 36.7699 20.6204C36.7699 20.6148 36.9443 20.6654 36.9612 20.6654C37.0849 20.6992 36.9443 20.6654 36.9387 20.6542C36.9387 20.6542 37.0118 20.6879 37.0231 20.6936C37.0512 20.7104 37.0737 20.7273 37.1018 20.7386C37.2255 20.8061 37.0118 20.6486 37.1131 20.7442C37.1356 20.7611 37.1524 20.7836 37.1749 20.8061C37.2593 20.8792 37.1524 20.7892 37.1524 20.7723C37.1524 20.7779 37.1974 20.8454 37.203 20.8567C37.2818 20.9692 37.1862 20.8398 37.1974 20.8342C37.203 20.8342 37.2199 20.9129 37.2255 20.9242C37.2649 21.0423 37.2087 20.9073 37.2255 20.8904C37.2255 20.8904 37.2255 20.9692 37.2255 20.9804C37.2312 21.1154 37.2649 20.8679 37.2255 20.9917C37.2143 21.0198 37.2087 21.0536 37.1974 21.0817C37.1749 21.1717 37.1805 21.0423 37.2199 21.0367C37.203 21.0367 37.1524 21.1548 37.1412 21.1773C37.0906 21.2673 37.1524 21.1604 37.1693 21.1492C37.1524 21.1604 37.1299 21.1942 37.1131 21.2111C37.0681 21.256 36.9837 21.3067 36.9499 21.3573C36.9612 21.3404 37.0681 21.2785 36.9724 21.3348C36.9443 21.3517 36.9218 21.3685 36.8937 21.3854C36.8824 21.391 36.7306 21.4754 36.7249 21.4698C36.7193 21.4642 36.8768 21.4192 36.7474 21.4585C36.7137 21.4698 36.6856 21.481 36.6574 21.4923C36.5787 21.5148 36.4999 21.5317 36.4156 21.5485C36.3706 21.5598 36.3256 21.5879 36.4381 21.5485C36.4156 21.5598 36.3593 21.5542 36.3368 21.5598C36.2693 21.5654 36.2018 21.5654 36.1343 21.5654C36.1006 21.5654 35.96 21.5767 35.9318 21.5485C35.9318 21.5485 36.0893 21.5823 35.9543 21.5485C35.915 21.5373 35.8756 21.5317 35.8306 21.5204C35.7575 21.5035 35.69 21.481 35.6169 21.4529C35.555 21.4304 35.5606 21.4585 35.6337 21.4585C35.6169 21.4585 35.555 21.4192 35.5494 21.4135C35.5212 21.3967 35.4931 21.3798 35.465 21.3629C35.3862 21.3123 35.4594 21.3798 35.4819 21.3798C35.4706 21.3798 35.42 21.3179 35.42 21.3179C35.3356 21.2392 35.4706 21.391 35.4312 21.3292C35.3862 21.256 35.4706 21.4585 35.4481 21.3685C35.4256 21.2842 35.4369 21.481 35.4537 21.3967C35.4594 21.3742 35.4537 21.2673 35.4481 21.3629C35.4481 21.4642 35.4594 21.3235 35.4594 21.3123C35.4706 21.2504 35.4931 21.1942 35.51 21.1379C35.5325 21.0648 35.4931 21.0986 35.4987 21.1604C35.4987 21.1323 35.5381 21.0817 35.555 21.0536C35.5719 21.0254 35.5887 21.0029 35.6056 20.9748C35.645 20.8961 35.5325 21.0536 35.5944 20.9861C35.6394 20.9354 35.6844 20.8904 35.7294 20.8454C35.7462 20.8286 35.825 20.7723 35.7519 20.8229C35.6787 20.8736 35.7631 20.8173 35.78 20.8061C35.8137 20.7836 35.8475 20.7667 35.8812 20.7442C35.8981 20.7329 36.0162 20.6654 35.9318 20.7161C35.8531 20.7554 35.9487 20.7104 35.9712 20.7048C36.005 20.6936 36.0331 20.6823 36.0668 20.6767C36.1006 20.6654 36.1287 20.6598 36.1625 20.6542C36.185 20.6486 36.2918 20.6261 36.2018 20.6429C36.1118 20.6598 36.2187 20.6429 36.2412 20.6429C36.275 20.6429 36.3143 20.6373 36.3481 20.6373C36.3818 20.6373 36.4212 20.6373 36.4549 20.6429C36.4831 20.6429 36.5056 20.6486 36.5337 20.6486C36.5112 20.6486 36.4887 20.6429 36.4662 20.6429C36.5112 20.6261 36.6574 20.6879 36.6968 20.6992C36.7306 20.7104 36.7643 20.7217 36.7981 20.7329C36.8149 20.7386 36.9218 20.7836 36.8431 20.7498C36.7643 20.7161 36.8656 20.7611 36.8824 20.7723C36.9106 20.7892 36.9443 20.8004 36.9724 20.8173C37.0399 20.8511 37.1018 20.8904 37.1637 20.9298C37.2762 21.0029 37.1412 20.9186 37.1468 20.9129C37.1412 20.9242 37.2143 20.9636 37.2143 20.9748C37.2143 20.9804 37.1468 20.8623 37.1918 20.9467C37.2424 21.0479 37.1862 20.9298 37.1805 20.9129C37.2199 21.0029 37.1805 20.8961 37.1749 20.8679C37.1918 20.9973 37.2087 20.7779 37.1805 20.8454C37.1805 20.8511 37.1749 20.8623 37.1749 20.8679C37.158 20.9242 37.158 20.9242 37.1749 20.8736C37.1974 20.8229 37.1918 20.8286 37.1637 20.8792C37.1524 20.8904 37.1468 20.9073 37.1355 20.9186C37.203 20.8792 37.1974 20.8511 37.1468 20.8904C37.1243 20.9129 37.1018 20.9298 37.0793 20.9523C36.9837 21.0423 37.0962 20.9354 37.0962 20.9411C37.0962 20.9467 37.0231 20.9861 37.0174 20.9917C36.9612 21.0254 36.8993 21.0536 36.8431 21.0873C36.7362 21.1436 36.8431 21.0929 36.8599 21.0817C36.8262 21.1042 36.7643 21.1211 36.7249 21.1323C36.6631 21.1548 36.6012 21.1717 36.5393 21.1886C36.5056 21.1942 36.4775 21.1998 36.4437 21.2111C36.3143 21.2448 36.4606 21.1998 36.4718 21.2111C36.4606 21.1998 36.3031 21.2223 36.2806 21.2223C36.2806 21.2223 36.1906 21.2279 36.185 21.2167C36.2693 21.2279 36.2862 21.2336 36.2412 21.2223C36.2187 21.2167 36.1962 21.2111 36.1737 21.2054C36.1625 21.1998 36.0893 21.1773 36.0837 21.1773C36.095 21.1661 36.2131 21.2504 36.1175 21.1886C36.1062 21.1829 36.0556 21.1492 36.05 21.1492C36.0893 21.1492 36.1568 21.2392 36.095 21.1773C36.0218 21.1042 36.1287 21.2167 36.1287 21.2279C36.1287 21.2279 36.1006 21.1717 36.095 21.1717C36.1681 21.2336 36.1343 21.301 36.1231 21.2336C36.1175 21.2167 36.1118 21.1998 36.1118 21.1829C36.1006 21.1323 36.1062 21.1604 36.1231 21.2729C36.1231 21.2673 36.1231 21.2111 36.1231 21.2054C36.1287 21.2223 36.0837 21.3685 36.1175 21.2785C36.1231 21.2617 36.14 21.2279 36.14 21.2167C36.14 21.2223 36.0781 21.3742 36.1231 21.2785C36.1568 21.2111 36.1625 21.3067 36.0837 21.3235C36.0893 21.3235 36.1343 21.2673 36.1343 21.2729C36.1343 21.3235 36.0162 21.346 36.095 21.3067C36.1006 21.301 36.1962 21.2504 36.1962 21.2504C36.1962 21.2673 36.0443 21.301 36.1568 21.2729C36.1906 21.2673 36.2243 21.256 36.2581 21.2448C36.2637 21.2448 36.2693 21.2392 36.2806 21.2392C36.3368 21.2279 36.3368 21.2279 36.2806 21.2392C36.2243 21.2448 36.2243 21.2448 36.2806 21.2392C36.2975 21.2392 36.3087 21.2392 36.3256 21.2392C36.3875 21.2335 36.4831 21.2617 36.5393 21.2448C36.5224 21.2504 36.3875 21.2167 36.4943 21.2392C36.5337 21.2504 36.5787 21.2561 36.6181 21.2673C36.6462 21.2729 36.6687 21.2842 36.6968 21.2954C36.8093 21.3292 36.6124 21.2448 36.6743 21.2842C36.6968 21.2954 36.7193 21.3123 36.7418 21.3235C36.8149 21.3629 36.7812 21.3517 36.7362 21.3123C36.8431 21.4079 36.6687 21.1773 36.6687 21.1661C36.6912 20.9467 36.6912 20.8792 36.6631 20.9692C36.6518 21.0142 36.6574 20.9973 36.6856 20.9186C36.6912 20.9073 36.7699 20.8173 36.7024 20.8904C36.6293 20.9692 36.7868 20.8454 36.7249 20.8736C36.6799 20.8961 36.6687 20.9411 36.7081 20.8904C36.7587 20.8679 36.7587 20.8679 36.7081 20.8904C36.6518 20.9017 36.6518 20.9073 36.7137 20.8961C36.7306 20.8961 36.7418 20.8904 36.7587 20.8904C36.7024 20.8904 36.7024 20.8904 36.7643 20.9017C36.8206 20.9129 36.8262 20.9129 36.7699 20.9017C36.7981 20.9129 36.8206 20.9242 36.8487 20.9354C36.8599 20.9467 36.9499 21.0142 36.9499 21.0479C36.9499 21.0479 36.8599 20.8623 36.9387 21.0367C36.9162 20.9917 36.9387 20.9354 36.9387 21.0648C36.9331 21.0929 36.9274 21.1154 36.9218 21.1436C36.8824 21.2223 36.8712 21.2448 36.8937 21.2054C36.9387 21.1379 36.8037 21.3067 36.8599 21.2448C36.9106 21.1942 36.7418 21.3179 36.8431 21.2617C36.7868 21.2954 36.7418 21.301 36.6799 21.3067C36.8093 21.3067 36.5562 21.256 36.6743 21.301C36.5281 21.2448 36.5899 21.2617 36.6237 21.2842C36.4606 21.1942 36.41 21.0648 36.4662 20.8848C36.41 20.7104 36.4549 20.5755 36.6124 20.4911C37.0681 20.2267 37.5687 21.0029 37.0006 21.3573C37.2874 21.1773 37.4224 20.7779 37.2312 20.4798C37.0737 20.1817 36.6856 20.0467 36.3818 20.238Z" fill="#DD8DA6"/>
</g>
</g>
<g opacity="0.4">
<g opacity="0.4">
<path opacity="0.4" d="M43.2324 20.0185C42.8724 20.2435 42.7374 20.6878 42.9456 21.0703C43.1255 21.4078 43.5474 21.5653 43.913 21.4697C44.3124 21.3628 44.6105 20.9747 44.5542 20.5585C44.5036 20.2041 44.2224 19.9229 43.8736 19.8385C43.2155 19.681 42.4956 20.1591 42.5293 20.8734C42.5462 21.2109 42.6981 21.5428 42.9681 21.7509C43.238 21.959 43.598 22.0097 43.9243 21.914C44.5374 21.734 45.0886 21.0084 44.678 20.3841C44.3855 19.9341 43.7893 19.7429 43.2774 19.7429C42.7487 19.7372 42.22 19.9454 41.9162 20.3841C41.6294 20.8003 41.6631 21.3741 41.9668 21.7678C42.6587 22.6621 44.1268 22.2965 44.8636 21.6553C45.308 21.2672 45.4936 20.5697 45.1505 20.0522C44.8523 19.6079 44.273 19.321 43.7611 19.2085C42.6474 18.9666 41.4887 19.5235 41.1287 20.6316C41.0388 20.9016 41.005 21.2109 41.0725 21.4866C41.1512 21.7959 41.3594 22.0322 41.6069 22.2178C42.0062 22.5159 42.5518 22.6396 43.0412 22.6396C43.5418 22.6396 44.0818 22.5103 44.498 22.2234C44.8974 21.9478 45.2573 21.5428 45.3417 21.0478C45.443 20.446 45.2348 19.8835 44.7455 19.5122C44.2674 19.141 43.6711 19.0679 43.0862 19.1748C42.8499 19.2198 42.6249 19.3041 42.3999 19.3885C42.085 19.5066 41.8375 19.8272 41.95 20.176C42.0512 20.4853 42.4056 20.7497 42.7374 20.626C42.8781 20.5753 43.013 20.5247 43.1537 20.4797C43.2324 20.4572 43.3168 20.4347 43.3955 20.4178C43.418 20.4122 43.5305 20.401 43.4462 20.4066C43.3562 20.4178 43.508 20.4066 43.5249 20.4066C43.5643 20.4066 43.598 20.4066 43.6374 20.4066C43.7949 20.4066 43.6205 20.4122 43.6205 20.401C43.6205 20.3953 43.7949 20.446 43.8118 20.446C43.9355 20.4797 43.7949 20.446 43.7893 20.4347C43.7893 20.4347 43.8624 20.4685 43.8736 20.4741C43.9018 20.491 43.9243 20.5078 43.9524 20.5191C44.0761 20.5866 43.8624 20.4291 43.9636 20.5247C43.9861 20.5416 44.003 20.5641 44.0255 20.5866C44.1099 20.6597 44.003 20.5697 44.003 20.5528C44.003 20.5585 44.048 20.626 44.0536 20.6372C44.1324 20.7497 44.0368 20.6203 44.048 20.6147C44.0536 20.6147 44.0705 20.6935 44.0761 20.7047C44.1155 20.8228 44.0593 20.6878 44.0761 20.671C44.0761 20.671 44.0761 20.7497 44.0761 20.761C44.0818 20.8959 44.1155 20.6485 44.0761 20.7722C44.0649 20.8003 44.0593 20.8341 44.048 20.8622C44.0255 20.9522 44.0311 20.8228 44.0705 20.8172C44.0536 20.8172 44.003 20.9353 43.9918 20.9578C43.9411 21.0478 44.003 20.9409 44.0199 20.9297C44.003 20.9409 43.9805 20.9747 43.9636 20.9916C43.9186 21.0366 43.8343 21.0872 43.8005 21.1378C43.8118 21.1209 43.9186 21.0591 43.823 21.1153C43.7949 21.1322 43.7724 21.1491 43.7443 21.1659C43.733 21.1716 43.5812 21.2616 43.5755 21.2503C43.5699 21.2447 43.7274 21.1997 43.598 21.2391C43.5643 21.2503 43.5362 21.2616 43.508 21.2728C43.4293 21.2953 43.3505 21.3122 43.2662 21.3291C43.2212 21.3403 43.1762 21.3684 43.2887 21.3291C43.2662 21.3403 43.2099 21.3347 43.1874 21.3403C43.1199 21.3459 43.0524 21.3459 42.9849 21.3459C42.9512 21.3459 42.8106 21.3572 42.7824 21.3291C42.7824 21.3291 42.9399 21.3628 42.8049 21.3291C42.7656 21.3178 42.7262 21.3122 42.6812 21.3009C42.6081 21.2841 42.5406 21.2616 42.4674 21.2334C42.4056 21.2109 42.4112 21.2391 42.4843 21.2391C42.4674 21.2391 42.4056 21.1997 42.3999 21.1941C42.3718 21.1772 42.3437 21.1603 42.3156 21.1434C42.2368 21.0928 42.31 21.1603 42.3325 21.1603C42.3212 21.1603 42.2706 21.0984 42.2706 21.0984C42.1862 21.0197 42.3212 21.1716 42.2818 21.1097C42.2368 21.0366 42.3212 21.2391 42.2987 21.1491C42.2762 21.0647 42.2875 21.2616 42.3043 21.1772C42.31 21.1547 42.3043 21.0478 42.2987 21.1434C42.2987 21.2447 42.31 21.1041 42.31 21.0928C42.3212 21.0309 42.3437 20.9747 42.3606 20.9184C42.3831 20.8453 42.3437 20.8791 42.3493 20.9409C42.3493 20.9128 42.3887 20.8622 42.4056 20.8341C42.4224 20.806 42.4393 20.7835 42.4562 20.7553C42.4956 20.6766 42.3831 20.8341 42.4449 20.7666C42.4899 20.716 42.5349 20.671 42.5799 20.626C42.5968 20.6091 42.6756 20.5528 42.6024 20.6035C42.5293 20.6541 42.6137 20.5978 42.6306 20.5866C42.6643 20.5641 42.6981 20.5472 42.7318 20.5247C42.7487 20.5135 42.8668 20.446 42.7824 20.4966C42.7037 20.536 42.7993 20.491 42.8218 20.4853C42.8556 20.4741 42.8837 20.4628 42.9174 20.4572C42.9512 20.446 42.9793 20.4403 43.013 20.4347C43.0355 20.4291 43.1424 20.4066 43.0524 20.4235C42.9624 20.4403 43.0693 20.4235 43.0918 20.4235C43.1255 20.4235 43.1649 20.4178 43.1987 20.4178C43.2324 20.4178 43.2718 20.4178 43.3055 20.4235C43.3337 20.4235 43.3562 20.4291 43.3843 20.4291C43.3618 20.4291 43.3393 20.4235 43.3168 20.4235C43.3618 20.4066 43.508 20.4685 43.5474 20.4797C43.5812 20.491 43.6149 20.5022 43.6486 20.5135C43.6655 20.5191 43.7724 20.5641 43.6936 20.5303C43.6149 20.4966 43.7161 20.5416 43.733 20.5528C43.7611 20.5697 43.7949 20.581 43.823 20.5978C43.8905 20.6316 43.9524 20.671 44.0143 20.7103C44.1268 20.7835 43.9918 20.6991 43.9974 20.6935C43.9918 20.7047 44.0649 20.7441 44.0649 20.7553C44.0649 20.761 43.9974 20.6428 44.0424 20.7272C44.0986 20.8284 44.0368 20.7103 44.0311 20.6935C44.0705 20.7835 44.0311 20.6766 44.0255 20.6485C44.0424 20.7778 44.0593 20.5585 44.0311 20.626C44.0311 20.6316 44.0255 20.6428 44.0255 20.6485C44.0086 20.7047 44.0086 20.7047 44.0255 20.6541C44.048 20.6035 44.0424 20.6091 44.0143 20.6597C44.003 20.671 43.9974 20.6878 43.9861 20.6991C44.0536 20.6597 44.048 20.6316 43.9974 20.671C43.9749 20.6935 43.9524 20.7103 43.9299 20.7328C43.8343 20.8228 43.9468 20.716 43.9468 20.7216C43.9468 20.7272 43.8736 20.7666 43.868 20.7722C43.8118 20.806 43.7499 20.8341 43.6936 20.8678C43.5868 20.9241 43.6936 20.8734 43.7105 20.8622C43.6768 20.8847 43.6149 20.9016 43.5755 20.9128C43.5137 20.9353 43.4518 20.9522 43.3899 20.9691C43.3562 20.9747 43.328 20.9803 43.2943 20.9916C43.1649 21.0253 43.3112 20.9803 43.3224 20.9916C43.3112 20.9803 43.1537 21.0028 43.1312 21.0028C43.1312 21.0028 43.0412 21.0084 43.0355 20.9972C43.1199 21.0084 43.1368 21.0141 43.0918 21.0028C43.0693 20.9972 43.0468 20.9916 43.0243 20.9859C43.013 20.9803 42.9399 20.9578 42.9343 20.9578C42.9456 20.9466 43.0637 21.0309 42.9681 20.9691C42.9568 20.9634 42.9062 20.9297 42.9006 20.9297C42.9399 20.9297 43.0074 21.0197 42.9456 20.9578C42.8724 20.8847 42.9793 20.9972 42.9793 21.0084C42.9793 21.0084 42.9512 20.9522 42.9456 20.9522C43.0187 21.0141 42.9849 21.0816 42.9737 21.0141C42.9681 20.9972 42.9624 20.9803 42.9624 20.9634C42.9512 20.9128 42.9568 20.9409 42.9737 21.0534C42.9737 21.0478 42.9737 20.9916 42.9737 20.9859C42.9793 21.0028 42.9343 21.1491 42.9681 21.0591C42.9737 21.0422 42.9905 21.0084 42.9905 20.9972C42.9905 21.0028 42.9287 21.1547 42.9737 21.0591C43.0074 20.9916 43.013 21.0872 42.9343 21.1041C42.9399 21.1041 42.9849 21.0478 42.9849 21.0534C42.9849 21.1041 42.8668 21.1266 42.9456 21.0872C42.9512 21.0816 43.0468 21.0309 43.0468 21.0309C43.0468 21.0478 42.8949 21.0816 43.0074 21.0534C43.0412 21.0478 43.0749 21.0366 43.1087 21.0253C43.1143 21.0253 43.1199 21.0197 43.1312 21.0197C43.1874 21.0084 43.1874 21.0084 43.1312 21.0197C43.0749 21.0253 43.0749 21.0253 43.1312 21.0197C43.148 21.0197 43.1593 21.0197 43.1762 21.0197C43.238 21.0141 43.3337 21.0422 43.3899 21.0253C43.373 21.0309 43.238 20.9972 43.3449 21.0197C43.3843 21.0309 43.4293 21.0366 43.4687 21.0478C43.4968 21.0534 43.5193 21.0647 43.5474 21.0759C43.6599 21.1097 43.463 21.0253 43.5249 21.0647C43.5474 21.0759 43.5699 21.0928 43.5924 21.1041C43.6655 21.1434 43.6318 21.1322 43.5868 21.0928C43.6936 21.1884 43.5193 20.9578 43.5193 20.9466C43.5418 20.7272 43.5418 20.6597 43.5137 20.7497C43.5024 20.7947 43.508 20.7778 43.5362 20.6991C43.5418 20.6878 43.6205 20.5978 43.553 20.671C43.4799 20.7497 43.6374 20.626 43.5755 20.6541C43.5305 20.6766 43.5193 20.7216 43.5587 20.671C43.6093 20.6485 43.6093 20.6485 43.5587 20.671C43.5024 20.6822 43.5024 20.6878 43.5643 20.6766C43.5811 20.6766 43.5924 20.671 43.6093 20.671C43.553 20.671 43.553 20.671 43.6149 20.6822C43.6711 20.6935 43.6768 20.6935 43.6205 20.6822C43.6487 20.6935 43.6711 20.7047 43.6993 20.716C43.7105 20.7272 43.8005 20.7947 43.8005 20.8284C43.8005 20.8284 43.7105 20.6428 43.7893 20.8172C43.7668 20.7722 43.7893 20.716 43.7893 20.8453C43.7836 20.8734 43.778 20.8959 43.7724 20.9241C43.733 21.0028 43.7218 21.0253 43.7443 20.9859C43.7893 20.9184 43.6543 21.0872 43.7105 21.0253C43.7611 20.9747 43.5924 21.0984 43.6936 21.0422C43.6374 21.0759 43.5924 21.0816 43.5305 21.0872C43.6599 21.0872 43.4068 21.0366 43.5249 21.0816C43.3787 21.0253 43.4405 21.0422 43.4743 21.0647C43.3112 20.9747 43.2605 20.8453 43.3168 20.6653C43.2605 20.491 43.3055 20.356 43.463 20.2716C43.9186 20.0072 44.4192 20.7835 43.8511 21.1378C44.138 20.9578 44.273 20.5585 44.0818 20.2603C43.9299 19.9622 43.5418 19.8272 43.2324 20.0185Z" fill="#DD8DA6"/>
</g>
</g>
<path d="M47.119 21.4473C46.894 20.7836 46.174 20.4348 45.5103 20.6598C44.8466 20.8848 44.4979 21.6048 44.7228 22.2685C44.7397 22.3135 44.7622 22.3585 44.7847 22.4035L40.8699 26.3633C41.1961 26.4477 41.4886 26.5996 41.7361 26.7965L45.4597 23.0335C45.7297 23.1403 46.039 23.1628 46.3315 23.056C46.9953 22.831 47.3496 22.111 47.119 21.4473Z" fill="#CDDEF7"/>
<path d="M45.319 22.0659C45.4315 22.3978 45.7971 22.5778 46.1346 22.4653C46.4721 22.3528 46.6464 21.9872 46.5339 21.6497C46.4215 21.3178 46.0558 21.1378 45.7184 21.2503C45.3809 21.3628 45.2009 21.7341 45.319 22.0659Z" fill="#F76F39"/>
<path d="M38.9127 27.134C38.9127 27.134 40.9545 25.6097 41.9219 27.134" stroke="#2E2E2E" stroke-width="1.1703" stroke-miterlimit="10" stroke-linecap="round"/>
<g opacity="0.16">
<path opacity="0.16" d="M44.0704 14.7482C44.1773 15.0745 43.3954 14.5007 43.1367 14.7426C42.8836 14.9788 42.7936 15.3332 42.6867 15.6594C42.2536 17.0263 41.213 18.3762 39.7337 18.5506C38.4794 18.6968 37.3263 17.9712 36.2013 17.4144C35.0764 16.8631 33.6196 16.4919 32.6296 17.2456C32.1684 17.6 31.904 18.1343 31.4934 18.5393C30.4641 19.5405 28.6585 19.4618 27.4436 18.6799C26.2286 17.8981 25.503 16.5819 25.008 15.2601C25.0137 15.2601 38.9012 -1.01242 44.0704 14.7482Z" fill="#DD8DA6"/>
</g>
<path d="M37.6639 15.5806C37.6639 15.5806 36.7021 18.0048 33.7209 17.6561" stroke="#2E2E2E" stroke-width="1.1703" stroke-miterlimit="10" stroke-linecap="round"/>
<path d="M41.3424 15.7324C41.3424 15.7324 42.0961 18.2242 45.0998 18.1286" stroke="#2E2E2E" stroke-width="1.1703" stroke-miterlimit="10" stroke-linecap="round"/>
<path d="M31.876 6.94659C35.2846 7.1322 47.5916 6.21536 44.8299 11.2495C42.0681 16.2837 31.6398 12.5826 31.6398 12.5826C31.6398 12.5826 29.3505 24.8728 22.6907 19.9455C22.6907 19.9455 22.2351 19.1411 21.1102 20.1761C21.1102 20.1761 16.1772 6.09162 31.876 6.94659Z" fill="#040302"/>
<path d="M56.6645 72.7172C56.6645 72.7172 50.7472 42.5177 36.9947 39.8009C32.5736 41.4209 28.2594 40.8977 23.9002 39.1484C8.70199 43.3052 4.23029 71.5528 4.23029 71.5528L56.6645 72.7172Z" fill="#443FE0"/>
<path d="M22.5108 53.3511L21.7121 71.941" stroke="#2E2E2E" stroke-width="1.1703" stroke-miterlimit="10" stroke-linecap="round"/>
<path opacity="0.4" d="M35.6953 21.0478C35.6503 21.7452 36.0778 22.3471 36.6515 22.3808C37.2252 22.4202 37.7258 21.8802 37.7708 21.1771C37.8158 20.474 37.3884 19.8778 36.8146 19.8441C36.2409 19.8047 35.7403 20.3447 35.6953 21.0478Z" fill="#F7BA28"/>
<path d="M36.2861 20.8397C36.2636 21.2222 36.4493 21.5428 36.708 21.5597C36.9667 21.5765 37.1917 21.2784 37.2142 20.9016C37.2367 20.5191 37.0511 20.1985 36.7924 20.1816C36.5393 20.1647 36.3086 20.4628 36.2861 20.8397Z" fill="#2E2E2E"/>
<path opacity="0.4" d="M44.245 21.0197C44.29 21.7228 43.8625 22.319 43.2888 22.3527C42.715 22.3921 42.2144 21.8521 42.1694 21.149C42.1244 20.4459 42.5519 19.8497 43.1256 19.816C43.6994 19.7822 44.2 20.3222 44.245 21.0197Z" fill="#F7BA28"/>
<path d="M43.6544 20.8172C43.6769 21.1997 43.4912 21.5203 43.2325 21.5372C42.9738 21.5541 42.7488 21.256 42.7263 20.8791C42.7038 20.4966 42.8894 20.176 43.1481 20.1591C43.4012 20.1423 43.6262 20.4404 43.6544 20.8172Z" fill="#2E2E2E"/>
</g>
</svg>
