<svg width="65" height="65" viewBox="0 0 65 65" fill="none" xmlns="http://www.w3.org/2000/svg">
<path d="M32.5 65C50.4493 65 65 50.4493 65 32.5C65 14.5507 50.4493 0 32.5 0C14.5507 0 0 14.5507 0 32.5C0 50.4493 14.5507 65 32.5 65Z" fill="#EAEAFF"/>
<mask id="mask0_2_3464" style="mask-type:alpha" maskUnits="userSpaceOnUse" x="0" y="0" width="65" height="65">
<path d="M32.5 65C50.4493 65 65 50.4493 65 32.5C65 14.5507 50.4493 0 32.5 0C14.5507 0 0 14.5507 0 32.5C0 50.4493 14.5507 65 32.5 65Z" fill="#F6F3EF"/>
</mask>
<g mask="url(#mask0_2_3464)">
<path d="M36.4929 19.3452C36.4929 19.3452 37.3595 16.869 40.3619 17.096" stroke="#2E2E2E" stroke-width="1.1703" stroke-miterlimit="10" stroke-linecap="round"/>
<path d="M47.3779 21.2126C47.3779 21.2126 47.3057 18.592 44.3755 17.8904" stroke="#2E2E2E" stroke-width="1.1703" stroke-miterlimit="10" stroke-linecap="round"/>
<path d="M23.4207 19.7888C24.1636 19.4587 25.1128 19.5618 25.835 20.0055C25.9898 15.6515 27.5993 11.5245 31.3548 9.54359C32.1493 9.12058 32.9644 8.85232 33.7898 8.69756C37.6691 8.00629 41.6826 10.1936 44.2001 13.3714C46.7175 16.5595 47.8215 20.8309 47.4914 24.9269C47.0477 30.4261 43.7668 35.8015 38.0612 36.2555C37.7723 36.2761 37.4834 36.2864 37.1945 36.2761L35.781 45.1491C35.2136 48.9047 31.4374 51.2777 27.8056 50.1531C24.6588 49.1833 22.812 45.9333 23.5961 42.7452C23.5961 42.7452 26.5263 29.4357 26.8874 27.6095C26.908 27.5166 26.8152 27.4341 26.7223 27.465C25.5771 27.7745 24.2152 27.5888 23.2763 26.9182C22.1001 26.0825 21.3779 24.5452 21.4501 23.0285C21.512 21.6666 22.2548 20.3047 23.4207 19.7888Z" stroke="#000402" stroke-width="1.191" stroke-miterlimit="10" stroke-linecap="round" stroke-linejoin="round"/>
<path d="M25.3604 24.4422C24.5763 24.2977 24.0398 23.6993 24.143 23.1009C24.2255 22.6469 24.6485 22.3271 25.1851 22.2549" stroke="#2E2E2E" stroke-width="1.258" stroke-miterlimit="10" stroke-linecap="round"/>
<path d="M42.1262 26.1237L43.0238 24.9682H43.0341L43.0651 26.0412C42.6834 25.7007 42.6214 25.4222 42.508 25.1436C42.4151 24.865 42.3532 24.5968 42.2913 24.3388C42.1881 23.8126 42.1159 23.2864 42.0746 22.7603C42.3222 23.2245 42.5905 23.6682 42.8794 24.0912C43.0238 24.2976 43.1786 24.4936 43.3334 24.669C43.4778 24.8341 43.6945 24.9991 43.7357 24.9579L45.0667 23.7507L43.7564 26.0309L43.7461 26.0412L42.3635 26.4849C42.2397 26.5261 42.1159 26.4539 42.0746 26.3404C42.0643 26.2579 42.0849 26.1753 42.1262 26.1237Z" fill="#2E2E2E"/>
<path d="M36.7508 39.3303L37.3182 36.1525C37.3182 36.1525 31.819 36.2557 28.4762 30.6946C28.4762 30.6946 29.6214 36.8232 36.7508 39.3303Z" fill="#000402" stroke="#000402" stroke-width="0.696" stroke-miterlimit="10" stroke-linecap="round" stroke-linejoin="round"/>
<path d="M35.9357 8.07859C39.2992 8.72859 51.6801 9.48177 48.2547 14.1143C44.819 18.7468 34.9452 13.65 34.9452 13.65C34.9452 13.65 30.9936 25.577 25.0301 19.7683C25.0301 19.7683 24.6897 18.9119 23.4309 19.7889C23.4206 19.7889 20.4285 5.09685 35.9357 8.07859Z" fill="#040302"/>
<path d="M36.1835 22.6572C37.7415 22.7088 39.6708 23.462 39.6708 23.462L38.5256 22.0278" stroke="#2E2E2E" stroke-width="1.0855" stroke-miterlimit="10" stroke-linecap="round" stroke-linejoin="round"/>
<path d="M46.5525 24.143C46.5525 24.143 45.1287 23.7819 44.0764 23.9779L45.1803 23.0081" stroke="#2E2E2E" stroke-width="1.0855" stroke-miterlimit="10" stroke-linecap="round" stroke-linejoin="round"/>
<path d="M38.216 28.7858C38.216 28.7858 40.197 27.0731 42.6938 28.7754" stroke="#2E2E2E" stroke-width="1.1703" stroke-miterlimit="10" stroke-linecap="round"/>
<path d="M56.9524 73.0684C56.9524 73.0684 51.0096 42.7247 37.1842 39.9906C32.7374 41.6207 28.404 41.0945 24.0294 39.3406C8.74927 43.5191 4.25085 71.9025 4.25085 71.9025L56.9524 73.0684Z" fill="#443FE0"/>
<path d="M22.6365 53.6096L21.8215 72.2945" stroke="#2E2E2E" stroke-width="1.1703" stroke-miterlimit="10" stroke-linecap="round"/>
<path d="M51.6388 48.2858C50.4729 48.4199 54.4348 44.0969 54.8578 43.2509C55.1983 42.5803 54.6927 42.1985 54.0943 42.6112C53.1245 43.2715 50.3078 46.862 49.6269 46.893C49.6269 45.8818 52.588 42.7557 52.165 42.0953C51.2364 40.6303 46.5213 47.966 46.284 48.3064C46.0467 48.6366 45.9951 47.3779 46.5213 45.1906C46.8618 43.7668 45.9435 42.6525 45.5308 43.9422C44.8911 45.9231 43.653 49.1009 43.5086 51.2779L38.061 57.6128L40.5475 64.4739C40.5475 64.4739 47.3467 56.5191 47.811 56.0549C51.9586 53.4961 54.3316 50.8652 55.0229 50.2255C56.4983 48.8636 56.7459 47.8525 55.9205 48.0588C55.384 48.193 53.0419 50.4525 52.5467 50.0914C52.2372 49.8644 56.5705 45.9438 55.8483 45.2215C55.0642 44.4374 52.4435 48.2033 51.6388 48.2858Z" fill="#F6F3EF"/>
<path d="M51.6388 48.2858C50.4729 48.4199 54.4348 44.0969 54.8578 43.2509C55.1983 42.5803 54.6927 42.1985 54.0943 42.6112C53.1245 43.2715 50.3078 46.862 49.6269 46.893C49.6269 45.8818 52.588 42.7557 52.165 42.0953C51.2364 40.6303 46.5213 47.966 46.284 48.3064C46.0467 48.6366 45.9951 47.3779 46.5213 45.1906C46.8618 43.7668 45.9435 42.6525 45.5308 43.9422C44.8911 45.9231 43.653 49.1009 43.5086 51.2779L38.061 57.6128L40.5475 64.4739C40.5475 64.4739 47.3467 56.5191 47.811 56.0549C51.9586 53.4961 54.3316 50.8652 55.0229 50.2255C56.4983 48.8636 56.7459 47.8525 55.9205 48.0588C55.384 48.193 53.0419 50.4525 52.5467 50.0914C52.2372 49.8644 56.5705 45.9438 55.8483 45.2215C55.0642 44.4374 52.4435 48.2033 51.6388 48.2858Z" stroke="#2E2E2E" stroke-width="1.1703" stroke-miterlimit="10" stroke-linecap="round"/>
<path d="M41.2389 50.1738L49.7198 61.7707L34.9452 77.4119L22.4405 69.3746L41.2389 50.1738Z" fill="#443FE0"/>
<path d="M41.2389 50.1738L26.8047 64.9278" stroke="#2E2E2E" stroke-width="1.0855" stroke-miterlimit="10" stroke-linecap="round" stroke-linejoin="round"/>
</g>
</svg>
