<svg width="65" height="65" viewBox="0 0 65 65" fill="none" xmlns="http://www.w3.org/2000/svg">
<path d="M32.5 65C50.4492 65 65 50.4492 65 32.5C65 14.5507 50.4492 0 32.5 0C14.5507 0 0 14.5507 0 32.5C0 50.4492 14.5507 65 32.5 65Z" fill="#EAEAFF"/>
<mask id="mask0_2_3544" style="mask-type:alpha" maskUnits="userSpaceOnUse" x="0" y="0" width="65" height="65">
<path d="M32.5001 65C50.4493 65 65.0001 50.4492 65.0001 32.5C65.0001 14.5507 50.4493 0 32.5001 0C14.5508 0 6.86646e-05 14.5507 6.86646e-05 32.5C6.86646e-05 50.4492 14.5508 65 32.5001 65Z" fill="#F6F3EF"/>
</mask>
<g mask="url(#mask0_2_3544)">
<path d="M41.3727 35.616L44.1172 34.2644" stroke="#2E2E2E" stroke-width="1.0855" stroke-miterlimit="10" stroke-linecap="round" stroke-linejoin="round"/>
<path d="M41.4761 36.978L44.5094 37.4217" stroke="#2E2E2E" stroke-width="1.0855" stroke-miterlimit="10" stroke-linecap="round" stroke-linejoin="round"/>
<path d="M41.1458 38.4019L43.5394 40.3003" stroke="#2E2E2E" stroke-width="1.0855" stroke-miterlimit="10" stroke-linecap="round" stroke-linejoin="round"/>
<path d="M35.7292 23.8231C35.7292 23.8231 38.8554 23.493 39.6602 21.7803" stroke="#F7BA28" stroke-width="0.9328" stroke-miterlimit="10" stroke-linecap="round" stroke-linejoin="round"/>
<path d="M46.6451 23.2247C46.6451 23.2247 44.8602 22.9977 44.0451 21.4294" stroke="#F7BA28" stroke-width="0.9328" stroke-miterlimit="10" stroke-linecap="round" stroke-linejoin="round"/>
<path d="M38.3705 27.0111C38.3705 27.0111 40.1039 25.0302 42.8277 26.3715" stroke="#2E2E2E" stroke-width="1.1703" stroke-miterlimit="10" stroke-linecap="round"/>
<path d="M22.2754 20.2121C22.9563 19.7581 23.9055 19.6859 24.7 19.9851C24.0706 15.6621 24.927 11.2875 28.2801 8.64621C28.992 8.08907 29.7452 7.66606 30.5293 7.37717C34.2436 5.99463 38.5976 7.43907 41.6619 10.1319C44.7262 12.8248 46.5833 16.8486 46.9857 20.9549C47.5325 26.4645 45.2627 32.3661 39.7016 33.8518C39.423 33.924 39.1341 33.9859 38.8452 34.0272L39.0412 43.0446C39.1547 46.8621 35.8428 49.8851 32.0563 49.4311C28.7754 49.0391 26.3714 46.1605 26.5571 42.8589C26.5571 42.8589 27.0627 29.178 27.0936 27.3105C27.0936 27.2073 26.9904 27.1557 26.9079 27.197C25.8349 27.7129 24.4524 27.7748 23.4 27.2795C22.0897 26.6708 21.0992 25.278 20.9031 23.7613C20.7174 22.4097 21.2127 20.9343 22.2754 20.2121Z" stroke="#000402" stroke-width="1.191" stroke-miterlimit="10" stroke-linecap="round" stroke-linejoin="round"/>
<path d="M25.0093 24.4628C24.2149 24.4628 23.5649 23.9676 23.5649 23.3588C23.5649 22.8945 23.926 22.5025 24.4419 22.3374" stroke="#2E2E2E" stroke-width="1.258" stroke-miterlimit="10" stroke-linecap="round"/>
<path d="M38.9585 37.143L38.9482 33.9033C38.9482 33.9033 33.5315 34.997 29.2292 30.0962C29.2292 30.0859 31.4577 35.9359 38.9585 37.143Z" fill="#000402" stroke="#000402" stroke-width="0.696" stroke-miterlimit="10" stroke-linecap="round" stroke-linejoin="round"/>
<path d="M32.5307 6.3866C35.9768 6.41755 48.3474 4.94216 45.7887 10.1422C43.23 15.3422 32.5514 12.0818 32.5514 12.0818C32.5514 12.0818 30.7974 24.5866 23.8538 19.9128C23.8538 19.9128 23.3585 19.1183 22.2752 20.2223C22.2752 20.212 16.6625 6.23184 32.5307 6.3866Z" fill="#040302"/>
<path d="M35.5435 20.9239C37.0498 20.5009 39.1236 20.6247 39.1236 20.6247L37.5966 19.6033" stroke="#2E2E2E" stroke-width="1.0855" stroke-miterlimit="10" stroke-linecap="round" stroke-linejoin="round"/>
<path d="M45.9331 19.17C45.9331 19.17 44.4577 19.2526 43.5085 19.7787L44.272 18.52" stroke="#2E2E2E" stroke-width="1.0855" stroke-miterlimit="10" stroke-linecap="round" stroke-linejoin="round"/>
<path d="M59.7586 71.2936C59.7586 71.2936 53.434 42.4564 39.2682 39.9802C34.7388 41.5691 30.3023 41.1048 25.8039 39.4746C10.2245 43.581 5.86022 70.6437 5.86022 70.6437L59.7586 71.2936Z" fill="#443FE0"/>
<path d="M41.8992 23.1113L42.5801 21.8113L42.5904 21.801L42.8071 22.8533C42.3738 22.5851 42.2499 22.3168 42.0952 22.0692C41.9507 21.8113 41.8476 21.5637 41.7444 21.3057C41.5484 20.8002 41.3833 20.2946 41.2492 19.7891C41.5793 20.2018 41.9198 20.5938 42.2809 20.9549C42.4666 21.1303 42.6523 21.3057 42.838 21.4502C43.0134 21.5843 43.2507 21.7081 43.292 21.6668L44.365 20.3256L43.519 22.7192L43.5087 22.7295L42.219 23.4208C42.1055 23.4827 41.9714 23.4414 41.9095 23.328C41.8579 23.2557 41.8579 23.1732 41.8992 23.1113Z" fill="#2E2E2E"/>
<path d="M39.6808 15.2493C39.6808 15.2493 38.6388 18.2516 34.9864 17.9937" stroke="#2E2E2E" stroke-width="1.1703" stroke-miterlimit="10" stroke-linecap="round"/>
<path d="M41.796 14.8262C41.796 14.8262 42.673 17.3024 45.696 17.0754" stroke="#2E2E2E" stroke-width="1.1703" stroke-miterlimit="10" stroke-linecap="round"/>
<g opacity="0.4">
<g opacity="0.4">
<path opacity="0.4" d="M33.573 37.3285C33.2532 37.3698 32.9849 37.4833 32.7992 37.7722C32.6547 37.9991 32.5928 38.288 32.6651 38.546C32.8198 39.1237 33.4285 39.3817 33.9651 39.1547C34.5738 38.8968 34.7285 38.1539 34.3055 37.6587C33.8722 37.1428 33.0674 37.2356 32.7063 37.7825C32.3968 38.2468 32.5 38.8761 32.9436 39.2166C33.3254 39.5158 33.8619 39.5777 34.2849 39.3198C34.7595 39.0412 34.9555 38.4428 34.8317 37.9166C34.7079 37.4214 34.2849 37.0293 33.7897 36.9158C33.2738 36.8023 32.7579 36.9261 32.3658 37.2769C32.0357 37.5658 31.8087 38.0404 31.8397 38.4841C31.9016 39.5468 33.1397 40.1658 34.1095 39.9491C34.6151 39.8356 35.0484 39.4333 35.1722 38.9174C35.296 38.3912 35.1516 37.8753 34.8111 37.4626C34.1611 36.6888 32.8405 36.5341 32.0976 37.246C31.396 37.9166 31.4166 39.0309 32.0666 39.7325C32.727 40.4341 33.8619 40.5269 34.646 39.9698C35.5127 39.361 35.9976 38.1023 35.2238 37.2253C34.9143 36.8642 34.4397 36.6682 33.996 36.5444C33.5214 36.4103 32.9952 36.3587 32.5 36.4103C31.9325 36.4722 31.4166 36.7301 31.1793 37.2769C30.973 37.7309 30.942 38.2468 31.0762 38.7317C31.3547 39.7222 32.2214 40.3618 33.2222 40.465C34.1611 40.5579 35.1206 40.0936 35.6262 39.2991C36.142 38.4841 36.0285 37.3285 35.2754 36.6991C34.6047 36.1317 33.6968 36.0285 32.8508 36.0801C32.3658 36.111 31.8087 36.142 31.3651 36.3793C30.9214 36.6166 30.6635 37.0809 30.5912 37.5658C30.4674 38.3396 30.6119 39.2269 31.2 39.7944C31.6952 40.269 32.3658 40.5269 33.0468 40.5372C33.4801 40.5476 33.9238 40.465 34.3262 40.3206C34.646 40.2071 34.9039 39.8666 34.7801 39.5158C34.677 39.196 34.3158 38.938 33.9754 39.0618C33.8309 39.1134 33.6865 39.1547 33.542 39.1856C33.4801 39.196 33.4182 39.2063 33.3563 39.2166C33.2738 39.2269 33.3666 39.2166 33.377 39.2166C33.3357 39.2166 33.3047 39.2269 33.2635 39.2269C33.15 39.2372 33.0262 39.2269 32.9127 39.2269C32.892 39.2269 32.8611 39.2166 32.8405 39.2166C32.8508 39.2166 32.9643 39.2476 32.892 39.2269C32.8301 39.2063 32.7682 39.2063 32.7063 39.1856C32.6651 39.1753 32.6238 39.165 32.5722 39.1444C32.5309 39.1341 32.4381 39.0722 32.5103 39.1237C32.5928 39.1856 32.469 39.1031 32.4381 39.0928C32.3968 39.0722 32.3555 39.0515 32.3246 39.0309C32.2936 39.0103 32.2627 38.9896 32.2317 38.969C32.1285 38.8968 32.2008 38.9174 32.242 38.9793C32.2111 38.9277 32.1389 38.8864 32.0976 38.8452C32.077 38.8245 32.0563 38.8039 32.0357 38.773C31.9635 38.6904 32.0666 38.7936 32.077 38.8349C32.0563 38.7626 31.9944 38.7007 31.9635 38.6388C32.0047 38.7214 31.9428 38.5769 31.9325 38.546C31.9119 38.4841 31.9016 38.4222 31.8809 38.3499C31.8809 38.3293 31.8603 38.2261 31.8706 38.3293C31.8706 38.2983 31.8603 38.2674 31.8603 38.2261C31.8603 38.1436 31.85 38.0714 31.8603 37.9888C31.8603 37.9269 31.8706 37.865 31.8706 37.8134C31.8603 37.9579 31.8809 37.7722 31.8912 37.7309C31.9016 37.6999 31.9532 37.5658 31.9222 37.6277C31.8912 37.6896 32.0357 37.4936 31.9325 37.6071C31.9532 37.5761 31.9841 37.5555 32.0151 37.5245C31.9738 37.5555 31.9944 37.5761 32.0047 37.5452C32.0151 37.5245 32.046 37.5245 31.9841 37.5452C32.0151 37.5349 32.046 37.5245 32.077 37.5142C32.1389 37.4936 32.2008 37.4833 32.2627 37.473C32.3039 37.4626 32.3452 37.4626 32.3968 37.4523C32.5206 37.4317 32.3246 37.4626 32.4484 37.442C32.7373 37.4007 33.0365 37.3801 33.3254 37.3904C33.4492 37.3904 33.5627 37.4007 33.6865 37.411C33.8206 37.4214 33.6039 37.3904 33.7278 37.4214C33.7897 37.4317 33.8516 37.442 33.9135 37.4626C33.9754 37.473 34.0373 37.4936 34.0992 37.5142C34.1508 37.5349 34.2436 37.5761 34.1405 37.5245C34.192 37.5452 34.2333 37.5658 34.2849 37.5968C34.3262 37.6174 34.4706 37.7309 34.3674 37.638C34.4087 37.669 34.45 37.6999 34.4809 37.7412C34.5222 37.7825 34.5635 37.865 34.5119 37.7722C34.5428 37.8341 34.5841 37.8856 34.6151 37.9476C34.6563 38.0095 34.6151 37.9476 34.6047 37.9269C34.6151 37.9682 34.6254 38.0095 34.6357 38.0404C34.6666 38.1539 34.646 37.9888 34.646 38.1126C34.646 38.1539 34.646 38.1952 34.646 38.2364C34.646 38.2468 34.646 38.3499 34.646 38.2674C34.646 38.2158 34.6254 38.3603 34.6151 38.3912C34.6047 38.4325 34.5428 38.5872 34.5841 38.4944C34.5531 38.5563 34.5222 38.6182 34.4809 38.6698C34.4603 38.6904 34.45 38.7214 34.4293 38.742C34.4397 38.7317 34.4912 38.6801 34.4397 38.7214C34.3984 38.7626 34.3571 38.8039 34.3158 38.8452C34.3055 38.8555 34.2127 38.938 34.2746 38.8864C34.3262 38.8452 34.2333 38.9174 34.223 38.9174C34.1714 38.9483 34.1198 38.9793 34.0682 39.0103C34.0373 39.0309 33.8722 39.0928 33.9857 39.0515C33.9238 39.0722 33.8619 39.0928 33.8103 39.1134C33.7793 39.1237 33.7484 39.1341 33.7174 39.1341C33.7071 39.1341 33.5833 39.165 33.6452 39.1547C33.7174 39.1444 33.6143 39.1547 33.6039 39.1547C33.5627 39.1547 33.5214 39.165 33.4801 39.165C33.4182 39.165 33.3563 39.165 33.2944 39.1547C33.1706 39.1444 33.3357 39.1753 33.2222 39.1444C33.1397 39.1237 33.0571 39.1031 32.9849 39.0722C32.8714 39.0309 33.0158 39.0928 32.9127 39.0412C32.8611 39.0103 32.7992 38.9793 32.7476 38.9483C32.6444 38.8864 32.7785 38.9896 32.696 38.9071C32.6341 38.8555 32.5825 38.7936 32.5309 38.742C32.6032 38.8142 32.5206 38.7214 32.4897 38.6801C32.4587 38.6285 32.4278 38.5769 32.4071 38.5253C32.3452 38.4118 32.3968 38.4944 32.4071 38.5253C32.3968 38.4944 32.3865 38.4737 32.3762 38.4428C32.3555 38.3809 32.3452 38.3087 32.3246 38.2468C32.3555 38.3499 32.3246 38.2468 32.3246 38.1849C32.3246 38.1642 32.3246 37.9682 32.3246 38.0404C32.3143 38.1023 32.3452 37.9579 32.3555 37.9269C32.3658 37.896 32.3762 37.8753 32.3865 37.8444C32.3555 37.9372 32.3968 37.865 32.4071 37.8134C32.4278 37.7515 32.4071 37.8134 32.3865 37.8341C32.4071 37.8134 32.4278 37.7928 32.4484 37.7722C32.4897 37.7206 32.4484 37.7722 32.4278 37.7825C32.4278 37.7825 32.5206 37.7309 32.469 37.7618C32.4174 37.7825 32.5103 37.7515 32.5103 37.7515C32.5516 37.7412 32.5928 37.7309 32.6444 37.7206C32.5412 37.7412 32.7476 37.7206 32.7785 37.7103C32.9333 37.6999 33.0984 37.7103 33.2531 37.7206C33.2531 37.7206 33.3666 37.7309 33.3151 37.7309C33.2635 37.7206 33.377 37.7412 33.3666 37.7412C33.4492 37.7618 33.5317 37.7722 33.6143 37.7928C33.6968 37.8134 33.7793 37.8341 33.8619 37.865C33.8928 37.8753 34.0579 37.9372 33.9547 37.896C34.0063 37.9166 34.0579 37.9476 34.1095 37.9785C34.1405 37.9888 34.1611 38.0095 34.1817 38.0198C34.2127 38.0404 34.2952 38.1126 34.2127 38.0404C34.2539 38.0817 34.2952 38.1126 34.3365 38.1642C34.2643 38.0714 34.3571 38.2364 34.3158 38.1333C34.3262 38.1642 34.3262 38.1952 34.3365 38.2261C34.3674 38.3087 34.3468 38.1436 34.3365 38.2364C34.3365 38.2674 34.3365 38.2983 34.3365 38.3293C34.3365 38.3912 34.3158 38.4015 34.3365 38.3396C34.3158 38.4015 34.3055 38.4634 34.2849 38.5253C34.3158 38.4325 34.2436 38.5976 34.223 38.6182C34.2127 38.6388 34.192 38.6698 34.1714 38.6904C34.1817 38.6801 34.2333 38.6182 34.1817 38.6698C34.1301 38.7214 34.0889 38.773 34.0373 38.8245C34.0373 38.8245 33.9547 38.8968 34.0166 38.8452C34.0785 38.7936 33.9754 38.8761 33.9651 38.8761C33.9135 38.9071 33.8619 38.9277 33.8103 38.969C33.7484 39.0103 33.8206 38.969 33.8309 38.9587C33.8 38.969 33.7793 38.9793 33.7484 38.9896C33.7174 38.9999 33.6968 39.0103 33.6658 39.0103C33.6452 39.0103 33.4905 39.0412 33.5833 39.0309C33.6555 39.0206 33.4904 39.0309 33.4698 39.0309C33.4389 39.0309 33.4182 39.0309 33.3873 39.0206C33.3976 39.0206 33.4905 39.0515 33.4285 39.0206C33.3666 38.9999 33.3047 38.9896 33.2428 38.969C33.3563 39.0103 33.2222 38.9483 33.1809 38.9277C33.1603 38.9174 33.1397 38.8968 33.1087 38.8864C33.119 38.8968 33.1809 38.9587 33.1293 38.9071C33.0881 38.8658 33.0365 38.8142 32.9952 38.773C33.0674 38.8452 32.9952 38.773 32.9746 38.7317C32.9643 38.711 32.9539 38.6801 32.9333 38.6595C32.892 38.5872 32.9539 38.742 32.9436 38.6595C32.9436 38.6388 32.9333 38.6079 32.923 38.5872C32.892 38.4737 32.923 38.5872 32.923 38.6079C32.923 38.5563 32.923 38.5047 32.923 38.4531C32.923 38.4634 32.892 38.5666 32.9127 38.5047C32.923 38.4841 32.923 38.4531 32.9333 38.4325C32.9436 38.4118 32.9539 38.3809 32.9539 38.3603C32.9643 38.2983 32.9024 38.4531 32.9539 38.3499C32.9849 38.3087 33.0055 38.2674 33.0365 38.2158C32.9849 38.3087 33.0262 38.2364 33.0674 38.1952C33.0778 38.1849 33.1397 38.1229 33.0778 38.1849C33.0158 38.2364 33.0984 38.1745 33.119 38.1642C33.1397 38.1539 33.1603 38.1436 33.1809 38.123C33.119 38.1539 33.1087 38.1539 33.1809 38.1333C33.1809 38.1333 33.2944 38.1126 33.2325 38.123C33.1706 38.1333 33.2841 38.123 33.2841 38.123C33.3151 38.123 33.3563 38.123 33.3873 38.123C33.5008 38.123 33.3047 38.1023 33.4182 38.123C33.4801 38.1333 33.5317 38.1539 33.5936 38.1642C33.6246 38.1745 33.6452 38.1849 33.6762 38.1952C33.6143 38.1745 33.6349 38.1745 33.6762 38.2055C33.6968 38.2158 33.7278 38.2364 33.7484 38.2468C33.769 38.2571 33.8619 38.3293 33.8 38.2777C33.7587 38.2364 33.8619 38.3499 33.8825 38.3603C33.9341 38.4118 33.8722 38.3499 33.8722 38.3396C33.8825 38.3603 33.9031 38.3912 33.9135 38.4118C33.9547 38.4634 33.9135 38.4015 33.9032 38.3809C33.9238 38.4222 33.9238 38.4737 33.9444 38.515C33.9651 38.5872 33.9444 38.4944 33.9444 38.4737C33.9444 38.4944 33.9444 38.5356 33.9444 38.5563C33.9547 38.6182 33.9547 38.5357 33.9547 38.515C33.9547 38.5357 33.9341 38.5666 33.9341 38.5976C33.9341 38.6595 33.9444 38.5872 33.9547 38.5666C33.9341 38.5976 33.9238 38.6285 33.9032 38.6595C33.9135 38.6491 33.9754 38.5872 33.9238 38.6285C33.8516 38.6904 34.0063 38.5872 33.9238 38.6285C33.9032 38.6388 33.8722 38.6595 33.8516 38.6698C33.8722 38.6595 33.9444 38.6491 33.8825 38.6491C33.8619 38.6491 33.8206 38.6595 33.8 38.6698C33.9031 38.6388 33.8619 38.6698 33.8103 38.6698C33.7484 38.6698 33.6968 38.6698 33.6349 38.6698C33.7587 38.6801 33.6039 38.6595 33.5524 38.6491C33.5111 38.6388 33.3563 38.5666 33.4698 38.6285C33.4182 38.5976 33.3563 38.5666 33.3047 38.5356C33.2016 38.4841 33.3254 38.5666 33.2428 38.4841C33.2428 38.4841 33.1706 38.4015 33.2119 38.4634C33.2325 38.4944 33.2325 38.4841 33.1912 38.4325C33.2016 38.4531 33.2119 38.4737 33.2119 38.4944C33.2016 38.4737 33.1912 38.4428 33.1912 38.4222C33.2016 38.3603 33.1809 38.4634 33.1912 38.4737C33.1912 38.4737 33.1912 38.4118 33.1912 38.4015C33.2119 38.3396 33.1706 38.4428 33.1809 38.4531C33.1706 38.4325 33.2428 38.2571 33.2016 38.3396C33.1706 38.4118 33.2532 38.2674 33.2635 38.2468C33.2119 38.3396 33.2532 38.2777 33.2944 38.2261C33.3254 38.1952 33.377 38.1849 33.2841 38.2364C33.3047 38.2261 33.3254 38.2055 33.346 38.1952C33.4182 38.1849 33.3151 38.2055 33.3047 38.2055C33.3254 38.1952 33.3563 38.1849 33.377 38.1849C33.4079 38.1745 33.4285 38.1745 33.4595 38.1642C33.3976 38.1745 33.3873 38.1745 33.4595 38.1745C33.4905 38.1745 33.5833 38.1952 33.4595 38.1642C33.4801 38.1745 33.5214 38.1849 33.542 38.1849C33.6039 38.1849 33.542 38.1745 33.5214 38.1642C33.542 38.1745 33.573 38.1952 33.5936 38.2055C33.6658 38.2364 33.5627 38.2055 33.573 38.1849C33.573 38.1952 33.6555 38.2571 33.5936 38.1952C33.542 38.1436 33.5936 38.1952 33.6039 38.2158C33.5627 38.0507 33.6039 38.2055 33.6039 38.2261C33.6039 38.2983 33.6039 38.1849 33.6039 38.1745C33.6039 38.1952 33.6143 38.2261 33.6039 38.2468C33.5833 38.319 33.6143 38.2055 33.6143 38.1952C33.6143 38.2055 33.5936 38.288 33.6143 38.2158C33.6349 38.1436 33.6143 38.2055 33.6039 38.2261C33.6762 38.1126 33.6452 38.1849 33.6143 38.2055C33.6452 38.1849 33.6762 38.1642 33.7071 38.1436C33.7484 38.123 33.7587 38.1229 33.7278 38.1333C33.6968 38.1436 33.6968 38.1436 33.7484 38.1333C33.7587 38.1333 33.7793 38.1333 33.7897 38.1333C33.7793 38.1333 33.7587 38.1333 33.7484 38.1333C33.7381 38.1333 33.7381 38.1333 33.7278 38.1333C33.6865 38.1333 33.6968 38.1333 33.7484 38.1333C33.7587 38.1126 33.8206 38.1539 33.7484 38.123C33.9031 38.1849 33.8103 38.1539 33.7897 38.1333C33.6968 38.061 33.8722 38.2158 33.7897 38.1333C33.8722 38.2158 33.8619 38.288 33.8722 38.3912C33.8825 38.4634 33.9135 38.3603 33.8619 38.4118C33.8412 38.4325 33.8309 38.4737 33.8103 38.4944C33.7381 38.5769 33.6039 38.5872 33.5008 38.5666C33.2222 38.5047 33.2428 38.0507 33.4595 37.9269C33.4595 37.9269 33.5936 37.8753 33.5214 37.896C33.4492 37.9166 33.5936 37.8856 33.5936 37.8856C33.769 37.8753 33.9341 38.0301 33.9857 38.1849C34.0063 38.2468 33.996 38.319 33.9754 38.3706C33.9857 38.3396 34.0063 38.3087 33.9651 38.3706C33.8722 38.5253 33.8206 38.5563 33.6143 38.5872C33.9547 38.546 34.2849 38.319 34.2746 37.9269C34.2127 37.669 33.9341 37.2769 33.573 37.3285Z" fill="#DD8DA6"/>
</g>
</g>
<path d="M34.6047 47.0581C33.542 47.5739 35.8325 42.1469 35.9459 41.2081C36.0388 40.4549 35.4404 40.2692 35.0071 40.8573C34.3158 41.8065 32.8507 46.1501 32.2213 46.4184C31.8809 45.4589 33.6245 41.5073 33.0158 41.0223C31.6436 39.9493 29.6523 48.4819 29.5388 48.8842C29.4253 49.2763 28.961 48.1001 28.7134 45.8612C28.5586 44.3962 27.3102 43.6533 27.3515 45.0152C27.4134 47.1096 27.3102 50.5247 27.8983 52.6398L24.8753 60.4708L29.5388 66.1247C29.5388 66.1247 33.2944 56.3128 33.5832 55.7144C36.6475 51.8969 38.0094 48.6057 38.4428 47.77C39.3817 45.985 39.2682 44.943 38.5666 45.4176C38.1023 45.7271 36.6578 48.6573 36.0491 48.4715C35.6777 48.3581 38.4634 43.189 37.5348 42.7454C36.5444 42.2501 35.3269 46.7073 34.6047 47.0581Z" fill="#F6F3EF"/>
<path d="M34.6047 47.0581C33.542 47.5739 35.8325 42.1469 35.9459 41.2081C36.0388 40.4549 35.4404 40.2692 35.0071 40.8573C34.3158 41.8065 32.8507 46.1501 32.2213 46.4184C31.8809 45.4589 33.6245 41.5073 33.0158 41.0223C31.6436 39.9493 29.6523 48.4819 29.5388 48.8842C29.4253 49.2763 28.961 48.1001 28.7134 45.8612C28.5586 44.3962 27.3102 43.6533 27.3515 45.0152C27.4134 47.1096 27.3102 50.5247 27.8983 52.6398L24.8753 60.4708L29.5388 66.1247C29.5388 66.1247 33.2944 56.3128 33.5832 55.7144C36.6475 51.8969 38.0094 48.6057 38.4428 47.77C39.3817 45.985 39.2682 44.943 38.5666 45.4176C38.1023 45.7271 36.6578 48.6573 36.0491 48.4715C35.6777 48.3581 38.4634 43.189 37.5348 42.7454C36.5444 42.2501 35.3269 46.7073 34.6047 47.0581Z" stroke="#2E2E2E" stroke-width="1.1703" stroke-miterlimit="10" stroke-linecap="round"/>
<path d="M25.3809 52.3406L37.3182 60.4604L28.5999 80.239L14.0626 76.8445L25.3809 52.3406Z" fill="#443FE0"/>
<path d="M25.3809 52.3406L16.6833 71.1699" stroke="#2E2E2E" stroke-width="1.0855" stroke-miterlimit="10" stroke-linecap="round" stroke-linejoin="round"/>
</g>
</svg>
