<svg width="65" height="65" viewBox="0 0 65 65" fill="none" xmlns="http://www.w3.org/2000/svg">
<path d="M32.5 65C50.4493 65 65 50.4493 65 32.5C65 14.5507 50.4493 0 32.5 0C14.5507 0 0 14.5507 0 32.5C0 50.4493 14.5507 65 32.5 65Z" fill="#EAEAFF"/>
<mask id="mask0_2_3590" style="mask-type:alpha" maskUnits="userSpaceOnUse" x="0" y="0" width="65" height="65">
<path d="M32.5 65C50.4493 65 65 50.4493 65 32.5C65 14.5507 50.4493 0 32.5 0C14.5507 0 0 14.5507 0 32.5C0 50.4493 14.5507 65 32.5 65Z" fill="#F6F3EF"/>
</mask>
<g mask="url(#mask0_2_3590)">
<path d="M21.3775 20.439C22.0791 20.0159 23.0386 19.985 23.8228 20.3255C23.3791 15.9612 24.4315 11.6175 27.9085 9.1207C28.641 8.59451 29.4252 8.20244 30.2196 7.95483C34.0061 6.73737 38.3085 8.37784 41.249 11.2151C44.1998 14.0524 45.8712 18.1691 46.1085 22.3064C46.418 27.8572 43.8696 33.6659 38.2363 34.904C37.9474 34.9659 37.6585 35.0072 37.3696 35.0485L37.1632 44.0969C37.1013 47.9247 33.6553 50.8032 29.8791 50.1842C26.6085 49.6477 24.3283 46.6556 24.6688 43.354C24.6688 43.354 25.7831 29.6628 25.8966 27.7953C25.9069 27.6921 25.8037 27.6302 25.7109 27.6715C24.6069 28.1358 23.2244 28.1358 22.1926 27.5993C20.9029 26.9286 19.9744 25.4945 19.8402 23.9572C19.7267 22.5643 20.2839 21.0993 21.3775 20.439Z" stroke="#000402" stroke-width="1.191" stroke-miterlimit="10" stroke-linecap="round" stroke-linejoin="round"/>
<path d="M23.9363 24.8134C23.1419 24.7824 22.5125 24.2563 22.5435 23.6372C22.5641 23.1729 22.9459 22.7912 23.4721 22.6467" stroke="#2E2E2E" stroke-width="1.258" stroke-miterlimit="10" stroke-linecap="round"/>
<path d="M40.9189 24.215L41.6514 22.9459H41.6617L41.8371 23.9983C41.4141 23.7094 41.3006 23.4412 41.1562 23.1832C41.022 22.9253 40.9292 22.6674 40.8363 22.4094C40.6609 21.8936 40.5165 21.3777 40.403 20.8618C40.7125 21.2951 41.0427 21.6975 41.3831 22.0793C41.5585 22.265 41.7339 22.4404 41.9197 22.5951C42.0847 22.7396 42.322 22.8737 42.3633 22.8325L43.4673 21.5944L42.5284 23.8848L42.5181 23.8952L41.1974 24.5348C41.0839 24.5864 40.9498 24.5452 40.8879 24.4317C40.8673 24.3594 40.8776 24.2769 40.9189 24.215Z" fill="#2E2E2E"/>
<path d="M37.3386 38.1436L37.4727 34.8936C37.4727 34.8936 31.9941 35.75 27.8981 30.6428C27.9084 30.6428 29.8791 36.6063 37.3386 38.1436Z" fill="#000402" stroke="#000402" stroke-width="0.696" stroke-miterlimit="10" stroke-linecap="round" stroke-linejoin="round"/>
<path d="M39.4022 27.4754C39.4022 27.4754 41.4657 25.9278 42.4459 27.4754" stroke="#2E2E2E" stroke-width="1.1703" stroke-miterlimit="10" stroke-linecap="round"/>
<path d="M40.1346 16.8484C40.1346 16.8484 39.1648 19.3039 36.1418 18.9532" stroke="#2E2E2E" stroke-width="1.1703" stroke-miterlimit="10" stroke-linecap="round"/>
<path d="M41.868 15.9302C41.868 15.9302 42.6315 18.458 45.6751 18.3548" stroke="#2E2E2E" stroke-width="1.1703" stroke-miterlimit="10" stroke-linecap="round"/>
<path d="M32.2831 7.03647C35.7291 7.22219 48.1926 6.29362 45.3966 11.3904C42.6005 16.4873 32.0354 12.742 32.0354 12.742C32.0354 12.742 29.714 25.1952 22.9664 20.2016C22.9664 20.2016 22.5124 19.3865 21.3672 20.4389C21.3775 20.4389 16.3839 6.16981 32.2831 7.03647Z" fill="#040302"/>
<path d="M57.3855 73.6357C57.3855 73.6357 51.3911 43.0547 37.4625 40.3C32.9847 41.9404 28.6101 41.4143 24.2046 39.6396C8.81092 43.8595 4.28156 72.4595 4.28156 72.4595L57.3855 73.6357Z" fill="#443FE0"/>
<path d="M22.8012 54.0222L21.9861 72.8516" stroke="#2E2E2E" stroke-width="1.1703" stroke-miterlimit="10" stroke-linecap="round"/>
<path opacity="0.4" d="M36.1418 21.3158C36.1006 22.0277 36.5339 22.6262 37.1117 22.6674C37.6895 22.7087 38.2053 22.1619 38.2466 21.45C38.2879 20.7381 37.8545 20.1397 37.2768 20.0984C36.699 20.0571 36.1934 20.6039 36.1418 21.3158Z" fill="#F7BA28"/>
<path d="M36.7401 21.1096C36.7195 21.4914 36.9052 21.8215 37.1631 21.8422C37.4211 21.8628 37.6481 21.5636 37.679 21.1715C37.6996 20.7898 37.5139 20.4596 37.256 20.439C36.9981 20.4184 36.7711 20.7176 36.7401 21.1096Z" fill="#2E2E2E"/>
<path opacity="0.4" d="M44.8086 21.2849C44.8499 21.9968 44.4166 22.5952 43.8388 22.6365C43.261 22.6777 42.7451 22.1309 42.7039 21.419C42.6626 20.7071 43.0959 20.1087 43.6737 20.0674C44.2515 20.0365 44.757 20.5833 44.8086 21.2849Z" fill="#F7BA28"/>
<path d="M44.21 21.0784C44.2307 21.4601 44.045 21.7903 43.787 21.8109C43.5291 21.8315 43.3021 21.5323 43.2712 21.1403C43.2505 20.7585 43.4362 20.4284 43.6942 20.4077C43.9521 20.3974 44.1791 20.6966 44.21 21.0784Z" fill="#2E2E2E"/>
<path d="M50.6894 9.65714L48.4092 14.7849L48.2132 14.496L50.5759 14.4651H50.5862C50.6997 14.4651 50.7925 14.5476 50.7925 14.6611C50.7925 14.6921 50.7822 14.723 50.7719 14.754L48.6259 19.0254L50.3902 14.5889L50.5862 14.8778L48.2235 14.9087C48.11 14.9087 48.0172 14.8159 48.0172 14.7024C48.0172 14.6714 48.0275 14.6405 48.0378 14.6198L50.3179 9.49206C50.3592 9.38889 50.483 9.3373 50.5965 9.38889C50.6894 9.43016 50.741 9.55397 50.6894 9.65714Z" fill="#2E2E2E" stroke="#2E2E2E" stroke-width="0.457" stroke-miterlimit="10" stroke-linecap="round"/>
<path d="M12.061 12.1952L15.5379 16.5905L15.1871 16.6214L16.2498 14.5063V14.496C16.3014 14.3928 16.4252 14.3619 16.5181 14.4032C16.5491 14.4135 16.5697 14.4444 16.5903 14.4651L19.376 18.3444L16.2705 14.723L16.6213 14.692L15.5586 16.8071C15.507 16.9103 15.3832 16.9516 15.28 16.9C15.2491 16.8897 15.2284 16.869 15.2078 16.8484L11.7308 12.4532C11.6586 12.3603 11.6792 12.2365 11.7618 12.1643C11.8649 12.092 11.9887 12.1127 12.061 12.1952Z" fill="#2E2E2E" stroke="#2E2E2E" stroke-width="0.457" stroke-miterlimit="10" stroke-linecap="round"/>
</g>
</svg>
