<svg width="65" height="67" viewBox="0 0 65 67" fill="none" xmlns="http://www.w3.org/2000/svg">
<path d="M32.5 66.394C50.4493 66.394 65 51.8433 65 33.894C65 15.9448 50.4493 1.39404 32.5 1.39404C14.5507 1.39404 0 15.9448 0 33.894C0 51.8433 14.5507 66.394 32.5 66.394Z" fill="#EAEAFF"/>
<mask id="mask0_2_3419" style="mask-type:alpha" maskUnits="userSpaceOnUse" x="0" y="0" width="65" height="66">
<path d="M32.5 65.9939C50.4493 65.9939 65 51.4431 65 33.4939C65 15.5446 50.4493 0.993896 32.5 0.993896C14.5507 0.993896 0 15.5446 0 33.4939C0 51.4431 14.5507 65.9939 32.5 65.9939Z" fill="#F6F3EF"/>
</mask>
<g mask="url(#mask0_2_3419)">
<g opacity="0.4">
<g opacity="0.4">
<path opacity="0.4" d="M36.5366 23.1445C36.1733 23.3715 36.0371 23.8199 36.2471 24.2059C36.4288 24.5465 36.8545 24.7054 37.2234 24.6089C37.6264 24.501 37.9272 24.1094 37.8705 23.6894C37.8194 23.3318 37.5356 23.048 37.1837 22.9629C36.5196 22.8039 35.7931 23.2864 35.8271 24.0072C35.8441 24.3478 35.9974 24.6827 36.2698 24.8927C36.5423 25.1027 36.9055 25.1538 37.2348 25.0573C37.8534 24.8757 38.4097 24.1435 37.9953 23.5134C37.7002 23.0593 37.0985 22.8664 36.582 22.8664C36.0485 22.8607 35.5149 23.0707 35.2084 23.5134C34.919 23.9334 34.953 24.5124 35.2595 24.9097C35.9577 25.8122 37.4391 25.4433 38.1826 24.7962C38.631 24.4046 38.8183 23.7007 38.4721 23.1785C38.1713 22.7301 37.5867 22.4407 37.0701 22.3271C35.9463 22.0831 34.7771 22.645 34.4138 23.7632C34.323 24.0356 34.2889 24.3478 34.357 24.6259C34.4365 24.9381 34.6465 25.1765 34.8963 25.3638C35.2992 25.6646 35.8498 25.7895 36.3436 25.7895C36.8488 25.7895 37.3937 25.6589 37.8137 25.3695C38.2167 25.0913 38.58 24.6827 38.6651 24.1832C38.7673 23.5759 38.5573 23.0083 38.0634 22.6337C37.581 22.259 36.9793 22.1852 36.389 22.2931C36.1506 22.3385 35.9236 22.4236 35.6966 22.5088C35.3787 22.628 35.129 22.9515 35.2425 23.3034C35.3447 23.6156 35.7022 23.8824 36.0371 23.7575C36.179 23.7064 36.3152 23.6553 36.4571 23.6099C36.5366 23.5872 36.6217 23.5645 36.7012 23.5475C36.7239 23.5418 36.8374 23.5305 36.7523 23.5361C36.6615 23.5475 36.8147 23.5361 36.8318 23.5361C36.8715 23.5361 36.9055 23.5361 36.9453 23.5361C37.1042 23.5361 36.9282 23.5418 36.9282 23.5305C36.9282 23.5248 37.1042 23.5759 37.1212 23.5759C37.2461 23.6099 37.1042 23.5759 37.0985 23.5645C37.0985 23.5645 37.1723 23.5986 37.1837 23.6042C37.212 23.6213 37.2348 23.6383 37.2631 23.6496C37.388 23.7178 37.1723 23.5588 37.2745 23.6553C37.2972 23.6724 37.3142 23.6951 37.3369 23.7178C37.4221 23.7915 37.3142 23.7007 37.3142 23.6837C37.3142 23.6894 37.3596 23.7575 37.3653 23.7688C37.4448 23.8824 37.3483 23.7518 37.3596 23.7461C37.3653 23.7461 37.3823 23.8256 37.388 23.837C37.4277 23.9562 37.371 23.8199 37.388 23.8029C37.388 23.8029 37.388 23.8824 37.388 23.8937C37.3937 24.0299 37.4277 23.7802 37.388 23.9051C37.3767 23.9334 37.371 23.9675 37.3596 23.9959C37.3369 24.0867 37.3426 23.9562 37.3823 23.9505C37.3653 23.9505 37.3142 24.0697 37.3029 24.0924C37.2518 24.1832 37.3142 24.0753 37.3312 24.064C37.3142 24.0753 37.2915 24.1094 37.2745 24.1264C37.2291 24.1718 37.1439 24.2229 37.1099 24.274C37.1212 24.257 37.2291 24.1945 37.1326 24.2513C37.1042 24.2683 37.0815 24.2854 37.0531 24.3024C37.0418 24.3081 36.8885 24.3989 36.8828 24.3875C36.8772 24.3819 37.0361 24.3364 36.9055 24.3762C36.8715 24.3875 36.8431 24.3989 36.8147 24.4102C36.7353 24.4329 36.6558 24.45 36.5707 24.467C36.5253 24.4783 36.4798 24.5067 36.5934 24.467C36.5707 24.4783 36.5139 24.4727 36.4912 24.4783C36.4231 24.484 36.355 24.484 36.2869 24.484C36.2528 24.484 36.1109 24.4954 36.0825 24.467C36.0825 24.467 36.2415 24.501 36.1052 24.467C36.0655 24.4556 36.0258 24.45 35.9804 24.4386C35.9066 24.4216 35.8385 24.3989 35.7647 24.3705C35.7022 24.3478 35.7079 24.3762 35.7817 24.3762C35.7647 24.3762 35.7022 24.3364 35.6966 24.3308C35.6682 24.3137 35.6398 24.2967 35.6114 24.2797C35.532 24.2286 35.6057 24.2967 35.6285 24.2967C35.6171 24.2967 35.566 24.2343 35.566 24.2343C35.4809 24.1548 35.6171 24.3081 35.5774 24.2456C35.532 24.1718 35.6171 24.3762 35.5944 24.2854C35.5717 24.2002 35.583 24.3989 35.6001 24.3137C35.6057 24.291 35.6001 24.1832 35.5944 24.2797C35.5944 24.3818 35.6057 24.2399 35.6057 24.2286C35.6171 24.1662 35.6398 24.1094 35.6568 24.0526C35.6795 23.9789 35.6398 24.0129 35.6455 24.0753C35.6455 24.047 35.6852 23.9959 35.7022 23.9675C35.7193 23.9391 35.7363 23.9164 35.7533 23.888C35.7931 23.8086 35.6795 23.9675 35.742 23.8994C35.7874 23.8483 35.8328 23.8029 35.8782 23.7575C35.8952 23.7405 35.9747 23.6837 35.9009 23.7348C35.8271 23.7859 35.9122 23.7291 35.9293 23.7178C35.9633 23.6951 35.9974 23.678 36.0314 23.6553C36.0485 23.644 36.1677 23.5759 36.0825 23.6269C36.0031 23.6667 36.0996 23.6213 36.1223 23.6156C36.1563 23.6042 36.1847 23.5929 36.2188 23.5872C36.2528 23.5759 36.2812 23.5702 36.3152 23.5645C36.3379 23.5588 36.4458 23.5361 36.355 23.5532C36.2642 23.5702 36.372 23.5532 36.3947 23.5532C36.4288 23.5532 36.4685 23.5475 36.5025 23.5475C36.5366 23.5475 36.5763 23.5475 36.6104 23.5532C36.6388 23.5532 36.6615 23.5588 36.6899 23.5588C36.6672 23.5588 36.6444 23.5532 36.6217 23.5532C36.6672 23.5361 36.8147 23.5986 36.8545 23.6099C36.8885 23.6213 36.9226 23.6326 36.9566 23.644C36.9737 23.6496 37.0815 23.6951 37.002 23.661C36.9226 23.6269 37.0247 23.6724 37.0418 23.6837C37.0701 23.7007 37.1042 23.7121 37.1326 23.7291C37.2007 23.7632 37.2631 23.8029 37.3256 23.8426C37.4391 23.9164 37.3029 23.8313 37.3085 23.8256C37.3029 23.837 37.3767 23.8767 37.3767 23.888C37.3767 23.8937 37.3085 23.7745 37.3539 23.8597C37.4107 23.9618 37.3483 23.8426 37.3426 23.8256C37.3823 23.9164 37.3426 23.8086 37.3369 23.7802C37.3539 23.9107 37.371 23.6894 37.3426 23.7575C37.3426 23.7632 37.3369 23.7745 37.3369 23.7802C37.3199 23.837 37.3199 23.837 37.3369 23.7859C37.3596 23.7348 37.3539 23.7405 37.3256 23.7915C37.3142 23.8029 37.3085 23.8199 37.2972 23.8313C37.3653 23.7915 37.3596 23.7632 37.3085 23.8029C37.2858 23.8256 37.2631 23.8426 37.2404 23.8653C37.1439 23.9562 37.2575 23.8483 37.2575 23.854C37.2575 23.8597 37.1837 23.8994 37.178 23.9051C37.1212 23.9391 37.0588 23.9675 37.002 24.0016C36.8942 24.0583 37.002 24.0072 37.0191 23.9959C36.985 24.0186 36.9226 24.0356 36.8828 24.047C36.8204 24.0697 36.758 24.0867 36.6955 24.1037C36.6615 24.1094 36.6331 24.1151 36.599 24.1264C36.4685 24.1605 36.6161 24.1151 36.6274 24.1264C36.6161 24.1151 36.4571 24.1378 36.4344 24.1378C36.4344 24.1378 36.3436 24.1435 36.3379 24.1321C36.4231 24.1435 36.4401 24.1491 36.3947 24.1378C36.372 24.1321 36.3493 24.1264 36.3266 24.1208C36.3152 24.1151 36.2415 24.0924 36.2358 24.0924C36.2471 24.081 36.3663 24.1662 36.2698 24.1037C36.2585 24.0981 36.2074 24.064 36.2017 24.064C36.2415 24.064 36.3096 24.1548 36.2471 24.0924C36.1733 24.0186 36.2812 24.1321 36.2812 24.1435C36.2812 24.1435 36.2528 24.0867 36.2471 24.0867C36.3209 24.1491 36.2869 24.2172 36.2755 24.1491C36.2698 24.1321 36.2642 24.1151 36.2642 24.0981C36.2528 24.047 36.2585 24.0753 36.2755 24.1889C36.2755 24.1832 36.2755 24.1264 36.2755 24.1208C36.2812 24.1378 36.2358 24.2854 36.2698 24.1945C36.2755 24.1775 36.2925 24.1435 36.2925 24.1321C36.2925 24.1378 36.2301 24.291 36.2755 24.1945C36.3096 24.1264 36.3152 24.2229 36.2358 24.2399C36.2415 24.2399 36.2869 24.1832 36.2869 24.1889C36.2869 24.2399 36.1677 24.2627 36.2471 24.2229C36.2528 24.2172 36.3493 24.1662 36.3493 24.1662C36.3493 24.1832 36.196 24.2172 36.3096 24.1889C36.3436 24.1832 36.3777 24.1718 36.4117 24.1605C36.4174 24.1605 36.4231 24.1548 36.4344 24.1548C36.4912 24.1435 36.4912 24.1435 36.4344 24.1548C36.3777 24.1605 36.3777 24.1605 36.4344 24.1548C36.4515 24.1548 36.4628 24.1548 36.4798 24.1548C36.5423 24.1491 36.6388 24.1775 36.6955 24.1605C36.6785 24.1662 36.5423 24.1321 36.6501 24.1548C36.6899 24.1662 36.7353 24.1718 36.775 24.1832C36.8034 24.1889 36.8261 24.2002 36.8545 24.2116C36.968 24.2456 36.7693 24.1605 36.8318 24.2002C36.8545 24.2116 36.8772 24.2286 36.8999 24.2399C36.9737 24.2797 36.9396 24.2683 36.8942 24.2286C37.002 24.3251 36.8261 24.0924 36.8261 24.081C36.8488 23.8597 36.8488 23.7915 36.8204 23.8824C36.8091 23.9278 36.8147 23.9107 36.8431 23.8313C36.8488 23.8199 36.9283 23.7291 36.8601 23.8029C36.7864 23.8824 36.9453 23.7575 36.8828 23.7859C36.8374 23.8086 36.8261 23.854 36.8658 23.8029C36.9169 23.7802 36.9169 23.7802 36.8658 23.8029C36.8091 23.8143 36.8091 23.8199 36.8715 23.8086C36.8885 23.8086 36.8999 23.8029 36.9169 23.8029C36.8601 23.8029 36.8601 23.8029 36.9226 23.8143C36.9793 23.8256 36.985 23.8256 36.9282 23.8143C36.9566 23.8256 36.9793 23.837 37.0077 23.8483C37.0191 23.8597 37.1099 23.9278 37.1099 23.9618C37.1099 23.9618 37.0191 23.7745 37.0985 23.9505C37.0758 23.9051 37.0985 23.8483 37.0985 23.9789C37.0929 24.0072 37.0872 24.0299 37.0815 24.0583C37.0418 24.1378 37.0304 24.1605 37.0531 24.1208C37.0985 24.0526 36.9623 24.2229 37.0191 24.1605C37.0701 24.1094 36.8999 24.2343 37.002 24.1775C36.9453 24.2116 36.8999 24.2172 36.8374 24.2229C36.968 24.2229 36.7126 24.1718 36.8318 24.2172C36.6842 24.1605 36.7466 24.1775 36.7807 24.2002C36.6161 24.1094 36.565 23.9789 36.6217 23.7972C36.565 23.6213 36.6104 23.485 36.7693 23.3999C37.2291 23.1331 37.7342 23.9164 37.161 24.274C37.4504 24.0924 37.5867 23.6894 37.3937 23.3886C37.2404 23.0877 36.8488 22.9515 36.5366 23.1445Z" fill="#DD8DA6"/>
</g>
</g>
<g opacity="0.4">
<g opacity="0.4">
<path opacity="0.4" d="M44.7217 22.0151C44.3585 22.2421 44.2222 22.6905 44.4323 23.0765C44.6139 23.4171 45.0396 23.576 45.4085 23.4795C45.8115 23.3716 46.1123 22.98 46.0556 22.56C46.0045 22.2024 45.7207 21.9186 45.3688 21.8335C44.7047 21.6745 43.9782 22.157 44.0122 22.8778C44.0293 23.2184 44.1825 23.5533 44.455 23.7633C44.7274 23.9733 45.0907 24.0244 45.4199 23.9279C46.0386 23.7463 46.5948 23.0141 46.1805 22.384C45.8853 21.93 45.2836 21.737 44.7671 21.737C44.2336 21.7313 43.7001 21.9413 43.3935 22.384C43.1041 22.8041 43.1381 23.383 43.4446 23.7803C44.1428 24.6828 45.6242 24.3139 46.3678 23.6668C46.8162 23.2752 47.0035 22.5713 46.6572 22.0491C46.3564 21.6007 45.7718 21.3113 45.2553 21.1978C44.1314 20.9537 42.9622 21.5156 42.5989 22.6338C42.5081 22.9062 42.474 23.2184 42.5422 23.4965C42.6216 23.8087 42.8316 24.0471 43.0814 24.2344C43.4844 24.5352 44.0349 24.6601 44.5287 24.6601C45.0339 24.6601 45.5788 24.5295 45.9988 24.2401C46.4018 23.962 46.7651 23.5533 46.8502 23.0538C46.9524 22.4465 46.7424 21.8789 46.2486 21.5043C45.7661 21.1296 45.1645 21.0559 44.5742 21.1637C44.3358 21.2091 44.1087 21.2942 43.8817 21.3794C43.5638 21.4986 43.3141 21.8221 43.4276 22.174C43.5298 22.4862 43.8874 22.753 44.2222 22.6281C44.3641 22.577 44.5004 22.5259 44.6423 22.4805C44.7217 22.4578 44.8069 22.4351 44.8863 22.4181C44.909 22.4124 45.0226 22.4011 44.9374 22.4067C44.8466 22.4181 44.9998 22.4067 45.0169 22.4067C45.0566 22.4067 45.0907 22.4067 45.1304 22.4067C45.2893 22.4067 45.1134 22.4124 45.1134 22.4011C45.1134 22.3954 45.2893 22.4465 45.3064 22.4465C45.4312 22.4805 45.2893 22.4465 45.2836 22.4351C45.2836 22.4351 45.3574 22.4692 45.3688 22.4748C45.3972 22.4919 45.4199 22.5089 45.4483 22.5203C45.5731 22.5884 45.3574 22.4294 45.4596 22.5259C45.4823 22.543 45.4993 22.5657 45.522 22.5884C45.6072 22.6622 45.4993 22.5713 45.4993 22.5543C45.4993 22.56 45.5447 22.6281 45.5504 22.6394C45.6299 22.753 45.5334 22.6224 45.5447 22.6167C45.5504 22.6167 45.5674 22.6962 45.5731 22.7076C45.6129 22.8268 45.5561 22.6905 45.5731 22.6735C45.5731 22.6735 45.5731 22.753 45.5731 22.7643C45.5788 22.9005 45.6129 22.6508 45.5731 22.7757C45.5618 22.8041 45.5561 22.8381 45.5447 22.8665C45.522 22.9573 45.5277 22.8268 45.5674 22.8211C45.5504 22.8211 45.4993 22.9403 45.488 22.963C45.4369 23.0538 45.4993 22.946 45.5164 22.9346C45.4993 22.946 45.4766 22.98 45.4596 22.997C45.4142 23.0424 45.3291 23.0935 45.295 23.1446C45.3064 23.1276 45.4142 23.0651 45.3177 23.1219C45.2893 23.1389 45.2666 23.156 45.2382 23.173C45.2269 23.1787 45.0736 23.2638 45.068 23.2581C45.0623 23.2525 45.2212 23.207 45.0907 23.2468C45.0566 23.2581 45.0282 23.2695 44.9998 23.2808C44.9204 23.3035 44.8409 23.3206 44.7558 23.3376C44.7104 23.3489 44.665 23.3773 44.7785 23.3376C44.7558 23.3489 44.699 23.3433 44.6763 23.3489C44.6082 23.3546 44.5401 23.3546 44.472 23.3546C44.4379 23.3546 44.296 23.366 44.2676 23.3376C44.2676 23.3376 44.4266 23.3716 44.2904 23.3376C44.2506 23.3262 44.2109 23.3206 44.1655 23.3092C44.0917 23.2922 44.0236 23.2695 43.9498 23.2411C43.8874 23.2184 43.893 23.2468 43.9668 23.2468C43.9498 23.2468 43.8874 23.207 43.8817 23.2014C43.8533 23.1843 43.8249 23.1673 43.7965 23.1503C43.7171 23.0992 43.7909 23.1673 43.8136 23.1673C43.8022 23.1673 43.7511 23.1049 43.7511 23.1049C43.666 23.0254 43.8022 23.1787 43.7625 23.1162C43.7171 23.0424 43.8022 23.2468 43.7795 23.156C43.7568 23.0708 43.7682 23.2695 43.7852 23.1843C43.7909 23.1616 43.7852 23.0538 43.7795 23.1503C43.7795 23.2525 43.7909 23.1106 43.7909 23.0992C43.8022 23.0368 43.8249 22.98 43.842 22.9232C43.8647 22.8495 43.8249 22.8835 43.8306 22.946C43.8306 22.9176 43.8703 22.8665 43.8874 22.8381C43.9044 22.8097 43.9214 22.787 43.9384 22.7586C43.9782 22.6792 43.8647 22.8381 43.9271 22.77C43.9725 22.7189 44.0179 22.6735 44.0633 22.6281C44.0803 22.6111 44.1598 22.5543 44.086 22.6054C44.0122 22.6565 44.0974 22.5997 44.1144 22.5884C44.1485 22.5657 44.1825 22.5486 44.2166 22.5259C44.2336 22.5146 44.3528 22.4465 44.2676 22.4976C44.1882 22.5373 44.2847 22.4919 44.3074 22.4862C44.3414 22.4748 44.3698 22.4635 44.4039 22.4578C44.4379 22.4465 44.4663 22.4408 44.5004 22.4351C44.5231 22.4294 44.6309 22.4067 44.5401 22.4238C44.4493 22.4408 44.5571 22.4238 44.5798 22.4238C44.6139 22.4238 44.6536 22.4181 44.6877 22.4181C44.7217 22.4181 44.7615 22.4181 44.7955 22.4238C44.8239 22.4238 44.8466 22.4294 44.875 22.4294C44.8523 22.4294 44.8296 22.4238 44.8069 22.4238C44.8523 22.4067 44.9998 22.4692 45.0396 22.4805C45.0736 22.4919 45.1077 22.5032 45.1417 22.5146C45.1588 22.5203 45.2666 22.5657 45.1872 22.5316C45.1077 22.4976 45.2099 22.543 45.2269 22.5543C45.2553 22.5713 45.2893 22.5827 45.3177 22.5997C45.3858 22.6338 45.4483 22.6735 45.5107 22.7132C45.6242 22.787 45.488 22.7019 45.4937 22.6962C45.488 22.7076 45.5618 22.7473 45.5618 22.7586C45.5618 22.7643 45.4937 22.6451 45.5391 22.7303C45.5958 22.8324 45.5334 22.7132 45.5277 22.6962C45.5674 22.787 45.5277 22.6792 45.522 22.6508C45.5391 22.7813 45.5561 22.56 45.5277 22.6281C45.5277 22.6338 45.522 22.6451 45.522 22.6508C45.505 22.7076 45.505 22.7076 45.522 22.6565C45.5447 22.6054 45.5391 22.6111 45.5107 22.6622C45.4993 22.6735 45.4937 22.6905 45.4823 22.7019C45.5504 22.6622 45.5447 22.6338 45.4937 22.6735C45.471 22.6962 45.4483 22.7132 45.4255 22.7359C45.3291 22.8268 45.4426 22.7189 45.4426 22.7246C45.4426 22.7303 45.3688 22.77 45.3631 22.7757C45.3064 22.8097 45.2439 22.8381 45.1872 22.8722C45.0793 22.9289 45.1872 22.8778 45.2042 22.8665C45.1701 22.8892 45.1077 22.9062 45.068 22.9176C45.0055 22.9403 44.9431 22.9573 44.8807 22.9743C44.8466 22.98 44.8182 22.9857 44.7842 22.997C44.6536 23.0311 44.8012 22.9857 44.8125 22.997C44.8012 22.9857 44.6423 23.0084 44.6196 23.0084C44.6196 23.0084 44.5287 23.0141 44.5231 23.0027C44.6082 23.0141 44.6252 23.0197 44.5798 23.0084C44.5571 23.0027 44.5344 22.997 44.5117 22.9914C44.5004 22.9857 44.4266 22.963 44.4209 22.963C44.4323 22.9516 44.5514 23.0368 44.455 22.9743C44.4436 22.9687 44.3925 22.9346 44.3868 22.9346C44.4266 22.9346 44.4947 23.0254 44.4323 22.963C44.3585 22.8892 44.4663 23.0027 44.4663 23.0141C44.4663 23.0141 44.4379 22.9573 44.4323 22.9573C44.506 23.0197 44.472 23.0879 44.4606 23.0197C44.455 23.0027 44.4493 22.9857 44.4493 22.9687C44.4379 22.9176 44.4436 22.946 44.4606 23.0595C44.4606 23.0538 44.4606 22.997 44.4606 22.9914C44.4663 23.0084 44.4209 23.156 44.455 23.0651C44.4606 23.0481 44.4777 23.0141 44.4777 23.0027C44.4777 23.0084 44.4152 23.1616 44.4606 23.0651C44.4947 22.997 44.5004 23.0935 44.4209 23.1106C44.4266 23.1106 44.472 23.0538 44.472 23.0595C44.472 23.1106 44.3528 23.1333 44.4323 23.0935C44.4379 23.0879 44.5344 23.0368 44.5344 23.0368C44.5344 23.0538 44.3812 23.0879 44.4947 23.0595C44.5287 23.0538 44.5628 23.0424 44.5969 23.0311C44.6025 23.0311 44.6082 23.0254 44.6196 23.0254C44.6763 23.0141 44.6763 23.0141 44.6196 23.0254C44.5628 23.0311 44.5628 23.0311 44.6196 23.0254C44.6366 23.0254 44.6479 23.0254 44.665 23.0254C44.7274 23.0197 44.8239 23.0481 44.8807 23.0311C44.8636 23.0368 44.7274 23.0027 44.8352 23.0254C44.875 23.0368 44.9204 23.0424 44.9601 23.0538C44.9885 23.0595 45.0112 23.0708 45.0396 23.0822C45.1531 23.1162 44.9544 23.0311 45.0169 23.0708C45.0396 23.0822 45.0623 23.0992 45.085 23.1106C45.1588 23.1503 45.1247 23.1389 45.0793 23.0992C45.1872 23.1957 45.0112 22.963 45.0112 22.9516C45.0339 22.7303 45.0339 22.6622 45.0055 22.753C44.9942 22.7984 44.9999 22.7813 45.0282 22.7019C45.0339 22.6905 45.1134 22.5997 45.0453 22.6735C44.9715 22.753 45.1304 22.6281 45.068 22.6565C45.0226 22.6792 45.0112 22.7246 45.0509 22.6735C45.102 22.6508 45.102 22.6508 45.0509 22.6735C44.9942 22.6849 44.9942 22.6905 45.0566 22.6792C45.0736 22.6792 45.085 22.6735 45.102 22.6735C45.0453 22.6735 45.0453 22.6735 45.1077 22.6849C45.1645 22.6962 45.1701 22.6962 45.1134 22.6849C45.1418 22.6962 45.1645 22.7076 45.1928 22.7189C45.2042 22.7303 45.295 22.7984 45.295 22.8324C45.295 22.8324 45.2042 22.6451 45.2836 22.8211C45.2609 22.7757 45.2836 22.7189 45.2836 22.8495C45.278 22.8778 45.2723 22.9005 45.2666 22.9289C45.2269 23.0084 45.2155 23.0311 45.2382 22.9914C45.2836 22.9232 45.1474 23.0935 45.2042 23.0311C45.2553 22.98 45.085 23.1049 45.1872 23.0481C45.1304 23.0822 45.085 23.0879 45.0226 23.0935C45.1531 23.0935 44.8977 23.0424 45.0169 23.0879C44.8693 23.0311 44.9317 23.0481 44.9658 23.0708C44.8012 22.98 44.7501 22.8495 44.8069 22.6678C44.7501 22.4919 44.7955 22.3556 44.9544 22.2705C45.4142 22.0037 45.9194 22.787 45.3461 23.1446C45.6356 22.963 45.7718 22.56 45.5788 22.2592C45.4199 21.9583 45.0282 21.8221 44.7217 22.0151Z" fill="#DD8DA6"/>
</g>
</g>
<path d="M35.7137 26.868C35.7137 26.868 38.8355 26.5388 39.6358 24.8303" stroke="#F76F39" stroke-width="0.9328" stroke-miterlimit="10" stroke-linecap="round" stroke-linejoin="round"/>
<path d="M46.634 26.2719C46.634 26.2719 44.8518 26.0449 44.0344 24.4727" stroke="#F76F39" stroke-width="0.9328" stroke-miterlimit="10" stroke-linecap="round" stroke-linejoin="round"/>
<path d="M38.3586 30.0637C38.3586 30.0637 40.0954 28.0885 42.8085 29.428" stroke="#2E2E2E" stroke-width="1.1703" stroke-miterlimit="10" stroke-linecap="round"/>
<path d="M22.2618 23.2637C22.9372 22.8096 23.8964 22.7358 24.6911 23.0423C24.061 18.7172 24.9124 14.3524 28.2669 11.7074C28.9764 11.1511 29.7313 10.7311 30.5203 10.4416C34.2324 9.06237 38.5859 10.5041 41.6452 13.1945C44.7045 15.8849 46.5606 19.9092 46.9693 24.0186C47.5198 29.5299 45.2438 35.4273 39.687 36.9087C39.4032 36.9825 39.1194 37.0392 38.8299 37.0846L39.0286 46.1038C39.1364 49.918 35.833 52.9376 32.0471 52.4836C28.7664 52.0919 26.3598 49.2142 26.5528 45.9165C26.5528 45.9165 27.058 32.2374 27.0863 30.3756C27.0863 30.2735 26.9842 30.2224 26.899 30.2621C25.8206 30.7786 24.447 30.8354 23.3913 30.3416C22.0801 29.7286 21.0925 28.338 20.8938 26.8225C20.7122 25.4603 21.2003 23.9788 22.2618 23.2637Z" stroke="#000402" stroke-width="1.191" stroke-miterlimit="10" stroke-linecap="round" stroke-linejoin="round"/>
<path d="M25.0032 27.5094C24.2085 27.5094 23.5615 27.0156 23.5615 26.4026C23.5615 25.9428 23.919 25.5455 24.4356 25.3752" stroke="#2E2E2E" stroke-width="1.258" stroke-miterlimit="10" stroke-linecap="round"/>
<path d="M38.9433 40.1838L38.9319 36.9429C38.9319 36.9429 33.517 38.0383 29.2147 33.1343C29.2147 33.1343 31.4453 38.9805 38.9433 40.1838Z" fill="#000402" stroke="#000402" stroke-width="0.696" stroke-miterlimit="10" stroke-linecap="round" stroke-linejoin="round"/>
<path d="M32.518 9.44281C35.9633 9.47687 48.3312 8.00111 45.7714 13.2003C43.2115 18.3995 32.535 15.1358 32.535 15.1358C32.535 15.1358 30.7811 27.6286 23.8451 22.963C23.8451 22.963 23.3513 22.174 22.2615 23.2695C22.2615 23.2638 16.6593 9.28956 32.518 9.44281Z" fill="#040302"/>
<path d="M35.5376 23.9731C37.0417 23.5531 39.1191 23.6779 39.1191 23.6779L37.5866 22.6562" stroke="#2E2E2E" stroke-width="1.0855" stroke-miterlimit="10" stroke-linecap="round" stroke-linejoin="round"/>
<path d="M45.9133 22.2136C45.9133 22.2136 44.4375 22.2987 43.4953 22.8152L44.2559 21.5552" stroke="#2E2E2E" stroke-width="1.0855" stroke-miterlimit="10" stroke-linecap="round" stroke-linejoin="round"/>
<path d="M59.7344 74.3247C59.7344 74.3247 53.4057 45.4965 39.2555 43.0218C34.7261 44.611 30.2874 44.1456 25.7978 42.5166C10.2229 46.626 5.85806 73.6777 5.85806 73.6777L59.7344 74.3247Z" fill="#443FE0"/>
<path d="M41.9514 26.2268C42.0365 25.977 42.1614 25.7727 42.3033 25.5797C42.4452 25.3867 42.6041 25.2164 42.7744 25.0518L42.8936 25.6308C42.536 25.4548 42.3714 25.2278 42.1954 25.0121C42.0365 24.7851 41.8889 24.558 41.7697 24.3196C41.5256 23.8485 41.3383 23.3547 41.2248 22.8325C41.5711 23.2355 41.8889 23.6442 42.2068 24.0358C42.3714 24.2288 42.5246 24.4275 42.6949 24.5977C42.8538 24.768 43.0411 24.9383 43.1603 24.9724L43.6768 25.1313L43.2795 25.557C43.1206 25.7273 42.9503 25.8975 42.7573 26.0394C42.57 26.1813 42.3657 26.3119 42.116 26.4027C42.0478 26.4254 41.9684 26.3914 41.9457 26.3232C41.94 26.2835 41.94 26.2551 41.9514 26.2268Z" fill="#2E2E2E"/>
<path d="M39.6698 18.2974C39.6698 18.2974 38.6311 21.3 34.9814 21.0389" stroke="#2E2E2E" stroke-width="1.1703" stroke-miterlimit="10" stroke-linecap="round"/>
<path d="M41.7755 17.8716C41.7755 17.8716 42.6496 20.352 45.6692 20.1193" stroke="#2E2E2E" stroke-width="1.1703" stroke-miterlimit="10" stroke-linecap="round"/>
<path d="M40.9073 22.8437C42.5306 21.9469 43.9723 24.1662 44.4151 25.3922C45.9646 29.6776 44.8691 35.0641 47.9909 38.3845C48.7175 39.1565 49.6256 39.7468 50.2954 40.5698C50.9651 41.3928 51.3625 42.5791 50.8573 43.5156C50.0513 44.9971 47.9058 44.6905 46.2484 45.0027C44.8748 45.2581 43.6715 46.0585 42.4625 46.7566C41.2479 47.4547 39.9027 48.0848 38.5121 47.9372C37.1214 47.7953 35.7535 46.592 35.9181 45.2071C35.9862 44.6224 36.3041 44.1003 36.6049 43.5894C37.5244 42.0228 38.3475 40.3711 38.705 38.5889C39.284 35.6828 38.5972 32.6007 39.4372 29.7571C39.9992 27.8499 41.0946 26.7091 40.7427 24.7565C40.6689 24.3479 40.6803 23.1956 40.9073 22.8437C41.1287 22.4918 41.8722 22.6564 41.7303 23.0481L40.9073 22.8437Z" fill="#FFE094"/>
<path d="M50.2443 28.4061C49.0524 29.2234 50.0456 26.936 48.831 27.0155C48.2407 27.0552 47.8888 27.4582 47.5482 28.0371C47.3893 28.3152 46.9749 28.2188 46.9409 27.9009C46.8614 27.1063 46.5776 26.5671 45.9419 26.5387C44.8294 26.4933 45.204 30.9943 45.1359 31.4257C45.0678 31.8457 44.2902 30.8184 43.5977 28.6728C43.1437 27.2709 41.4976 26.8963 41.7928 28.2301C42.2412 30.2848 42.4569 34.2807 43.5467 36.1935L41.7531 45.2637L48.235 48.4422C48.235 48.4422 50.0059 38.7931 50.3862 37.8395C51.2035 35.8075 52.3955 26.13 50.2443 28.4061Z" fill="#F6F3EF"/>
<path d="M50.2442 28.4062C49.0522 29.2236 50.0455 26.9362 48.8308 27.0156C48.2178 27.0554 47.8602 27.4924 47.5083 28.1054C47.3608 28.3608 46.9748 28.2757 46.9521 27.9806C46.884 27.1462 46.6059 26.5672 45.9474 26.5445C44.835 26.4991 45.2096 31.0002 45.1415 31.4315C45.0733 31.8516 44.2957 30.8242 43.6033 28.6787C43.1492 27.2767 41.5032 26.9021 41.7983 28.236C42.2467 30.2907 42.4624 34.2866 43.5522 36.1994L41.7586 45.2696L48.2405 48.4481C48.2405 48.4481 50.0114 38.799 50.3917 37.8454C51.2034 35.8077 52.8551 28.4062 50.2442 28.4062Z" stroke="#2E2E2E" stroke-width="1.1703" stroke-miterlimit="10" stroke-linecap="round"/>
<path d="M40.9128 40.0532L54.274 45.5078L45.0562 74.3247L27.9091 73.5301L40.9128 40.0532Z" fill="#443FE0"/>
<path d="M40.9128 40.0532L27.9091 73.5301" stroke="#2E2E2E" stroke-width="1.0855" stroke-miterlimit="10" stroke-linecap="round" stroke-linejoin="round"/>
</g>
</svg>
