<svg width="34" height="34" viewBox="0 0 34 34" fill="none" xmlns="http://www.w3.org/2000/svg">
<path d="M31.1667 12.07V5.63837C31.1667 3.64087 30.26 2.83337 28.0075 2.83337H22.2842C20.0317 2.83337 19.125 3.64087 19.125 5.63837V12.0559C19.125 14.0675 20.0317 14.8609 22.2842 14.8609H28.0075C30.26 14.875 31.1667 14.0675 31.1667 12.07Z" stroke="white" stroke-width="2" stroke-linecap="round" stroke-linejoin="round"/>
<path d="M31.1667 28.0075V22.2842C31.1667 20.0317 30.26 19.125 28.0075 19.125H22.2842C20.0317 19.125 19.125 20.0317 19.125 22.2842V28.0075C19.125 30.26 20.0317 31.1667 22.2842 31.1667H28.0075C30.26 31.1667 31.1667 30.26 31.1667 28.0075Z" stroke="white" stroke-width="2" stroke-linecap="round" stroke-linejoin="round"/>
<path d="M14.8749 12.07V5.63837C14.8749 3.64087 13.9683 2.83337 11.7158 2.83337H5.99242C3.73992 2.83337 2.83325 3.64087 2.83325 5.63837V12.0559C2.83325 14.0675 3.73992 14.8609 5.99242 14.8609H11.7158C13.9683 14.875 14.8749 14.0675 14.8749 12.07Z" stroke="white" stroke-width="2" stroke-linecap="round" stroke-linejoin="round"/>
<path d="M14.8749 28.0075V22.2842C14.8749 20.0317 13.9683 19.125 11.7158 19.125H5.99242C3.73992 19.125 2.83325 20.0317 2.83325 22.2842V28.0075C2.83325 30.26 3.73992 31.1667 5.99242 31.1667H11.7158C13.9683 31.1667 14.8749 30.26 14.8749 28.0075Z" stroke="white" stroke-width="2" stroke-linecap="round" stroke-linejoin="round"/>
</svg>
