<svg width="70" height="70" viewBox="0 0 70 70" fill="none" xmlns="http://www.w3.org/2000/svg">
<circle cx="35" cy="35.0001" r="35" fill="#F76F39"/>
<path d="M18.0207 41.7918C17.6457 41.4168 17.3436 40.948 17.1457 40.396C16.9478 39.8439 16.8228 39.2605 16.7915 38.6251C16.7394 37.5522 16.8957 36.5835 17.2707 35.6876C17.6353 34.8022 18.1769 33.9897 18.9061 33.2605C19.9686 32.198 21.354 31.3126 23.0624 30.6251C24.7707 29.9376 26.6561 29.4272 28.7082 29.1043C30.7811 28.7814 32.8853 28.6147 35.0416 28.6043C37.1978 28.6147 39.302 28.7814 41.3541 29.1043C43.3957 29.4376 45.2707 29.9376 46.9478 30.6147C48.6353 31.3022 50.0207 32.1876 51.1041 33.2709C51.8124 33.9793 52.3645 34.7814 52.7395 35.6564C53.1249 36.5418 53.3124 37.521 53.2812 38.5939C53.2707 39.9168 52.8645 40.9689 52.0937 41.7397C51.802 42.0314 51.4478 42.2605 51.0624 42.396C50.6666 42.5418 50.2395 42.5939 49.7812 42.5105L43.9582 41.521C43.5103 41.448 43.1353 41.3439 42.8124 41.2085C42.4999 41.0835 42.2291 40.9168 42.0311 40.7189C41.7811 40.4689 41.6041 40.146 41.5103 39.7605C41.4061 39.3855 41.3541 38.9376 41.3541 38.4376L41.3228 36.823C41.3228 36.5939 41.2395 36.4064 41.0728 36.2397C40.9895 36.1564 40.9061 36.0939 40.802 36.0314C40.6874 35.9793 40.5936 35.948 40.5103 35.9064C39.9791 35.7501 39.2082 35.6251 38.2082 35.5418C37.1978 35.4689 36.1457 35.4168 35.052 35.4064C33.9374 35.4168 32.8853 35.448 31.8645 35.5314C30.8645 35.6147 30.104 35.7501 29.5624 35.9168C29.4895 35.948 29.3957 35.9793 29.2915 36.021C29.177 36.073 29.0832 36.146 28.9895 36.2397C28.8124 36.4168 28.7395 36.6147 28.7395 36.8439L28.729 38.4168C28.729 38.9376 28.677 39.3855 28.5624 39.7501C28.4686 40.1355 28.302 40.448 28.0415 40.7085C27.8436 40.9064 27.5936 41.073 27.2707 41.2085C26.9478 41.3439 26.5728 41.448 26.1353 41.5314L20.2394 42.5314C19.7811 42.6147 19.3749 42.5835 18.9999 42.4376C18.6353 42.2814 18.3124 42.0835 18.0207 41.7918Z" stroke="white" stroke-width="2.5" stroke-miterlimit="10"/>
</svg>
