<?xml version="1.0" encoding="UTF-8"?><svg id="Layer_2" xmlns="http://www.w3.org/2000/svg" width="250" height="67.62" viewBox="0 0 250 67.62"><defs><style>.cls-1{fill:#cafa00;}.cls-2{fill:#0e2ca3;}.cls-3{fill:#fff;}</style></defs><g id="Layer_1-2"><path class="cls-2" d="M80.47,9.94h13.2c4.01,0,7.1,2.86,7.1,6.83,0,2.43-1.2,4.59-2.9,5.64,2.51.97,4.25,3.78,4.25,6.95,0,4.21-3.2,7.22-7.53,7.22h-14.13V9.94ZM86.26,15.34v5.02h5.91c1.39,0,2.47-1.08,2.47-2.51s-1.04-2.51-2.47-2.51h-5.91ZM86.26,25.42v5.75h6.87c1.62,0,2.86-1.24,2.86-2.86s-1.24-2.9-2.86-2.9h-6.87Z"/><path class="cls-2" d="M105.41,9.94h5.98v11.35l9.07-11.35h7.3l-10.15,12.47,10.5,14.17h-7.45l-6.95-9.65-2.32,2.59v7.06h-5.98V9.94Z"/><path class="cls-2" d="M130.03,9.94h5.98v10.42h10.69v-10.42h5.98v26.63h-5.98v-10.58h-10.69v10.58h-5.98V9.94Z"/><path class="cls-2" d="M156.32,26.73c0-5.87,4.55-10.31,10.61-10.31s10.61,4.4,10.61,10.42c0,.54-.04,1.2-.15,1.7h-15.05c.62,2.24,2.43,3.67,4.79,3.67,1.81,0,3.28-.77,4.09-1.85h6.02c-1.47,3.98-5.4,6.68-10.27,6.68-6.1,0-10.65-4.44-10.65-10.31ZM162.38,24.8h9.15c-.58-2.16-2.35-3.55-4.59-3.55s-3.94,1.39-4.55,3.55Z"/><path class="cls-2" d="M179.71,26.73c0-5.87,4.09-10.31,9.5-10.31,2.39,0,4.44.89,5.94,2.43v-1.97h5.64v19.69h-5.64v-1.97c-1.51,1.54-3.55,2.43-5.94,2.43-5.4,0-9.5-4.44-9.5-10.31ZM195.15,26.73c0-2.78-2.05-4.86-4.82-4.86s-4.79,2.08-4.79,4.86,2.05,4.86,4.79,4.86,4.82-2.08,4.82-4.86Z"/><path class="cls-2" d="M205.34,8.78h5.64v27.79h-5.64V8.78Z"/><path class="cls-2" d="M217.27,30.17v-8.14h-2.93v-5.13h1.62c1.08,0,1.62-.54,1.62-1.62v-3.55h5.33v5.17h4.28v5.13h-4.28v7.22c0,1.39.85,2.2,2.32,2.2h1.97v5.13h-2.82c-4.67,0-7.1-2.2-7.1-6.41Z"/><path class="cls-2" d="M230.85,8.78h5.64v10.19c1.54-1.66,3.55-2.55,5.98-2.55,4.52,0,7.53,2.97,7.53,7.49v12.66h-5.64v-10.77c0-2.39-1.51-3.94-3.78-3.94-2.43,0-4.09,1.58-4.09,4.01v10.69h-5.64V8.78Z"/><path class="cls-2" d="M81.98,57.27h5.42v1.23h-6.93v-15.09h1.51v13.86Z"/><path class="cls-2" d="M102.62,54.92h-6.86l-1.32,3.58h-1.6l5.5-14.89h1.71l5.48,14.89h-1.6l-1.32-3.58ZM102.16,53.66l-2.98-8.16-2.98,8.16h5.96Z"/><path class="cls-2" d="M121.48,52c.59.71.88,1.53.88,2.46,0,.76-.19,1.45-.57,2.06-.38.61-.94,1.09-1.67,1.45-.73.35-1.61.53-2.63.53h-5.22v-15.09h5.07c1.53,0,2.69.35,3.49,1.06.8.71,1.2,1.62,1.2,2.74,0,.94-.25,1.69-.76,2.28-.5.58-1.15.99-1.94,1.22.85.16,1.57.59,2.16,1.3ZM113.78,50.08h3.52c1.02,0,1.81-.24,2.36-.72.55-.48.83-1.15.83-2s-.28-1.49-.83-1.96c-.55-.47-1.36-.71-2.43-.71h-3.45v5.4ZM119.94,56.45c.61-.52.92-1.23.92-2.14s-.32-1.63-.96-2.17c-.64-.54-1.5-.81-2.58-.81h-3.54v5.89h3.6c1.09,0,1.95-.26,2.56-.78Z"/><path class="cls-2" d="M132.45,57.67c-1.14-.65-2.03-1.57-2.69-2.74-.66-1.17-.98-2.5-.98-3.98s.33-2.81.98-3.98c.65-1.17,1.55-2.09,2.69-2.74,1.14-.65,2.4-.98,3.8-.98s2.68.33,3.82.98c1.14.66,2.03,1.57,2.68,2.74.65,1.17.97,2.5.97,3.98s-.32,2.81-.97,3.98c-.65,1.17-1.54,2.09-2.68,2.74-1.14.65-2.41.98-3.82.98s-2.66-.33-3.8-.98ZM139.27,56.56c.89-.52,1.6-1.26,2.12-2.23.52-.97.78-2.1.78-3.38s-.26-2.4-.78-3.37c-.52-.96-1.22-1.71-2.12-2.22-.89-.52-1.9-.78-3.02-.78s-2.13.26-3.02.78c-.89.52-1.6,1.26-2.12,2.22-.52.96-.78,2.09-.78,3.37s.26,2.41.78,3.38c.52.97,1.22,1.72,2.12,2.23.89.52,1.9.78,3.02.78s2.13-.26,3.02-.78Z"/><path class="cls-2" d="M158.82,58.5l-3.73-6.3h-2.78v6.3h-1.51v-15.09h4.53c1.68,0,2.96.4,3.83,1.21.87.81,1.31,1.86,1.31,3.17,0,1.09-.31,2.03-.94,2.8-.63.77-1.55,1.27-2.77,1.5l3.89,6.41h-1.81ZM152.31,50.97h3.04c1.18,0,2.07-.29,2.67-.86.6-.58.9-1.35.9-2.31s-.29-1.76-.86-2.3c-.58-.54-1.48-.81-2.72-.81h-3.02v6.28Z"/><path class="cls-2" d="M176.52,54.92h-6.86l-1.32,3.58h-1.6l5.5-14.89h1.71l5.48,14.89h-1.6l-1.32-3.58ZM176.07,53.66l-2.98-8.16-2.98,8.16h5.96Z"/><path class="cls-2" d="M195,43.41v1.25h-4.19v13.84h-1.51v-13.84h-4.21v-1.25h9.91Z"/><path class="cls-2" d="M204.69,57.67c-1.14-.65-2.03-1.57-2.69-2.74-.66-1.17-.98-2.5-.98-3.98s.33-2.81.98-3.98c.65-1.17,1.55-2.09,2.69-2.74,1.14-.65,2.4-.98,3.8-.98s2.68.33,3.82.98c1.14.66,2.03,1.57,2.68,2.74.65,1.17.97,2.5.97,3.98s-.32,2.81-.97,3.98c-.65,1.17-1.54,2.09-2.68,2.74-1.14.65-2.41.98-3.82.98s-2.66-.33-3.8-.98ZM211.51,56.56c.89-.52,1.6-1.26,2.12-2.23.52-.97.78-2.1.78-3.38s-.26-2.4-.78-3.37c-.52-.96-1.22-1.71-2.12-2.22-.89-.52-1.9-.78-3.02-.78s-2.13.26-3.02.78c-.89.52-1.6,1.26-2.12,2.22-.52.96-.78,2.09-.78,3.37s.26,2.41.78,3.38c.52.97,1.22,1.72,2.12,2.23.89.52,1.9.78,3.02.78s2.13-.26,3.02-.78Z"/><path class="cls-2" d="M231.07,58.5l-3.73-6.3h-2.78v6.3h-1.51v-15.09h4.53c1.68,0,2.96.4,3.83,1.21.87.81,1.31,1.86,1.31,3.17,0,1.09-.31,2.03-.94,2.8-.63.77-1.55,1.27-2.77,1.5l3.89,6.41h-1.81ZM224.55,50.97h3.04c1.18,0,2.07-.29,2.67-.86.6-.58.9-1.35.9-2.31s-.29-1.76-.86-2.3c-.58-.54-1.48-.81-2.72-.81h-3.02v6.28Z"/><path class="cls-2" d="M250,43.41l-4.84,9.22v5.87h-1.51v-5.87l-4.88-9.22h1.71l3.93,7.84,3.91-7.84h1.68Z"/><rect class="cls-2" x="0" y="0" width="67.62" height="67.62"/><path class="cls-3" d="M48.01,41.54c-.03.71-.15,1.46-.38,2.26-1.25,4.38-4.51,5.69-8.2,6.04-.1,0-.19.02-.29.03h-8.61l1.74-9.6c.07-.25.14-.49.23-.72.32-.93.75-1.74,1.26-2.43,1.45-1.9,3.74-3.13,6.32-3.13,4.26,0,7.73,3.35,7.93,7.56Z"/><path class="cls-3" d="M31.7,35.39l-.08.44-2.43,13.8-.04.23h-11l1.53-8.66s1.05-5.81,6.68-5.81h5.34Z"/><path class="cls-1" d="M49.46,25c0,4-3.24,7.24-7.24,7.24-.22,0-.43,0-.64-.03-.06,0-.11-.01-.17-.02-3.94-.44-6.74-4.06-6.27-7.99l.14-1.15c.01-.1.03-.2.04-.3l.68-3.86h0s.2-1.13.2-1.13h6.02c3.85,0,7,3.01,7.22,6.8,0,.14.01.29.01.43Z"/><path class="cls-3" d="M34.81,17.76l-.06.32-2.39,13.54-.37,2.04-.06.34h-4.52c-2.98,0-5.39-2.41-5.39-5.39,0-.14,0-.28.02-.42,0-.11-.01-.23-.02-.34h0s1.78-10.09,1.78-10.09h11Z"/></g></svg>