<svg width="327" height="190" viewBox="0 0 327 190" fill="none" xmlns="http://www.w3.org/2000/svg">
<rect width="327" height="190" rx="6" fill="#EAEAFF"/>
<mask id="mask0_2_5037" style="mask-type:alpha" maskUnits="userSpaceOnUse" x="0" y="0" width="327" height="190">
<rect width="327" height="190" rx="6" fill="#EAEAFF"/>
</mask>
<g mask="url(#mask0_2_5037)">
<path d="M79.2052 190H32.5366V100.612H79.2052V190ZM33.0144 189.522H78.7284V101.091H33.0144V189.522Z" fill="#443FE0" fill-opacity="0.44"/>
<path d="M46.1278 121.043H38.9734V110.184H46.1278V121.043ZM39.4511 120.564H45.651V110.663H39.4511V120.564Z" fill="#443FE0" fill-opacity="0.44"/>
<path d="M59.483 121.043H52.3286V110.184H59.483V121.043ZM52.8054 120.564H59.0053V110.663H52.8054V120.564Z" fill="#443FE0" fill-opacity="0.44"/>
<path d="M278.215 190H202.521V79.3991H278.214V190H278.215ZM202.997 189.522H277.738V79.8775H202.997V189.522Z" fill="#443FE0" fill-opacity="0.44"/>
<path d="M251.159 103.531H241.467V90.973H251.159V103.531ZM241.944 103.051H250.682V91.4515H241.944V103.051Z" fill="#443FE0" fill-opacity="0.44"/>
<path d="M268.713 103.531H259.02V90.973H268.713V103.531ZM259.498 103.051H268.236V91.4515H259.498V103.051Z" fill="#443FE0" fill-opacity="0.44"/>
<path d="M144.524 190H78.7415V33H144.524V190ZM79.2182 189.522H144.048V33.4784H79.2182V189.522Z" fill="#443FE0" fill-opacity="0.44"/>
<path d="M96.1317 60.1379H88.9773V41.278H96.1317V60.1379ZM89.4551 59.6595H95.6549V41.7564H89.4551V59.6595Z" fill="#443FE0" fill-opacity="0.44"/>
<path d="M108.85 60.1379H101.696V41.278H108.85V60.1379ZM102.174 59.6595H108.374V41.7564H102.174V59.6595Z" fill="#443FE0" fill-opacity="0.44"/>
<path d="M121.569 60.1379H114.415V41.278H121.569V60.1379ZM114.892 59.6595H121.092V41.7564H114.892V59.6595Z" fill="#443FE0" fill-opacity="0.44"/>
<path d="M134.287 60.1379H127.133V41.278H134.287V60.1379ZM127.611 59.6595H133.811V41.7564H127.611V59.6595Z" fill="#443FE0" fill-opacity="0.44"/>
<path d="M117.431 102.571H93.2703V103.049H117.431V102.571Z" fill="#443FE0" fill-opacity="0.44"/>
<path d="M117.431 111.665H93.2703V112.143H117.431V111.665Z" fill="#443FE0" fill-opacity="0.44"/>
<path d="M202.971 190H144.004V50.7396H202.971V190ZM144.48 189.522H202.494V51.218H144.48V189.522Z" fill="#443FE0" fill-opacity="0.44"/>
<path d="M191.835 62.0467H155.11V62.5251H191.835V62.0467Z" fill="#443FE0" fill-opacity="0.44"/>
<path d="M191.835 71.1412H155.11V71.6196H191.835V71.1412Z" fill="#443FE0" fill-opacity="0.44"/>
<path d="M191.835 99.7405H170.214V100.219H191.835V99.7405Z" fill="#443FE0" fill-opacity="0.44"/>
<path d="M182.301 129.882H122.75V189.642H182.301V129.882Z" fill="#E5ECFF"/>
<path d="M182.54 189.881H122.513V129.642H182.54V189.881ZM122.989 189.402H182.063V130.12H122.989V189.402Z" fill="#8B88ED"/>
<path d="M174.398 184.377H162.99V184.855H174.398V184.377Z" fill="white"/>
<path d="M138.746 184.377H127.338V184.855H138.746V184.377Z" fill="white"/>
<path d="M150.63 184.377H139.222V184.855H150.63V184.377Z" fill="white"/>
<path d="M162.514 184.377H151.106V184.855H162.514V184.377Z" fill="white"/>
<path d="M181.978 184.377H174.875V184.855H181.978V184.377Z" fill="white"/>
<path d="M126.862 184.377H123.074V184.855H126.862V184.377Z" fill="white"/>
<path d="M174.398 172.451H162.99V172.929H174.398V172.451Z" fill="white"/>
<path d="M150.63 172.451H139.222V172.929H150.63V172.451Z" fill="white"/>
<path d="M126.862 172.451H123.074V172.929H126.862V172.451Z" fill="white"/>
<path d="M181.978 172.451H174.875V172.929H181.978V172.451Z" fill="white"/>
<path d="M162.514 172.451H151.106V172.929H162.514V172.451Z" fill="white"/>
<path d="M138.746 172.451H127.338V172.929H138.746V172.451Z" fill="white"/>
<path d="M174.398 160.525H162.99V161.003H174.398V160.525Z" fill="white"/>
<path d="M162.514 160.525H151.106V161.003H162.514V160.525Z" fill="white"/>
<path d="M138.746 160.525H127.338V161.003H138.746V160.525Z" fill="white"/>
<path d="M150.63 160.525H139.222V161.003H150.63V160.525Z" fill="white"/>
<path d="M126.862 160.525H123.074V161.003H126.862V160.525Z" fill="white"/>
<path d="M181.978 160.525H174.875V161.003H181.978V160.525Z" fill="white"/>
<path d="M150.63 148.599H139.222V149.077H150.63V148.599Z" fill="white"/>
<path d="M181.978 148.599H174.875V149.077H181.978V148.599Z" fill="white"/>
<path d="M138.746 148.599H127.338V149.077H138.746V148.599Z" fill="white"/>
<path d="M162.514 148.599H151.106V149.077H162.514V148.599Z" fill="white"/>
<path d="M126.862 148.599H123.074V149.077H126.862V148.599Z" fill="white"/>
<path d="M174.398 148.599H162.99V149.077H174.398V148.599Z" fill="white"/>
<path d="M174.398 136.674H162.99V137.152H174.398V136.674Z" fill="white"/>
<path d="M126.862 136.674H123.074V137.152H126.862V136.674Z" fill="white"/>
<path d="M181.978 136.674H174.875V137.152H181.978V136.674Z" fill="white"/>
<path d="M162.514 136.674H151.106V137.152H162.514V136.674Z" fill="white"/>
<path d="M138.746 136.674H127.338V137.152H138.746V136.674Z" fill="white"/>
<path d="M150.63 136.674H139.222V137.152H150.63V136.674Z" fill="white"/>
<path d="M174.398 148.599V149.077V160.525V161.003V172.451V172.929V184.377V184.855V189.317H174.874V184.855V184.377V172.929V172.451V161.003V160.525V149.077V148.599V137.152V136.674V130.205H174.398V136.674V137.152V148.599Z" fill="white"/>
<path d="M162.514 148.599V149.077V160.525V161.003V172.451V172.929V184.377V184.855V189.317H162.99V184.855V184.377V172.929V172.451V161.003V160.525V149.077V148.599V137.152V136.674V130.205H162.514V136.674V137.152V148.599Z" fill="white"/>
<path d="M150.63 148.599V149.077V160.525V161.003V172.451V172.929V184.377V184.855V189.317H151.106V184.855V184.377V172.929V172.451V161.003V160.525V149.077V148.599V137.152V136.674V130.205H150.63V136.674V137.152V148.599Z" fill="white"/>
<path d="M138.746 148.599V149.077V160.525V161.003V172.451V172.929V184.377V184.855V189.317H139.222V184.855V184.377V172.929V172.451V161.003V160.525V149.077V148.599V137.152V136.674V130.205H138.746V136.674V137.152V148.599Z" fill="white"/>
<path d="M126.862 184.855V189.317H127.338V184.855V184.377V172.929V172.451V161.003V160.525V149.077V148.599V137.152V136.674V130.205H126.862V136.674V137.152V148.599V149.077V160.525V161.003V172.451V172.929V184.377V184.855Z" fill="white"/>
<path d="M156.706 165.077V178.002H148.294V164.974L134.219 141.521H143.151L152.862 157.731L162.574 141.521H170.831L156.706 165.077Z" fill="#443FE0"/>
<path d="M252.412 129.882H192.862V189.642H252.412V129.882Z" fill="#E5ECFF"/>
<path d="M252.65 189.881H192.623V129.642H252.65V189.881ZM193.1 189.402H252.173V130.12H193.1V189.402Z" fill="#8B88ED"/>
<path d="M244.508 184.377H233.101V184.855H244.508V184.377Z" fill="white"/>
<path d="M208.856 184.377H197.449V184.855H208.856V184.377Z" fill="white"/>
<path d="M220.74 184.377H209.333V184.855H220.74V184.377Z" fill="white"/>
<path d="M232.624 184.377H221.217V184.855H232.624V184.377Z" fill="white"/>
<path d="M252.089 184.377H244.985V184.855H252.089V184.377Z" fill="white"/>
<path d="M196.972 184.377H193.185V184.855H196.972V184.377Z" fill="white"/>
<path d="M244.508 172.451H233.101V172.929H244.508V172.451Z" fill="white"/>
<path d="M220.74 172.451H209.333V172.929H220.74V172.451Z" fill="white"/>
<path d="M196.972 172.451H193.185V172.929H196.972V172.451Z" fill="white"/>
<path d="M252.089 172.451H244.985V172.929H252.089V172.451Z" fill="white"/>
<path d="M232.624 172.451H221.217V172.929H232.624V172.451Z" fill="white"/>
<path d="M208.856 172.451H197.449V172.929H208.856V172.451Z" fill="white"/>
<path d="M244.508 160.525H233.101V161.003H244.508V160.525Z" fill="white"/>
<path d="M232.624 160.525H221.217V161.003H232.624V160.525Z" fill="white"/>
<path d="M208.856 160.525H197.449V161.003H208.856V160.525Z" fill="white"/>
<path d="M220.74 160.525H209.333V161.003H220.74V160.525Z" fill="white"/>
<path d="M196.972 160.525H193.185V161.003H196.972V160.525Z" fill="white"/>
<path d="M252.089 160.525H244.985V161.003H252.089V160.525Z" fill="white"/>
<path d="M220.74 148.599H209.333V149.077H220.74V148.599Z" fill="white"/>
<path d="M252.089 148.599H244.985V149.077H252.089V148.599Z" fill="white"/>
<path d="M208.856 148.599H197.449V149.077H208.856V148.599Z" fill="white"/>
<path d="M232.624 148.599H221.217V149.077H232.624V148.599Z" fill="white"/>
<path d="M196.972 148.599H193.185V149.077H196.972V148.599Z" fill="white"/>
<path d="M244.508 148.599H233.101V149.077H244.508V148.599Z" fill="white"/>
<path d="M244.508 136.674H233.101V137.152H244.508V136.674Z" fill="white"/>
<path d="M196.972 136.674H193.185V137.152H196.972V136.674Z" fill="white"/>
<path d="M252.089 136.674H244.985V137.152H252.089V136.674Z" fill="white"/>
<path d="M232.624 136.674H221.217V137.152H232.624V136.674Z" fill="white"/>
<path d="M208.856 136.674H197.449V137.152H208.856V136.674Z" fill="white"/>
<path d="M220.74 136.674H209.333V137.152H220.74V136.674Z" fill="white"/>
<path d="M244.508 148.599V149.077V160.525V161.003V172.451V172.929V184.377V184.855V189.317H244.985V184.855V184.377V172.929V172.451V161.003V160.525V149.077V148.599V137.152V136.674V130.205H244.508V136.674V137.152V148.599Z" fill="white"/>
<path d="M232.624 148.599V149.077V160.525V161.003V172.451V172.929V184.377V184.855V189.317H233.101V184.855V184.377V172.929V172.451V161.003V160.525V149.077V148.599V137.152V136.674V130.205H232.624V136.674V137.152V148.599Z" fill="white"/>
<path d="M220.74 148.599V149.077V160.525V161.003V172.451V172.929V184.377V184.855V189.317H221.217V184.855V184.377V172.929V172.451V161.003V160.525V149.077V148.599V137.152V136.674V130.205H220.74V136.674V137.152V148.599Z" fill="white"/>
<path d="M208.856 148.599V149.077V160.525V161.003V172.451V172.929V184.377V184.855V189.317H209.333V184.855V184.377V172.929V172.451V161.003V160.525V149.077V148.599V137.152V136.674V130.205H208.856V136.674V137.152V148.599Z" fill="white"/>
<path d="M196.972 184.855V189.317H197.449V184.855V184.377V172.929V172.451V161.003V160.525V149.077V148.599V137.152V136.674V130.205H196.972V136.674V137.152V148.599V149.077V160.525V161.003V172.451V172.929V184.377V184.855Z" fill="white"/>
<path d="M205.292 159.764C205.292 148.765 213.705 140.898 225.026 140.898C231.31 140.898 236.555 143.19 239.982 147.36L234.58 152.363C232.14 149.546 229.077 148.09 225.44 148.09C218.636 148.09 213.808 152.881 213.808 159.764C213.808 166.642 218.636 171.437 225.44 171.437C229.076 171.437 232.139 169.978 234.58 167.109L239.982 172.112C236.555 176.334 231.31 178.626 224.973 178.626C213.704 178.626 205.292 170.758 205.292 159.764Z" fill="#443FE0"/>
<path d="M122.752 129.882H63.2021V189.642H122.752V129.882Z" fill="#E5ECFF"/>
<path d="M122.99 189.881H62.9634V129.642H122.99V189.881ZM63.4401 189.402H122.514V130.12H63.4401V189.402Z" fill="#8B88ED"/>
<path d="M114.848 184.377H103.441V184.855H114.848V184.377Z" fill="white"/>
<path d="M79.1963 184.377H67.7891V184.855H79.1963V184.377Z" fill="white"/>
<path d="M91.0804 184.377H79.6731V184.855H91.0804V184.377Z" fill="white"/>
<path d="M102.964 184.377H91.5571V184.855H102.964V184.377Z" fill="white"/>
<path d="M122.429 184.377H115.325V184.855H122.429V184.377Z" fill="white"/>
<path d="M67.3122 184.377H63.5251V184.855H67.3122V184.377Z" fill="white"/>
<path d="M114.848 172.451H103.441V172.929H114.848V172.451Z" fill="white"/>
<path d="M91.0804 172.451H79.6731V172.929H91.0804V172.451Z" fill="white"/>
<path d="M67.3122 172.451H63.5251V172.929H67.3122V172.451Z" fill="white"/>
<path d="M122.429 172.451H115.325V172.929H122.429V172.451Z" fill="white"/>
<path d="M102.964 172.451H91.5571V172.929H102.964V172.451Z" fill="white"/>
<path d="M79.1963 172.451H67.7891V172.929H79.1963V172.451Z" fill="white"/>
<path d="M114.848 160.525H103.441V161.003H114.848V160.525Z" fill="white"/>
<path d="M102.964 160.525H91.5571V161.003H102.964V160.525Z" fill="white"/>
<path d="M79.1963 160.525H67.7891V161.003H79.1963V160.525Z" fill="white"/>
<path d="M91.0804 160.525H79.6731V161.003H91.0804V160.525Z" fill="white"/>
<path d="M67.3122 160.525H63.5251V161.003H67.3122V160.525Z" fill="white"/>
<path d="M122.429 160.525H115.325V161.003H122.429V160.525Z" fill="white"/>
<path d="M91.0804 148.599H79.6731V149.077H91.0804V148.599Z" fill="white"/>
<path d="M122.429 148.599H115.325V149.077H122.429V148.599Z" fill="white"/>
<path d="M79.1963 148.599H67.7891V149.077H79.1963V148.599Z" fill="white"/>
<path d="M102.964 148.599H91.5571V149.077H102.964V148.599Z" fill="white"/>
<path d="M67.3122 148.599H63.5251V149.077H67.3122V148.599Z" fill="white"/>
<path d="M114.848 148.599H103.441V149.077H114.848V148.599Z" fill="white"/>
<path d="M114.848 136.674H103.441V137.152H114.848V136.674Z" fill="white"/>
<path d="M67.3122 136.674H63.5251V137.152H67.3122V136.674Z" fill="white"/>
<path d="M122.429 136.674H115.325V137.152H122.429V136.674Z" fill="white"/>
<path d="M102.964 136.674H91.5571V137.152H102.964V136.674Z" fill="white"/>
<path d="M79.1963 136.674H67.7891V137.152H79.1963V136.674Z" fill="white"/>
<path d="M91.0804 136.674H79.6731V137.152H91.0804V136.674Z" fill="white"/>
<path d="M114.848 148.599V149.077V160.525V161.003V172.451V172.929V184.377V184.855V189.317H115.325V184.855V184.377V172.929V172.451V161.003V160.525V149.077V148.599V137.152V136.674V130.205H114.848V136.674V137.152V148.599Z" fill="white"/>
<path d="M102.964 148.599V149.077V160.525V161.003V172.451V172.929V184.377V184.855V189.317H103.441V184.855V184.377V172.929V172.451V161.003V160.525V149.077V148.599V137.152V136.674V130.205H102.964V136.674V137.152V148.599Z" fill="white"/>
<path d="M91.0803 148.599V149.077V160.525V161.003V172.451V172.929V184.377V184.855V189.317H91.5571V184.855V184.377V172.929V172.451V161.003V160.525V149.077V148.599V137.152V136.674V130.205H91.0803V136.674V137.152V148.599Z" fill="white"/>
<path d="M79.1963 148.599V149.077V160.525V161.003V172.451V172.929V184.377V184.855V189.317H79.673V184.855V184.377V172.929V172.451V161.003V160.525V149.077V148.599V137.152V136.674V130.205H79.1963V136.674V137.152V148.599Z" fill="white"/>
<path d="M67.3123 184.855V189.317H67.789V184.855V184.377V172.929V172.451V161.003V160.525V149.077V148.599V137.152V136.674V130.205H67.3123V136.674V137.152V148.599V149.077V160.525V161.003V172.451V172.929V184.377V184.855Z" fill="white"/>
<path d="M88.8744 163.672L83.9929 168.776V178.001H75.6331V141.52H83.9929V158.561L100.093 141.52H109.44L94.3806 157.781L110.322 178.001H100.508L88.8744 163.672Z" fill="#443FE0"/>
<path d="M225.867 109.706C225.833 109.624 225.991 109.346 226.024 109.277C226.169 108.967 226.371 108.678 226.636 108.46C227.242 107.959 228.096 107.928 228.8 108.226C229.233 108.41 229.545 108.713 229.803 109.099C230.052 109.471 230.09 109.866 230.291 110.253C230.513 110.682 230.882 111.027 231.279 111.292C232.084 111.831 233.124 112.237 233.79 112.979C234.304 113.554 234.551 114.363 234.444 115.138C234.324 116.014 233.764 116.64 233.101 117.175C230.045 119.643 225.874 109.723 225.867 109.706Z" fill="#102048"/>
<path d="M233.674 125.09C233.817 119.777 232.157 114.661 228.203 113.739C223.329 114.615 222.552 120.721 222.797 124.948C226.828 124.593 230.062 124.568 233.674 125.09Z" fill="#FBC343"/>
<path d="M228.203 113.739C228.203 113.739 220.776 114.569 220.455 121.537L223.443 123.567L228.203 113.739Z" fill="#FBC343"/>
<path d="M236.906 125.945C236.524 128.443 233.596 128.835 231.579 129.227C230.61 129.419 229.638 129.573 228.655 129.706C227.706 129.84 226.752 129.946 225.799 130.041C225.646 130.055 225.498 130.07 225.346 130.084L225.274 126.988L225.236 125.394C225.236 125.394 225.327 125.365 225.494 125.313C226.062 125.135 227.497 124.695 229.119 124.26C231.528 123.614 234.341 122.977 235.281 123.244C236.458 123.585 237.088 124.757 236.906 125.945Z" fill="#3A6BEA"/>
<path d="M221.871 126.287L217.629 130.197C217.629 130.197 222.25 130.059 222.698 129.159L221.871 126.287Z" fill="#102048"/>
<path opacity="0.3" d="M228.655 129.706C227.706 129.84 226.752 129.946 225.799 130.041C225.646 130.055 225.498 130.07 225.346 130.084L225.274 126.988L225.494 125.313C226.062 125.135 227.774 124.616 229.395 124.179C229.213 125.227 228.532 127.94 228.655 129.706Z" fill="#102048"/>
<path d="M221.995 141.909C221.995 141.909 225.42 141.724 227.029 139.694L223.535 138.771L221.995 141.909Z" fill="#1F3C88"/>
<path d="M225.764 137.898L226.997 143.98L222.109 145.492L223.623 142.37L223.032 139.09L225.764 137.898Z" fill="#102048"/>
<path d="M223.646 142.244L223.604 142.48L224.928 142.716L224.969 142.48L223.646 142.244Z" fill="white"/>
<path d="M223.443 123.567C222.058 124.644 221.206 126.268 221.11 128.023C220.901 131.841 220.75 138.594 221.995 141.909C221.995 141.909 224.409 139.21 227.029 139.694L227.167 126.82L228.891 123.152L223.443 123.567Z" fill="#3A6BEA"/>
<path d="M229.133 121.629C229.133 121.629 227.461 121.922 226.615 122.442C225.771 122.962 225.615 123.826 225.615 123.826H229.197L230.34 123.843L231.167 122.857L229.857 121.559L229.133 121.629Z" fill="#E28B6D"/>
<path d="M228.203 113.739C228.203 113.739 237.143 115.769 236.41 121.214C236.181 122.921 233.468 123.66 230.342 123.844C230.342 123.844 230.342 122.217 229.134 121.63L232.307 119.484L228.203 113.739Z" fill="#FBC343"/>
<path d="M226.685 111.648V114.429C226.685 115.042 227.178 115.537 227.789 115.537C228.4 115.537 228.893 115.042 228.893 114.429V111.648H226.685Z" fill="#E28B6D"/>
<path d="M226.685 112.14V113.684C227.888 113.395 228.431 112.247 228.431 112.247L226.685 112.14Z" fill="#102048"/>
<path d="M225.867 109.706C225.867 109.706 225.352 112.835 226.745 112.896C227.453 112.927 228.082 112.605 228.529 112.281C228.973 111.96 229.234 111.444 229.249 110.896L229.288 109.524L227.805 108.521C226.925 108.503 226.315 108.961 225.867 109.706Z" fill="#E28B6D"/>
<path d="M225.867 109.706C225.867 109.706 227.152 108.798 227.881 109.84C228.961 111.386 229.329 110.947 229.329 110.947L229.848 111.255C229.848 111.255 230.494 108.518 228.274 108.08C226.579 107.746 226.079 108.915 225.867 109.706Z" fill="#102048"/>
<path d="M228.636 110.537C228.433 110.889 228.496 111.307 228.776 111.47C229.057 111.632 229.448 111.478 229.651 111.126C229.854 110.774 229.791 110.356 229.51 110.193C229.23 110.031 228.838 110.185 228.636 110.537Z" fill="#E28B6D"/>
<path d="M229.198 123.807H224.169V124.525H229.198V123.807Z" fill="#1F3C88"/>
<path d="M226.761 124.525H219.815L217.964 118.852H224.91L226.761 124.525Z" fill="#1F3C88"/>
<path d="M229.197 121.73L229.069 121.528L232.828 119.142L232.956 119.345L229.197 121.73Z" fill="#E49B31"/>
<path d="M227.759 117.009C227.754 117.009 227.75 117.009 227.746 117.009C227.158 117.006 226.648 116.754 226.345 116.321L226.541 116.183C226.799 116.552 227.239 116.767 227.747 116.769C228.327 116.771 228.858 116.508 229.178 116.062L229.372 116.201C229.01 116.708 228.407 117.009 227.759 117.009Z" fill="#E49B31"/>
<path d="M213.161 108.155L210.89 102.15C211.895 100.468 212.482 98.5068 212.482 96.4024C212.482 90.2117 207.481 85.1926 201.312 85.1926C195.143 85.1926 190.142 90.2117 190.142 96.4024C190.142 102.593 195.143 107.612 201.312 107.612C203.832 107.612 206.149 106.765 208.018 105.352L213.161 108.155Z" fill="#F76F39"/>
<path d="M200.072 98.5419L200.053 98.0434C199.995 97.0634 200.32 96.0644 201.181 95.0263C201.794 94.296 202.291 93.6822 202.291 93.0292C202.291 92.3562 201.851 91.9149 200.894 91.8767C200.263 91.8767 199.496 92.1074 198.999 92.4535L198.348 90.3602C199.038 89.9569 200.187 89.5728 201.545 89.5728C204.074 89.5728 205.22 90.975 205.22 92.5688C205.22 94.0292 204.321 94.9891 203.594 95.7966C202.884 96.584 202.597 97.3332 202.616 98.1978V98.5439H200.072V98.5419ZM199.573 101.194C199.573 100.176 200.283 99.4456 201.278 99.4456C202.312 99.4456 202.982 100.176 203 101.194C203 102.193 202.312 102.942 201.278 102.942C200.264 102.942 199.573 102.193 199.573 101.194Z" fill="white"/>
<path d="M142.96 122.788L143.763 129.895L150.281 129.871L147.257 126.965L146.733 123.157L142.96 122.788Z" fill="#102048"/>
<path d="M145.788 127.787L145.687 127.57L147.206 126.855L147.307 127.073L145.788 127.787Z" fill="white"/>
<path d="M136.625 122.788L136.349 129.872H129.141L132.328 126.965L132.624 123.008L136.625 122.788Z" fill="#102048"/>
<path d="M133.797 127.787L132.277 127.073L132.379 126.855L133.898 127.57L133.797 127.787Z" fill="white"/>
<path d="M140.072 94.7324L139.938 96.1487L139.919 96.3683L139.776 97.919L139.051 105.716L137.434 123.171C137.367 123.922 136.742 124.492 135.994 124.492H132.879C132.059 124.492 131.405 123.812 131.429 122.994C131.687 114.287 131.744 106.156 132.488 99.258C132.564 98.4877 132.66 97.7314 132.759 96.9942L136.556 95.8166L140.072 94.7324Z" fill="#443FE0"/>
<path d="M144.303 97.0865C145.149 105.175 146.429 113.774 148.016 122.736C148.153 123.508 147.563 124.218 146.782 124.218H142.945C142.325 124.218 141.797 123.764 141.704 123.149L137.521 95.6331L144.303 97.0865Z" fill="#443FE0"/>
<path opacity="0.3" d="M144.303 97.0875L139.776 97.92L137.921 98.26L132.489 99.26C132.565 98.4897 132.661 97.7334 132.761 96.9962L136.557 95.8186L137.572 95.9862L139.919 96.3693L144.303 97.0875Z" fill="#030051"/>
<path d="M139.849 111.242L138.629 102.43L136.96 102.049L137.012 101.817L138.841 102.233L140.086 111.21L139.849 111.242Z" fill="#102048"/>
<path d="M147.582 89.3952C147.582 89.3952 149.358 86.7854 149.722 86.8827C150.205 87.011 149.44 87.9639 149.44 87.9639C149.44 87.9639 150.915 86.3721 151.157 86.5707C151.4 86.7683 150.734 87.671 150.734 87.671C150.734 87.671 151.596 86.7011 151.86 86.9569C152.124 87.2127 151.12 88.3822 151.12 88.3822C151.12 88.3822 151.869 87.3651 152.105 87.5436C152.342 87.7222 151.475 88.8446 151.475 88.8446C151.475 88.8446 152.089 88.33 152.215 88.5687C152.341 88.8075 150.338 91.4685 150.338 91.4685L147.943 91.6009L147.582 89.3952Z" fill="#F9B384"/>
<path d="M148.128 88.6199L145.702 91.5207C145.495 91.0492 145.274 90.6219 145.046 90.2258C144.037 90.631 142.422 91.3953 141.273 92.5036C142.149 94.4756 143.168 96.263 144.162 96.8217C146.71 98.255 150.335 91.4685 150.335 91.4685L148.128 88.6199Z" fill="#F9B384"/>
<path d="M138.892 85.8857C138.892 85.8857 139.906 89.4203 141.275 92.5037C142.424 91.3963 144.039 90.631 145.048 90.2258C142.522 85.8606 138.892 85.8857 138.892 85.8857Z" fill="#F76F39"/>
<path d="M144.303 97.0865C144.303 97.0865 142.786 86.658 138.832 85.7352C133.958 86.6118 132.518 92.7674 132.763 96.9942C136.794 96.6401 144.303 97.0865 144.303 97.0865Z" fill="#F76F39"/>
<path d="M131.866 93.7815C131.866 93.7815 134.974 92.0774 135.389 92.4375C135.804 92.7975 134.439 93.5408 134.439 93.5408C134.439 93.5408 136.739 92.938 136.857 93.2549C136.974 93.5719 135.886 94.1316 135.886 94.1316C135.886 94.1316 137.199 93.622 137.304 94.0012C137.408 94.3813 135.794 94.8688 135.794 94.8688C135.794 94.8688 137.08 94.3753 137.204 94.6702C137.327 94.9651 135.87 95.4877 135.87 95.4877C135.87 95.4877 136.744 95.3703 136.728 95.6562C136.712 95.942 133.08 96.7615 133.08 96.7615L130.958 95.9771L131.866 93.7815Z" fill="#F9B384"/>
<path d="M128.164 93.7644C128.164 93.7644 126.898 96.6622 128.371 97.8939C130.026 99.2781 135.475 96.0714 135.475 96.0714L132.832 94.295C132.901 93.277 133.104 92.3111 133.447 91.3983C132.001 90.9098 130.866 90.7483 130.074 90.7152C129.401 91.5758 128.754 92.5809 128.164 93.7644Z" fill="#F9B384"/>
<path d="M138.832 85.7352C138.832 85.7352 133.994 85.7061 130.074 90.7143C130.865 90.7474 132 90.9089 133.447 91.3973C134.293 89.1465 136.01 87.2297 138.832 85.7352Z" fill="#F76F39"/>
<path d="M133.56 91.4354L133.333 91.3622C133.734 90.1144 134.339 88.982 135.183 87.8987L135.371 88.0462C134.545 89.1064 133.952 90.2147 133.56 91.4354Z" fill="#92310A"/>
<path d="M141.743 89.5045L139.716 89.7125L139.74 89.95L141.768 89.742L141.743 89.5045Z" fill="#92310A"/>
<path d="M133.253 92.9623L129.615 94.247L129.695 94.4731L133.332 93.1884L133.253 92.9623Z" fill="#E28B6D"/>
<path d="M146.229 90.7746L144.591 92.5412L144.766 92.7045L146.404 90.9379L146.229 90.7746Z" fill="#E28B6D"/>
<path d="M139.588 83.4102V86.1906C139.588 86.8034 139.094 87.2989 138.484 87.2989C137.873 87.2989 137.379 86.8034 137.379 86.1906V83.4102H139.588Z" fill="#F9B384"/>
<path d="M139.588 83.9017V85.4453C138.385 85.1565 137.842 84.009 137.842 84.009L139.588 83.9017Z" fill="#102048"/>
<path d="M140.406 81.4663C140.406 81.4663 140.92 84.5958 139.527 84.657C138.134 84.7181 137.044 83.4112 137.044 83.4112L136.983 81.2838L138.467 80.2807L140.406 81.4663Z" fill="#F9B384"/>
<path d="M140.406 81.4663C140.406 81.4663 139.27 80.6308 138.499 80.9347C137.727 81.2386 137.272 81.6639 137.272 83.1684L136.425 83.017C136.425 83.017 135.779 80.2797 137.999 79.8414C139.694 79.5074 140.194 80.6769 140.406 81.4663Z" fill="#102048"/>
<path d="M137.399 83.7696C137.684 83.5427 137.686 83.0686 137.403 82.7106C137.12 82.3525 136.659 82.2462 136.374 82.4731C136.089 82.7 136.088 83.1741 136.371 83.5322C136.654 83.8902 137.114 83.9965 137.399 83.7696Z" fill="#F9B384"/>
<path d="M120.294 74.2516H105.331C104.327 74.2516 103.512 75.069 103.512 76.0771V83.7542C103.512 84.7623 104.327 85.5798 105.331 85.5798H113.678L118.616 89.4083V85.5798H120.294C121.298 85.5798 122.113 84.7623 122.113 83.7542V76.0771C122.113 75.069 121.298 74.2516 120.294 74.2516Z" fill="#443FE0"/>
<path d="M108.47 80.9989C109.151 80.9989 109.703 80.4448 109.703 79.7612C109.703 79.0776 109.151 78.5234 108.47 78.5234C107.789 78.5234 107.236 79.0776 107.236 79.7612C107.236 80.4448 107.789 80.9989 108.47 80.9989Z" fill="white"/>
<path d="M112.812 80.9989C113.493 80.9989 114.045 80.4448 114.045 79.7612C114.045 79.0776 113.493 78.5234 112.812 78.5234C112.13 78.5234 111.578 79.0776 111.578 79.7612C111.578 80.4448 112.13 80.9989 112.812 80.9989Z" fill="white"/>
<path d="M117.154 80.9989C117.836 80.9989 118.388 80.4448 118.388 79.7612C118.388 79.0776 117.836 78.5234 117.154 78.5234C116.473 78.5234 115.921 79.0776 115.921 79.7612C115.921 80.4448 116.473 80.9989 117.154 80.9989Z" fill="white"/>
<path d="M96.3619 62.6034H48.4958C49.3014 59.3586 52.221 56.9503 55.7022 56.9503C56.8806 56.9503 57.9911 57.2231 58.9786 57.7116C60.195 53.2321 64.2819 49.9391 69.1325 49.9391C74.0071 49.9391 78.109 53.2612 79.3054 57.7748C81.0745 56.9513 83.2114 56.4729 85.5203 56.4729C90.9396 56.4729 95.4413 59.1189 96.3619 62.6034Z" fill="white"/>
<path d="M96.6716 62.8431H48.1899L48.2639 62.5462C49.1175 59.1118 52.1759 56.7126 55.7022 56.7126C56.7956 56.7126 57.8461 56.9363 58.8266 57.3766C60.1869 52.8429 64.3838 49.7004 69.1324 49.7004C73.913 49.7004 78.1199 52.87 79.4602 57.4428C81.2653 56.6514 83.3533 56.2341 85.5202 56.2341C90.9695 56.2341 95.6261 58.8872 96.5916 62.5432L96.6716 62.8431ZM48.8076 62.3647H96.0419C94.9575 59.0717 90.6046 56.7126 85.5202 56.7126C83.3193 56.7126 81.2054 57.1549 79.4063 57.9925L79.1484 58.1128L79.0754 57.837C77.88 53.3284 73.7911 50.1799 69.1324 50.1799C64.5037 50.1799 60.4228 53.3043 59.2084 57.7768L59.1324 58.0567L58.8726 57.9283C57.8851 57.4398 56.8176 57.192 55.7012 57.192C52.4978 57.19 49.7052 59.3024 48.8076 62.3647Z" fill="#443FE0"/>
<path d="M218.957 62.7889H258.831C258.159 59.8912 255.728 57.7417 252.828 57.7417C251.847 57.7417 250.921 57.9854 250.099 58.4218C249.085 54.4217 245.681 51.4808 241.64 51.4808C237.579 51.4808 234.163 54.4468 233.165 58.4769C231.691 57.7417 229.911 57.3144 227.988 57.3144C223.475 57.3144 219.724 59.6776 218.957 62.7889Z" fill="white"/>
<path d="M259.132 63.0287H218.652L218.725 62.7318C219.533 59.4539 223.428 57.0747 227.988 57.0747C229.78 57.0747 231.509 57.4408 233.008 58.1359C234.141 54.0616 237.651 51.2411 241.64 51.2411C245.602 51.2411 249.104 54.0375 250.252 58.0767C251.062 57.6956 251.928 57.502 252.828 57.502C255.786 57.502 258.35 59.6535 259.064 62.7348L259.132 63.0287ZM219.271 62.5502H258.524C257.771 59.845 255.468 57.9814 252.827 57.9814C251.906 57.9814 251.025 58.2011 250.209 58.6334L249.942 58.7758L249.867 58.4809C248.859 54.5009 245.476 51.7205 241.639 51.7205C237.778 51.7205 234.388 54.523 233.396 58.5351L233.324 58.824L233.058 58.6916C231.566 57.9473 229.812 57.5541 227.988 57.5541C223.786 57.5541 220.186 59.6374 219.271 62.5502Z" fill="#443FE0"/>
<path d="M272.904 182.82L274.408 189.554L267.595 189.53L270.272 187.234L269.552 183.942L272.904 182.82Z" fill="#102048"/>
<path d="M271.451 188.043L270.225 187.392L270.392 187.075L271.619 187.726L271.451 188.043Z" fill="white"/>
<path d="M287.505 178.298L290.894 184.737L285.925 189.556L286.279 184.484L284.441 180.577L287.505 178.298Z" fill="#102048"/>
<path d="M267.515 163.311L267.872 164.697C267.872 164.697 264.308 171.325 264.743 174.377C265.178 177.429 269.012 184.99 269.012 184.99L274.059 184.556L271.608 173.413L275.868 166.702L272.565 157.893L267.515 163.311Z" fill="#F76F39"/>
<path d="M277.271 159.174C277.271 159.174 282.422 170.845 288.983 178.66L283.755 182.314C278.879 176.694 274.355 168.717 269.516 160.317L277.271 159.174Z" fill="#F76F39"/>
<path d="M286.273 184.522L286.266 184.881L288.141 184.917L288.148 184.558L286.273 184.522Z" fill="white"/>
<path d="M273.941 184.582L271.48 173.391L271.506 173.35L276.114 166.046L276.315 166.173L271.734 173.436L274.174 184.53L273.941 184.582Z" fill="#B7522B"/>
<path d="M275.866 166.703C275.866 166.703 275.897 169.46 275.817 170.935L274.506 168.861L275.866 166.703Z" fill="#B7522B"/>
<path d="M269.864 184.781C269.834 184.708 266.854 177.453 266.596 173.575C266.44 171.237 269.21 164.635 269.454 164.059L269.141 161.858L269.377 161.824L269.7 164.091L269.686 164.122C269.656 164.192 266.678 171.222 266.833 173.559C267.088 177.399 270.053 184.617 270.083 184.689L269.864 184.781Z" fill="#B7522B"/>
<path d="M267.179 152.418L269.155 150.979L267.467 148.312L266.799 148.151L265.456 149.384L265.489 149.445L266.318 150.903L267.179 152.418Z" fill="#F9B384"/>
<path d="M266.318 150.903C267.076 149.784 266.719 148.744 266.719 148.744L265.488 149.444L266.318 150.903Z" fill="#102048"/>
<path d="M263.125 147.046C263.125 147.046 264.169 150.72 265.522 150.237C266.874 149.755 267.157 148.05 267.157 148.05L265.842 146.366L264.602 146.073L263.125 147.046Z" fill="#F9B384"/>
<path d="M264.061 149.216C264.26 149.085 264.319 148.824 264.193 148.632C264.068 148.44 263.806 148.391 263.607 148.521C263.409 148.652 263.349 148.914 263.475 149.105C263.6 149.297 263.863 149.346 264.061 149.216Z" fill="#F9B384"/>
<path d="M265.22 147.827C265.22 147.827 264.77 146.527 264.146 147.015C263.522 147.505 262.701 147.89 262.252 147.341C261.854 146.855 262.208 146.047 262.709 145.794C263.057 145.617 263.464 145.584 263.829 145.446C264.218 145.3 264.597 145.124 264.998 145.007C265.582 144.839 266.281 144.82 266.683 145.356C267.589 146.564 268.083 148.484 267.741 148.852C267.399 149.22 266.124 147.723 265.72 148.054L265.22 147.827Z" fill="#102048"/>
<path d="M265.082 147.88C265.164 148.199 265.434 148.405 265.685 148.34C265.936 148.275 266.071 147.964 265.988 147.644C265.906 147.324 265.637 147.119 265.386 147.184C265.135 147.249 264.999 147.56 265.082 147.88Z" fill="#F9B384"/>
<path d="M277.271 159.176C277.271 159.176 270.918 160.305 267.513 163.311C267.48 163.311 267.165 162.417 266.821 161.091C266.53 159.966 266.22 158.52 266.058 157.056C265.725 154.146 265.963 151.126 268.056 150.311C272.439 148.607 277.271 159.176 277.271 159.176Z" fill="#443FE0"/>
<path d="M266.821 161.09C266.53 159.965 266.22 158.519 266.058 157.055L268.823 155.18C268.822 155.181 268.663 158.491 266.821 161.09Z" fill="#201BA4"/>
<path d="M255.985 155.397L254.216 154.796C254.216 154.796 253.341 150.911 252.981 151.658C252.532 152.589 252.59 156.416 252.628 157.833C252.637 158.157 252.832 158.445 253.129 158.572L255.168 159.449L256.706 157.206L255.985 155.397Z" fill="#F9B384"/>
<path d="M267.184 150.766C267.184 150.766 263.483 154.624 262.473 156.602L255.985 155.397L255.167 159.449L261.174 161.202C261.684 161.351 262.215 161.409 262.746 161.373C264.041 161.284 265.235 160.644 266.028 159.613L269.492 155.108L267.184 150.766Z" fill="#443FE0"/>
<path d="M283.694 127.698H274.018V137.408H283.694V127.698Z" fill="white"/>
<path d="M283.933 137.647H273.781V127.458H283.933V137.647ZM274.257 137.169H283.457V127.937H274.257V137.169Z" fill="#A19FF2"/>
<path d="M278.581 135.31L276.478 131.869L276.886 131.618L278.546 134.338L281.125 129.348L281.549 129.568L278.581 135.31Z" fill="#A19FF2"/>
<path d="M40.4878 162.13C40.4878 162.13 40.7227 165.371 40.2619 165.545C39.8001 165.72 39.7012 164.298 39.7012 164.298C39.7012 164.298 39.3224 166.407 39.0115 166.363C38.7007 166.319 38.6497 165.199 38.6497 165.199C38.6497 165.199 38.5728 166.476 38.2139 166.394C37.8551 166.31 38.067 164.802 38.067 164.802C38.067 164.802 37.987 166.051 37.6922 166.02C37.3973 165.989 37.5193 164.59 37.5193 164.59C37.5193 164.59 37.2824 165.343 37.0485 165.204C36.8146 165.066 37.5333 161.698 37.5333 161.698L38.9975 160.438L40.4878 162.13Z" fill="#F9B384"/>
<path d="M43.0077 148.163C43.0077 148.163 38.9617 149.691 37.5254 161.698L40.4189 162.473L43.0077 148.163Z" fill="#E49B31"/>
<path d="M45.6402 183.594L45.0525 189.881H51.905L48.7066 187.13L49.2294 183.528L45.6402 183.594Z" fill="#102048"/>
<path d="M48.6198 186.968L47.3582 187.644L47.5267 187.961L48.7883 187.285L48.6198 186.968Z" fill="white"/>
<path d="M39.8311 183.594L39.2444 189.881H46.097L42.8986 187.13L43.4213 183.528L39.8311 183.594Z" fill="#102048"/>
<path d="M42.8064 186.984L41.4792 187.792L41.6648 188.099L42.992 187.291L42.8064 186.984Z" fill="white"/>
<path d="M49.0335 158.248C49.0335 158.248 50.2668 162.253 51.4303 165.389C52.1119 167.226 52.3808 169.189 52.2219 171.144C51.911 174.967 51.2544 181.247 50.0999 184.838L44.2698 184.577L45.3143 169.994L42.1819 156.721L49.0335 158.248Z" fill="#7D69ED"/>
<path d="M39.929 158.838C39.929 158.838 38.5257 177.895 38.7216 184.445L44.2689 184.577L46.4228 167.418L43.1594 157.398L39.929 158.838Z" fill="#7D69ED"/>
<path d="M44.3888 184.585L44.1499 184.568L45.1934 170.005L43.844 165.021L41.895 164.752L41.928 164.515L44.0329 164.805L45.4332 169.982L45.4322 170.002L44.3888 184.585Z" fill="#102048"/>
<path d="M48.6667 184.779L48.4328 184.733C48.4538 184.626 50.5138 173.927 50.2789 169.566C50.044 165.211 47.0405 158.37 47.0095 158.3L47.2274 158.203C47.2584 158.272 50.2799 165.154 50.5168 169.552C50.7526 173.945 48.6867 184.671 48.6667 184.779Z" fill="#102048"/>
<path d="M45.6501 149.433L43.2952 149.321L43.2502 146.272L43.704 145.786L45.4402 146.068L45.4452 146.134L45.5451 147.752L45.6501 149.433Z" fill="#F9B384"/>
<path d="M45.5451 147.752C44.3427 147.252 44.0818 146.224 44.0818 146.224L45.4441 146.134L45.5451 147.752Z" fill="#102048"/>
<path d="M46.0869 142.942C46.0869 142.942 47.1834 146.462 45.8361 146.792C44.4897 147.122 43.3623 145.896 43.3623 145.896L43.5342 143.838L44.3798 142.942H46.0869Z" fill="#F9B384"/>
<path d="M46.8855 144.788C46.8855 145.009 46.6996 145.188 46.4707 145.188C46.2418 145.188 46.0559 145.008 46.0559 144.788C46.0559 144.566 46.2418 144.387 46.4707 144.387C46.6996 144.387 46.8855 144.567 46.8855 144.788Z" fill="#F9B384"/>
<path d="M44.8085 144.686C44.8085 144.686 44.4847 143.397 45.2473 143.46C46.0089 143.524 46.8755 143.397 46.9484 142.717C47.0214 142.036 45.842 141.167 45.0384 142.088C45.0384 142.088 42.4187 142.015 42.3248 143.471C42.2308 144.927 42.8465 146.738 43.3163 146.854C43.786 146.969 44.0259 145.083 44.5267 145.136L44.8085 144.686Z" fill="#102048"/>
<path d="M44.9475 144.655C45.0495 144.957 44.9405 145.266 44.7046 145.347C44.4678 145.427 44.1939 145.249 44.092 144.947C43.99 144.645 44.0989 144.336 44.3348 144.255C44.5707 144.174 44.8456 144.353 44.9475 144.655Z" fill="#F9B384"/>
<path d="M49.0356 158.247C49.0356 158.247 49.0256 158.247 49.0116 158.242C48.8347 158.213 47.7003 158.036 46.1831 157.979C44.309 157.903 41.8572 158.017 39.9302 158.836C39.8352 158.879 40.0251 148.033 44.0751 147.899C48.1201 147.77 49.0356 158.247 49.0356 158.247Z" fill="#FBC343"/>
<path d="M49.0116 158.242C48.8347 158.213 47.7003 158.036 46.183 157.979C44.7328 153.765 45.7462 150.175 45.7462 150.175L49.0116 158.242Z" fill="#E49B31"/>
<path d="M52.6556 160.213C52.6556 160.213 54.9944 162.746 54.7336 163.204C54.4727 163.662 53.4502 162.549 53.4502 162.549C53.4502 162.549 54.5377 164.557 54.2548 164.732C53.9719 164.906 53.1893 164.012 53.1893 164.012C53.1893 164.012 53.9729 165.125 53.6241 165.299C53.2763 165.474 52.4497 164.077 52.4497 164.077C52.4497 164.077 53.2113 165.168 52.9504 165.343C52.6896 165.517 51.863 164.273 51.863 164.273C51.863 164.273 52.1678 165.06 51.885 165.103C51.6021 165.147 50.0139 161.948 50.0139 161.948L50.3188 159.82L52.6556 160.213Z" fill="#F9B384"/>
<path d="M44.6606 147.945C44.6606 147.945 47.3843 147.956 48.8375 151.144C49.7181 153.076 50.8275 157.037 52.6556 160.214L50.013 161.949C50.013 161.949 45.923 156.241 45.5752 151.133L44.6606 147.945Z" fill="#FBC343"/>
<path d="M39.4363 137.962L38.2998 134.957C38.8026 134.115 39.0974 133.133 39.0974 132.08C39.0974 128.982 36.5947 126.469 33.5062 126.469C30.4178 126.469 27.915 128.981 27.915 132.08C27.915 135.178 30.4178 137.691 33.5062 137.691C34.7676 137.691 35.927 137.267 36.8625 136.56L39.4363 137.962Z" fill="white"/>
<path d="M39.8871 138.479L36.8816 136.843C35.8881 137.555 34.7237 137.93 33.5063 137.93C30.2919 137.93 27.6772 135.306 27.6772 132.08C27.6772 128.854 30.2919 126.23 33.5063 126.23C36.7207 126.23 39.3354 128.855 39.3354 132.08C39.3354 133.093 39.0685 134.093 38.5628 134.979L39.8871 138.479ZM33.5063 126.708C30.5548 126.708 28.154 129.117 28.154 132.079C28.154 135.041 30.5548 137.45 33.5063 137.45C34.6707 137.45 35.7822 137.076 36.7187 136.368L36.8416 136.276L38.9856 137.444L38.036 134.934L38.095 134.834C38.5948 133.998 38.8586 133.046 38.8586 132.081C38.8586 129.118 36.4578 126.708 33.5063 126.708Z" fill="#A19FF2"/>
<path d="M31.6742 132.113C31.6742 132.498 31.3634 132.81 30.9796 132.81C30.5958 132.81 30.2849 132.498 30.2849 132.113C30.2849 131.728 30.5958 131.416 30.9796 131.416C31.3634 131.416 31.6742 131.728 31.6742 132.113Z" fill="#7874EA"/>
<path d="M34.119 132.113C34.119 132.498 33.8082 132.81 33.4244 132.81C33.0406 132.81 32.7297 132.498 32.7297 132.113C32.7297 131.728 33.0406 131.416 33.4244 131.416C33.8082 131.416 34.119 131.728 34.119 132.113Z" fill="#7874EA"/>
<path d="M36.5626 132.113C36.5626 132.498 36.2518 132.81 35.868 132.81C35.4842 132.81 35.1733 132.498 35.1733 132.113C35.1733 131.728 35.4842 131.416 35.868 131.416C36.2518 131.416 36.5626 131.728 36.5626 132.113Z" fill="#7874EA"/>
<path d="M327 189H0V190H327V189Z" fill="#102048"/>
</g>
</svg>
