<svg width="22" height="31" viewBox="0 0 22 31" fill="none" xmlns="http://www.w3.org/2000/svg">
<path d="M10.9863 13.9881C10.8402 13.9735 10.6649 13.9735 10.5042 13.9881C7.02761 13.8713 4.26676 11.0228 4.26676 7.51694C4.26676 3.93806 7.15908 1.03113 10.7526 1.03113C14.3314 1.03113 17.2384 3.93806 17.2384 7.51694C17.2238 11.0228 14.4629 13.8713 10.9863 13.9881Z" stroke="white" stroke-width="2" stroke-linecap="round" stroke-linejoin="round"/>
<path d="M3.68243 19.3783C0.147366 21.7447 0.147366 25.6012 3.68243 27.953C7.69954 30.6408 14.2876 30.6408 18.3047 27.953C21.8398 25.5866 21.8398 21.7301 18.3047 19.3783C14.3022 16.7051 7.71415 16.7051 3.68243 19.3783Z" stroke="white" stroke-width="2" stroke-linecap="round" stroke-linejoin="round"/>
</svg>
