<svg width="30" height="31" viewBox="0 0 30 31" fill="none" xmlns="http://www.w3.org/2000/svg">
<path d="M25.942 14.8127C24.7305 16.136 23.5027 17.4433 22.2325 18.7105C19.2835 21.6535 15.9534 24.1159 12.4019 26.3059C10.1384 27.7029 7.8212 29.0102 5.49911 30.3095C5.24508 30.4521 5.08386 30.3912 4.97965 30.1205C4.86077 29.8161 4.91777 29.5261 5.05293 29.2441C5.1604 29.0182 5.3037 28.8116 5.48934 28.6434C7.06237 27.2127 8.16805 25.4536 9.15812 23.6129C9.84205 22.3392 10.5081 21.056 11.3027 19.8432C11.9573 18.8451 12.7536 17.964 13.5825 17.1053C14.7712 15.8749 15.9827 14.6637 17.2187 13.4782C18.4612 12.2895 19.7297 11.1296 21.0194 9.9905C21.534 9.53551 21.9655 8.99882 22.4915 8.55344C22.9588 8.15934 23.4359 7.77965 23.9489 7.44481C24.3576 7.17887 24.7175 6.85045 25.1327 6.59412C25.7141 6.23685 26.3231 5.93727 27.0265 5.96771C27.7316 5.99815 28.4498 6.05742 29.023 6.52843C29.4887 6.90972 29.886 7.3535 29.9674 7.98631C29.9691 7.99432 29.9886 7.99913 30 8.00714C30 8.02156 30 8.03437 30 8.04879C29.9658 8.17215 29.9658 8.29711 30 8.42047C30 8.47494 30 8.53101 30 8.58548C29.9577 8.63515 29.9919 8.69923 29.9723 8.7521C29.9186 9.43778 29.5962 10.0209 29.2558 10.5993C28.5475 11.8072 27.6714 12.887 26.6585 13.8611C26.4794 14.0341 26.2856 14.1911 26.0967 14.3529C25.9974 14.4378 25.8948 14.5227 25.7499 14.5324C25.8036 14.6477 25.9795 14.6589 25.942 14.8127Z" fill="#2E2E2E"/>
<path d="M14.9796 0C15.5773 0.222687 15.7092 0.421344 15.714 1.07338C15.7352 3.39638 15.7613 5.72098 15.7792 8.04398C15.7808 8.18656 15.8329 8.217 15.9599 8.217C16.2286 8.217 16.4843 8.28108 16.7237 8.40284C17.1666 8.63033 17.3441 9.02765 17.1812 9.49064C16.9891 10.0369 16.696 10.5256 16.2449 10.9085C15.675 11.3923 15.0269 11.4772 14.325 11.2481C13.9244 11.1167 13.5613 10.9133 13.2324 10.6537C12.4507 10.0353 12.4328 9.08532 13.2584 8.51659C13.6362 8.25705 13.716 7.99431 13.6867 7.58418C13.6004 6.33297 13.7241 5.08656 13.8218 3.84015C13.8935 2.92858 13.9831 2.017 13.9586 1.10382C13.9424 0.56553 14.1182 0.189044 14.6426 0C14.7549 0 14.8673 0 14.9796 0Z" fill="#2E2E2E"/>
<path d="M17.7479 0C18.0378 0.113747 18.2674 0.277158 18.3113 0.615194C18.396 1.26243 17.7723 1.82956 17.1959 1.62289C16.8588 1.50114 16.6471 1.17592 16.6569 0.797829C16.6667 0.438966 16.8849 0.160207 17.2382 0.0496641C17.2822 0.0352455 17.3392 0.0544703 17.3685 0.00320413C17.4971 0 17.6225 0 17.7479 0Z" fill="#F76F39"/>
<path d="M25.942 14.8127C25.8867 14.6669 25.7157 14.6397 25.6147 14.4891C25.8313 14.5291 25.9599 14.4074 26.0935 14.2936C27.5053 13.0793 28.6468 11.6534 29.5245 10.0225C29.7411 9.62039 29.86 9.18303 29.9495 8.73926C30.0147 8.81615 29.9397 8.91869 29.9984 8.99879C29.9984 9.05326 29.9984 9.10933 29.9984 9.1638C29.9121 9.28716 29.9267 9.43776 29.8941 9.57393C29.7362 10.2436 29.3763 10.8171 29.0132 11.3875C28.2267 12.6243 27.2724 13.7249 26.1456 14.6749C26.0853 14.7278 26.0104 14.7678 25.942 14.8127Z" fill="#F76F39"/>
<path d="M30 8.99878C29.9186 8.92509 29.9805 8.82416 29.9511 8.73925C29.9593 8.68638 29.9202 8.61749 30 8.58545C30 8.72323 30 8.861 30 8.99878Z" fill="#8DD0AF"/>
<path d="M30 8.42051C29.9316 8.29715 29.9316 8.17219 30 8.04883C30 8.17379 30 8.29715 30 8.42051Z" fill="#7F7F7F"/>
<path d="M0.0341964 18.2476H0.016284L0 18.246C0 18.1771 0 18.1082 0 18.0393C0.0130272 18.0393 0.0260544 18.0377 0.0374532 18.0377C0.102589 18.1082 0.104218 18.1787 0.0341964 18.2476Z" fill="#DFF3E9"/>
<path d="M0.0341949 18.2476C0.0358233 18.1771 0.0374517 18.1082 0.0374517 18.0377C0.135156 17.8086 0.304509 17.7061 0.560168 17.7061C0.845138 17.7061 1.13174 17.6756 1.41671 17.666C1.52744 17.6628 1.56 17.6195 1.55838 17.517C1.55349 17.3039 1.55512 17.0909 1.55675 16.8778C1.56163 16.5878 1.74727 16.3892 2.00944 16.3892C2.2651 16.3892 2.44911 16.5766 2.46051 16.8602C2.46865 17.046 2.46865 17.2318 2.46051 17.4161C2.454 17.5507 2.49796 17.6019 2.63801 17.5907C2.91646 17.5683 3.19492 17.5539 3.47337 17.5458C3.75997 17.5378 3.95864 17.7029 3.98143 17.9528C4.0026 18.1947 3.82837 18.3869 3.53362 18.4174C3.22911 18.4494 2.92297 18.467 2.61684 18.4831C2.50448 18.4895 2.46702 18.5263 2.45888 18.6417C2.44097 18.8611 2.44097 19.0806 2.43771 19.2985C2.43283 19.5741 2.26673 19.7375 1.99642 19.7375C1.73424 19.7375 1.56 19.5661 1.55349 19.2953C1.54861 19.0967 1.54535 18.8964 1.55512 18.6977C1.56163 18.568 1.51441 18.5295 1.38739 18.5407C1.11057 18.5664 0.83211 18.5808 0.553654 18.6032C0.309394 18.6208 0.136784 18.5055 0.0341949 18.2476Z" fill="#F76F39"/>
<path d="M5.52027 29.6462C5.63426 29.329 5.81338 29.1192 6.0153 28.9317C7.33593 27.7158 8.33089 26.2627 9.20534 24.7199C9.94951 23.4078 10.6237 22.0605 11.3972 20.7644C12.1902 19.4379 13.2145 18.3004 14.2925 17.1998C15.5284 15.9358 16.7806 14.6893 18.0638 13.4718C19.0295 12.5554 20.013 11.6582 21.0063 10.7723C21.065 10.721 21.0992 10.6746 21.1855 10.7611C22.1853 11.7624 23.2666 12.6772 24.3641 13.5711C24.6865 13.8338 25.0138 14.0934 25.3477 14.3417C25.4665 14.4298 25.4682 14.4779 25.3705 14.5852C24.4667 15.5705 23.5548 16.5477 22.6201 17.5026C20.6741 19.4923 18.5979 21.3379 16.3377 22.9816C13.7241 24.8817 10.9624 26.5543 8.15339 28.1563C7.2936 28.6466 6.42729 29.132 5.52027 29.6462Z" fill="#FEFEFE"/>
<path d="M27.9987 6.85048C28.0313 6.86009 28.0638 6.87772 28.098 6.87932C29.1109 6.95301 29.5685 7.91105 29.3519 8.77296C29.2526 9.16867 29.1272 9.54996 28.9285 9.90723C28.1192 11.3699 27.0835 12.6532 25.8215 13.7618C25.7515 13.8243 25.7043 13.898 25.5838 13.8035C24.2811 12.7877 23.0223 11.7208 21.8238 10.5881C21.8043 10.5689 21.7896 10.5448 21.7733 10.524C21.7978 10.3382 21.9459 10.2324 22.0615 10.1123C23.0777 9.05973 24.2273 8.1786 25.5349 7.49612C25.986 7.26061 26.4371 7.03312 26.9272 6.88733C27.2806 6.7848 27.6388 6.75276 27.9987 6.85048Z" fill="#F76F39"/>
<path d="M27.9987 6.85043C26.9744 6.74309 26.1342 7.22531 25.2955 7.6867C23.97 8.41564 22.8074 9.34805 21.8091 10.4743C21.7961 10.4903 21.7863 10.5079 21.7749 10.5256C21.5339 10.3365 21.5291 10.3125 21.7538 10.1154C22.6559 9.32562 23.5369 8.50696 24.5025 7.79885C25.276 7.23172 26.1309 6.76712 27.108 6.5957C27.4467 6.53802 27.7381 6.64536 27.9987 6.85043Z" fill="#FEFEFE"/>
<path d="M15.1457 2.48166C15.1604 3.47654 15.1767 4.47143 15.1881 5.46631C15.1995 6.3106 15.2076 7.15489 15.2125 7.99918C15.2158 8.60316 15.2565 8.65763 15.8427 8.78099C15.7596 8.84507 15.7303 8.90114 15.8622 8.9428C15.9697 8.97644 16.0804 8.98285 16.1912 8.99086C16.3573 9.00368 16.5283 9.00528 16.6471 9.15107C16.6699 9.22957 16.6374 9.30006 16.6097 9.37055C16.4745 9.71179 16.2986 10.0306 16.0479 10.303C15.6359 10.7515 15.136 10.9262 14.5416 10.7179C14.1003 10.5641 13.6834 10.3606 13.3806 9.98735C13.2845 9.65732 13.488 9.44424 13.6916 9.23437C13.7632 9.16068 13.856 9.10621 13.9505 9.06135C14.1703 8.95561 14.2794 8.7938 14.2517 8.55029C14.2452 8.49582 14.255 8.44135 14.2631 8.38688C14.2631 8.31479 14.3055 8.24269 14.2729 8.169C14.2713 8.07448 14.2713 7.98156 14.2697 7.88703C14.3201 7.66274 14.2469 7.44006 14.2631 7.21737C14.2583 6.31701 14.3674 5.42306 14.4341 4.5259C14.4732 3.99882 14.5058 3.47014 14.5155 2.94145C14.5204 2.68672 14.6621 2.50889 14.9064 2.44641C14.9927 2.42399 15.0757 2.41597 15.1457 2.48166Z" fill="#F76F39"/>
<path d="M15.1457 2.48156C14.7207 2.49277 14.5514 2.65939 14.5546 3.07432C14.5628 4.06921 14.4472 5.05608 14.3657 6.04616C14.3332 6.43546 14.3218 6.82636 14.3006 7.21567C14.2485 7.22208 14.2452 7.18683 14.2469 7.15158C14.2534 6.80394 14.2273 6.45468 14.2599 6.10704C14.2713 5.1458 14.3804 4.18936 14.4472 3.23133C14.4976 2.512 14.5383 1.79267 14.5383 1.07174C14.5383 1.00285 14.5335 0.933964 14.54 0.865075C14.5546 0.69045 14.6523 0.584713 14.8315 0.573499C14.9943 0.563886 15.1343 0.693654 15.136 0.874687C15.1457 1.40978 15.1441 1.94647 15.1457 2.48156Z" fill="#FEFDFE"/>
<path d="M14.3022 8.38038C14.3804 8.74565 14.2518 8.98756 13.9033 9.15898C13.5743 9.32239 13.3838 9.60596 13.3822 9.98565C13.1884 9.74374 13.1738 9.54028 13.3252 9.26953C13.4359 9.07087 13.6053 8.92989 13.8007 8.82095C14.0026 8.7088 14.1492 8.5518 14.2338 8.34033C14.2713 8.33232 14.2892 8.35154 14.3022 8.38038Z" fill="#FDFDFD"/>
<path d="M16.6487 9.15107C16.4647 9.06936 16.2693 9.03091 16.0674 9.0261C15.9925 9.0245 15.916 9.01329 15.8411 9.00207C15.7515 8.98765 15.675 8.9428 15.6799 8.84667C15.6864 8.73453 15.7938 8.81784 15.8427 8.78259C16.056 8.78419 16.2661 8.80662 16.4566 8.91396C16.5543 8.96523 16.6471 9.0229 16.6487 9.15107Z" fill="#FAF7F8"/>
<path d="M14.2599 6.10705C14.2631 6.41786 14.2648 6.72866 14.268 7.03946C14.268 7.09873 14.2534 7.16282 14.3006 7.21408C14.2973 7.43837 14.3478 7.66426 14.2729 7.88535C14.2127 7.33264 14.2159 6.77832 14.2338 6.2224C14.2338 6.18556 14.2501 6.14711 14.2599 6.10705Z" fill="#C898A3"/>
<path d="M14.3022 8.38042C14.2794 8.3676 14.2566 8.35318 14.2338 8.34037C14.2469 8.28269 14.2599 8.22662 14.2745 8.16894C14.3315 8.23463 14.3071 8.30832 14.3022 8.38042Z" fill="#E1C3CA"/>
<path d="M17.2399 0.820244C17.248 0.636006 17.3783 0.586342 17.5346 0.575128C17.6421 0.567117 17.7316 0.599159 17.7382 0.72412C17.7479 0.897143 17.5802 1.10862 17.4434 1.0926C17.2887 1.07337 17.2513 0.95642 17.2399 0.820244Z" fill="#EAEAFF"/>
<path d="M21.8222 15.3077C21.8222 15.5561 21.7245 15.7531 21.5893 15.9309C20.8891 16.8425 20.0765 17.65 19.2102 18.4093C18.5654 18.9765 17.8977 19.5164 17.2415 20.0675C16.9744 20.2918 16.6943 20.327 16.3882 20.1844C15.8915 19.9521 15.4389 19.6541 15.1181 19.2056C14.7044 18.6272 14.7631 18.0345 15.2907 17.5106C15.7027 17.1021 16.1423 16.7192 16.5755 16.3315C17.0347 15.9213 17.5037 15.5224 17.9678 15.1155C18.3797 14.755 18.7852 14.3881 19.2005 14.0341C19.4496 13.821 19.7395 13.7121 20.0716 13.829C20.5976 14.0133 21.1285 14.1911 21.516 14.6221C21.6968 14.8255 21.8303 15.045 21.8222 15.3077Z" fill="#FFDFD1"/>
<path d="M8.84384 25.3799C8.55724 25.1476 8.09966 25.1556 7.84726 25.3927C6.55105 26.6183 5.38023 27.9993 4.25827 29.3226C4.07589 29.5373 3.89351 29.7696 3.94073 30.0531C3.96353 30.1909 4.06123 30.3239 4.21267 30.3912C4.54486 30.5418 4.86892 30.3303 5.10829 30.1364C5.76291 29.603 6.38496 29.0502 7.05097 28.5248C7.83586 27.9064 8.62726 27.2816 9.26234 26.5606C9.50008 26.2899 9.46751 25.9118 9.1744 25.6571C9.06693 25.5641 8.9562 25.4696 8.84384 25.3799Z" fill="#F76F39"/>
<path d="M4.80541 30.9999C4.69305 30.9999 4.5758 30.9775 4.4553 30.923C4.2257 30.8189 4.06286 30.6138 4.02377 30.3767C3.95212 29.9538 4.22244 29.6334 4.40319 29.4219C5.5333 28.089 6.70086 26.7112 8.01335 25.4696C8.3716 25.1316 8.98713 25.1187 9.38609 25.4424C9.50008 25.5353 9.61407 25.6314 9.72317 25.7275C10.1286 26.08 10.1775 26.6359 9.83716 27.022C9.18091 27.767 8.3716 28.4046 7.58834 29.0214C7.20567 29.3226 6.82788 29.6414 6.46312 29.9506C6.19443 30.1781 5.92412 30.4056 5.64892 30.6299C5.52353 30.734 5.19622 30.9999 4.80541 30.9999ZM8.70379 25.7676C8.58981 25.7676 8.47907 25.8028 8.40417 25.8733C7.11448 27.0941 5.95668 28.4591 4.83635 29.7808C4.67513 29.9698 4.55463 30.1284 4.58069 30.2854C4.5872 30.3287 4.6214 30.3847 4.69142 30.4168C4.83797 30.4841 5.02198 30.4168 5.28741 30.2005C5.55935 29.9778 5.82641 29.7535 6.09347 29.5276C6.46149 29.2168 6.84253 28.8948 7.23335 28.5872C7.99544 27.9864 8.78521 27.3648 9.40726 26.6583C9.54405 26.5029 9.51962 26.2979 9.34538 26.1473C9.24117 26.056 9.13206 25.963 9.02296 25.8749C8.93665 25.8028 8.81778 25.7676 8.70379 25.7676Z" fill="#2E2E2E"/>
</svg>
