<svg width="24" height="24" viewBox="0 0 24 24" fill="none" xmlns="http://www.w3.org/2000/svg">
<path d="M23.2229 12C23.2229 5.80487 18.195 0.776976 12 0.776976C5.80487 0.776976 0.776976 5.80487 0.776976 12C0.776976 18.195 5.80487 23.2229 12 23.2229" stroke="#46CB5C" stroke-width="1.5" stroke-linecap="round" stroke-linejoin="round"/>
<path d="M7.51083 1.89932H8.63313C6.44465 8.45354 6.44465 15.5465 8.63313 22.1007H7.51083" stroke="#46CB5C" stroke-width="1.5" stroke-linecap="round" stroke-linejoin="round"/>
<path d="M15.3668 1.89932C16.4554 5.17643 17.0053 8.58821 17.0053 12" stroke="#46CB5C" stroke-width="1.5" stroke-linecap="round" stroke-linejoin="round"/>
<path d="M1.89919 16.4892V15.3669C5.1763 16.4555 8.58809 17.0055 11.9999 17.0055" stroke="#46CB5C" stroke-width="1.5" stroke-linecap="round" stroke-linejoin="round"/>
<path d="M1.89919 8.633C8.45341 6.44452 15.5463 6.44452 22.1006 8.633" stroke="#46CB5C" stroke-width="1.5" stroke-linecap="round" stroke-linejoin="round"/>
<path d="M18.9581 22.5496C20.9416 22.5496 22.5495 20.9417 22.5495 18.9583C22.5495 16.9748 20.9416 15.3669 18.9581 15.3669C16.9747 15.3669 15.3668 16.9748 15.3668 18.9583C15.3668 20.9417 16.9747 22.5496 18.9581 22.5496Z" stroke="#46CB5C" stroke-width="1.5" stroke-linecap="round" stroke-linejoin="round"/>
<path d="M23.2229 23.223L22.1006 22.1007" stroke="#46CB5C" stroke-width="1.5" stroke-linecap="round" stroke-linejoin="round"/>
</svg>
