<svg width="18" height="18" viewBox="0 0 18 18" fill="none" xmlns="http://www.w3.org/2000/svg">
<path d="M17.7957 7.94253L10.4695 0.56805C10.4601 0.558558 10.4503 0.549347 10.4404 0.540417C9.64043 -0.177859 8.43159 -0.180426 7.62855 0.534476C7.61856 0.543371 7.60886 0.552546 7.5994 0.561968L0.206433 7.94038C-0.0684181 8.21474 -0.0688751 8.65992 0.205449 8.93478C0.479808 9.20963 0.924992 9.21005 1.19981 8.93576L1.75781 8.37885V14.4498C1.75781 16.0006 3.01949 17.2623 4.57031 17.2623H7.10156C7.48989 17.2623 7.80468 16.9475 7.80468 16.5591V10.8287H10.2656V16.5591C10.2656 16.9475 10.5804 17.2623 10.9687 17.2623H13.4297C14.9805 17.2623 16.2422 16.0006 16.2422 14.4498C16.2422 14.0614 15.9274 13.7466 15.5391 13.7466C15.1507 13.7466 14.8359 14.0614 14.8359 14.4498C14.8359 15.2252 14.2051 15.856 13.4297 15.856H11.6719V10.1256C11.6719 9.73722 11.3571 9.42243 10.9687 9.42243H7.10156C6.71322 9.42243 6.39843 9.73722 6.39843 10.1256V15.856H4.57031C3.7949 15.856 3.16406 15.2252 3.16406 14.4498V6.99665C3.16406 6.98962 3.16395 6.98262 3.16374 6.97566L8.57622 1.57387C8.83964 1.35017 9.22601 1.35101 9.48842 1.5758L14.8359 6.95857V10.9341C14.8359 11.3225 15.1507 11.6373 15.5391 11.6373C15.9274 11.6373 16.2422 11.3225 16.2422 10.9341V8.37407L16.7981 8.93365C16.9355 9.07199 17.1161 9.14121 17.2969 9.14121C17.4761 9.14121 17.6553 9.07312 17.7924 8.93688C18.0679 8.66319 18.0694 8.21801 17.7957 7.94253Z" fill="#D9D8EE"/>
</svg>
