<svg width="26" height="31" viewBox="0 0 26 31" fill="none" xmlns="http://www.w3.org/2000/svg">
<path d="M18.4484 7.38137V6.95407C18.4484 3.80631 15.8989 1.25676 12.7511 1.25676C9.60336 1.25676 7.05381 3.80631 7.05381 6.95407V14.0757" stroke="white" stroke-width="2.5" stroke-linecap="round" stroke-linejoin="round"/>
<path d="M8.53517 18.6193C9.57493 19.773 11.0847 20.4852 12.7512 20.4852C15.8989 20.4852 18.4485 17.9356 18.4485 14.7879V14.0757" stroke="white" stroke-width="2.5" stroke-linecap="round" stroke-linejoin="round"/>
<path d="M5.31619 22.5504C7.26752 24.3593 9.87404 25.4702 12.7512 25.4702C18.7618 25.4702 23.6473 20.5848 23.6473 14.5741V12.1528" stroke="white" stroke-width="2.5" stroke-linecap="round" stroke-linejoin="round"/>
<path d="M1.85519 12.1528V14.5741C1.85519 16.0839 2.1543 17.5082 2.70979 18.8186" stroke="white" stroke-width="2.5" stroke-linecap="round" stroke-linejoin="round"/>
<path d="M24.2454 2.45314L1.25676 25.456" stroke="white" stroke-width="2.5" stroke-linecap="round" stroke-linejoin="round"/>
<path d="M11.3268 2.68105V6.95403" stroke="white" stroke-width="2.5" stroke-linecap="round" stroke-linejoin="round"/>
<path d="M12.7512 25.4703V29.7432" stroke="white" stroke-width="2.5" stroke-linecap="round" stroke-linejoin="round"/>
</svg>
