<svg width="11" height="10" viewBox="0 0 11 10" fill="none" xmlns="http://www.w3.org/2000/svg">
<path d="M5.91224 0.722085L6.79941 2.49642C6.92039 2.74342 7.243 2.98033 7.5152 3.0257L9.12319 3.29286C10.1515 3.46424 10.3935 4.21027 9.65247 4.94622L8.40237 6.19632C8.19066 6.40803 8.07472 6.81633 8.14025 7.1087L8.49814 8.6562C8.78042 9.8811 8.13017 10.3549 7.04641 9.71476L5.53923 8.82255C5.26703 8.66124 4.8184 8.66124 4.54116 8.82255L3.03398 9.71476C1.95527 10.3549 1.29997 9.87606 1.58225 8.6562L1.94014 7.1087C2.00567 6.81633 1.88974 6.40803 1.67803 6.19632L0.427924 4.94622C-0.308023 4.21027 -0.0711083 3.46424 0.957202 3.29286L2.5652 3.0257C2.83236 2.98033 3.15496 2.74342 3.27594 2.49642L4.16311 0.722085C4.64702 -0.240695 5.43337 -0.240695 5.91224 0.722085Z" fill="#F7BA28"/>
</svg>
