<svg width="63" height="63" viewBox="0 0 63 63" fill="none" xmlns="http://www.w3.org/2000/svg">
<circle cx="31.5" cy="31.5" r="31.5" fill="#E9E9FF"/>
<mask id="mask0_20_451" style="mask-type:alpha" maskUnits="userSpaceOnUse" x="0" y="0" width="63" height="63">
<circle cx="31.5" cy="31.5" r="31.5" fill="#E9E9FF"/>
</mask>
<g mask="url(#mask0_20_451)">
<path d="M22.8121 52.6019C19.8702 52.6019 17.4712 50.1569 17.4712 47.1481V46.8117L17.6197 46.6933C17.7032 46.6222 19.6985 44.9969 21.9351 44.3904C22.6033 44.2104 23.1416 43.9119 23.5267 43.5044C24.5615 42.4193 24.5476 41.1779 24.529 39.4626C24.5197 38.6145 24.5104 37.6526 24.6357 36.5912L24.6682 36.2974L38.5657 33.6345L38.3059 34.3121C38.2084 34.5585 35.9997 40.434 40.6445 43.0874C44.4217 45.2433 46.2964 46.7691 46.3752 46.8354L46.5237 46.9539V47.1481C46.5237 50.1522 44.1294 52.6019 41.1828 52.6019H22.8121Z" fill="white"/>
<path d="M37.9392 34.1606C37.9392 34.1606 35.4427 40.5716 40.4542 43.4335C44.2453 45.5989 46.1338 47.1436 46.1338 47.1436C46.1338 49.9344 43.9204 52.1946 41.1873 52.1946H22.812C20.0789 52.1946 17.8655 49.9344 17.8655 47.1436V46.9967C17.8655 46.9967 19.8562 45.362 22.0324 44.7697C22.696 44.5896 23.3271 44.2769 23.805 43.7746C25.5126 41.9836 24.6449 39.7992 25.0207 36.6293L37.9392 34.1606ZM39.1967 33.104L37.7953 33.3741L24.8815 35.8522L24.3154 35.9612L24.2458 36.544C24.1159 37.6386 24.1252 38.6099 24.1391 39.4723C24.1577 41.1496 24.1716 42.2584 23.2482 43.225C22.9094 43.5804 22.4361 43.841 21.8375 44.0021C19.5221 44.6275 17.4664 46.3096 17.3783 46.3807L17.0813 46.6176V47.0014V47.1483C17.0813 50.3751 19.652 53.0001 22.812 53.0001H41.1827C44.3427 53.0001 46.9134 50.3751 46.9134 47.1483V46.7645L46.6211 46.5228C46.5422 46.4565 44.6397 44.9118 40.8347 42.7369C36.4775 40.2446 38.5749 34.6961 38.6677 34.4592L39.1967 33.104Z" fill="#443FE0"/>
<path d="M24.9929 40.1072C21.9489 40.1072 20.9095 36.4208 19.6705 30.7917C19.2761 29.0054 19.4617 26.1956 19.6009 24.1439C19.6381 23.5895 19.6705 23.1015 19.6845 22.7271C19.9814 14.6626 23.6147 10.4028 30.1946 10.4028C34.1759 10.4028 37.3498 11.5874 39.3683 13.8334C41.4286 16.122 42.2917 19.4624 41.9344 23.7553C41.5261 28.7021 39.4472 33.4357 37.6422 36.217C35.1504 40.0645 25.4059 40.1072 24.9929 40.1072Z" fill="white"/>
<path d="M30.1947 10.8008C36.6539 10.8008 42.3521 13.9707 41.5447 23.7174C41.1317 28.6783 39.0668 33.2982 37.3174 35.9895C35.3964 38.951 28.3432 39.6996 24.9929 39.6996C22.2877 39.6996 21.2761 36.2407 20.0557 30.6969C19.5685 28.4746 20.014 24.4565 20.0789 22.7365C20.362 14.9894 23.7401 10.8008 30.1947 10.8008ZM30.1947 10C25.4338 10 19.6752 12.2033 19.2901 22.7128C19.2762 23.0824 19.2437 23.561 19.2066 24.1201C19.0674 26.1955 18.8818 29.0337 19.2855 30.8817C20.5662 36.7003 21.6566 40.5099 24.9883 40.5099C25.4106 40.5099 35.3592 40.4625 37.9717 36.4397C38.8626 35.0703 41.8045 30.1046 42.3289 23.7884C42.6955 19.3771 41.7953 15.9323 39.6607 13.5585C37.5634 11.232 34.292 10 30.1947 10Z" fill="#443FE0"/>
<path d="M30.3293 23.5041C30.8629 23.106 31.9348 22.7033 33.6239 23.7078C33.9626 23.9068 33.9208 24.2101 33.5682 24.3854C32.7979 24.7692 31.7399 25.0772 30.2922 24.2811C30.0184 24.1295 30.0741 23.6889 30.3293 23.5041Z" fill="#443FE0"/>
<path d="M40.0133 24.9398C40.7325 24.1532 41.6141 23.7741 42.4169 24.0111C43.7997 24.4186 44.4215 26.4987 43.809 28.6593C43.1965 30.82 41.5817 32.2415 40.1989 31.834C39.7256 31.6918 39.3358 31.3554 39.062 30.8816" fill="white"/>
<path d="M40.0133 24.9398C40.7325 24.1532 41.6141 23.7741 42.4169 24.0111C43.7997 24.4186 44.4215 26.4987 43.809 28.6593C43.1965 30.82 41.5817 32.2415 40.1989 31.834C39.7256 31.6918 39.3358 31.3554 39.062 30.8816" stroke="#443FE0" stroke-width="1.8373" stroke-miterlimit="10" stroke-linecap="round" stroke-linejoin="round"/>
<path d="M41.2661 25.8496C41.5074 25.7216 41.7533 25.679 41.9853 25.7501C42.6953 25.9585 42.9923 27.1099 42.6489 28.3182" fill="white"/>
<path d="M41.2661 25.8496C41.5074 25.7216 41.7533 25.679 41.9853 25.7501C42.6953 25.9585 42.9923 27.1099 42.6489 28.3182" stroke="#443FE0" stroke-width="1.6214" stroke-miterlimit="10" stroke-linecap="round" stroke-linejoin="round"/>
<path d="M24.0139 24.3902C24.529 24.2102 24.5614 23.561 24.0603 23.3478C23.6891 23.1915 23.2668 23.0635 22.9049 23.0777C22.5105 23.092 22.0836 23.2483 21.7216 23.4189C21.2669 23.6369 21.2854 24.2481 21.7587 24.4282C22.2831 24.6272 23.0394 24.7314 24.0139 24.3902Z" fill="#443FE0"/>
<path d="M26.4175 23.0776C26.4175 23.0776 25.3502 26.8872 24.9929 28.4509L26.4175 23.0776Z" fill="white"/>
<path d="M26.4175 23.0776C26.4175 23.0776 25.3502 26.8872 24.9929 28.4509" stroke="#443FE0" stroke-width="1.6936" stroke-miterlimit="10" stroke-linecap="round" stroke-linejoin="round"/>
<path d="M29.2109 21.8932C29.2109 21.8932 31.429 21.481 33.8048 21.6847C34.4312 21.7369 35.0716 21.9406 35.633 22.1775" fill="white"/>
<path d="M29.2109 21.8932C29.2109 21.8932 31.429 21.481 33.8048 21.6847C34.4312 21.7369 35.0716 21.9406 35.633 22.1775" stroke="#443FE0" stroke-width="1.6936" stroke-miterlimit="10" stroke-linecap="round" stroke-linejoin="round"/>
<path d="M25.0579 21.9026C25.0579 21.9026 23.9906 21.6752 23.1322 21.6136C22.2783 21.552 20.7517 21.642 20.7517 21.642" fill="white"/>
<path d="M25.0579 21.9026C25.0579 21.9026 23.9906 21.6752 23.1322 21.6136C22.2783 21.552 20.7517 21.642 20.7517 21.642" stroke="#443FE0" stroke-width="1.6936" stroke-miterlimit="10" stroke-linecap="round" stroke-linejoin="round"/>
<path d="M35.4984 37.5863C35.4938 37.5768 35.4892 37.5626 35.4892 37.5626C35.4892 37.5626 33.6888 35.274 34.937 29.2421C34.937 29.2421 30.023 29.2516 27.4616 27.7164C24.9001 26.1812 23.8607 27.5979 21.6473 28.4793C21.0441 28.7209 20.4223 28.8015 19.8423 28.7967C19.8701 29.5027 19.9304 30.1566 20.0511 30.7063C21.2715 36.2501 22.2831 39.709 24.9883 39.709C27.6379 39.7043 32.5844 39.2399 35.4984 37.5863Z" fill="#A1A1FF"/>
<path d="M33.1088 30.3321C33.8698 29.1665 34.6864 28.1193 35.5866 27.1101C36.4915 26.115 37.4752 25.1816 38.6167 24.4614C39.7582 23.7601 41.076 23.2247 42.4913 23.4C43.2106 23.5042 43.8509 24.0254 44.1711 24.6746C44.5005 25.3237 44.6026 26.0392 44.598 26.7357C44.5841 28.1335 44.1757 29.4792 43.5771 30.7017C42.9785 31.9337 42.1758 33.0566 41.2245 34.0327C39.3128 35.9849 36.8256 37.3211 34.1899 37.9987H34.1853C33.8326 38.0887 33.4753 37.8707 33.3872 37.5106C33.299 37.1505 33.5125 36.7857 33.8651 36.6956C33.8837 36.6909 33.9069 36.6862 33.9254 36.6814C36.4033 36.2881 38.8116 35.2078 40.6816 33.4499C41.6143 32.5781 42.431 31.5593 43.0342 30.4174C43.6328 29.2755 44.0504 28.0151 44.0968 26.731C44.1108 26.0961 44.0226 25.4517 43.7535 24.902C43.489 24.3571 43.0064 23.9496 42.4171 23.8501C42.1294 23.7838 41.8185 23.8122 41.5029 23.8407C41.192 23.8833 40.8858 23.9402 40.5842 24.0397C39.9809 24.2245 39.4056 24.5135 38.8766 24.8689C37.8047 25.5796 36.8905 26.5225 36.0831 27.546C35.6794 28.0577 35.3082 28.5932 34.9648 29.1523C34.6261 29.7019 34.292 30.28 34.0322 30.8533L34.0275 30.8628C33.9069 31.1329 33.5913 31.2513 33.3268 31.1281C33.0624 31.0049 32.9463 30.6827 33.067 30.4127C33.0763 30.3795 33.0948 30.3558 33.1088 30.3321Z" fill="#A1A1FF"/>
</g>
<circle cx="31.5" cy="31.5" r="31" stroke="#443FE0" stroke-opacity="0.15"/>
</svg>
