<svg width="16" height="14" viewBox="0 0 16 14" fill="none" xmlns="http://www.w3.org/2000/svg">
<path d="M10.7403 6.84818C10.7403 8.36373 9.51561 9.58842 8.00006 9.58842C6.48452 9.58842 5.25983 8.36373 5.25983 6.84818C5.25983 5.33264 6.48452 4.10795 8.00006 4.10795C9.51561 4.10795 10.7403 5.33264 10.7403 6.84818Z" stroke="#A9AFC4" stroke-linecap="round" stroke-linejoin="round"/>
<path d="M8 13.1781C10.702 13.1781 13.2202 11.586 14.9731 8.83049C15.6619 7.75124 15.6619 5.93717 14.9731 4.85792C13.2202 2.10238 10.702 0.510286 8 0.510286C5.29804 0.510286 2.77978 2.10238 1.02695 4.85792C0.338064 5.93717 0.338064 7.75124 1.02695 8.83049C2.77978 11.586 5.29804 13.1781 8 13.1781Z" stroke="#A9AFC4" stroke-linecap="round" stroke-linejoin="round"/>
</svg>
