<svg width="63" height="63" viewBox="0 0 63 63" fill="none" xmlns="http://www.w3.org/2000/svg">
<circle cx="31.5" cy="31.5" r="31.5" fill="#E9E9FF"/>
<mask id="mask0_0_97" style="mask-type:alpha" maskUnits="userSpaceOnUse" x="0" y="0" width="63" height="63">
<circle cx="31.5" cy="31.5" r="31.5" fill="#E9E9FF"/>
</mask>
<g mask="url(#mask0_0_97)">
<path d="M5.94312 36.7975L14.2065 36.3203C14.2257 36.3203 14.8456 36.2439 15.408 35.3721C15.7467 34.8439 16.5008 33.3358 17.2357 31.8722C18.0538 30.2431 18.8271 28.7031 19.1786 28.1813C19.447 27.7868 19.9966 27.2904 20.6932 26.6605C21.8499 25.6168 23.2943 24.3123 23.7992 23.1287C24.5277 21.4296 25.1668 20.7106 25.4096 20.4815C25.5758 20.1442 26.1893 18.8906 26.6878 17.9552C26.8923 17.5734 27.2886 17.3315 27.7295 17.3315C27.9915 17.3315 28.2408 17.4206 28.4453 17.5797C29.0972 18.0952 30.1133 19.3297 29.5637 21.7987C28.7904 25.2732 26.3747 28.0159 26.2724 28.1304C26.2724 28.1304 25.5502 29.0022 25.9145 29.7404C26.4386 30.8095 26.9754 31.4395 28.1769 31.4713H28.2472C30.0175 31.4713 45.3619 30.2495 46.0521 30.1477C46.263 30.1158 46.8957 30.0713 47.6818 30.0713C50.9986 30.0713 51.4332 30.8604 51.5802 31.1213C51.8806 31.6685 51.9317 32.1585 51.7208 32.5785C51.4076 33.2212 50.5513 33.6221 48.9408 33.883C47.6115 34.0994 45.5217 34.3603 43.6747 34.5958C41.8661 34.8249 40.1661 35.0348 39.6293 35.1494C39.265 35.2258 39.0094 35.3594 38.9007 35.5376C38.8368 35.6394 38.8304 35.7476 38.8432 35.8176C38.888 35.8239 38.9646 35.8303 39.0861 35.8303C39.4631 35.8303 40.1022 35.7603 41.0033 35.6457C42.4796 35.4612 43.9559 35.4421 44.9337 35.4357C45.3491 35.4294 45.675 35.4294 45.8668 35.4103C47.1194 35.3021 48.372 35.2448 49.4009 35.2448C52.0595 35.2448 53.2546 35.5948 53.3952 36.4221C53.5102 37.0839 53.5486 37.7712 53.0948 38.3502C52.6027 38.9802 51.6249 39.3239 50.0272 39.4448C48.8321 39.5339 47.4964 39.6929 46.2055 39.852C44.2435 40.0875 42.2176 40.3293 40.6327 40.3293H40.524C39.821 40.3293 39.4503 40.482 39.2586 40.6029C39.1052 40.7047 39.0094 40.832 39.0094 40.9338C39.0094 41.0802 39.2075 41.1884 39.4759 41.1884C39.5206 41.1884 39.5718 41.1884 39.6229 41.182C40.5496 41.0738 42.1281 41.0547 43.5213 41.0356C44.5439 41.0229 45.5153 41.0102 46.0201 40.9656C46.7167 40.902 48.0588 40.8002 49.2859 40.8002C51.4779 40.8002 51.9509 41.1438 52.1298 41.5129C52.3726 42.0029 52.3599 42.5629 52.0978 43.0529C51.6633 43.861 50.6471 44.3765 49.0686 44.5928L48.1419 44.7201C45.6814 45.0637 42.895 45.4519 40.786 45.4519C40.6007 45.4519 40.4154 45.4519 40.2428 45.4392C39.5973 45.4137 38.9966 45.401 38.4662 45.401C37.0857 45.401 36.6895 45.5346 36.5745 45.5983C36.5745 45.611 36.5745 45.6237 36.5681 45.6301C36.6639 45.6556 36.8876 45.6937 37.3989 45.7128C38.6834 45.7446 43.2401 46.2983 44.6014 46.4701C45.969 46.6419 46.787 47.2782 46.7359 48.131C46.6976 48.7864 46.1927 49.8809 43.2209 49.8809C42.8439 49.8809 42.4349 49.8618 42.0003 49.83C39.7827 49.6582 37.2647 49.55 35.5775 49.55C34.4974 49.55 34.1587 49.5946 34.0565 49.6137C33.6794 49.69 32.3309 49.6964 31.7685 49.6964C28.6242 49.6964 23.8631 49.4991 20.7827 48.9328C18.2838 48.4746 17.2294 48.29 16.1749 48.29C15.2993 48.29 14.4302 48.4237 12.8325 48.6719C12.0719 48.7928 10.9727 49.0155 9.80319 49.2446C8.61449 49.48 7.38745 49.7282 6.50551 49.8682L5.94951 49.9573V36.7975H5.94312Z" fill="white"/>
<path d="M27.7232 17.8151C27.8702 17.8151 28.0172 17.8597 28.1386 17.9615C28.7777 18.4706 29.5638 19.5524 29.0908 21.7032C28.3367 25.095 25.9146 27.8186 25.9146 27.8186C25.9146 27.8186 24.9751 28.9195 25.48 29.9567C25.9849 30.994 26.6304 31.9167 28.1642 31.9549C28.1897 31.9549 28.2153 31.9549 28.2472 31.9549C30.1901 31.9549 45.5537 30.7076 46.1161 30.6313C46.3206 30.5994 46.9405 30.5613 47.6818 30.5613C49.0367 30.5613 50.7942 30.7076 51.1584 31.3631C51.7208 32.3812 51.2096 33.043 48.8641 33.4185C46.2183 33.8448 40.6391 34.4557 39.5271 34.6848C38.3895 34.9266 38.2809 35.6203 38.3895 36.0084C38.447 36.2184 38.6132 36.3139 39.0861 36.3139C39.4888 36.3139 40.1087 36.2439 41.0673 36.123C43.1571 35.8557 45.2597 35.9448 45.9052 35.8939C46.2183 35.8684 47.8096 35.7284 49.401 35.7284C51.1073 35.7284 52.8137 35.8875 52.9223 36.5048C53.1268 37.7075 53.0501 38.7447 49.9889 38.9738C46.9724 39.1966 43.2146 39.8584 40.6263 39.8584C40.588 39.8584 40.556 39.8584 40.5241 39.8584C40.5113 39.8584 40.4985 39.8584 40.4857 39.8584C38.0508 39.8584 38.0892 41.6783 39.4696 41.6783C39.5335 41.6783 39.6038 41.672 39.6741 41.6656C41.259 41.4747 44.8379 41.5638 46.0586 41.4556C46.5634 41.4111 47.9886 41.2901 49.2795 41.2901C50.4555 41.2901 51.5227 41.392 51.6889 41.7356C52.0404 42.461 51.772 43.7528 48.992 44.1283C46.41 44.4846 43.1315 44.981 40.7797 44.981C40.6008 44.981 40.4218 44.981 40.2557 44.9746C39.6038 44.9492 38.9967 44.9301 38.4598 44.9301C37.0794 44.9301 36.1719 45.0446 36.1016 45.471C36.0185 45.9801 36.108 46.1646 37.3798 46.1964C38.6579 46.2282 43.3616 46.801 44.5375 46.9473C45.5281 47.0682 46.2886 47.4946 46.2503 48.1055C46.2183 48.64 45.7007 49.4036 43.2146 49.4036C42.8631 49.4036 42.4669 49.3909 42.0259 49.3527C39.6613 49.1745 37.1753 49.0727 35.5648 49.0727C34.7787 49.0727 34.2035 49.0982 33.9479 49.1491C33.7242 49.1936 32.9126 49.2255 31.7494 49.2255C28.9055 49.2255 24.0101 49.0473 20.853 48.4682C18.4117 48.0227 17.2742 47.8191 16.1558 47.8191C15.2355 47.8191 14.3344 47.9591 12.7367 48.2073C11.1773 48.4555 8.13524 49.13 6.40971 49.4036V37.2493L14.2193 36.7975C14.2193 36.7975 15.0821 36.7466 15.7979 35.6266C16.5136 34.5066 18.9038 29.4158 19.5621 28.4486C20.2203 27.4813 23.3774 25.3114 24.2274 23.3196C25.0774 21.3278 25.7868 20.7742 25.7868 20.7742C25.7868 20.7742 26.5153 19.266 27.0969 18.1779C27.2311 17.9488 27.474 17.8151 27.7232 17.8151ZM27.7232 16.8542C27.1097 16.8542 26.5473 17.1915 26.2597 17.7324C25.7804 18.6297 25.218 19.7815 25.0071 20.2015C24.6875 20.526 24.0485 21.3151 23.3519 22.9441C22.8917 24.0323 21.4282 25.3432 20.3673 26.3041C19.6452 26.9531 19.0764 27.4686 18.776 27.9077C18.4309 28.4168 17.7982 29.664 16.8012 31.6494C16.111 33.0303 15.3249 34.6021 14.999 35.1048C14.6092 35.7093 14.2129 35.8239 14.1426 35.8366L6.37137 36.2948L5.46387 36.3457V37.2493V49.41V50.5363L6.58227 50.3582C7.47698 50.2118 8.71042 49.97 9.89912 49.7282C11.0623 49.4927 12.1615 49.2764 12.9092 49.1555C14.475 48.9073 15.3377 48.78 16.1749 48.78C17.1911 48.78 18.2328 48.9646 20.6933 49.4164C23.8056 49.9827 28.6051 50.1863 31.7686 50.1863C32.6442 50.1863 33.7753 50.1673 34.1524 50.0909C34.178 50.0845 34.4592 50.0336 35.5776 50.0336C37.252 50.0336 39.7572 50.1418 41.962 50.3136C42.4094 50.3454 42.8376 50.3645 43.221 50.3645C46.589 50.3645 47.1706 48.9836 47.2153 48.1627C47.2792 47.0491 46.2758 46.2028 44.659 45.9991C44.3266 45.961 43.7962 45.891 43.1763 45.821C44.8059 45.681 46.5762 45.4328 48.1995 45.2037L49.1198 45.0764C50.8581 44.8346 52.002 44.2365 52.5069 43.2883C52.8392 42.6647 52.8584 41.9456 52.5453 41.3156C52.1938 40.5965 51.3054 40.3293 49.2668 40.3293C48.0205 40.3293 46.6593 40.4374 45.9563 40.5011C45.6048 40.5329 45.0041 40.5456 44.3202 40.5583C44.9593 40.4883 45.6048 40.412 46.2439 40.3356C47.5285 40.1829 48.8641 40.0238 50.0464 39.9347C51.8167 39.8011 52.8712 39.4065 53.4592 38.6557C54.111 37.8284 53.9385 36.8293 53.8554 36.3521C53.6317 35.0475 51.9062 34.7739 49.3882 34.7739C48.3465 34.7739 47.0811 34.8312 45.8221 34.9394C45.6495 34.9521 45.3108 34.9585 44.9146 34.9585C44.8187 34.9585 44.7229 34.9585 44.6206 34.9585C46.2183 34.7548 47.8799 34.5385 49.0047 34.3603C50.807 34.0676 51.7464 33.603 52.1426 32.7885C52.3344 32.394 52.4622 31.7512 51.9893 30.8922C51.6825 30.3322 50.8964 29.594 47.669 29.594C46.9341 29.594 46.2631 29.6322 45.9691 29.6767C45.298 29.7722 30.1198 31.0003 28.2472 31.0003H28.1897C27.2247 30.9749 26.8093 30.4913 26.3492 29.5431C26.1319 29.0977 26.6495 28.4422 26.6559 28.4358C26.7454 28.3404 29.2378 25.5086 30.0367 21.9132C30.6438 19.1897 29.4871 17.8024 28.7457 17.217C28.4518 16.9815 28.0875 16.8542 27.7232 16.8542Z" fill="#443FE0"/>
<path d="M19.479 40.9275C28.6307 39.0503 31.0337 32.8904 31.0337 32.8904C31.0337 32.8904 30.8867 38.7257 26.2022 43.9756" stroke="#443FE0" stroke-width="1.5061" stroke-miterlimit="10" stroke-linecap="round" stroke-linejoin="round"/>
<path d="M33.5134 37.3577C33.5134 37.3577 30.2541 40.4949 30.1519 47.3166" stroke="#443FE0" stroke-width="1.5061" stroke-miterlimit="10" stroke-linecap="round" stroke-linejoin="round"/>
<path d="M15.1205 37.0649C15.1205 37.0649 14.3088 38.414 14.884 41.8058" stroke="#443FE0" stroke-width="1.5061" stroke-miterlimit="10" stroke-linecap="round" stroke-linejoin="round"/>
<path d="M9.64339 35.0159H2.47925V51.5228H9.64339V35.0159Z" fill="white"/>
<path d="M9.16414 35.4995V51.0455H2.96502V35.4995H9.16414ZM10.1292 34.5386H9.16414H2.96502H2V35.4995V51.0455V52.0064H2.96502H9.17053H10.1356V51.0455V35.4995V34.5386H10.1292Z" fill="#443FE0"/>
<path d="M42.9015 7.83081H37.6099V13.0998H42.9015V7.83081Z" fill="#443FE0"/>
<path d="M59.0001 11.668L37.1498 8.77264C36.3126 8.66446 35.6863 7.95174 35.6863 7.1054V5.67997C35.6863 4.75089 36.4404 4 37.3735 4H59.0001V11.668Z" fill="#443FE0"/>
<path d="M43.5534 12.3044H36.958V16.1353H43.5534V12.3044Z" fill="#443FE0"/>
<path d="M37.4373 18.0571V19.3362" stroke="#443FE0" stroke-width="1.5061" stroke-linecap="round" stroke-linejoin="round"/>
<path d="M37.4373 21.2898V24.217" stroke="#443FE0" stroke-width="1.5061" stroke-linecap="round" stroke-linejoin="round" stroke-dasharray="3.07 3.07"/>
<path d="M37.4373 25.1907V26.4697" stroke="#443FE0" stroke-width="1.5061" stroke-linecap="round" stroke-linejoin="round"/>
<path d="M40.4153 18.0571V19.3362" stroke="#443FE0" stroke-width="1.5061" stroke-linecap="round" stroke-linejoin="round"/>
<path d="M40.4153 21.2898V24.217" stroke="#443FE0" stroke-width="1.5061" stroke-linecap="round" stroke-linejoin="round" stroke-dasharray="3.07 3.07"/>
<path d="M40.4153 25.1907V26.4697" stroke="#443FE0" stroke-width="1.5061" stroke-linecap="round" stroke-linejoin="round"/>
<path d="M43.074 18.0571V19.3362" stroke="#443FE0" stroke-width="1.5061" stroke-linecap="round" stroke-linejoin="round"/>
<path d="M43.074 21.2898V24.217" stroke="#443FE0" stroke-width="1.5061" stroke-linecap="round" stroke-linejoin="round" stroke-dasharray="3.07 3.07"/>
<path d="M43.074 25.1907V26.4697" stroke="#443FE0" stroke-width="1.5061" stroke-linecap="round" stroke-linejoin="round"/>
</g>
<circle cx="31.5" cy="31.5" r="31" stroke="#443FE0" stroke-opacity="0.15"/>
</svg>
