<svg width="40" height="17" viewBox="0 0 40 17" fill="none" xmlns="http://www.w3.org/2000/svg">
<path d="M2.5526 14.8067C2.16801 14.4221 1.8582 13.9414 1.65522 13.3752C1.45224 12.809 1.32404 12.2107 1.29199 11.5591C1.23858 10.4587 1.39882 9.4652 1.78341 8.54645C2.15732 7.6384 2.71284 6.80512 3.46065 6.05731C4.55032 4.96764 5.97117 4.05958 7.72319 3.3545C9.47521 2.64942 11.4088 2.12595 13.5134 1.79477C15.6393 1.4636 17.7973 1.29267 20.0087 1.28199C22.2201 1.29267 24.3781 1.4636 26.4826 1.79477C28.5765 2.13663 30.4994 2.64942 32.2194 3.34382C33.9501 4.0489 35.3709 4.95696 36.4819 6.06799C37.2084 6.79444 37.7746 7.61703 38.1592 8.51441C38.5544 9.42247 38.7467 10.4267 38.7147 11.527C38.704 12.8838 38.2874 13.9628 37.4968 14.7533C37.1977 15.0524 36.8345 15.2875 36.4392 15.4263C36.0333 15.5759 35.5952 15.6293 35.1252 15.5439L29.1534 14.529C28.694 14.4542 28.3094 14.3473 27.9782 14.2085C27.6577 14.0803 27.38 13.9093 27.177 13.7064C26.9206 13.45 26.739 13.1188 26.6429 12.7235C26.536 12.3389 26.4826 11.8796 26.4826 11.3668L26.4506 9.71091C26.4506 9.47588 26.3651 9.28359 26.1942 9.11266C26.1087 9.02719 26.0232 8.9631 25.9164 8.899C25.7989 8.84558 25.7027 8.81353 25.6173 8.7708C25.0724 8.61056 24.2819 8.48236 23.2563 8.39689C22.2201 8.32211 21.1411 8.2687 20.0194 8.25801C18.8763 8.2687 17.7973 8.30075 16.7504 8.38621C15.7248 8.47168 14.9449 8.61056 14.3894 8.78148C14.3146 8.81353 14.2185 8.84558 14.1116 8.88831C13.9941 8.94173 13.898 9.01651 13.8018 9.11266C13.6202 9.29427 13.5454 9.49725 13.5454 9.73227L13.5348 11.3454C13.5348 11.8796 13.4813 12.3389 13.3638 12.7128C13.2677 13.1081 13.0968 13.4286 12.8297 13.6957C12.6267 13.8987 12.3703 14.0696 12.0391 14.2085C11.708 14.3473 11.3234 14.4542 10.8747 14.5396L4.82808 15.5652C4.35803 15.6507 3.94139 15.6186 3.5568 15.4691C3.1829 15.3088 2.85172 15.1058 2.5526 14.8067Z" stroke="white" stroke-width="2.5" stroke-miterlimit="10"/>
</svg>
