<svg width="32" height="30" viewBox="0 0 32 30" fill="none" xmlns="http://www.w3.org/2000/svg">
<path d="M16.9221 30C16.8606 30 16.799 30 16.7375 30C16.6731 29.9343 16.5916 29.9714 16.5172 29.9643C16.4056 29.9771 16.2883 29.9258 16.1839 30C16.0122 30 15.8405 30 15.6674 30C15.4828 29.94 15.2983 29.9386 15.1137 30C15.0279 30 14.942 30 14.8562 30C14.8247 29.9443 14.7689 29.9657 14.7231 29.9614C14.1008 29.9029 13.4799 29.8344 12.8647 29.7231C11.0577 29.395 9.35665 28.7714 7.73283 27.9253C6.28212 27.1705 4.96304 26.2316 3.7813 25.1029C2.8113 24.1769 1.97149 23.1424 1.23469 22.0223C0.578006 21.0249 0.140218 19.9476 0.0286255 18.7519C0.0286255 18.6663 0.0286255 18.5793 0.0300562 18.4937C0.0300562 18.3324 0.0300562 18.1726 0.0314868 18.0114C0.127342 17.0283 0.566561 16.2535 1.41638 15.7227C1.80982 15.4772 2.24618 15.3417 2.68969 15.2233C2.71258 15.5828 2.73404 15.9424 2.75836 16.3034C2.80271 16.9683 2.79699 17.6375 2.90858 18.2967C3.04307 19.0915 3.47799 19.5424 4.2663 19.7236C4.48805 19.775 4.7141 19.7978 4.94015 19.8121C6.56254 19.9163 8.18779 19.9676 9.81304 19.9919C9.93465 19.9933 9.98186 20.0204 9.98758 20.1531C10.0248 20.9051 10.1035 21.6542 10.175 22.4019C10.1907 22.5631 10.2637 22.6601 10.4297 22.6887C10.8288 22.7572 11.2237 22.8413 11.6243 22.9013C13.1866 23.1353 14.7618 23.2066 16.3384 23.2252C17.719 23.2409 19.101 23.2195 20.4816 23.2023C21.3486 23.1909 21.8322 22.78 22.0096 21.9324C22.1283 21.3645 22.1054 20.7881 22.1212 20.213C22.1283 19.9548 22.1226 19.9534 22.3858 19.9705C23.7207 20.0532 25.0569 20.1146 26.3946 20.0432C27.1615 20.0019 27.9254 19.9476 28.6765 19.7778C29.2746 19.6437 29.6938 19.3041 29.8411 18.6891C29.8855 18.5051 29.9112 18.3167 29.9298 18.1284C29.9971 17.4535 30.0571 16.7771 30.1201 16.1008C30.3833 16.1907 30.6294 16.3148 30.8612 16.4632C31.7568 17.0354 32.1188 17.8487 31.9642 18.8946C31.8884 19.4111 31.6609 19.8749 31.4363 20.3358C30.5822 22.088 29.4277 23.6204 28.0299 24.9788C26.7179 26.2544 25.2472 27.3046 23.6134 28.1265C21.5933 29.141 19.4644 29.7859 17.1982 29.9415C17.1081 29.9486 17.0036 29.93 16.9221 30Z" fill="#19CFE5"/>
<path d="M17.2511 0.0299643C17.2511 0.0199762 17.2511 0.00998811 17.2526 0C17.4371 0 17.6217 0 17.8048 0C17.8034 0.00998811 17.8019 0.0199762 17.8019 0.0299643C17.6188 0.0299643 17.4357 0.0299643 17.2511 0.0299643Z" fill="#BDBDBD"/>
<path d="M15.1151 30C15.2997 29.9386 15.4842 29.94 15.6688 30C15.4842 30 15.2997 30 15.1151 30Z" fill="#A0DBBF"/>
<path d="M18.802 0C18.8005 0.00998811 18.802 0.0214031 18.8034 0.0313912C18.6317 0.0313912 18.46 0.0313912 18.2884 0.0313912C18.2869 0.0214031 18.2855 0.00998811 18.2855 0C18.4572 0 18.6303 0 18.802 0Z" fill="#BFBFBF"/>
<path d="M0.00143068 18.0157C0.0114454 18.0142 0.0228909 18.0128 0.0329056 18.0128C0.0329056 18.1741 0.0329056 18.3339 0.0314749 18.4951C0.0214602 18.4951 0.0114454 18.4951 0 18.4937C0.00143068 18.3339 0.00143068 18.1741 0.00143068 18.0157Z" fill="#C8EADA"/>
<path d="M18.2855 0C18.2855 0.00998811 18.2869 0.0214031 18.2884 0.0313912C18.1267 0.0313912 17.965 0.0299643 17.8034 0.0299643C17.8034 0.0199762 17.8048 0.00998811 17.8062 0C17.9665 0 18.1253 0 18.2855 0Z" fill="#7F7F7F"/>
<path d="M16.1838 30C16.2883 29.9258 16.4056 29.9772 16.5172 29.9644C16.5157 29.9758 16.5157 29.9872 16.5157 30C16.4056 30 16.2954 30 16.1838 30Z" fill="#95D8B7"/>
<path d="M0.00143433 18.4923C0.0114491 18.4923 0.0214638 18.4937 0.0329093 18.4937C0.0329093 18.5793 0.0329093 18.6664 0.0314786 18.752C0.0214638 18.752 0.0114491 18.752 0.00143433 18.7491C0.00143433 18.665 0.00143433 18.5793 0.00143433 18.4923Z" fill="#D9F0E5"/>
<path d="M16.5157 30C16.5157 29.9886 16.5157 29.9772 16.5172 29.9644C16.5916 29.9715 16.6731 29.933 16.7375 30C16.6631 30 16.5901 30 16.5157 30Z" fill="#B4E3CC"/>
<path d="M17.8034 0.0299534C17.965 0.0299534 18.1267 0.0313802 18.2884 0.0313802C18.46 0.0313802 18.6317 0.0313802 18.8034 0.0313802C19.626 0.0584908 20.4458 0.114139 21.257 0.252545C21.8694 0.356707 22.1755 0.696303 22.2356 1.31414C22.2857 1.82781 22.2628 2.34149 22.2699 2.85659C22.2857 3.93958 22.2914 5.02401 22.2928 6.10843C22.2928 6.2397 22.32 6.28108 22.4602 6.29107C23.8551 6.39238 25.2486 6.50082 26.6435 6.61069C27.3889 6.66919 28.1386 6.6963 28.8754 6.84042C29.2559 6.91461 29.6208 7.03732 29.9584 7.22995C30.3146 7.434 30.4963 7.73507 30.4935 8.146C30.4806 9.80403 30.4105 11.4606 30.3146 13.1158C30.2574 14.1103 30.1859 15.1049 30.1215 16.0994C30.0586 16.7757 29.9985 17.4521 29.9312 18.127C29.9126 18.3153 29.8869 18.5051 29.8425 18.6877C29.6952 19.3027 29.276 19.6423 28.678 19.7764C27.9268 19.9448 27.1629 20.0005 26.396 20.0418C25.0583 20.1132 23.7221 20.0518 22.3873 19.9691C22.124 19.9534 22.1297 19.9534 22.1226 20.2116C22.1068 20.7867 22.1297 21.3631 22.011 21.931C21.835 22.7772 21.3514 23.1895 20.483 23.2009C19.1024 23.2195 17.7204 23.2395 16.3398 23.2238C14.7632 23.2066 13.188 23.1353 11.6257 22.8999C11.2265 22.8399 10.8302 22.7558 10.4311 22.6873C10.2651 22.6587 10.1922 22.5617 10.1764 22.4005C10.1049 21.6514 10.0262 20.9022 9.98899 20.1517C9.98184 20.0204 9.93606 19.9933 9.81445 19.9905C8.1892 19.9662 6.56395 19.9148 4.94156 19.8107C4.71551 19.7964 4.48946 19.7722 4.26771 19.7222C3.4794 19.541 3.04448 19.0901 2.90999 18.2953C2.7984 17.6361 2.80412 16.9669 2.75977 16.302C2.73545 15.9424 2.71399 15.5829 2.6911 15.2219C2.64818 14.3729 2.60812 13.5239 2.56091 12.6749C2.49796 11.5505 2.42929 10.4276 2.32342 9.30748C2.2948 8.99785 2.23328 8.68964 2.20038 8.38001C2.10881 7.51961 2.43501 7.01021 3.25479 6.71913C3.79845 6.5265 4.36929 6.49654 4.93727 6.44089C5.73129 6.36384 6.52389 6.28108 7.31792 6.20118C8.17919 6.11557 9.04189 6.05421 9.90602 6.02425C10.0663 6.01854 10.1077 5.9686 10.1106 5.8145C10.1392 4.38334 10.2079 2.95219 10.2065 1.51961C10.2065 1.40974 10.2179 1.29987 10.2379 1.19143C10.3424 0.633521 10.6671 0.346719 11.238 0.289644C11.7473 0.238277 12.2566 0.28251 12.7659 0.255399C13.8561 0.198324 14.9463 0.132688 16.0365 0.0756133C16.4399 0.0542102 16.8448 0.0427952 17.2497 0.0270996C17.4357 0.0299534 17.6188 0.0299534 17.8034 0.0299534ZM28.7166 19.2271C29.1358 19.1201 29.3261 18.8176 29.3804 18.4209C29.4391 17.9971 29.4791 17.5719 29.5178 17.1467C29.5607 16.6801 29.5936 16.2121 29.6322 15.7441C29.7452 14.3172 29.8339 12.8889 29.8926 11.4578C29.9341 10.4675 29.9584 9.47728 29.9899 8.48703C30.0099 7.82781 29.9384 7.72508 29.3132 7.49107C29.296 7.48536 29.2788 7.4768 29.2617 7.46967C28.7337 7.28988 28.1844 7.24279 27.635 7.19713C25.911 7.05445 24.1871 6.91604 22.4617 6.79333C22.3315 6.78477 22.3014 6.80903 22.3014 6.94172C22.3 8.57121 22.2957 10.1993 22.2842 11.8288C22.2785 12.722 22.2642 13.6152 22.2485 14.5084C22.2199 16.0937 22.1913 17.6775 22.1526 19.2628C22.1483 19.4297 22.197 19.4625 22.3458 19.4697C24.0869 19.5638 25.8266 19.6423 27.5663 19.444C27.9526 19.3997 28.3475 19.3783 28.7166 19.2271ZM21.6347 19.6766C21.659 18.7462 21.6905 17.8173 21.7063 16.887C21.7363 15.229 21.7606 13.5695 21.7806 11.9115C21.7921 10.9684 21.7921 10.0252 21.7935 9.08203C21.7964 6.77335 21.7921 4.46467 21.7549 2.15599C21.7506 1.89345 21.7706 1.62948 21.7306 1.36693C21.6662 0.936018 21.5303 0.800465 21.0982 0.736255C19.5559 0.506529 18.0065 0.49226 16.4528 0.567884C15.2453 0.626386 14.0392 0.700583 12.8332 0.76622C12.3124 0.794757 11.7888 0.736255 11.2695 0.803318C10.9046 0.850405 10.7673 0.994519 10.7272 1.3598C10.7201 1.42686 10.7115 1.49392 10.7115 1.56099C10.7115 2.81521 10.6686 4.06943 10.6271 5.32365C10.5813 6.712 10.547 8.10034 10.5055 9.48869C10.4611 11.0112 10.4025 12.5336 10.371 14.0561C10.3438 15.3531 10.3495 16.6516 10.3896 17.95C10.4325 19.3384 10.5241 20.7239 10.6586 22.1065C10.6671 22.1964 10.6986 22.2335 10.7887 22.2464C11.0677 22.2892 11.3438 22.3462 11.6228 22.389C13.0263 22.6045 14.4413 22.6858 15.8576 22.7115C17.3742 22.7401 18.8907 22.7286 20.4072 22.7015C20.5889 22.6987 20.7763 22.7001 20.9451 22.6131C21.3443 22.4761 21.4645 22.1336 21.526 21.7741C21.6462 21.0806 21.6018 20.3757 21.6347 19.6766ZM9.92461 11.8002C9.92461 11.6533 9.92032 11.5063 9.92461 11.3593C9.97755 9.78263 10.0305 8.20451 10.0891 6.62781C10.0934 6.52793 10.0634 6.51794 9.97898 6.52365C9.23216 6.57502 8.48535 6.61069 7.73997 6.6749C6.78714 6.75623 5.83573 6.86182 4.88433 6.95457C4.41507 7.00165 3.94151 7.03162 3.48799 7.1743C2.84848 7.37549 2.61671 7.7208 2.7097 8.37145C2.80699 9.05064 2.87423 9.73126 2.9243 10.4147C3.06022 12.2454 3.14176 14.0775 3.2462 15.9096C3.28769 16.6416 3.30057 17.3764 3.39356 18.1056C3.47368 18.742 3.7684 19.0873 4.3421 19.2185C4.50234 19.2556 4.6683 19.2827 4.83283 19.2927C6.47954 19.4055 8.12768 19.4597 9.77725 19.4868C9.90888 19.4882 9.94894 19.4668 9.94035 19.3227C9.87454 18.2226 9.85022 17.1225 9.8445 16.0209C9.83877 14.614 9.87168 13.2071 9.92461 11.8002Z" fill="#2E2E2E"/>
<path d="M20.9437 22.6117C20.7735 22.6987 20.5875 22.6973 20.4058 22.7001C18.8892 22.7273 17.3727 22.7387 15.8562 22.7101C14.4398 22.683 13.0249 22.6031 11.6214 22.3877C11.3424 22.3449 11.0663 22.2878 10.7873 22.245C10.6972 22.2307 10.6657 22.1936 10.6571 22.1051C10.5226 20.7225 10.4325 19.337 10.3882 17.9487C10.3481 16.6502 10.3424 15.3532 10.3696 14.0547C10.401 12.5323 10.4583 11.0098 10.504 9.48731C10.5455 8.09896 10.5799 6.71061 10.6256 5.32227C10.6671 4.06805 10.7115 2.81383 10.7101 1.5596C10.7101 1.49254 10.7186 1.42548 10.7258 1.35842C10.7673 0.993136 10.9032 0.850449 11.268 0.801935C11.7874 0.734872 12.311 0.793374 12.8318 0.764836C14.0378 0.6992 15.2439 0.62643 16.4514 0.566501C18.0037 0.490877 19.5545 0.503719 21.0968 0.734872C21.5289 0.799081 21.6648 0.934634 21.7291 1.36555C21.7678 1.62809 21.7492 1.89207 21.7535 2.15461C21.7907 4.46329 21.795 6.77197 21.7921 9.08065C21.7907 10.0238 21.7907 10.967 21.7792 11.9101C21.7592 13.5682 21.7349 15.2276 21.7048 16.8856C21.6877 17.816 21.6576 18.7449 21.6333 19.6752C21.3944 19.6666 21.3729 19.8022 21.3758 20.0062C21.3815 20.4699 21.3672 20.9337 21.3371 21.396C21.31 21.8312 21.2356 22.2592 20.9437 22.6117ZM18.4329 13.7836C18.4329 13.7537 18.4329 13.7223 18.4329 13.6923C18.4386 13.3998 18.3742 13.3342 18.0795 13.3441C17.8348 13.3513 17.5902 13.3698 17.3441 13.3727C16.4914 13.3798 15.6373 13.3969 14.7846 13.3499C14.2767 13.3213 13.7688 13.2956 13.2595 13.2728C13.0492 13.2642 12.9891 13.3256 12.9734 13.5368C12.9634 13.6766 12.9462 13.8164 12.9405 13.9577C12.9147 14.7097 12.8904 15.4616 12.8704 16.2136C12.8432 17.3023 12.8217 18.391 12.7946 19.4797C12.7831 19.9634 12.8031 20.4457 12.7574 20.9294C12.7287 21.2262 12.6958 21.5244 12.7502 21.8255C12.8146 22.1793 13.012 22.3862 13.3697 22.4233C13.5585 22.4433 13.7503 22.4405 13.9391 22.4105C14.4685 22.3263 15.0007 22.3078 15.5357 22.3306C16.3569 22.3648 17.1753 22.4219 17.9894 22.5361C18.2469 22.5717 18.3198 22.4904 18.3213 22.2307C18.3313 20.5598 18.3098 18.8875 18.3485 17.2167C18.3756 16.0709 18.3914 14.9265 18.4329 13.7836ZM17.1066 3.65711H17.1009C17.1009 3.46733 17.1052 3.27756 17.0995 3.08778C17.0823 2.51989 16.6431 2.10895 16.0665 2.11751C15.5157 2.12607 15.1037 2.54843 15.1008 3.11061C15.0994 3.44165 15.0951 3.77268 15.1022 4.10229C15.1051 4.23071 15.0565 4.25354 14.9391 4.24641C14.5171 4.21929 14.0936 4.19218 13.6701 4.1879C13.1279 4.1822 12.6987 4.6231 12.6873 5.17245C12.6772 5.68469 13.105 6.14415 13.6229 6.17411C14.0335 6.19837 14.4441 6.2269 14.8547 6.23975C15.0021 6.24403 15.0464 6.27827 15.0422 6.43665C15.0264 6.91323 14.9248 7.3841 14.9363 7.8621C14.9492 8.39004 15.3426 8.83095 15.829 8.86234C16.4185 8.90086 16.862 8.56698 16.9292 7.99623C16.985 7.5225 17.0079 7.0445 17.0265 6.56793C17.0337 6.39242 17.0837 6.34676 17.2583 6.3539C17.6875 6.37245 18.1153 6.43951 18.5445 6.39813C19.0795 6.34676 19.493 5.87161 19.4572 5.35794C19.4186 4.80574 18.9851 4.40622 18.4372 4.40193C18.038 4.39908 17.6403 4.36912 17.2425 4.36198C17.1238 4.35913 17.098 4.31347 17.1023 4.20645C17.1109 4.02524 17.1066 3.84117 17.1066 3.65711Z" fill="#FEFEFE"/>
<path d="M28.7166 19.2271C28.3475 19.3784 27.9526 19.3998 27.5649 19.444C25.8266 19.6423 24.0855 19.5639 22.3443 19.4697C22.1955 19.4611 22.1469 19.4283 22.1512 19.2628C22.1913 17.679 22.2199 16.0937 22.2471 14.5085C22.2628 13.6152 22.2771 12.722 22.2828 11.8288C22.2928 10.1993 22.2986 8.57124 22.3 6.94175C22.3 6.81048 22.33 6.7848 22.4602 6.79336C24.1856 6.91607 25.9096 7.05448 27.6336 7.19716C28.1844 7.24282 28.7338 7.28991 29.2602 7.4697C29.2774 7.4754 29.2946 7.48396 29.3117 7.4911C29.9384 7.72511 30.0099 7.82784 29.9885 8.48706C29.957 9.4773 29.9327 10.469 29.8912 11.4578C29.8325 12.8875 29.7438 14.3173 29.6308 15.7441C29.6108 15.8725 29.5621 15.951 29.4119 15.8825C29.316 15.8397 29.306 15.8997 29.3003 15.9796C29.2431 16.673 29.183 17.3651 29.1186 18.0585C29.0814 18.478 29.0256 18.8961 28.7166 19.2271ZM24.7364 10.1979C24.7364 9.71274 24.7379 9.32035 24.735 8.92796C24.7336 8.72392 24.6434 8.61547 24.4603 8.60549C24.1484 8.58836 23.8365 8.57409 23.5232 8.56696C23.2571 8.56125 23.1341 8.68254 23.1155 8.95364C23.1098 9.04496 23.1126 9.13771 23.114 9.22903C23.1212 9.96958 23.0969 10.7073 23.011 11.4435C22.9753 11.7574 22.9781 12.0799 23.1083 12.3838C23.1627 12.5123 23.2442 12.6079 23.3916 12.6093C23.7235 12.6136 24.0554 12.6164 24.3873 12.6079C24.5519 12.6036 24.652 12.5037 24.6577 12.3396C24.6635 12.1926 24.6864 12.0485 24.6949 11.9016C24.7321 11.3037 24.7536 10.7044 24.7364 10.1979ZM28.4576 12.7948C28.7524 12.7991 28.821 12.7391 28.8654 12.488C29.0328 11.542 29.2245 10.6003 29.3532 9.64568C29.4148 9.18194 29.3776 9.0892 28.9584 9.02356C28.6036 8.96791 28.2488 8.89657 27.8868 8.89799C27.645 8.89942 27.5749 8.97362 27.5749 9.20335C27.5735 9.81547 27.439 10.4119 27.3732 11.0169C27.3303 11.4093 27.2587 11.7988 27.2101 12.1912C27.1786 12.4409 27.2544 12.5779 27.4748 12.625C27.8196 12.7006 28.1715 12.7463 28.4576 12.7948ZM26.2 8.6383C25.911 8.63688 25.798 8.70394 25.7708 8.9037C25.7308 9.19336 25.6921 9.48301 25.6607 9.77409C25.5848 10.4704 25.5119 11.1667 25.4432 11.863C25.4275 12.02 25.4232 12.1798 25.4833 12.3339C25.5176 12.4224 25.5791 12.4894 25.6692 12.4923C25.8953 12.498 26.1185 12.5579 26.346 12.5365C26.4819 12.5237 26.572 12.4652 26.5834 12.3096C26.6278 11.7632 26.6779 11.2167 26.7265 10.6716C26.7752 10.1251 26.8209 9.57861 26.871 9.03355C26.8853 8.87231 26.8381 8.75816 26.6693 8.71393C26.5148 8.67112 26.3603 8.63117 26.2 8.6383ZM27.8181 13.1544C27.8181 13.1558 27.8181 13.1586 27.8181 13.1601C27.7452 13.1601 27.6708 13.1643 27.5978 13.1586C27.459 13.1486 27.3903 13.23 27.3632 13.3456C27.2315 13.9092 27.1028 14.4742 26.9797 15.0393C26.9368 15.239 27.0384 15.3831 27.2387 15.4003C27.5978 15.4302 27.9555 15.4859 28.3174 15.4802C28.4748 15.4773 28.5678 15.4188 28.615 15.2661C28.728 14.898 28.8511 14.5341 28.967 14.1674C29.0228 13.9934 29.0771 13.8179 29.1186 13.6395C29.1701 13.4198 29.0657 13.2585 28.8625 13.2385C28.5134 13.2057 28.1658 13.1815 27.8181 13.1544ZM23.6505 15.3689C23.8036 15.3689 23.9567 15.3689 24.1098 15.3689C24.3172 15.3689 24.373 15.3132 24.4074 15.1077C24.5032 14.5156 24.5032 13.922 24.4803 13.3256C24.4732 13.1301 24.3845 13.0459 24.1928 13.0117C23.8823 12.956 23.5704 12.9817 23.2585 12.9803C22.9796 12.9788 22.8565 13.1073 22.858 13.3855C22.8608 13.7579 22.8637 14.1289 22.7864 14.497C22.7421 14.7068 22.7363 14.9194 22.8107 15.1263C22.868 15.2875 22.9724 15.3788 23.1541 15.3717C23.3186 15.3646 23.4846 15.3689 23.6505 15.3689ZM25.7908 15.3303V15.3318C25.8824 15.3318 25.9754 15.3275 26.067 15.3332C26.2515 15.3432 26.3359 15.2476 26.3574 15.0764C26.4261 14.5085 26.5119 13.942 26.6092 13.3784C26.6349 13.23 26.5391 13.073 26.4046 13.0559C26.2172 13.0331 26.0298 12.9945 25.8381 13.0131C25.6635 13.0302 25.5476 13.0959 25.5033 13.2885C25.3745 13.8464 25.2744 14.41 25.1842 14.975C25.1542 15.162 25.2915 15.3146 25.4947 15.3275C25.5934 15.336 25.6921 15.3303 25.7908 15.3303Z" fill="#FEFEFE"/>
<path d="M9.92462 11.8002C9.87312 13.2071 9.83878 14.614 9.84593 16.0223C9.85166 17.1239 9.87598 18.2254 9.94179 19.3241C9.95038 19.4682 9.90888 19.4911 9.77869 19.4882C8.12912 19.4611 6.48098 19.4069 4.83427 19.2942C4.66974 19.2827 4.50521 19.2556 4.34354 19.22C3.76984 19.0887 3.47655 18.7434 3.395 18.107C3.30201 17.3779 3.29057 16.643 3.24764 15.911C3.14321 14.0789 3.06166 12.2468 2.92574 10.4162C2.87567 9.73269 2.807 9.05207 2.71114 8.37288C2.61815 7.72222 2.84992 7.37835 3.48943 7.17573C3.94295 7.03304 4.41651 7.00165 4.88577 6.95599C5.83717 6.86182 6.78857 6.75766 7.74141 6.67632C8.48679 6.61211 9.23504 6.57644 9.98042 6.52507C10.0648 6.51937 10.0934 6.52936 10.0906 6.62924C10.0319 8.20593 9.97899 9.78405 9.92605 11.3607C9.92033 11.5063 9.92462 11.6533 9.92462 11.8002ZM9.40099 10.0509C9.40099 9.64279 9.40242 9.3246 9.40099 9.00498C9.39956 8.70106 9.26651 8.55837 8.96607 8.56836C8.51397 8.58405 8.06188 8.61259 7.60978 8.64255C7.41092 8.6554 7.30934 8.80094 7.34225 8.99927C7.36371 9.13197 7.40377 9.26324 7.4052 9.39594C7.41521 9.94672 7.40806 10.4961 7.44239 11.0468C7.46529 11.4064 7.41092 11.7688 7.48388 12.127C7.51107 12.2582 7.55113 12.3909 7.71565 12.3881C8.16918 12.381 8.6227 12.4295 9.0748 12.3567C9.29369 12.3225 9.36666 12.2554 9.36093 12.0342C9.3452 11.3422 9.43819 10.653 9.40099 10.0509ZM3.42791 11.2124C3.42791 11.4449 3.43506 11.6775 3.42648 11.9101C3.41933 12.1041 3.46082 12.2868 3.51375 12.468C3.58815 12.7248 3.75697 12.8204 4.01449 12.789C4.25627 12.7591 4.50092 12.7348 4.74414 12.722C5.02741 12.7063 5.09036 12.6521 5.09036 12.3695C5.09036 11.6475 5.10467 10.9255 5.0503 10.205C5.02026 9.80403 4.98163 9.40308 4.94014 9.00355C4.91868 8.80379 4.80995 8.72103 4.60679 8.70962C4.28775 8.69249 3.97014 8.74101 3.65253 8.751C3.5252 8.75528 3.40359 8.8095 3.37354 8.94933C3.3435 9.09202 3.3063 9.24469 3.32919 9.3831C3.42505 9.99238 3.42934 10.6017 3.42791 11.2124ZM9.62275 14.3672C9.62275 14.1075 9.62418 13.9063 9.62275 13.7037C9.62132 13.4197 9.50257 13.2899 9.21644 13.3127C8.78723 13.347 8.35946 13.3384 7.93026 13.3484C7.85872 13.3498 7.78576 13.3741 7.71709 13.3969C7.58689 13.4411 7.5311 13.5353 7.56543 13.6694C7.66415 14.0575 7.67273 14.4542 7.66844 14.8509C7.66558 15.0649 7.65557 15.2789 7.70707 15.4887C7.74427 15.6399 7.80865 15.7741 7.99321 15.7698C8.43958 15.7598 8.88738 15.804 9.33375 15.7384C9.49256 15.7156 9.58269 15.6428 9.58412 15.4801C9.58841 15.0906 9.65565 14.7025 9.62275 14.3672ZM5.56678 9.63708C5.53959 9.98952 5.6097 10.4333 5.60397 10.8799C5.59825 11.308 5.59968 11.7346 5.67837 12.1584C5.70412 12.3011 5.76278 12.4166 5.93017 12.4266C6.16337 12.4409 6.39657 12.4209 6.62548 12.3838C6.75424 12.3624 6.8272 12.2868 6.82434 12.1412C6.81862 11.903 6.79573 11.6647 6.79287 11.4278C6.78571 10.8342 6.73278 10.2449 6.70273 9.65421C6.69129 9.42876 6.68557 9.20332 6.67412 8.97787C6.65838 8.67252 6.56253 8.54981 6.29642 8.53839C6.13332 8.53126 5.96737 8.55551 5.8057 8.5812C5.6426 8.60688 5.56678 8.71532 5.56821 8.87942C5.56821 9.10058 5.56678 9.32175 5.56678 9.63708ZM3.65253 14.8766C3.65253 15.0478 3.64967 15.219 3.65396 15.3917C3.65539 15.4573 3.67542 15.5244 3.68829 15.59C3.73694 15.8511 3.90719 15.9967 4.17472 15.9909C4.43797 15.9852 4.70121 15.9653 4.96303 15.9581C5.25775 15.951 5.34645 15.8697 5.34645 15.5714C5.34788 14.9236 5.28922 14.2801 5.16332 13.6437C5.13328 13.4939 5.0503 13.4183 4.89865 13.4183C4.57961 13.4183 4.25913 13.4126 3.94009 13.4212C3.67685 13.4283 3.56239 13.5496 3.57813 13.8178C3.59959 14.1717 3.68257 14.5198 3.65253 14.8766ZM6.47955 15.7712C6.58971 15.7712 6.7013 15.7783 6.81147 15.7698C6.95739 15.7569 7.0461 15.687 7.04753 15.5229C7.04896 15.3574 7.02178 15.1948 7.0089 15.0307C6.97027 14.5441 6.93593 14.059 6.89301 13.5724C6.87871 13.4097 6.77856 13.317 6.61403 13.3113C6.46095 13.3056 6.30644 13.3084 6.15335 13.3099C5.88296 13.3127 5.78281 13.4069 5.79139 13.6751C5.80856 14.1745 5.84576 14.6739 5.86006 15.1748C5.87437 15.7227 5.92588 15.7783 6.47955 15.7712Z" fill="#FEFEFE"/>
<path d="M28.7166 19.2271C29.0256 18.8975 29.0814 18.478 29.1201 18.0571C29.1844 17.365 29.2431 16.6716 29.3018 15.9781C29.3089 15.8982 29.3189 15.8383 29.4134 15.8811C29.5636 15.9496 29.6122 15.8711 29.6322 15.7427C29.5951 16.2107 29.5621 16.6787 29.5178 17.1453C29.4777 17.5705 29.4377 17.9971 29.3804 18.4195C29.3247 18.8176 29.1358 19.1201 28.7166 19.2271Z" fill="#19CFE5"/>
<path d="M20.9437 22.6116C21.2356 22.2592 21.31 21.8311 21.3371 21.3974C21.3672 20.935 21.3815 20.4713 21.3758 20.0076C21.3729 19.8035 21.3944 19.6694 21.6333 19.6765C21.6018 20.3757 21.6447 21.0806 21.5246 21.7726C21.463 22.1322 21.3429 22.4746 20.9437 22.6116Z" fill="#19CFE5"/>
<path d="M18.4329 13.7835C18.3914 14.9279 18.3771 16.0708 18.3499 17.2152C18.3113 18.8875 18.3341 20.5583 18.3227 22.2292C18.3213 22.4889 18.2483 22.5702 17.9908 22.5345C17.1767 22.4204 16.3584 22.3633 15.5372 22.3291C15.0035 22.3077 14.4699 22.3248 13.9405 22.409C13.7517 22.4389 13.56 22.4404 13.3711 22.4218C13.0134 22.3847 12.816 22.1778 12.7516 21.824C12.6973 21.5229 12.7302 21.2261 12.7588 20.9279C12.8046 20.4456 12.7845 19.9619 12.796 19.4782C12.8232 18.3895 12.8432 17.3008 12.8718 16.2121C12.8904 15.4601 12.9162 14.7081 12.9419 13.9562C12.9462 13.8164 12.9634 13.6765 12.9748 13.5353C12.9906 13.3227 13.0506 13.2613 13.261 13.2713C13.7688 13.2941 14.2782 13.3198 14.7861 13.3483C15.6387 13.3954 16.4914 13.3783 17.3455 13.3712C17.5902 13.3697 17.8348 13.3512 18.0809 13.3426C18.3756 13.3326 18.44 13.3983 18.4343 13.6908C18.4314 13.7222 18.4329 13.7521 18.4329 13.7835Z" fill="#19CFE5"/>
<path d="M17.1066 3.65707C17.1066 3.84114 17.1123 4.02521 17.1052 4.20785C17.1009 4.31344 17.1252 4.36052 17.2454 4.36338C17.6446 4.37194 18.0423 4.40048 18.44 4.40333C18.988 4.40761 19.4215 4.80713 19.4601 5.35933C19.4959 5.87301 19.081 6.34816 18.5473 6.39952C18.1167 6.4409 17.6889 6.37384 17.2611 6.35529C17.0866 6.34816 17.0365 6.39382 17.0294 6.56932C17.0108 7.0459 16.9879 7.5239 16.9321 7.99762C16.8648 8.5698 16.4213 8.90226 15.8319 8.86373C15.3455 8.83234 14.952 8.39144 14.9391 7.8635C14.9277 7.38549 15.0293 6.91463 15.045 6.43805C15.0507 6.27967 15.0064 6.24542 14.8576 6.24114C14.447 6.2283 14.0364 6.19976 13.6258 6.17551C13.1079 6.14554 12.6801 5.68609 12.6901 5.17384C12.7016 4.62307 13.1308 4.18216 13.673 4.1893C14.0965 4.19358 14.5185 4.22212 14.942 4.2478C15.0607 4.25493 15.108 4.23068 15.1051 4.10369C15.0979 3.77265 15.1008 3.44162 15.1037 3.11201C15.1065 2.54982 15.5186 2.12747 16.0694 2.11891C16.6459 2.11034 17.0852 2.52128 17.1023 3.08918C17.1081 3.27895 17.1038 3.46873 17.1038 3.6585C17.1023 3.65707 17.1038 3.65707 17.1066 3.65707Z" fill="#F76F39"/>
<path d="M24.7364 10.1979C24.7536 10.7044 24.7307 11.3037 24.6964 11.9016C24.6878 12.0471 24.6649 12.1927 24.6592 12.3396C24.652 12.5023 24.5533 12.6036 24.3888 12.6079C24.0569 12.615 23.7249 12.6122 23.393 12.6093C23.2442 12.6079 23.1641 12.5123 23.1098 12.3839C22.9796 12.0799 22.9767 11.7575 23.0125 11.4435C23.0983 10.7073 23.1226 9.96958 23.1155 9.22903C23.114 9.13771 23.1112 9.04497 23.1169 8.95365C23.1355 8.68254 23.26 8.56126 23.5246 8.56696C23.8365 8.5741 24.1499 8.58694 24.4617 8.60549C24.6449 8.61548 24.735 8.72392 24.7364 8.92796C24.7393 9.32035 24.7364 9.71274 24.7364 10.1979Z" fill="#BFF8FF"/>
<path d="M28.4576 12.7947C28.1701 12.7462 27.8196 12.7006 27.4733 12.6264C27.253 12.5793 27.1786 12.4423 27.2087 12.1926C27.2573 11.8002 27.3288 11.4107 27.3718 11.0183C27.439 10.4133 27.5721 9.81685 27.5735 9.20472C27.5749 8.97357 27.6436 8.9008 27.8854 8.89937C28.2473 8.89652 28.6021 8.96929 28.957 9.02494C29.3761 9.09057 29.4133 9.18332 29.3518 9.64706C29.2245 10.6002 29.0314 11.5419 28.864 12.4894C28.821 12.7391 28.7538 12.799 28.4576 12.7947Z" fill="#BFF8FF"/>
<path d="M26.2 8.63828C26.3617 8.63115 26.5148 8.6711 26.6693 8.71248C26.8381 8.75671 26.8853 8.87229 26.871 9.0321C26.8209 9.57859 26.7752 10.1251 26.7265 10.6702C26.6779 11.2166 26.6278 11.7617 26.5835 12.3082C26.5706 12.4637 26.4804 12.5222 26.346 12.5351C26.1185 12.5565 25.8953 12.4966 25.6692 12.4908C25.5791 12.488 25.519 12.4209 25.4833 12.3325C25.4217 12.1784 25.4275 12.0185 25.4432 11.8616C25.5119 11.1653 25.5848 10.4675 25.6607 9.77265C25.6921 9.48157 25.7308 9.19191 25.7708 8.90225C25.798 8.70392 25.911 8.63686 26.2 8.63828Z" fill="#BFF8FF"/>
<path d="M27.8181 13.1543C28.1658 13.1814 28.5134 13.2057 28.8597 13.2371C29.0628 13.2556 29.1673 13.4168 29.1157 13.638C29.0743 13.8164 29.0199 13.9919 28.9641 14.1659C28.8482 14.5327 28.7252 14.8979 28.6121 15.2646C28.5649 15.4187 28.4719 15.4758 28.3146 15.4787C27.9526 15.4858 27.5949 15.4302 27.2358 15.3988C27.0355 15.3816 26.934 15.2375 26.9769 15.0378C27.0999 14.4727 27.2287 13.9077 27.3603 13.3441C27.3875 13.2285 27.4576 13.1472 27.5949 13.1572C27.6679 13.1629 27.7423 13.1586 27.8153 13.1586C27.8181 13.1586 27.8181 13.1572 27.8181 13.1543Z" fill="#BFF8FF"/>
<path d="M23.6506 15.3688C23.4846 15.3688 23.3201 15.3645 23.1541 15.3703C22.9724 15.376 22.868 15.2861 22.8108 15.1248C22.7364 14.9179 22.7421 14.7053 22.7864 14.4956C22.8637 14.1274 22.8608 13.7565 22.858 13.384C22.8551 13.1058 22.9796 12.9774 23.2586 12.9788C23.5704 12.9802 23.8823 12.9546 24.1928 13.0102C24.3845 13.0445 24.4732 13.1286 24.4804 13.3241C24.5032 13.9206 24.5047 14.5156 24.4074 15.1063C24.3745 15.3132 24.3187 15.3674 24.1098 15.3674C23.9567 15.3703 23.8036 15.3688 23.6506 15.3688Z" fill="#BFF8FF"/>
<path d="M25.7908 15.3304C25.6921 15.3304 25.5934 15.3361 25.4961 15.3289C25.293 15.3161 25.1556 15.1634 25.1857 14.9765C25.2744 14.4114 25.3745 13.8478 25.5047 13.2899C25.5491 13.0973 25.6649 13.0317 25.8395 13.0145C26.0312 12.996 26.2186 13.0345 26.406 13.0573C26.5405 13.073 26.6364 13.2314 26.6106 13.3798C26.5119 13.9434 26.4275 14.5099 26.3588 15.0778C26.3374 15.249 26.253 15.3446 26.0684 15.3346C25.9768 15.3289 25.8838 15.3332 25.7923 15.3332C25.7908 15.3318 25.7908 15.3318 25.7908 15.3304Z" fill="#BFF8FF"/>
<path d="M9.40098 10.0509C9.43674 10.653 9.34375 11.3422 9.36235 12.0342C9.36807 12.2554 9.29511 12.3225 9.07621 12.3567C8.62412 12.4281 8.16917 12.3795 7.71707 12.3881C7.55255 12.391 7.51106 12.2568 7.4853 12.127C7.41234 11.7688 7.4667 11.4064 7.44381 11.0468C7.40805 10.4975 7.4152 9.94672 7.40662 9.39595C7.40375 9.26325 7.36513 9.13198 7.34367 8.99928C7.31076 8.80094 7.41377 8.6554 7.6112 8.64256C8.0633 8.61259 8.51539 8.58406 8.96748 8.56836C9.26936 8.55837 9.40241 8.70106 9.40241 9.00498C9.40241 9.3246 9.40098 9.6428 9.40098 10.0509Z" fill="#BFF8FF"/>
<path d="M3.4279 11.2124C3.42933 10.6017 3.42503 9.99239 3.32775 9.38597C3.30486 9.24614 3.34206 9.09346 3.3721 8.9522C3.40214 8.81237 3.52375 8.75815 3.65108 8.75387C3.97012 8.74388 4.2863 8.69537 4.60534 8.71249C4.8085 8.72248 4.91723 8.80666 4.93869 9.00642C4.98018 9.40595 5.01881 9.8069 5.04885 10.2078C5.10322 10.9284 5.09034 11.6504 5.08891 12.3724C5.08891 12.6549 5.02596 12.7092 4.74269 12.7248C4.49947 12.7377 4.25483 12.7605 4.01304 12.7919C3.75552 12.8247 3.5867 12.7277 3.51231 12.4709C3.45937 12.2897 3.41788 12.1056 3.42503 11.913C3.43505 11.679 3.4279 11.4449 3.4279 11.2124Z" fill="#BFF8FF"/>
<path d="M9.62275 14.3672C9.65566 14.7026 9.58841 15.0907 9.58555 15.4816C9.58412 15.6443 9.49399 15.7156 9.33518 15.7399C8.88881 15.8055 8.44101 15.7613 7.99464 15.7713C7.81008 15.7756 7.7457 15.64 7.7085 15.4902C7.65557 15.2804 7.66701 15.065 7.66988 14.8524C7.67417 14.4543 7.66558 14.059 7.56687 13.6709C7.53253 13.5368 7.58833 13.4426 7.71852 13.3984C7.78719 13.3756 7.86016 13.3513 7.93169 13.3499C8.36089 13.3413 8.78867 13.3485 9.21787 13.3142C9.504 13.2914 9.62132 13.4212 9.62418 13.7052C9.62418 13.9064 9.62275 14.1075 9.62275 14.3672Z" fill="#BFF8FF"/>
<path d="M5.56678 9.6371C5.56678 9.32177 5.56821 9.10203 5.56678 8.88086C5.56535 8.71534 5.64118 8.60833 5.80427 8.58264C5.96594 8.55696 6.1319 8.5327 6.295 8.53984C6.5611 8.55125 6.65696 8.67396 6.6727 8.97932C6.68414 9.20476 6.68986 9.43021 6.70131 9.65565C6.73135 10.2464 6.78429 10.8371 6.79144 11.4293C6.7943 11.6661 6.81719 11.9044 6.82292 12.1427C6.82578 12.2882 6.75281 12.3639 6.62405 12.3853C6.39371 12.4224 6.16194 12.4423 5.92874 12.4281C5.76135 12.4181 5.70269 12.3011 5.67694 12.1598C5.59825 11.7375 5.59682 11.3094 5.60255 10.8813C5.6097 10.4333 5.5396 9.98811 5.56678 9.6371Z" fill="#BFF8FF"/>
<path d="M3.65251 14.8766C3.68255 14.5198 3.59957 14.1717 3.57811 13.8192C3.56238 13.551 3.67683 13.4297 3.94008 13.4226C4.25912 13.414 4.57816 13.4197 4.89863 13.4197C5.05028 13.4197 5.13326 13.4939 5.16331 13.6452C5.28921 14.2815 5.34643 14.9251 5.34643 15.5729C5.34643 15.8697 5.25773 15.9524 4.96301 15.9595C4.69977 15.9667 4.43795 15.9867 4.17471 15.9924C3.90717 15.9981 3.73835 15.8525 3.68828 15.5914C3.6754 15.5258 3.6568 15.4601 3.65394 15.3931C3.64965 15.2204 3.65251 15.0478 3.65251 14.8766Z" fill="#BFF8FF"/>
<path d="M6.47955 15.7712C5.92588 15.7783 5.87437 15.7227 5.85864 15.1733C5.84433 14.6739 5.80856 14.1745 5.78996 13.6737C5.78138 13.4054 5.88153 13.3127 6.15336 13.3098C6.30644 13.3084 6.46095 13.3056 6.61403 13.3113C6.77856 13.3184 6.87871 13.4112 6.89301 13.5724C6.93593 14.0575 6.97027 14.5441 7.0089 15.0307C7.02178 15.1947 7.04896 15.3574 7.04753 15.5229C7.0461 15.687 6.95739 15.7569 6.81147 15.7698C6.7013 15.7798 6.58971 15.7712 6.47955 15.7712Z" fill="#BFF8FF"/>
</svg>
