<svg width="75" height="88" viewBox="0 0 75 88" fill="none" xmlns="http://www.w3.org/2000/svg">
<path d="M71.3248 16.9543C71.3248 16.9543 53.7364 14.6 35.7228 0.100073V0L35.6598 0.0474007L35.5968 0V0.100073C17.5831 14.5789 0 16.9543 0 16.9543C0.378019 69.8293 33.3496 85.9515 35.5968 87.0049V87.0628L35.6598 87.0365L35.7228 87.0628V87.0049C37.9699 85.9515 70.9467 69.8346 71.3248 16.9543Z" fill="#443FE0"/>
<path d="M42.6845 25.4975H29.5484V60.212H42.6845V25.4975Z" fill="white"/>
<path d="M53.4161 49.4409V36.263H18.8116V49.4409L53.4161 49.4409Z" fill="white"/>
<path d="M47.2629 70.6774C47.2629 69.229 48.5124 68.0018 48.9377 66.6956C49.363 65.3894 49.0952 63.6144 49.9142 62.482C50.7333 61.3496 52.4711 61.081 53.5894 60.2541C54.7077 59.4272 55.49 57.8576 56.8393 57.4204C58.1886 56.9833 59.6902 57.7944 61.1288 57.7944C62.5674 57.7944 64.1214 56.9991 65.4235 57.4204C66.7256 57.8418 67.5551 59.4324 68.6734 60.2541C69.7917 61.0757 71.54 61.3443 72.3486 62.482C73.1571 63.6197 72.8736 65.3367 73.3251 66.6956C73.7767 68.0544 75 69.229 75 70.6774C75 72.1258 73.7452 73.353 73.3251 74.6539C72.9051 75.9549 73.1624 77.7404 72.3486 78.8675C71.5348 79.9946 69.7917 80.2738 68.6734 81.1007C67.5551 81.9276 66.7728 83.4919 65.4235 83.929C64.0742 84.3662 62.5726 83.5551 61.1288 83.5551C59.685 83.5551 58.1414 84.3557 56.8393 83.929C55.5373 83.5024 54.7077 81.9171 53.5894 81.1007C52.4711 80.2843 50.7228 80.0051 49.9142 78.8675C49.1057 77.7298 49.3892 76.0128 48.9377 74.6539C48.4862 73.295 47.2629 72.1153 47.2629 70.6774Z" fill="white"/>
<path d="M49.6569 70.9618C49.6569 69.7767 50.8697 68.797 51.232 67.7279C51.5943 66.6587 51.1952 65.0944 51.8673 64.1885C52.5393 63.2825 54.0986 63.1719 55.0174 62.4925C55.9362 61.8131 56.4927 60.3857 57.6005 60.0012C58.7083 59.6167 59.9684 60.4911 61.1497 60.4911C62.331 60.4911 63.6383 59.6536 64.7041 60.0012C65.7699 60.3489 66.3685 61.8183 67.2873 62.4925C68.2061 63.1667 69.7706 63.2562 70.4374 64.1885C71.1042 65.1207 70.7104 66.6165 71.0727 67.7279C71.435 68.8392 72.6478 69.7767 72.6478 70.9618C72.6478 72.1468 71.435 73.1318 71.0727 74.2009C70.7104 75.2701 71.1042 76.8344 70.4374 77.7403C69.7706 78.6463 68.2061 78.7569 67.2873 79.4363C66.3685 80.1157 65.8067 81.5694 64.7041 81.9276C63.6016 82.2857 62.3363 81.4377 61.1497 81.4377C59.9632 81.4377 58.6401 82.2647 57.5901 81.9276C56.54 81.5905 55.9257 80.1105 55.0069 79.4363C54.0881 78.7621 52.5235 78.6726 51.8568 77.7403C51.19 76.8081 51.5785 75.3123 51.2215 74.2009C50.8645 73.0896 49.6569 72.1521 49.6569 70.9618Z" fill="#443FE0"/>
<path d="M53.9149 68.0913C53.9149 68.6122 54.0689 69.1213 54.3573 69.5544C54.6458 69.9875 55.0558 70.325 55.5355 70.5244C56.0151 70.7237 56.543 70.7758 57.0522 70.6742C57.5614 70.5726 58.0292 70.3218 58.3963 69.9535C58.7634 69.5852 59.0135 69.116 59.1147 68.6051C59.216 68.0943 59.164 67.5647 58.9654 67.0835C58.7667 66.6023 58.4302 66.191 57.9985 65.9017C57.5668 65.6123 57.0593 65.4579 56.5401 65.4579C55.8438 65.4579 55.1761 65.7353 54.6838 66.2292C54.1915 66.7231 53.9149 67.3929 53.9149 68.0913Z" fill="white"/>
<path d="M56.0151 75.3808C56.0151 75.7006 56.1096 76.0132 56.2867 76.2791C56.4638 76.545 56.7155 76.7523 57.0101 76.8747C57.3046 76.997 57.6287 77.0291 57.9413 76.9667C58.254 76.9043 58.5412 76.7503 58.7666 76.5242C58.992 76.298 59.1455 76.0099 59.2077 75.6962C59.2699 75.3826 59.238 75.0575 59.116 74.762C58.994 74.4665 58.7874 74.214 58.5224 74.0363C58.2573 73.8587 57.9457 73.7638 57.6269 73.7638C57.1994 73.7638 56.7894 73.9342 56.4871 74.2374C56.1849 74.5407 56.0151 74.9519 56.0151 75.3808Z" fill="white"/>
<path d="M66.1787 74.5567C68.4735 74.0151 69.896 71.7098 69.3561 69.4078C68.8162 67.1058 66.5183 65.6787 64.2235 66.2203C61.9288 66.7619 60.5062 69.0672 61.0461 71.3692C61.586 73.6713 63.884 75.0984 66.1787 74.5567Z" fill="white"/>
</svg>
