<svg width="18" height="18" viewBox="0 0 18 18" fill="none" xmlns="http://www.w3.org/2000/svg">
<path d="M13.2312 3.94954C14.9374 5.13531 16.1146 7.0206 16.3535 9.19594" stroke="#7E808A" stroke-linecap="round" stroke-linejoin="round"/>
<path d="M1.74047 9.23868C1.96227 7.07187 3.12245 5.18658 4.81153 3.99228" stroke="#7E808A" stroke-linecap="round" stroke-linejoin="round"/>
<path d="M5.74974 16.5494C6.73931 17.0528 7.86536 17.3343 9.05114 17.3343C10.1943 17.3343 11.2691 17.0783 12.2331 16.6092" stroke="#7E808A" stroke-linecap="round" stroke-linejoin="round"/>
<path d="M9.05125 5.25493C10.361 5.25493 11.4228 4.19315 11.4228 2.88339C11.4228 1.57362 10.361 0.511844 9.05125 0.511844C7.74149 0.511844 6.67971 1.57362 6.67971 2.88339C6.67971 4.19315 7.74149 5.25493 9.05125 5.25493Z" stroke="#7E808A" stroke-linecap="round" stroke-linejoin="round"/>
<path d="M2.88339 15.6792C4.19315 15.6792 5.25493 14.6175 5.25493 13.3077C5.25493 11.9979 4.19315 10.9362 2.88339 10.9362C1.57362 10.9362 0.511844 11.9979 0.511844 13.3077C0.511844 14.6175 1.57362 15.6792 2.88339 15.6792Z" stroke="#7E808A" stroke-linecap="round" stroke-linejoin="round"/>
<path d="M15.1166 15.6792C16.4264 15.6792 17.4882 14.6175 17.4882 13.3077C17.4882 11.9979 16.4264 10.9362 15.1166 10.9362C13.8069 10.9362 12.7451 11.9979 12.7451 13.3077C12.7451 14.6175 13.8069 15.6792 15.1166 15.6792Z" stroke="#7E808A" stroke-linecap="round" stroke-linejoin="round"/>
</svg>
