<svg width="54" height="59" viewBox="0 0 54 59" fill="none" xmlns="http://www.w3.org/2000/svg">
<mask id="mask0_2_3592" style="mask-type:alpha" maskUnits="userSpaceOnUse" x="-5" y="-8" width="67" height="67">
<path d="M28.6811 59C46.9246 59 61.7139 44.2107 61.7139 25.9672C61.7139 7.72367 46.9246 -7.06563 28.6811 -7.06563C10.4375 -7.06563 -4.35175 7.72367 -4.35175 25.9672C-4.35175 44.2107 10.4375 59 28.6811 59Z" fill="#F6F3EF"/>
</mask>
<g mask="url(#mask0_2_3592)">
<path d="M17.3763 13.7084C18.0893 13.2785 19.0646 13.247 19.8616 13.5931C19.4107 9.15722 20.4803 4.74236 24.0143 2.2046C24.7588 1.66978 25.5558 1.27129 26.3633 1.01961C30.2119 -0.217808 34.5848 1.44956 37.5735 4.33338C40.5726 7.2172 42.2715 11.4014 42.5127 15.6065C42.8273 21.2483 40.2371 27.1522 34.5114 28.4106C34.2177 28.4736 33.9241 28.5155 33.6305 28.5574L33.4208 37.7542C33.3578 41.6447 29.8553 44.5705 26.0172 43.9413C22.693 43.396 20.3754 40.3549 20.7215 36.9992C20.7215 36.9992 21.854 23.0834 21.9694 21.1854C21.9799 21.0805 21.875 21.0176 21.7806 21.0595C20.6586 21.5314 19.2534 21.5314 18.2047 20.9861C16.8939 20.3045 15.9501 18.8468 15.8137 17.2843C15.6984 15.8686 16.2647 14.3795 17.3763 13.7084Z" stroke="#000402" stroke-width="1.191" stroke-miterlimit="10" stroke-linecap="round" stroke-linejoin="round"/>
<path d="M19.977 18.1546C19.1695 18.1231 18.5299 17.5883 18.5613 16.9591C18.5823 16.4872 18.9703 16.0992 19.5051 15.9524" stroke="#2E2E2E" stroke-width="1.258" stroke-miterlimit="10" stroke-linecap="round"/>
<path d="M37.2379 17.5464L37.9825 16.2565H37.993L38.1713 17.3261C37.7413 17.0325 37.6259 16.7599 37.4791 16.4977C37.3428 16.2355 37.2484 15.9734 37.1541 15.7112C36.9758 15.1869 36.829 14.6625 36.7136 14.1382C37.0282 14.5786 37.3638 14.9876 37.7098 15.3756C37.8881 15.5644 38.0664 15.7427 38.2551 15.9C38.4229 16.0468 38.6641 16.1831 38.7061 16.1411L39.8281 14.8828L38.8739 17.2108L38.8634 17.2213L37.5211 17.8714C37.4057 17.9239 37.2694 17.8819 37.2065 17.7666C37.1855 17.6932 37.196 17.6093 37.2379 17.5464Z" fill="#2E2E2E"/>
<path d="M33.599 31.7033L33.7353 28.4C33.7353 28.4 28.1669 29.2704 24.0037 24.0796C24.0142 24.0796 26.0171 30.1408 33.599 31.7033Z" fill="#000402" stroke="#000402" stroke-width="0.696" stroke-miterlimit="10" stroke-linecap="round" stroke-linejoin="round"/>
<path d="M35.6964 20.8602C35.6964 20.8602 37.7938 19.2872 38.79 20.8602" stroke="#2E2E2E" stroke-width="1.1703" stroke-miterlimit="10" stroke-linecap="round"/>
<path d="M36.4408 10.059C36.4408 10.059 35.4551 12.5548 32.3825 12.1982" stroke="#2E2E2E" stroke-width="1.1703" stroke-miterlimit="10" stroke-linecap="round"/>
<path d="M38.2026 9.12571C38.2026 9.12571 38.9786 11.6949 42.0722 11.5901" stroke="#2E2E2E" stroke-width="1.1703" stroke-miterlimit="10" stroke-linecap="round"/>
<path d="M28.4606 0.0862048C31.9631 0.274964 44.6309 -0.668831 41.789 4.51155C38.9472 9.69194 28.2089 5.8853 28.2089 5.8853C28.2089 5.8853 25.8494 18.5426 18.9912 13.4671C18.9912 13.4671 18.5298 12.6387 17.3657 13.7083C17.3762 13.7083 12.3007 -0.79467 28.4606 0.0862048Z" fill="#040302"/>
<path d="M53.9746 67.7773C53.9746 67.7773 47.8819 36.695 33.7249 33.895C29.1737 35.5624 24.7274 35.0276 20.2496 33.2239C4.60362 37.5129 0 66.5818 0 66.5818L53.9746 67.7773Z" fill="#443FE0"/>
<path d="M18.8233 47.8422L17.9948 66.9803" stroke="#2E2E2E" stroke-width="1.1703" stroke-miterlimit="10" stroke-linecap="round"/>
<path opacity="0.4" d="M32.3826 14.5997C32.3407 15.3232 32.7811 15.9315 33.3684 15.9734C33.9556 16.0154 34.4799 15.4596 34.5219 14.736C34.5638 14.0124 34.1234 13.4042 33.5361 13.3623C32.9489 13.3203 32.4351 13.8761 32.3826 14.5997Z" fill="#F7BA28"/>
<path d="M32.9907 14.3901C32.9697 14.7781 33.1585 15.1137 33.4207 15.1346C33.6828 15.1556 33.9135 14.8515 33.945 14.453C33.966 14.065 33.7772 13.7294 33.515 13.7084C33.2529 13.6875 33.0222 13.9916 32.9907 14.3901Z" fill="#2E2E2E"/>
<path opacity="0.4" d="M41.1915 14.5682C41.2334 15.2918 40.793 15.9 40.2057 15.9419C39.6185 15.9839 39.0942 15.4281 39.0522 14.7045C39.0103 13.9809 39.4507 13.3727 40.038 13.3308C40.6252 13.2993 41.139 13.8551 41.1915 14.5682Z" fill="#F7BA28"/>
<path d="M40.5831 14.3583C40.6041 14.7463 40.4153 15.0819 40.1531 15.1028C39.891 15.1238 39.6603 14.8197 39.6288 14.4212C39.6078 14.0332 39.7966 13.6976 40.0588 13.6767C40.3209 13.6662 40.5516 13.9703 40.5831 14.3583Z" fill="#2E2E2E"/>
<path d="M47.1686 2.74984L44.8511 7.96168L44.6519 7.66806L47.0533 7.6366H47.0638C47.1791 7.6366 47.2735 7.72049 47.2735 7.83584C47.2735 7.8673 47.263 7.89876 47.2525 7.93022L45.0713 12.2717L46.8645 7.76244L47.0638 8.05606L44.6623 8.08752C44.547 8.08752 44.4526 7.99314 44.4526 7.87779C44.4526 7.84633 44.4631 7.81487 44.4736 7.7939L46.7911 2.58205C46.8331 2.47719 46.9589 2.42475 47.0743 2.47719C47.1686 2.51913 47.2211 2.64497 47.1686 2.74984Z" fill="#2E2E2E" stroke="#2E2E2E" stroke-width="0.457" stroke-miterlimit="10" stroke-linecap="round"/>
<path d="M7.90694 5.32953L11.4409 9.79682L11.0844 9.82828L12.1645 7.67853V7.66804C12.2169 7.56318 12.3428 7.53172 12.4372 7.57366C12.4686 7.58415 12.4896 7.61561 12.5106 7.63658L15.3419 11.5795L12.1855 7.89875L12.542 7.86729L11.4619 10.017C11.4095 10.1219 11.2836 10.1639 11.1788 10.1114C11.1473 10.1009 11.1263 10.08 11.1054 10.059L7.57137 5.59169C7.49796 5.49731 7.51894 5.37147 7.60283 5.29807C7.7077 5.22466 7.83353 5.24563 7.90694 5.32953Z" fill="#2E2E2E" stroke="#2E2E2E" stroke-width="0.457" stroke-miterlimit="10" stroke-linecap="round"/>
</g>
</svg>
