<svg width="65" height="65" viewBox="0 0 65 65" fill="none" xmlns="http://www.w3.org/2000/svg">
<mask id="mask0_0_18" style="mask-type:alpha" maskUnits="userSpaceOnUse" x="0" y="0" width="65" height="65">
<path d="M32.5 65C50.4493 65 65 50.4493 65 32.5C65 14.5507 50.4493 0 32.5 0C14.5507 0 0 14.5507 0 32.5C0 50.4493 14.5507 65 32.5 65Z" fill="#F6F3EF"/>
</mask>
<g mask="url(#mask0_0_18)">
<path d="M32.5 65C50.4493 65 65 50.4493 65 32.5C65 14.5507 50.4493 0 32.5 0C14.5507 0 0 14.5507 0 32.5C0 50.4493 14.5507 65 32.5 65Z" fill="#EAEAFF"/>
<path d="M34.3228 26.9821C34.3228 26.9821 37.4333 26.9146 38.367 25.2891" stroke="#F7BA28" stroke-width="0.9328" stroke-miterlimit="10" stroke-linecap="round" stroke-linejoin="round"/>
<path d="M45.156 27.29C45.156 27.29 43.4123 26.9188 42.7373 25.2988" stroke="#F7BA28" stroke-width="0.9328" stroke-miterlimit="10" stroke-linecap="round" stroke-linejoin="round"/>
<path d="M38.7549 18.1836C38.7549 18.1836 37.4893 20.4616 34.5757 19.7304" stroke="#2E2E2E" stroke-width="1.1703" stroke-miterlimit="10" stroke-linecap="round"/>
<path d="M42.3828 18.8145C42.3828 18.8145 42.8103 21.385 45.7971 21.6775" stroke="#2E2E2E" stroke-width="1.1703" stroke-miterlimit="10" stroke-linecap="round"/>
<path d="M21.7455 20.5983C22.4824 20.2664 23.4273 20.3676 24.1529 20.8008C24.2823 16.4697 25.8685 12.358 29.5921 10.3555C30.3795 9.93367 31.1895 9.65244 32.0051 9.50619C35.8637 8.79747 39.8686 10.9574 42.3885 14.1073C44.914 17.2628 46.0277 21.5095 45.724 25.5874C45.3133 31.0604 42.0735 36.4264 36.3981 36.9158C36.1112 36.9383 35.8187 36.9439 35.5318 36.9439L34.1707 45.7804C33.6194 49.5209 29.8789 51.9002 26.2566 50.8033C23.1236 49.8584 21.273 46.6354 22.0267 43.4461C22.0267 43.4461 24.8729 30.1885 25.2272 28.3717C25.2441 28.2761 25.1541 28.203 25.0641 28.2311C23.9223 28.5461 22.5723 28.3661 21.6274 27.708C20.4574 26.8868 19.7318 25.3568 19.7937 23.8438C19.85 22.4713 20.5868 21.1101 21.7455 20.5983Z" stroke="#000402" stroke-width="1.191" stroke-miterlimit="10" stroke-linecap="round" stroke-linejoin="round"/>
<path d="M23.6917 25.21C22.9155 25.075 22.3699 24.4788 22.4767 23.8825C22.5555 23.4326 22.9774 23.112 23.5061 23.0332" stroke="#2E2E2E" stroke-width="1.258" stroke-miterlimit="10" stroke-linecap="round"/>
<path d="M40.4423 26.8801C40.5661 26.6551 40.7236 26.4751 40.8979 26.312C41.0667 26.1489 41.2579 26.0083 41.4492 25.8789L41.4661 26.4639C41.1454 26.2276 41.0217 25.9801 40.8923 25.7383C40.7742 25.4908 40.673 25.2433 40.5998 24.9902C40.4423 24.4839 40.3467 23.9721 40.3242 23.4434C40.5942 23.8933 40.8305 24.3489 41.0723 24.7877C41.2017 25.0014 41.3142 25.2208 41.4492 25.4177C41.5729 25.6089 41.7304 25.8114 41.8373 25.862L42.3154 26.1039L41.8542 26.447C41.6685 26.5876 41.4773 26.7226 41.2636 26.8239C41.0554 26.9307 40.8304 27.0207 40.5773 27.0657C40.5042 27.077 40.4367 27.0263 40.4255 26.9588C40.4255 26.9363 40.4311 26.9026 40.4423 26.8801Z" fill="#2E2E2E"/>
<path d="M35.1046 39.9811L35.6559 36.8143C35.6559 36.8143 30.1829 36.9493 26.8306 31.4258C26.8306 31.4258 28.0005 37.5174 35.1046 39.9811Z" fill="#000402" stroke="#000402" stroke-width="0.696" stroke-miterlimit="10" stroke-linecap="round" stroke-linejoin="round"/>
<path d="M34.1373 8.87546C37.4897 9.49981 49.8192 10.1917 46.4218 14.8209C43.0301 19.4557 33.1698 14.4271 33.1698 14.4271C33.1698 14.4271 29.3056 26.3235 23.3377 20.5694C23.3377 20.5694 22.9946 19.7144 21.7403 20.5919C21.7459 20.5975 18.686 5.98995 34.1373 8.87546Z" fill="#040302"/>
<path d="M34.5757 23.5724C36.1169 23.4205 38.1193 23.8986 38.1193 23.8986L36.8031 22.6387" stroke="#2E2E2E" stroke-width="1.0855" stroke-miterlimit="10" stroke-linecap="round" stroke-linejoin="round"/>
<path d="M45.0042 23.6449C45.0042 23.6449 43.5474 23.4761 42.5405 23.8193L43.4967 22.7168" stroke="#2E2E2E" stroke-width="1.0855" stroke-miterlimit="10" stroke-linecap="round" stroke-linejoin="round"/>
<path d="M40.6223 30.1823C40.6223 31.2004 39.4298 32.0553 38.3949 32.0553C37.3599 32.0553 35.6162 31.4141 35.6162 30.4016C35.6162 29.3836 37.3543 28.3711 38.3949 28.3711C39.4354 28.3711 40.6223 29.1642 40.6223 30.1823Z" fill="#2E2E2E"/>
<path d="M45.6963 31.8633H48.728" stroke="#2E2E2E" stroke-width="1.0855" stroke-miterlimit="10" stroke-linecap="round" stroke-linejoin="round"/>
<path d="M45.1953 33.1289L47.6927 34.8445" stroke="#2E2E2E" stroke-width="1.0855" stroke-miterlimit="10" stroke-linecap="round" stroke-linejoin="round"/>
<path d="M44.2783 34.2422L45.5833 36.9758" stroke="#2E2E2E" stroke-width="1.0855" stroke-miterlimit="10" stroke-linecap="round" stroke-linejoin="round"/>
<path d="M-1.66504 69.3466C-1.66504 69.3466 8.05459 40.6771 22.0434 39.7715C25.5814 42.4433 30.6718 44.3219 35.0985 44.0913C35.0985 44.0913 38.9965 56.2296 38.1134 79.1169L-1.66504 69.3466Z" fill="#443FE0"/>
<path d="M52.3279 43.5241C51.2029 43.8335 54.4372 38.9737 54.7184 38.0794C54.9434 37.365 54.3978 37.0669 53.8747 37.5675C53.0254 38.3662 50.7979 42.3261 50.1398 42.4611C49.988 41.4655 52.4179 37.9387 51.906 37.3594C50.7698 36.0657 47.2543 43.991 47.0687 44.3622C46.8887 44.7222 46.6469 43.4904 46.8325 41.263C46.9506 39.8062 45.8763 38.85 45.6625 40.183C45.3307 42.2361 44.6051 45.5434 44.7851 47.7034L40.3921 54.7625L43.8851 61.1297C43.8851 61.1297 49.3524 52.2707 49.7517 51.742C53.4416 48.5921 55.3765 45.6391 55.9559 44.9078C57.1933 43.3498 57.2833 42.3148 56.5071 42.6411C56.0009 42.8548 54.0491 45.4366 53.4922 45.1553C53.1547 44.981 56.8165 40.4586 55.9952 39.8624C55.1065 39.2099 53.0985 43.3104 52.3279 43.5241Z" stroke="#2E2E2E" stroke-width="1.0855" stroke-miterlimit="10" stroke-linecap="round" stroke-linejoin="round"/>
<path d="M42.3831 46.9609L52.4908 57.0743L40.3525 74.708L26.8306 68.712L42.3831 46.9609Z" fill="#443FE0"/>
<path d="M42.3826 46.9609L30.4355 63.6722" stroke="#2E2E2E" stroke-width="1.0855" stroke-miterlimit="10" stroke-linecap="round" stroke-linejoin="round"/>
</g>
</svg>
