<svg width="32" height="31" viewBox="0 0 32 31" fill="none" xmlns="http://www.w3.org/2000/svg">
<path d="M31.9554 3.83214C31.9534 3.89076 31.9554 3.94939 31.9457 4.00801C31.9146 4.20538 31.7438 4.34999 31.5614 4.31873C31.3674 4.28746 31.2432 4.17021 31.2529 3.96111C31.2743 3.54096 31.2665 3.12473 31.1248 2.72412C30.6999 1.51644 29.8344 0.867653 28.5829 0.723045C28.5246 0.717182 28.4664 0.705457 28.4102 0.707411C28.2103 0.717182 28.0919 0.613611 28.0589 0.427964C28.026 0.244272 28.0919 0.0996629 28.2879 0.0429918C28.3927 0.0351751 28.5072 0.0918462 28.6003 0C28.6508 0 28.7012 0 28.7497 0C28.8293 0.105525 28.9477 0.0429918 29.0447 0.0625336C30.6902 0.386927 31.8739 1.75094 31.9554 3.41981C31.9573 3.55855 31.9573 3.69534 31.9554 3.83214Z" fill="#070707"/>
<path d="M0.00194045 27.4933C0.141653 27.3799 0.267782 27.2412 0.479292 27.335C0.68692 27.4268 0.692741 27.6027 0.704384 27.7942C0.766478 28.9003 1.84149 30.0493 2.96113 30.2154C3.15712 30.2447 3.3531 30.278 3.55491 30.2565C3.75671 30.235 3.89837 30.3405 3.93524 30.5379C3.96822 30.7176 3.90031 30.8662 3.70626 30.9228C3.53744 30.9385 3.3628 30.874 3.20175 30.9717C3.11831 30.9717 3.03487 30.9717 2.95143 30.9717C2.93202 30.9052 2.87187 30.9287 2.82724 30.917C1.5446 30.6258 0.659754 29.8637 0.17076 28.6345C0.100903 28.4606 0.102844 28.2632 0 28.101C0.00194045 27.8978 0.00194045 27.6946 0.00194045 27.4933Z" fill="#070708"/>
<path d="M3.20175 30.9679C3.36281 30.8701 3.53745 30.9366 3.70627 30.919C3.70433 30.9346 3.70238 30.9503 3.70238 30.9679C3.53551 30.9679 3.36863 30.9679 3.20175 30.9679Z" fill="#403F43"/>
<path d="M31.9573 3.42179C31.9728 3.42179 31.9864 3.42179 32 3.4257C32 3.56054 32 3.69342 32 3.82826L31.9767 3.82631L31.9554 3.83021C31.9573 3.69538 31.9573 3.55858 31.9573 3.42179Z" fill="#AEACB0"/>
<path d="M28.6003 0.00201601C28.5072 0.0938622 28.3927 0.0371911 28.2879 0.0450078C28.2898 0.0293745 28.2937 0.0156952 28.3015 0.00201601C28.4004 0.00201601 28.5014 0.00201601 28.6003 0.00201601Z" fill="#3F3E43"/>
<path d="M11.7067 4.42426C12.8807 4.15849 14.0605 3.94353 15.2655 3.8849C15.3839 3.87904 15.4305 3.85559 15.4052 3.72857C15.3082 3.22635 15.3509 2.72999 15.4809 2.23949C15.5062 2.14569 15.4654 2.12615 15.4072 2.08902C14.7843 1.70014 14.8483 0.92433 15.4305 0.47487C16.098 -0.0410317 17.4078 -0.183686 18.1471 0.904789C18.3198 1.29758 18.4324 1.69232 18.2305 2.11051C18.1529 2.19259 18.0773 2.27662 17.9996 2.35869C17.8871 2.37824 17.8832 2.4564 17.8987 2.5463C17.9802 2.99771 18.0249 3.45303 18.0443 3.90835C18.0501 4.03538 18.1122 4.03928 18.2034 4.02365C19.032 4.18585 19.8605 4.34414 20.66 4.6314C20.9239 4.7252 21.1859 4.82877 21.4478 4.93234C21.5429 4.96947 21.5953 4.96947 21.6651 4.86785C21.962 4.43207 22.2822 4.01583 22.6237 3.61523C22.6858 3.54292 22.7033 3.48821 22.6528 3.40027C22.4491 3.03288 22.3851 2.64987 22.6625 2.29812C22.9575 1.92487 23.3766 1.86624 23.8152 1.94246C24.5487 2.06948 25.0687 2.51894 25.4937 3.10323C25.5228 3.14427 25.5519 3.18336 25.5829 3.22244C25.6353 3.33578 25.6916 3.44522 25.742 3.56051C25.9924 4.13308 25.8895 4.41449 25.3345 4.67244C25.3093 4.6783 25.2821 4.68416 25.255 4.68807C25.0842 4.69589 24.9135 4.73497 24.7408 4.68221C24.667 4.65876 24.5933 4.68612 24.5487 4.76037C24.2576 5.24306 23.9025 5.67297 23.4911 6.07944C23.6192 6.17715 23.7317 6.26118 23.8423 6.34521C24.7835 7.18746 25.4626 8.21926 25.9865 9.36246C26.0137 9.42304 26.0156 9.54224 26.1456 9.46017C26.5182 9.22957 26.9471 9.1475 27.3546 9.01657C27.7252 8.89736 27.9813 8.72735 27.9736 8.26812C27.9639 7.76785 28.2278 7.40828 28.7148 7.25781C29.262 7.0878 29.7258 7.27735 30.0809 7.68968C30.6106 8.30329 30.7872 9.05565 30.8144 9.851C30.8221 10.0757 30.8299 10.3024 30.7484 10.5213C30.5563 10.8515 30.2575 11.0001 29.8907 11.0294C29.6947 10.9981 29.5085 10.9395 29.3455 10.8222C29.2581 10.662 29.1631 10.6639 29.0117 10.7636C28.4063 11.1623 27.797 11.555 27.176 11.9283C26.9684 12.0534 26.9238 12.1765 27.0441 12.3758C27.242 13.263 27.4438 14.1482 27.6359 15.0354C27.6611 15.1527 27.698 15.1468 27.7989 15.1331C28.0686 15.098 28.3403 15.0491 28.6139 15.0882C28.7303 15.1038 28.7963 15.0569 28.839 14.9455C28.8817 14.8302 28.938 14.7149 29.002 14.6094C29.3183 14.0896 29.9198 14.0134 30.3584 14.4316C30.6766 14.7325 30.8241 15.1175 30.8862 15.5396C30.9851 16.1923 30.9444 16.8411 30.7833 17.482C30.6902 17.8533 30.5233 18.1875 30.1993 18.4161C29.8325 18.5705 29.4774 18.5862 29.1495 18.3165C29.1145 18.2735 29.0816 18.2285 29.0466 18.1856C28.9826 17.8846 28.8041 17.7615 28.4975 17.8182C28.3927 17.8377 28.2821 17.8201 28.1754 17.8221C27.8047 17.826 27.8047 17.826 27.762 18.2149C27.6534 19.1646 27.4166 20.0791 27.0402 20.9566C26.9859 21.0836 26.982 21.1598 27.0965 21.2497C27.2071 21.3396 27.2556 21.4783 27.2983 21.6171C27.4011 21.9415 27.405 21.9434 27.731 21.8457C27.9212 21.789 28.1074 21.7246 28.3054 21.6894C28.9535 21.5721 29.5104 22.0275 29.5531 22.6919C29.59 23.2586 29.3726 23.753 29.1456 24.2435C28.8836 24.8102 28.6197 25.3828 28.0531 25.7267C27.4166 25.9026 27.1353 25.8029 26.7647 25.2733C26.5881 24.8747 26.6172 24.4741 26.7569 24.0735C26.9277 23.7686 26.9238 23.7764 26.6346 23.5928C26.4251 23.4599 26.2097 23.325 26.0273 23.157C25.8585 23.0026 25.7479 22.985 25.645 23.2058C24.9135 23.9836 24.0888 24.6363 23.1321 25.1111C23.0409 25.1561 23.0293 25.1971 23.0817 25.2812C23.3145 25.6485 23.4911 26.0433 23.5978 26.4654C23.625 26.5748 23.7084 26.5807 23.7899 26.5865C23.9258 26.5944 24.05 26.6334 24.1742 26.6804C24.799 26.9188 24.9891 27.4796 24.5991 28.0248C24.0364 28.8104 23.2932 29.3185 22.3152 29.4357C22.1541 29.4553 22.0028 29.3947 21.8456 29.3947C21.2479 29.168 20.9336 28.7557 20.9976 28.0932C21.0869 27.888 21.1917 27.6946 21.3527 27.5382C21.3857 27.5128 21.4129 27.4816 21.4498 27.464C21.6438 27.3682 21.6554 27.249 21.5545 27.0595C21.4032 26.7761 21.3081 26.4654 21.2305 26.1527C21.149 25.8244 21.1839 25.8342 20.8443 25.9397C20.2001 26.0687 19.552 26.1703 18.8981 26.2407C18.6749 26.2504 18.4518 26.2641 18.2267 26.2719C16.6995 26.3247 15.1879 26.182 13.6918 25.8772C11.895 25.5118 10.1583 24.9646 8.56321 24.0305C7.03802 23.1355 5.81553 21.9512 5.07234 20.3156C4.5523 19.1685 4.3175 17.953 4.23795 16.7004C4.14092 15.1722 4.24571 13.6577 4.53484 12.153C4.75605 11.0059 5.12667 9.91158 5.62731 8.86023C5.73209 8.7293 5.72433 8.62378 5.61567 8.47917C5.44491 8.25249 5.34983 7.98085 5.28579 7.70336C5.27803 7.68773 5.27027 7.67209 5.26251 7.65646C5.2528 7.57243 5.24504 7.48645 5.23534 7.40242C5.24504 7.35161 5.24892 7.3008 5.21011 7.25976C5.21205 7.16792 5.21399 7.07607 5.21205 6.98423C5.21205 6.39602 4.84143 6.0814 4.26511 6.19279C3.7994 6.28268 3.47341 6.58362 3.19786 6.94905C3.10278 7.0448 3.05039 7.16792 3.00576 7.28908C2.83694 7.7698 3.06009 8.06684 3.55685 8.00626C3.93718 7.95936 4.2263 8.09811 4.44363 8.39709C4.68425 8.7293 4.90934 9.06933 5.14026 9.4074C5.18295 9.46798 5.21981 9.52661 5.17713 9.61259C5.07428 9.81973 4.98308 10.0327 4.87635 10.2692C4.58141 9.83732 4.28646 9.43281 4.01868 9.0107C3.86538 8.76839 3.6985 8.63941 3.40743 8.74103C3.34922 8.76057 3.27548 8.74884 3.21145 8.73907C2.79231 8.6824 2.53617 8.41273 2.34406 8.05902C2.14614 7.51381 2.27227 7.02136 2.59826 6.56994C3.0077 6.00518 3.51804 5.59481 4.23018 5.47365C4.92099 5.3564 5.95525 5.83713 5.91644 6.89824C5.90285 7.25976 5.94166 7.61738 6.12407 7.96131C6.28706 7.74635 6.4423 7.53139 6.60918 7.32621C7.16609 6.64615 7.83748 6.10289 8.59232 5.66516C8.73979 5.57917 8.77666 5.50687 8.70099 5.3564C8.65441 5.26064 8.62143 5.15316 8.60396 5.04764C8.54575 4.71347 8.47977 4.45943 8.06452 4.3285C7.56388 4.17217 7.40864 3.56637 7.67643 3.03093C8.11109 2.16328 8.78248 1.62392 9.7954 1.62197C9.83421 1.6337 9.87108 1.65324 9.90989 1.6591C10.8626 1.81739 11.3478 2.77884 10.9015 3.64845C10.8044 3.83605 10.7928 3.97284 10.9286 4.13308C11.0373 4.26206 11.0276 4.52392 11.1809 4.55714C11.3439 4.59036 11.5321 4.47507 11.7067 4.42426ZM28.5072 9.06542C28.2375 9.4758 27.8106 9.63018 27.374 9.76306C27.0984 9.84709 26.819 9.91549 26.559 10.0425C26.4445 10.0992 26.3863 10.1695 26.4969 10.2848C26.6017 10.5565 26.7161 10.8242 26.8054 11.1017C26.8636 11.2854 26.9354 11.258 27.0635 11.1759C27.7562 10.7304 28.4509 10.2887 29.1475 9.84905C29.4619 9.64972 29.7025 9.7572 29.7491 10.1207C29.7646 10.2438 29.815 10.3122 29.9334 10.3063C30.0479 10.3005 30.11 10.236 30.1139 10.1109C30.1372 9.53051 30.0304 8.97944 29.7607 8.46549C29.6637 8.27984 29.5492 8.10788 29.3513 8.01408C29.0039 7.81866 28.7342 7.92223 28.6935 8.26421C28.6605 8.47721 28.6275 8.69022 28.5964 8.90127C28.5654 8.95599 28.5363 9.01071 28.5072 9.06542ZM23.0565 27.1337C22.9226 26.6549 22.8061 26.1703 22.5403 25.7384C22.354 25.4355 22.3579 25.4336 22.0397 25.6192C21.8941 25.6446 21.8359 25.6935 21.8844 25.8713C22.0125 26.3501 22.191 26.8054 22.4316 27.2373C22.5636 27.4718 22.5092 27.6516 22.2822 27.7864C22.1541 27.8626 22.0202 27.933 21.8999 28.019C21.7835 28.103 21.671 28.2105 21.7078 28.3727C21.7466 28.5524 21.8844 28.6541 22.0513 28.701C22.1367 28.7244 22.2337 28.7264 22.323 28.7166C22.9478 28.6384 23.4348 28.3121 23.8443 27.8489C23.9491 27.7336 24.1334 27.6066 24.0829 27.4698C24.017 27.2881 23.788 27.2901 23.6037 27.2822C23.5862 27.2822 23.5707 27.2803 23.5532 27.2803C23.431 27.2177 23.2932 27.2901 23.169 27.2373C23.1282 27.2021 23.0933 27.1669 23.0565 27.1337ZM23.854 2.68113C23.6347 2.61078 23.3786 2.54239 23.2291 2.74367C23.0953 2.92345 23.2893 3.09737 23.396 3.2498C23.5551 3.47844 23.5474 3.61523 23.3689 3.83214C23.0875 4.17412 22.8081 4.5161 22.5383 4.8659C22.2706 5.20983 22.2764 5.21374 22.6645 5.39353C22.874 5.57722 23.0448 5.56354 23.2369 5.33881C23.4833 5.04568 23.7278 4.75256 23.9297 4.42621C24.0461 4.2347 24.1974 4.09009 24.4128 4.01779C24.5913 3.95721 24.7718 3.98066 24.9542 3.99825C25.0959 4.01193 25.1715 3.98261 25.0842 3.8126C24.8087 3.28302 24.4322 2.87069 23.854 2.68113ZM8.79801 2.72022C8.54769 2.90977 8.35947 3.14427 8.28185 3.45889C8.25662 3.56051 8.28185 3.64454 8.35753 3.70512C8.42156 3.75788 8.4856 3.73639 8.55933 3.68949C8.87174 3.48821 9.13565 3.62695 9.14535 4.00216C9.15117 4.26401 9.19968 4.5161 9.25595 4.76819C9.36268 5.24306 9.3685 5.24306 9.81869 5.04764C9.86332 5.0281 9.90795 5.0066 9.95258 4.9851C10.5464 4.79164 10.558 4.7506 10.1602 4.25424C10.1447 4.2347 10.1292 4.21516 10.1136 4.19562C9.86526 3.89077 9.86914 3.78915 10.1563 3.5058C10.364 3.30256 10.4008 3.05047 10.3329 2.78861C10.2669 2.54043 10.0787 2.40755 9.82839 2.36456C9.42089 2.2903 9.08714 2.43686 8.79801 2.72022ZM28.8429 22.9557C28.8759 22.4378 28.7032 22.2952 28.2161 22.4378C28.0259 22.4945 27.8377 22.5551 27.6437 22.5922C27.2362 22.6723 26.9082 22.4945 26.7317 22.1193C26.6987 22.049 26.6676 21.9747 26.623 21.875C26.5861 21.9532 26.5609 22.004 26.5376 22.0548C26.4988 22.1174 26.4658 22.1838 26.4193 22.2405C26.2834 22.4046 26.3242 22.5141 26.491 22.6372C26.7996 22.8638 27.1159 23.0749 27.469 23.2293C27.8474 23.3954 27.894 23.5791 27.667 23.9269C27.5176 24.1556 27.3526 24.3803 27.3468 24.6734C27.3429 24.8415 27.3798 25.0017 27.5389 25.076C27.7038 25.1541 27.83 25.0408 27.9231 24.9235C28.3791 24.3412 28.6915 23.6846 28.8429 22.9557ZM15.902 1.01227C15.7914 1.06112 15.7215 1.15101 15.6866 1.26436C15.6478 1.39529 15.6847 1.43828 15.8477 1.46173C16.2086 1.37184 16.3755 1.5184 16.3541 1.90923C16.1349 2.32743 16.0553 2.77884 16.0553 3.24394C16.0553 3.32406 16.0048 3.45694 16.1562 3.4843C16.391 3.5312 16.6239 3.58787 16.8606 3.62695C17.3729 3.71098 17.3748 3.70707 17.2797 3.16772C17.2196 2.82965 17.1536 2.49549 17.0993 2.15741C17.0566 1.88774 17.1711 1.7314 17.4039 1.71382C17.6503 1.69623 17.6814 1.65324 17.5902 1.41874C17.5009 1.18228 17.3379 1.00445 17.107 0.902835C16.6898 0.717188 16.2862 0.766042 15.902 1.01227ZM29.0427 15.819C28.7032 15.8015 28.3616 15.7878 28.0221 15.8112C27.8203 15.8249 27.7038 15.8874 27.8028 16.1141C27.8144 16.4053 27.8319 16.6965 27.8358 16.9896C27.8377 17.1029 27.8765 17.1303 27.9813 17.1264C28.2472 17.1186 28.513 17.1303 28.7788 17.1205C29.1534 17.1068 29.4114 17.2632 29.5667 17.611C29.6035 17.6911 29.6094 17.8318 29.7413 17.8221C29.8674 17.8123 29.9509 17.7166 29.9916 17.6032C30.2652 16.8684 30.3293 16.12 30.1061 15.3579C30.0576 15.1488 29.9683 14.9455 29.753 14.8947C29.6055 14.8615 29.5744 15.0511 29.5085 15.1566C29.4017 15.4126 29.3008 15.6705 29.0427 15.819ZM26.0913 21.2966C26.7996 20.0029 27.145 18.6037 27.1139 17.142C27.0945 16.2568 27.0072 15.3637 26.8073 14.4863C26.4387 12.8526 26.0389 11.2326 25.3578 9.69271C24.537 7.83234 23.2466 6.46051 21.3702 5.6593C19.3774 4.80923 17.2991 4.49265 15.1491 4.59036C14.9492 4.60795 14.7494 4.62749 14.5495 4.64508C13.3775 4.78187 12.2229 5.00074 11.0897 5.34076C8.60008 6.08726 6.7683 7.55875 5.85822 10.0777C4.88994 12.7569 4.63962 15.4986 5.15966 18.2969C5.44879 19.8505 6.17452 21.1891 7.34655 22.262C8.32454 23.1589 9.4597 23.794 10.6861 24.2689C12.5897 25.0056 14.565 25.414 16.6006 25.5411C18.1898 25.6407 19.7577 25.5332 21.2868 25.074C23.3126 24.4663 24.9562 23.3426 26.0001 21.4373C26.0661 21.4139 26.0739 21.3513 26.0913 21.2966Z" fill="#060606"/>
<path d="M5.21011 7.25786C5.24892 7.30085 5.24504 7.34971 5.23534 7.40051C5.18877 7.49041 5.16742 7.5803 5.2625 7.65456C5.27027 7.67019 5.27803 7.68582 5.28579 7.70146C5.19265 8.0708 5.26832 8.42255 5.37699 8.77821C5.43326 8.95995 5.507 8.94822 5.62731 8.86028C5.12861 9.91163 4.75605 11.006 4.53483 12.1531C4.24571 13.6558 4.14092 15.1703 4.23795 16.7004C4.3175 17.9531 4.5523 19.1686 5.07234 20.3157C5.81553 21.9533 7.03802 23.1375 8.56321 24.0305C10.1583 24.9666 11.895 25.5118 13.6918 25.8772C15.1879 26.1821 16.6995 26.3247 18.2267 26.272C18.4498 26.2642 18.6749 26.2505 18.8981 26.2407C18.5061 26.3541 18.0947 26.3032 17.6989 26.3834C17.4602 26.3619 17.2215 26.358 16.9867 26.4225C16.9401 26.4107 16.8916 26.3892 16.8451 26.3873C16.5559 26.3658 16.5346 26.3853 16.5559 26.6804C16.585 27.0615 16.6646 27.4152 16.9925 27.6712C17.2273 27.8549 17.3185 28.1187 17.3088 28.4235C17.2972 28.7518 17.1381 29.0059 16.9557 29.256C16.2998 29.4846 15.6478 29.4925 15.0094 29.2013C14.7746 29.0938 14.6097 28.9003 14.5282 28.6522C14.4583 28.445 14.4525 28.2379 14.6291 28.0718C14.7862 27.9252 14.9473 27.8685 15.1685 27.9721C15.4266 28.0933 15.6497 27.9311 15.6633 27.6399C15.6788 27.3136 15.6711 26.9872 15.7002 26.6628C15.7235 26.4166 15.6614 26.3169 15.3975 26.3013C15.0036 26.2759 15.0036 26.2544 14.9977 26.6589C14.99 27.1592 14.99 27.1592 14.5029 27.2901C14.5146 27.0243 14.4816 26.7566 14.5417 26.4908C14.5806 26.315 14.5165 26.2094 14.3244 26.186C13.4609 26.0863 12.6129 25.9007 11.7747 25.6701C11.5651 25.6115 11.5418 25.6799 11.5379 25.8636C11.534 26.0863 11.5787 26.2915 11.6543 26.4967C11.4137 26.3619 11.1751 26.188 11.21 25.889C11.2527 25.5313 11.0819 25.4219 10.7908 25.3789C10.7579 25.375 10.7268 25.3613 10.6977 25.3477C10.5755 25.2871 10.5308 25.3516 10.5172 25.461C10.4532 26.0492 10.5347 26.5807 11.0625 26.952C11.3031 27.122 11.3206 27.2784 11.1595 27.5227C11.0334 27.7122 10.8568 27.8021 10.6337 27.8041C9.94869 27.8099 9.34715 27.5344 8.75143 27.2334C8.62337 26.8915 8.48947 26.5514 8.70098 26.1938C9.04056 26.3052 9.12788 26.2603 9.3064 25.8831C9.52567 25.9925 9.64986 25.93 9.69837 25.6818C9.72554 25.545 9.7954 25.416 9.84197 25.2832C9.92153 25.0526 9.87884 25.0018 9.62076 25.0135C9.43641 24.8357 9.21326 24.7497 8.96294 24.7204C8.72815 24.5015 8.41768 24.4097 8.1499 24.2475C7.73852 23.9973 7.33879 23.7296 6.91965 23.4247C6.90607 23.7726 6.75665 24.0188 6.48499 24.1771C6.16287 24.3628 5.81747 24.4155 5.45267 24.3295C5.26056 24.2826 5.06264 24.2475 4.8977 24.1243C4.99666 24.1204 5.09757 24.1243 5.19653 24.1146C5.75732 24.0599 6.22691 23.8605 6.46364 23.2977C6.49663 23.2176 6.56843 23.1218 6.48305 23.0456C6.14541 22.7388 5.84852 22.3969 5.5264 22.0216C5.50118 22.2816 5.59044 22.4477 5.72045 22.6059C5.91838 22.8463 5.88539 23.0847 5.62149 23.2606C5.39833 23.4091 5.14414 23.4443 4.88218 23.4013C4.36602 23.3153 3.96046 23.0476 3.66163 22.6177C3.72567 22.5434 3.69656 22.4594 3.68104 22.3793C3.61894 22.0412 3.68492 21.7344 3.90419 21.4647C4.00509 21.4647 4.10794 21.4667 4.20884 21.4667C4.43199 21.5781 4.62798 21.7774 4.9171 21.6758C5.16548 21.5878 5.18489 21.5487 5.05876 21.324C5.00636 21.2302 4.95009 21.1364 4.89576 21.0446C4.78127 20.8081 4.66484 20.5717 4.55036 20.3352C4.30004 19.5985 4.06719 18.8578 3.97792 18.0801C3.93523 17.7068 3.88672 17.3336 3.8615 16.9584C3.8518 16.8001 3.79358 16.763 3.64999 16.763C3.35116 16.763 3.05427 16.7258 2.75932 16.6711C2.85828 16.292 3.08726 16.1513 3.46759 16.2607C3.5452 16.2822 3.63447 16.2588 3.71596 16.2686C3.88672 16.2881 3.8712 16.1591 3.84597 16.0751C3.79358 15.907 4.00121 15.6237 3.72567 15.5807C3.38609 15.526 3.03487 15.5142 2.68947 15.4713C2.41586 15.438 2.25092 15.6159 2.27615 15.8934C2.3072 16.2451 1.99866 16.5187 1.65909 16.4386C1.3098 16.3545 1.10412 16.1103 1.00709 15.78C0.888727 15.3814 0.943059 14.9886 1.10606 14.6114C1.49027 14.2108 1.93075 14.0662 2.45855 14.2988C2.55751 14.4199 2.65648 14.543 2.7535 14.6642C2.79231 15.0531 2.87575 15.1801 3.14353 15.2016C3.34146 15.2192 3.54132 15.2074 3.73925 15.2055C3.93912 15.2035 3.88284 15.0433 3.89837 14.9299C3.91583 14.799 3.85762 14.758 3.72761 14.7541C3.52386 14.7482 3.31623 14.7971 3.11636 14.7248C3.17458 14.7209 3.23085 14.715 3.28906 14.715C3.96046 14.7111 3.96046 14.7111 3.94882 14.0115C4.09823 12.9504 4.2981 11.901 4.64544 10.8848C4.67455 10.8008 4.67455 10.7324 4.61633 10.6523C4.34467 10.2712 4.08271 9.88427 3.81105 9.50125C3.66551 9.29606 3.48311 9.19445 3.21145 9.25503C2.90874 9.32342 2.62349 9.25503 2.43915 8.97558C2.24898 8.69027 2.16554 8.38346 2.34406 8.05516C2.53423 8.40887 2.79037 8.67854 3.21145 8.73522C3.27548 8.74303 3.34922 8.75671 3.40743 8.73717C3.6985 8.63555 3.86538 8.76453 4.01867 9.00685C4.28452 9.42895 4.57946 9.83346 4.87635 10.2653C4.98308 10.0308 5.07428 9.81587 5.17712 9.60873C5.21981 9.52079 5.18295 9.46412 5.14026 9.40354C4.90934 9.06547 4.68231 8.72544 4.44363 8.39323C4.2263 8.09425 3.93912 7.9555 3.55685 8.0024C3.06009 8.06298 2.83694 7.76594 3.00576 7.28522C3.04845 7.1621 3.10084 7.03899 3.19786 6.94519C3.2522 6.9276 3.31041 6.91783 3.36086 6.89243C4.1351 6.51918 4.60275 6.62666 5.15384 7.29694C5.19653 7.34775 5.18877 7.26763 5.21011 7.25786Z" fill="#C593FF"/>
<path d="M16.9867 26.4244C17.2215 26.3599 17.4602 26.3638 17.6989 26.3853C17.6911 26.8328 17.7823 27.2119 18.1374 27.55C18.6904 28.0776 18.5158 29.0997 17.8463 29.6156C17.4582 29.9165 17.0061 30.0494 16.5346 30.0943C15.7836 30.1647 15.0404 30.1373 14.3923 29.6625C13.719 29.0567 13.5618 28.2046 14.1168 27.5598C14.2468 27.4718 14.3749 27.3839 14.5049 27.2959C14.9919 27.165 14.9919 27.165 14.9997 26.6647C15.0055 26.2602 15.0055 26.2837 15.3994 26.3071C15.6633 26.3228 15.7235 26.4224 15.7021 26.6687C15.6711 26.993 15.6788 27.3194 15.6653 27.6457C15.6517 27.9369 15.4285 28.0991 15.1705 27.978C14.9492 27.8744 14.7862 27.9311 14.631 28.0776C14.4544 28.2418 14.4602 28.4509 14.5301 28.658C14.6135 28.9062 14.7765 29.0997 15.0113 29.2071C15.6497 29.5003 16.3017 29.4905 16.9576 29.2618C17.1342 29.2638 17.27 29.1622 17.402 29.0664C17.8502 28.7381 17.8793 28.2418 17.4718 27.8705C17.2351 27.6536 17.0993 27.3878 17.0585 27.0712C17.0275 26.8543 17.01 26.6393 16.9867 26.4244Z" fill="#060707"/>
<path d="M3.94882 14.0114C3.96046 14.711 3.96046 14.711 3.28907 14.7149C3.23085 14.7149 3.17458 14.7208 3.11637 14.7247C2.99412 14.7032 2.87381 14.6837 2.75156 14.6622C2.6526 14.541 2.55363 14.4179 2.45661 14.2967C2.43527 14.0759 2.44303 13.8453 2.17719 13.7417C1.89582 13.6323 1.67655 13.7398 1.48639 13.9293C1.29816 14.1169 1.16233 14.3417 1.10412 14.6074C0.941119 14.9865 0.886787 15.3793 1.00515 15.776C1.10412 16.1063 1.30786 16.3506 1.65715 16.4346C1.99867 16.5167 2.30526 16.2411 2.27421 15.8894C2.25092 15.6119 2.41392 15.4341 2.68753 15.4673C3.03293 15.5103 3.38415 15.522 3.72373 15.5767C4.00121 15.6217 3.79358 15.9031 3.84403 16.0711C3.86926 16.1551 3.88672 16.2841 3.71402 16.2646C3.63253 16.2548 3.54326 16.2783 3.46565 16.2568C3.08532 16.1473 2.8544 16.29 2.75738 16.6671C2.71857 16.714 2.67976 16.759 2.64096 16.8059C2.22958 17.1381 1.78328 17.2651 1.27294 17.0599C1.02844 16.9622 0.836335 16.7903 0.648111 16.6144C-0.128069 15.6158 0.347341 14.1013 0.937238 13.4682C1.41847 12.9503 2.11315 12.837 2.6526 13.1907C2.88351 13.3431 3.05621 13.5483 3.09114 13.8297C3.11054 13.9899 3.18622 14.0153 3.32205 14.0095C3.53162 14.0056 3.74119 14.0114 3.94882 14.0114Z" fill="#060707"/>
<path d="M8.75144 27.2372C9.34521 27.5362 9.94675 27.8137 10.6337 27.8079C10.8568 27.8059 11.0334 27.7141 11.1595 27.5265C11.3225 27.2822 11.3031 27.1259 11.0625 26.9558C10.5347 26.5826 10.4532 26.0511 10.5172 25.4648C10.5289 25.3573 10.5755 25.2909 10.6977 25.3515C10.7268 25.3651 10.7598 25.3788 10.7908 25.3827C11.0839 25.4257 11.2527 25.5332 11.21 25.8928C11.1751 26.1918 11.4137 26.3657 11.6544 26.5005C11.699 26.5494 11.7436 26.5963 11.7882 26.6451C11.8542 26.7956 11.9377 26.9363 11.9551 27.1102C12.0017 27.589 11.7805 27.9407 11.4564 28.2515C11.0586 28.5426 10.6007 28.5798 10.1466 28.4938C9.49463 28.3687 8.8601 28.1616 8.29931 27.7903C7.93645 27.5499 7.67837 27.2197 7.59881 26.7682C7.48432 26.1058 7.82778 25.5821 8.48365 25.4726C8.66606 25.4414 8.75726 25.371 8.80383 25.201C8.84652 25.0407 8.90861 24.8864 8.96294 24.7281C9.21326 24.7574 9.43642 24.8434 9.62076 25.0212C9.51597 25.3104 9.41119 25.5996 9.30641 25.8908C9.12788 26.268 9.03862 26.3129 8.70098 26.2015C8.4138 26.1488 8.23722 26.3168 8.28379 26.6021C8.33036 26.8894 8.51082 27.0868 8.75144 27.2372Z" fill="#060707"/>
<path d="M4.55036 20.3352C4.66484 20.5717 4.78127 20.8081 4.89576 21.0446C4.69783 21.2361 4.4902 21.4139 4.20884 21.4667C4.10793 21.4667 4.00509 21.4647 3.90419 21.4647C3.77223 21.4413 3.64999 21.3924 3.54326 21.3142C3.37832 21.1911 3.33757 21.2791 3.32399 21.4315C3.28518 21.8712 3.40161 22.264 3.65969 22.6177C3.95852 23.0476 4.36407 23.3153 4.88023 23.4013C5.14219 23.4443 5.39639 23.4091 5.61955 23.2606C5.88345 23.0867 5.91643 22.8463 5.71851 22.606C5.5885 22.4496 5.49924 22.2816 5.52446 22.0217C5.84658 22.3969 6.14541 22.7408 6.48111 23.0456C6.56649 23.1219 6.49469 23.2196 6.4617 23.2977C6.22497 23.8586 5.75344 24.0599 5.19459 24.1146C5.09562 24.1243 4.99666 24.1224 4.89576 24.1243C3.73925 23.9348 2.99605 23.2704 2.67782 22.1369C2.57109 21.7598 2.56527 21.3748 2.70693 21.0035C2.87963 20.5521 3.29294 20.3899 3.7179 20.5971C4.1545 20.8081 4.18943 20.8003 4.48438 20.4095C4.50573 20.3841 4.52901 20.3587 4.55036 20.3352Z" fill="#070707"/>
<path d="M2.25287 27.1279C2.22376 27.6828 2.69529 28.1851 3.2522 28.1909C3.52968 28.1929 3.68298 28.3101 3.69074 28.5212C3.6985 28.742 3.52968 28.8886 3.2522 28.9003C2.30526 28.9433 1.42817 27.9662 1.55818 27.0165C1.58729 26.7976 1.74835 26.6452 1.93657 26.6549C2.15002 26.6667 2.26645 26.8425 2.25287 27.1279Z" fill="#080809"/>
<path d="M28.1462 2.89412C27.8435 2.90975 27.6864 2.79641 27.6631 2.58536C27.6398 2.39189 27.7717 2.22383 28.0027 2.19843C28.8254 2.10268 29.7568 2.72606 29.8907 3.68751C29.9179 3.88684 29.7879 4.03145 29.5938 4.05881C29.3881 4.08812 29.2542 3.98259 29.196 3.76959C29.0641 3.27714 28.7478 2.98205 28.2433 2.90389C28.1948 2.89412 28.1443 2.89412 28.1462 2.89412Z" fill="#09090A"/>
<path d="M11.7067 4.42427C11.5321 4.47508 11.3439 4.59038 11.1867 4.55715C11.0334 4.52393 11.0431 4.26207 10.9344 4.1331C10.7986 3.9709 10.8103 3.83411 10.9073 3.64846C11.3536 2.7769 10.8685 1.8174 9.91571 1.65911C9.8769 1.65325 9.83809 1.63371 9.80122 1.62199C10.3019 1.39726 10.7986 1.34058 11.243 1.72946C11.6544 2.08903 11.6776 2.79254 11.3012 3.19119C11.1828 3.3143 11.1848 3.37488 11.2915 3.50581C11.5069 3.76962 11.6699 4.07252 11.7067 4.42427Z" fill="#C593FF"/>
<path d="M23.8443 6.34906C23.7337 6.26503 23.6211 6.181 23.493 6.08329C23.9025 5.67682 24.2595 5.2469 24.5506 4.76422C24.5952 4.68996 24.669 4.66261 24.7427 4.68606C24.9154 4.74077 25.0862 4.70169 25.2569 4.69192C24.9911 4.8463 24.8902 5.13747 24.7252 5.37002C24.4633 5.73154 24.1237 6.01294 23.8443 6.34906Z" fill="#C593FF"/>
<path d="M14.1187 27.5578C13.5638 28.2027 13.7209 29.0547 14.3943 29.6605C13.8354 29.5315 13.4124 29.0938 13.3154 28.5427C13.23 28.0737 13.5812 27.6438 14.1187 27.5578Z" fill="#C593FF"/>
<path d="M0.651989 16.6163C0.840213 16.7922 1.03232 16.9641 1.27681 17.0619C1.78715 17.267 2.23346 17.14 2.64483 16.8078C2.58662 17.4566 1.93851 17.8338 1.35831 17.5484C0.970223 17.3589 0.716024 17.0599 0.651989 16.6163Z" fill="#C593FF"/>
<path d="M27.0441 12.3777C26.9238 12.1784 26.9703 12.0553 27.176 11.9302C27.797 11.5569 28.4063 11.1642 29.0117 10.7655C29.1631 10.6658 29.2581 10.6619 29.3455 10.8241C28.6158 11.2834 27.8862 11.7426 27.1547 12.2018C27.0868 12.2429 27.0421 12.2937 27.0441 12.3777Z" fill="#C593FF"/>
<path d="M20.8443 25.9397C21.1839 25.8322 21.149 25.8244 21.2305 26.1527C21.3081 26.4654 21.4032 26.7761 21.5545 27.0594C21.6574 27.249 21.6438 27.3682 21.4498 27.464C21.4148 27.4815 21.3857 27.5128 21.3527 27.5382C21.1742 27.1024 20.984 26.6725 20.8851 26.2094C20.8696 26.1195 20.8599 26.0296 20.8443 25.9397Z" fill="#C593FF"/>
<path d="M25.3326 4.67435C25.8876 4.4164 25.9904 4.13499 25.7401 3.56242C25.6896 3.44908 25.6353 3.33769 25.581 3.22435C25.9516 3.49989 26.1456 3.89463 26.2795 4.31673C26.328 4.46916 26.2116 4.57468 26.0661 4.63722C25.8255 4.74665 25.579 4.6763 25.3326 4.67435Z" fill="#C593FF"/>
<path d="M25.6469 23.2058C25.7498 22.985 25.8585 23.0026 26.0292 23.1569C26.2116 23.3231 26.427 23.4579 26.6366 23.5927C26.9238 23.7745 26.9296 23.7686 26.7588 24.0735C26.3475 23.835 25.9652 23.5615 25.6469 23.2058Z" fill="#C593FF"/>
<path d="M21.0015 28.0932C20.9375 28.7556 21.2518 29.1699 21.8495 29.3947C21.5313 29.4318 21.2324 29.3829 20.9743 29.1836C20.5998 28.8944 20.6134 28.4176 21.0015 28.0932Z" fill="#C593FF"/>
<path d="M11.4564 28.2476C11.7824 27.9388 12.0036 27.5871 11.9551 27.1064C11.9377 26.9324 11.8542 26.7917 11.7882 26.6413C11.8756 26.7018 11.9668 26.7585 12.0502 26.825C12.3568 27.0692 12.3859 27.4874 12.1123 27.8489C11.9493 28.0658 11.7417 28.2261 11.4564 28.2476Z" fill="#C4C2FF"/>
<path d="M26.7646 25.2714C27.1353 25.801 27.4186 25.8987 28.0531 25.7248C27.9153 26.0101 27.6786 26.1371 27.374 26.1351C27.0906 26.1351 26.9432 25.9456 26.8423 25.7111C26.7841 25.5743 26.7472 25.4258 26.7646 25.2714Z" fill="#C593FF"/>
<path d="M27.7659 18.2148C27.8086 17.826 27.8086 17.826 28.1792 17.822C28.2879 17.8201 28.3985 17.8377 28.5013 17.8181C28.8079 17.7615 28.9865 17.8846 29.0505 18.1855C28.6643 18.0624 28.2685 18.1445 27.8765 18.1289C27.8416 18.1308 27.8028 18.1855 27.7659 18.2148Z" fill="#C593FF"/>
<path d="M18.2034 4.02759C18.1122 4.04127 18.0501 4.03932 18.0443 3.91229C18.0249 3.45502 17.9783 2.99969 17.8987 2.55023C17.8832 2.45839 17.8871 2.38217 17.9996 2.36263C18.1452 2.90589 18.1995 3.46283 18.2034 4.02759Z" fill="#C593FF"/>
<path d="M29.1533 18.3184C29.4813 18.5881 29.8364 18.5725 30.2031 18.4181C30.1061 18.6819 29.9004 18.8343 29.6482 18.8304C29.4037 18.8265 29.2562 18.6741 29.1533 18.3184Z" fill="#C593FF"/>
<path d="M29.8907 11.0313C30.2594 11.0019 30.5563 10.8534 30.7484 10.5232C30.7659 10.7674 30.6999 10.9844 30.467 11.084C30.2788 11.1641 30.0692 11.2052 29.8907 11.0313Z" fill="#C593FF"/>
<path d="M18.2286 2.11242C18.4323 1.69423 18.3179 1.29753 18.1452 0.906699C18.4226 1.12752 18.5158 1.43042 18.4925 1.76654C18.4847 1.92287 18.4226 2.0792 18.2286 2.11242Z" fill="#C4C2FF"/>
<path d="M26.002 21.4392C24.9581 23.3446 23.3145 24.4682 21.2887 25.076C19.7596 25.5352 18.1917 25.6427 16.6025 25.543C14.567 25.416 12.5916 25.0076 10.688 24.2708C9.46164 23.796 8.32648 23.1609 7.34849 22.2639C6.17646 21.1911 5.45073 19.8524 5.1616 18.2989C4.64156 15.5005 4.89188 12.7588 5.86016 10.0796C6.77024 7.56069 8.60202 6.08725 11.0916 5.34271C12.2229 5.00268 13.3794 4.78381 14.5514 4.64702C14.598 4.69392 14.6582 4.68415 14.7164 4.68415C15.1802 4.68415 15.642 4.68219 16.1057 4.68219C16.3134 4.68806 16.5191 4.7076 16.7267 4.7291C17.9977 4.85612 19.2338 5.13947 20.4233 5.60847C21.4051 5.9954 22.3191 6.50544 23.1011 7.22848C24.0383 8.09809 24.6573 9.18266 25.1502 10.3473C25.6955 11.6371 26.0525 12.9855 26.3533 14.3514C26.559 15.2895 26.7685 16.2294 26.7938 17.1928C26.8306 18.5998 26.5784 19.9541 26.0428 21.2555C25.9826 21.3064 26.002 21.3748 26.002 21.4392ZM16.1057 23.5185C17.5824 23.5165 18.9194 22.5453 19.3638 21.1188C19.6723 20.128 19.5714 19.2056 18.7622 18.4708C18.0617 17.8357 17.2487 17.4058 16.3192 17.2299C15.5178 17.0795 14.728 17.1342 14.0586 17.652C13.131 18.3712 12.7507 19.3522 12.8497 20.5188C12.9971 22.258 14.371 23.5204 16.1057 23.5185ZM17.7978 9.28818C17.792 10.4099 18.2014 11.0821 18.9834 11.3889C19.5656 11.6176 20.1807 11.6801 20.7958 11.555C21.8204 11.3459 22.6004 10.3063 22.6587 9.19048C22.713 8.14499 21.8961 7.18745 20.8851 6.83374C20.1613 6.5797 19.488 6.652 18.8981 7.16986C18.1956 7.78738 17.8425 8.57491 17.7978 9.28818ZM10.4493 16.3564C10.4493 15.3696 9.83615 14.4492 8.92802 14.0681C8.13825 13.7378 7.36984 13.9215 6.89054 14.6133C6.43454 15.2699 6.25602 16.0066 6.4423 16.8059C6.58201 17.4097 6.88666 17.9139 7.43387 18.2207C8.78442 18.975 10.4493 17.9432 10.4493 16.3564ZM21.7854 18.7073C21.799 18.848 21.799 18.9926 21.8301 19.1294C22.0299 19.9658 22.6121 20.3957 23.528 20.339C24.5681 20.2746 25.7459 19.3991 25.4529 18.0273C25.2278 16.972 24.1703 16.331 23.1515 16.6574C22.3424 16.9192 21.7952 17.7419 21.7854 18.7073ZM13.9577 8.84263C13.9693 8.46938 13.8412 8.15476 13.5676 7.90072C13.1543 7.51379 12.6731 7.25193 12.1181 7.1679C11.6194 7.09169 11.1363 7.15423 10.7462 7.53529C10.1389 8.1274 10.0321 9.02437 10.4765 9.82558C10.8665 10.5252 11.7009 10.8632 12.5198 10.6502C13.3503 10.4333 13.9538 9.67511 13.9577 8.84263Z" fill="#C593FF"/>
<path d="M28.5945 8.90132C28.6275 8.68832 28.6605 8.47531 28.6915 8.26426C28.9186 8.19977 29.1048 8.02976 29.3493 8.01413C29.5492 8.10793 29.6617 8.2799 29.7588 8.46554C30.0285 8.97949 30.1333 9.53252 30.1119 10.111C30.1061 10.236 30.044 10.3005 29.9315 10.3064C29.8131 10.3122 29.7626 10.2438 29.7471 10.1207C29.7006 9.75725 29.4599 9.64977 29.1456 9.8491C28.449 10.2888 27.7543 10.7285 27.0615 11.176C26.9335 11.2581 26.8617 11.2854 26.8035 11.1017C26.7142 10.8242 26.5997 10.5565 26.4949 10.2849C26.9451 10.0523 27.4419 9.94876 27.9115 9.77289C28.2258 9.65563 28.4858 9.4778 28.5557 9.11628C28.6236 9.05375 28.5964 8.97558 28.5945 8.90132Z" fill="#C593FF"/>
<path d="M30.1061 15.3578C30.3293 16.1199 30.2652 16.8684 29.9916 17.6032C29.9489 17.7165 29.8674 17.8123 29.7413 17.822C29.6074 17.8318 29.6016 17.6931 29.5667 17.611C29.4134 17.2631 29.1533 17.1068 28.7788 17.1205C28.513 17.1303 28.2471 17.1205 27.9813 17.1263C27.8765 17.1283 27.8377 17.1009 27.8358 16.9896C27.8319 16.6984 27.8144 16.4072 27.8028 16.1141C28.0686 16.0652 28.3461 16.0242 28.6061 16.0789C28.8623 16.1317 28.9651 16.0203 29.0427 15.821C29.2989 15.6724 29.4017 15.4145 29.5084 15.1585C29.7413 15.1233 29.9353 15.2015 30.1061 15.3578Z" fill="#C593FF"/>
<path d="M16.3541 1.90919C16.3755 1.51836 16.2086 1.3718 15.8477 1.46169C15.803 1.3034 15.8729 1.16075 15.9001 1.01223C16.2843 0.766002 16.6879 0.717148 17.107 0.902794C17.3379 1.00441 17.499 1.1842 17.5902 1.4187C17.6794 1.6532 17.6484 1.69619 17.4039 1.71378C17.1711 1.73136 17.0566 1.8877 17.0993 2.15737C17.1536 2.49545 17.2196 2.83157 17.2797 3.16768C17.3748 3.70704 17.3729 3.71094 16.8606 3.62691C16.6238 3.58783 16.391 3.53311 16.1562 3.48426C16.164 3.48035 16.1756 3.47644 16.1775 3.47253C16.2338 2.94882 16.2552 2.41728 16.4608 1.91897C16.488 1.85448 16.3929 1.90919 16.3541 1.90919Z" fill="#C593FF"/>
<path d="M23.8404 27.849C23.431 28.3102 22.9439 28.6385 22.3191 28.7167C22.2298 28.7284 22.1328 28.7264 22.0474 28.701C21.8805 28.6541 21.7428 28.5525 21.704 28.3727C21.669 28.2105 21.7816 28.103 21.8961 28.019C22.0164 27.9311 22.1503 27.8627 22.2783 27.7865C22.5054 27.6516 22.5597 27.4718 22.4277 27.2373C22.1871 26.8055 22.0086 26.3521 21.8805 25.8714C21.834 25.6935 21.8902 25.6447 22.0358 25.6193C22.3928 26.0844 22.5907 26.6179 22.7072 27.1885C22.8508 27.2921 23.0118 27.2217 23.1632 27.2354C23.2874 27.2881 23.4251 27.2158 23.5474 27.2784C23.528 27.296 23.4678 27.3175 23.495 27.3292C23.7317 27.4269 23.7977 27.6282 23.8404 27.849Z" fill="#C593FF"/>
<path d="M28.8429 22.9557C28.6896 23.6846 28.3791 24.3412 27.9212 24.9236C27.828 25.0408 27.7019 25.1542 27.5369 25.076C27.3778 24.9998 27.341 24.8415 27.3448 24.6734C27.3526 24.3803 27.5156 24.1556 27.665 23.927C27.892 23.5791 27.8455 23.3954 27.4671 23.2293C27.1139 23.0749 26.7996 22.8639 26.4891 22.6372C26.3222 22.5141 26.2815 22.4047 26.4173 22.2405C26.4639 22.1838 26.4969 22.1174 26.5357 22.0549C26.6618 22.1819 26.7375 22.3343 26.7938 22.5043C26.916 22.8834 27.1081 22.985 27.4981 22.8873C27.6825 22.8404 27.8649 22.7779 28.0492 22.7349C28.3558 22.6626 28.6314 22.6958 28.8429 22.9557Z" fill="#C593FF"/>
<path d="M8.79801 2.72027C9.08519 2.43886 9.41895 2.29035 9.82839 2.36265C10.0787 2.4076 10.2669 2.53853 10.3329 2.78671C10.4028 3.04857 10.364 3.30065 10.1563 3.50389C9.86914 3.78529 9.86525 3.88886 10.1136 4.19371C10.1292 4.21325 10.1447 4.2328 10.1602 4.25234C10.558 4.7487 10.5464 4.78974 9.95257 4.9832C9.79734 4.50052 9.64792 4.01784 9.63434 3.50193C9.35686 3.59964 9.25983 3.60355 9.0949 3.52734C8.80577 3.39446 8.72815 3.18536 8.79801 2.72027Z" fill="#C593FF"/>
<path d="M23.854 2.68116C24.4322 2.87072 24.8087 3.28305 25.0823 3.81263C25.1696 3.98069 25.0939 4.01195 24.9523 3.99828C24.7699 3.98069 24.5913 3.95724 24.4109 4.01782C24.1955 4.09012 24.0461 4.23668 23.9277 4.42624C23.7278 4.75454 23.4834 5.04571 23.235 5.33884C23.0448 5.56552 22.874 5.5792 22.6625 5.39356C22.7828 5.33688 22.8314 5.21768 22.907 5.11997C23.1903 4.76236 23.462 4.39497 23.7608 4.05104C23.8753 3.91815 23.887 3.83999 23.788 3.69538C23.5028 3.27914 23.526 3.03487 23.854 2.68116Z" fill="#C593FF"/>
<path d="M16.3541 1.90927C16.3929 1.90927 16.4861 1.85456 16.4609 1.91905C16.2552 2.41931 16.2338 2.9489 16.1775 3.47261C16.1775 3.47652 16.164 3.48043 16.1562 3.48434C16.0048 3.45503 16.0553 3.32214 16.0553 3.24398C16.0553 2.77888 16.1348 2.32747 16.3541 1.90927Z" fill="#C593FF"/>
<path d="M29.3513 8.01217C29.1068 8.02976 28.9186 8.19782 28.6935 8.26231C28.7342 7.91837 29.0039 7.81675 29.3513 8.01217Z" fill="#F9FAFB"/>
<path d="M15.151 4.59234C15.347 4.67441 15.5508 4.61383 15.7506 4.63533C15.869 4.64901 15.9951 4.59624 16.1038 4.68223C15.64 4.68418 15.1782 4.68418 14.7144 4.68418C14.6582 4.68418 14.598 4.69395 14.5495 4.64705C14.7494 4.62946 14.9512 4.61188 15.151 4.59234Z" fill="#DAEAEA"/>
<path d="M15.902 1.01229C15.8748 1.1608 15.805 1.30541 15.8496 1.46175C15.6866 1.43634 15.6497 1.39531 15.6886 1.26438C15.7215 1.15103 15.7914 1.06114 15.902 1.01229Z" fill="#E6EAEB"/>
<path d="M22.7091 27.1884C22.8255 27.1728 22.9536 27.2411 23.0545 27.1337C23.0914 27.1669 23.1282 27.2021 23.1651 27.2353C23.0138 27.2216 22.8527 27.2919 22.7091 27.1884Z" fill="#E4E8EA"/>
<path d="M26.0409 21.2555C26.0583 21.2692 26.0738 21.2829 26.0913 21.2965C26.0719 21.3513 26.0661 21.4138 26.0021 21.4392C26.0021 21.3747 25.9827 21.3063 26.0409 21.2555Z" fill="#D1D4D6"/>
<path d="M28.5576 9.11626C28.5402 9.09867 28.5246 9.08304 28.5072 9.06545C28.5363 9.01073 28.5654 8.95601 28.5964 8.9013C28.5964 8.97556 28.6236 9.05372 28.5576 9.11626Z" fill="#D2DEDE"/>
<path d="M5.26251 7.65455C5.16743 7.57834 5.18877 7.4904 5.23534 7.40051C5.24504 7.48649 5.25475 7.57052 5.26251 7.65455Z" fill="#DFE8E9"/>
<path d="M16.1057 23.5185C14.371 23.5205 12.9971 22.2581 12.8497 20.5208C12.7507 19.3522 13.1291 18.3712 14.0586 17.6541C14.728 17.1362 15.5178 17.0815 16.3192 17.232C17.2487 17.4078 18.0617 17.8378 18.7622 18.4729C19.5733 19.2076 19.6723 20.13 19.3638 21.1208C18.9194 22.5454 17.5805 23.5185 16.1057 23.5185Z" fill="#F76F39"/>
<path d="M17.7978 9.2882C17.8425 8.57493 18.1956 7.7874 18.8981 7.17183C19.488 6.65398 20.1613 6.58167 20.8851 6.83572C21.8961 7.18942 22.713 8.14501 22.6587 9.19245C22.6004 10.3063 21.8204 11.3459 20.7958 11.557C20.1807 11.6821 19.5675 11.6195 18.9834 11.3909C18.2014 11.0841 17.792 10.4119 17.7978 9.2882Z" fill="#F76F39"/>
<path d="M10.4493 16.3564C10.4493 17.9412 8.78442 18.975 7.43387 18.2187C6.88666 17.9119 6.58201 17.4078 6.4423 16.8039C6.25601 16.0066 6.43453 15.2679 6.89054 14.6113C7.36983 13.9215 8.14019 13.7359 8.92801 14.0661C9.83615 14.4491 10.4493 15.3715 10.4493 16.3564Z" fill="#F76F39"/>
<path d="M21.7854 18.7073C21.7952 17.742 22.3424 16.9173 23.1515 16.6574C24.1703 16.331 25.2278 16.972 25.4529 18.0273C25.7459 19.401 24.5681 20.2765 23.528 20.339C22.6121 20.3957 22.0319 19.9658 21.8301 19.1294C21.799 18.9926 21.799 18.848 21.7854 18.7073Z" fill="#F76F39"/>
<path d="M13.9557 8.84259C13.9538 9.67507 13.3503 10.4333 12.5179 10.6482C11.699 10.8593 10.8646 10.5232 10.4746 9.82359C10.0302 9.02433 10.1369 8.12541 10.7443 7.53329C11.1343 7.15418 11.6175 7.09165 12.1162 7.16591C12.6711 7.24994 13.1543 7.5118 13.5657 7.89872C13.8393 8.15472 13.9674 8.46934 13.9557 8.84259Z" fill="#F76F39"/>
</svg>
