<svg width="19" height="19" viewBox="0 0 19 19" fill="none" xmlns="http://www.w3.org/2000/svg">
<path d="M18.1895 15.017C18.1895 15.3307 18.1197 15.6532 17.9716 15.967C17.8234 16.2807 17.6317 16.5771 17.3789 16.856C16.9518 17.3266 16.4812 17.6665 15.9495 17.8844C15.4266 18.1023 14.8601 18.2156 14.25 18.2156C13.361 18.2156 12.411 18.0064 11.4087 17.5794C10.4064 17.1523 9.40413 16.5771 8.41055 15.8537C7.40826 15.1216 6.45826 14.311 5.55184 13.4133C4.65413 12.5069 3.84358 11.5569 3.12018 10.5633C2.4055 9.56973 1.83028 8.57615 1.41193 7.59129C0.993578 6.59771 0.784404 5.64771 0.784404 4.74129C0.784404 4.14862 0.888991 3.58211 1.09817 3.05917C1.30734 2.52752 1.63853 2.03945 2.10046 1.60367C2.65826 1.05459 3.26835 0.784404 3.9133 0.784404C4.15734 0.784404 4.40138 0.836697 4.61927 0.941285C4.84587 1.04587 5.04633 1.20275 5.20321 1.42936L7.22523 4.27936C7.38211 4.49725 7.49541 4.69771 7.57385 4.88945C7.65229 5.07248 7.69587 5.25551 7.69587 5.4211C7.69587 5.63028 7.63486 5.83945 7.51285 6.03991C7.39954 6.24037 7.23395 6.44954 7.02477 6.65872L6.36239 7.34725C6.26651 7.44312 6.22294 7.55642 6.22294 7.69587C6.22294 7.7656 6.23165 7.82661 6.24908 7.89633C6.27523 7.96606 6.30138 8.01835 6.31881 8.07064C6.47569 8.35826 6.74587 8.73303 7.12936 9.18624C7.52156 9.63945 7.93991 10.1014 8.39312 10.5633C8.86376 11.0252 9.31697 11.4523 9.7789 11.8445C10.2321 12.228 10.6069 12.4895 10.9032 12.6463C10.9468 12.6638 10.9991 12.6899 11.0601 12.7161C11.1298 12.7422 11.1995 12.7509 11.278 12.7509C11.4261 12.7509 11.5395 12.6986 11.6353 12.6028L12.2977 11.9491C12.5156 11.7312 12.7248 11.5656 12.9252 11.461C13.1257 11.339 13.3261 11.278 13.544 11.278C13.7096 11.278 13.8839 11.3128 14.0757 11.3913C14.2674 11.4697 14.4679 11.583 14.6858 11.7312L17.5706 13.7794C17.7973 13.9362 17.9541 14.1193 18.05 14.3372C18.1372 14.555 18.1895 14.7729 18.1895 15.017Z" stroke="#D4D3EC" stroke-width="1.5" stroke-miterlimit="10"/>
<path d="M15.1651 6.88528C15.1651 6.36234 14.7555 5.56051 14.1454 4.90684C13.5876 4.30546 12.8468 3.83482 12.1147 3.83482" stroke="#D4D3EC" stroke-width="1.5" stroke-linecap="round" stroke-linejoin="round"/>
<path d="M18.2156 6.88532C18.2156 3.51239 15.4876 0.784404 12.1147 0.784404" stroke="#D4D3EC" stroke-width="1.5" stroke-linecap="round" stroke-linejoin="round"/>
</svg>
