<svg width="327" height="202" viewBox="0 0 327 202" fill="none" xmlns="http://www.w3.org/2000/svg">
<rect width="327" height="202" rx="8" fill="#E9E9FF"/>
<mask id="mask0_14_6502" style="mask-type:alpha" maskUnits="userSpaceOnUse" x="0" y="0" width="327" height="202">
<rect width="327" height="202" rx="8" fill="#E9E9FF"/>
</mask>
<g mask="url(#mask0_14_6502)">
<path d="M254.121 158.469H90.2409C89.925 158.469 89.6626 158.206 89.6626 157.889C89.6626 157.572 89.9201 157.308 90.2409 157.308H254.121C254.437 157.308 254.7 157.572 254.7 157.889C254.7 158.211 254.437 158.469 254.121 158.469Z" fill="#5D515D"/>
<path d="M158.743 17.1697L161.065 23.7203L167.324 20.7352L164.35 27.0176L170.881 29.3491L164.35 31.6806L167.324 37.9629L161.065 34.9778L158.743 41.5333L156.42 34.9778L150.161 37.9629L153.135 31.6806L146.604 29.3491L153.135 27.0176L150.161 20.7352L156.42 23.7203L158.743 17.1697Z" fill="#443FE0"/>
<path d="M222.317 179.306L224.577 185.686L230.67 182.779L227.774 188.896L234.13 191.164L227.774 193.432L230.67 199.548L224.577 196.641L222.317 203.021L220.058 196.641L213.964 199.548L216.86 193.432L210.504 191.164L216.86 188.896L213.964 182.779L220.058 185.686L222.317 179.306Z" fill="#443FE0"/>
<path d="M257.97 123.306L259.816 128.521L264.792 126.145L262.426 131.145L267.621 132.998L262.426 134.852L264.792 139.846L259.816 137.471L257.97 142.685L256.123 137.471L251.143 139.846L253.509 134.852L248.319 132.998L253.509 131.145L251.143 126.145L256.123 128.521L257.97 123.306Z" fill="#F9A813"/>
<path d="M79.8431 135.731C81.7521 133.814 81.7521 130.708 79.8431 128.791C77.934 126.875 74.8388 126.875 72.9298 128.791C71.0207 130.708 71.0207 133.814 72.9298 135.731C74.8388 137.647 77.934 137.647 79.8431 135.731Z" fill="#443FE0"/>
<path d="M223.712 47.7912C220.651 51.108 220.048 56.1661 216.544 59.0536C212.667 62.2485 207.389 62.107 202.647 61.8534C195.343 61.4632 186.528 61.4095 181.402 67.2578C178.044 71.0818 177.096 76.8472 179.458 81.3151C182.208 86.5244 188.234 89.7094 193.749 91.6507C205.606 95.8308 219.552 96.8649 232.036 95.3187C242.863 93.9773 253.796 88.4169 262.023 81.6175C266.139 78.2129 270.007 73.6865 270.07 68.2821C270.128 63.2094 265.789 58.961 260.526 58.6683C254.855 58.3513 248.164 61.3266 243.12 57.5611C237.362 53.2737 232.959 37.7726 223.712 47.7912Z" fill="#FEB75B"/>
<path d="M184.561 112.249C186.077 105.937 187.904 99.6988 190.042 93.5725C192.209 97.1771 193.842 100.874 194.678 105.001L184.561 112.249Z" fill="#F3725F"/>
<path d="M237.337 83.7784C239.276 82.1005 242.396 82.1249 244.301 83.832C244.981 84.4417 245.817 85.1929 251.556 95.1042L259.535 71.6917C261.853 72.7306 263.014 72.6379 263.855 72.9842L259.545 110.747C259.311 112.668 257.659 114.22 255.502 114.556C255.215 114.6 254.933 114.62 254.651 114.62C252.795 114.62 251.065 113.693 250.229 112.186C244.821 102.435 238.475 91.4509 237.09 89.7291C235.374 88.017 235.467 85.4026 237.337 83.7784Z" fill="#F3725F"/>
<path d="M261.425 94.2701L263.855 72.994C263.014 72.6477 261.853 72.7403 259.535 71.7014L254.569 86.2757C256.206 89.4803 258.5 92.2801 261.425 94.2701Z" fill="#71CFB7"/>
<path d="M214.62 157.435L218.308 145.07C218.367 145.065 218.673 145.061 219.086 145.056C219.091 145.056 219.091 145.056 219.096 145.056C219.922 145.114 220.753 145.1 221.574 145.012H221.593C221.763 145.007 221.866 145.007 221.866 145.007L225.277 157.435H249.126C248.981 157.308 237.177 117.624 237.313 117.931C237.42 118.17 236.356 112.844 236.079 111.176C235.89 110.049 235.768 109.22 235.734 108.761L231.502 108.639L219.334 108.283L217.473 108.225L206.214 107.898L205.932 107.888L203.147 107.81L202.521 111.137L201.524 116.468L200.81 120.277L193.842 157.435H214.62Z" fill="#5D515D"/>
<path d="M208.104 70.2088C202.938 72.111 199.124 76.6423 198.215 82.1053C197.078 88.9095 201.947 92.6702 202.686 98.8306C203.312 104.064 202.112 109.361 201.612 114.556C201.505 115.668 201.403 116.824 201.811 117.863C202.729 120.229 205.698 120.902 208.215 121.136C216.122 121.868 224.115 121.575 231.944 120.258C233.465 120.004 235.029 119.687 236.302 118.814C239.281 116.766 239.621 112.454 238.853 108.913C238.086 105.371 236.516 101.918 236.759 98.3087C237.07 93.6652 240.321 89.5436 241.832 85.222C242.449 83.4564 242.775 81.6565 242.488 79.7786C241.716 74.6864 236.696 71.3648 231.817 69.7698C224.159 67.2676 215.665 67.4236 208.104 70.2088Z" fill="white"/>
<path d="M219.086 93.2311C218.148 84.8075 215.82 76.6667 212.297 68.9552C218.376 67.5358 224.825 67.7017 230.816 69.4625C229.854 70.6721 228.941 71.9208 228.085 73.2134C224.013 79.3299 221.136 86.1537 219.086 93.2311Z" fill="#F3725F"/>
<path d="M256.415 65.8043C257.052 65.4287 259.083 68.4431 259.083 68.4431C259.083 68.4431 259.754 61.2779 260.711 61.2876C260.75 61.2876 260.784 61.3022 260.818 61.3169C260.915 61.5412 261.017 61.7607 261.124 61.9802C261.381 63.463 260.939 66.8188 260.939 66.8188C260.939 66.8188 261.163 65.6823 261.503 64.4337C261.731 65.2726 262.096 66.0677 262.548 66.8188C262.499 66.9798 262.47 67.0676 262.47 67.0676C262.47 67.0676 262.499 66.9798 262.553 66.8286C263.209 67.9212 264.049 68.9308 264.919 69.8917C264.21 72.0574 263.476 74.0474 263.476 74.0474L259.379 73.0183C259.384 73.0231 255.336 66.4384 256.415 65.8043Z" fill="#71CFB7"/>
<path d="M263.384 65.7261C263.836 65.4579 264.458 65.6286 264.822 66.0139C265.186 66.3992 265.337 66.9407 265.391 67.4674C265.517 68.6478 265.22 69.8672 264.569 70.8525C264.127 71.5207 263.393 72.1304 262.606 71.9743C261.945 71.8426 261.503 71.2183 261.197 70.6135C260.463 69.1746 259.389 66.248 260.376 64.7018C261.226 63.3751 264.166 63.9799 263.384 65.7261Z" fill="#71CFB7"/>
<path d="M232.678 112.493C241.755 109.761 248.908 101.44 250.268 92.0264C248.441 87.9536 245.958 82.8223 243.48 79.1154C242.61 77.8179 241.672 76.5107 240.355 75.6766C239.038 74.8377 237.255 74.5645 235.933 75.3889C234.952 76.0034 234.383 77.096 233.902 78.1545C228.785 89.3876 228.664 100.816 232.678 112.493Z" fill="white"/>
<path d="M205.786 113.493C198.142 108.04 190.11 102.099 186.66 93.3434C184.735 88.456 190.63 84.1783 194.561 80.7104C196.271 79.2032 197.982 77.6911 199.692 76.1839C202.477 73.7256 205.718 71.1112 209.406 71.4673C210.256 71.5502 211.141 71.8282 211.675 72.4965C212.161 73.1062 212.268 73.9256 212.327 74.7011C212.89 82.5638 209.848 90.1729 208.284 97.8991C207.317 102.679 205.621 108.615 205.786 113.493Z" fill="white"/>
<path d="M235.34 72.3012C234.738 74.1547 234.101 76.0862 232.886 77.6422C232.255 78.4519 231.492 79.0225 230.607 79.5249C229.859 79.9542 229.198 80.4663 229.013 81.354C228.824 82.271 228.955 83.2466 228.834 84.1782C228.712 85.1049 228.489 86.017 228.178 86.895C227.551 88.69 226.545 90.3532 225.267 91.758C223.809 93.3627 222.001 94.6163 219.965 95.3625C219.533 95.5235 219.717 96.221 220.155 96.06C223.717 94.7528 226.647 91.9921 228.27 88.5534C229.081 86.8267 229.572 84.9488 229.645 83.0368C229.665 82.5442 229.606 82.0272 229.703 81.5443C229.839 80.8712 230.33 80.5151 230.889 80.1883C231.73 79.7005 232.493 79.1933 233.139 78.4519C234.611 76.7691 235.355 74.5839 236.03 72.4865C236.176 72.0524 235.481 71.8622 235.34 72.3012Z" fill="#CCB28B"/>
<path d="M217.225 94.3041C214.329 93.3383 212.336 90.5678 211.593 87.6803C211.136 85.9048 211.418 84.1684 211.258 82.3735C211.107 80.6907 210.305 79.2469 209.508 77.7934C208.58 76.096 207.603 73.9254 208.522 72.0134C208.706 71.6281 208.133 71.2866 207.948 71.6769C206.184 75.3595 209.878 78.4128 210.514 81.8125C210.718 82.8856 210.587 83.9928 210.592 85.0757C210.597 85.9195 210.694 86.7682 210.883 87.5925C211.248 89.1631 211.948 90.6654 212.934 91.9385C213.998 93.3091 215.393 94.3968 217.045 94.9479C217.458 95.0845 217.633 94.4407 217.225 94.3041Z" fill="#CCB28B"/>
<path d="M229.344 69.3796C226.083 67.5944 224.188 63.5947 224.864 59.9316H218.347C218.43 62.4826 216.914 64.2971 215.514 66.4286C214.786 67.5407 213.916 68.6918 212.638 69.0625C214.479 71.5355 217.667 72.7744 220.743 72.8524C223.819 72.9305 227.381 71.7598 229.344 69.3796Z" fill="#F3725F"/>
<path d="M218.765 102.342C219.28 102.342 219.703 101.918 219.703 101.401C219.703 100.884 219.28 100.46 218.765 100.46C218.25 100.46 217.827 100.884 217.827 101.401C217.827 101.918 218.25 102.342 218.765 102.342Z" stroke="#CCB28B" stroke-width="1.4836" stroke-miterlimit="10" stroke-linecap="round" stroke-linejoin="round"/>
<path d="M218.406 109.288C218.921 109.288 219.343 108.864 219.343 108.347C219.343 107.83 218.921 107.406 218.406 107.406C217.891 107.406 217.468 107.83 217.468 108.347C217.468 108.869 217.891 109.288 218.406 109.288Z" stroke="#CCB28B" stroke-width="1.4836" stroke-miterlimit="10" stroke-linecap="round" stroke-linejoin="round"/>
<path d="M217.827 116.092C218.342 116.092 218.765 115.668 218.765 115.151C218.765 114.634 218.342 114.21 217.827 114.21C217.312 114.21 216.889 114.634 216.889 115.151C216.889 115.668 217.312 116.092 217.827 116.092Z" stroke="#CCB28B" stroke-width="1.4836" stroke-miterlimit="10" stroke-linecap="round" stroke-linejoin="round"/>
<path d="M220.014 61.9412C216.268 61.9412 213.206 58.8634 213.206 55.1076V45.2012C213.206 41.4406 216.273 38.3677 220.014 38.3677C223.761 38.3677 226.822 41.4454 226.822 45.2012V55.1125C226.822 58.8683 223.761 61.9412 220.014 61.9412Z" fill="#F3725F"/>
<path d="M228.153 55.2102C229.603 55.2102 230.777 54.031 230.777 52.5763C230.777 51.1216 229.603 49.9424 228.153 49.9424C226.704 49.9424 225.529 51.1216 225.529 52.5763C225.529 54.031 226.704 55.2102 228.153 55.2102Z" fill="#F3725F"/>
<path d="M197.35 88.8412C197.603 87.2998 197.933 85.7536 198.628 84.3586C199.323 82.9636 200.421 81.7199 201.855 81.115C203.288 80.5102 205.076 80.6468 206.243 81.6759C207.059 82.3978 207.511 83.4807 207.598 84.5684C207.696 85.8122 207.147 87.2852 205.932 87.573V109.386C205.558 109.527 205.174 109.781 204.799 109.922C204.736 111.576 204.94 113.249 204.62 114.868C204.246 116.751 203.157 118.463 201.665 119.663C200.173 120.863 198.303 121.56 196.398 121.716L197.35 88.8412Z" fill="#FEB75B"/>
<path d="M196.242 96.7137C194.002 101.791 188.531 104.532 184.964 108.776C182.626 111.561 181.135 115.039 180.683 118.653C180.44 120.599 182.019 122.316 183.963 122.155C185.595 122.019 187.214 121.521 188.54 120.677C190.81 119.234 192.588 117.131 194.094 114.897C198.123 108.952 200.48 101.879 200.829 94.6943C199.464 95.0894 198.133 94.9821 196.714 94.9528C196.475 95.9674 196.66 95.7625 196.242 96.7137Z" fill="#F3725F"/>
<path d="M192.165 111.971C192.554 113.229 193.04 114.439 193.609 115.595C193.774 115.366 193.934 115.132 194.094 114.897C198.123 108.952 200.48 101.879 200.829 94.6943C199.464 95.0894 198.133 94.9821 196.714 94.9528C196.476 95.9674 196.66 95.7577 196.237 96.7088C195.066 99.3671 193.011 101.382 190.805 103.308C190.897 106.24 191.295 109.156 192.165 111.971Z" fill="#71CFB7"/>
<path d="M200.64 96.7284C198.599 93.8847 197.209 90.6411 196.548 87.1975C196.456 86.7244 195.737 86.9244 195.829 87.3975C196.5 90.8947 197.924 94.2164 199.994 97.1039C200.275 97.4941 200.922 97.1234 200.64 96.7284Z" fill="#CCB28B"/>
<path d="M200.047 96.6015C197.753 94.5969 195.824 92.2166 194.332 89.5583C194.099 89.1388 193.453 89.5144 193.686 89.9339C195.202 92.6458 197.18 95.0895 199.517 97.1332C199.882 97.4454 200.411 96.9186 200.047 96.6015Z" fill="#CCB28B"/>
<path d="M239.296 108.688C240.039 105.303 240.418 101.85 240.414 98.3868C240.414 97.9039 239.665 97.9039 239.665 98.3868C239.67 101.787 239.306 105.172 238.577 108.488C238.47 108.957 239.189 109.161 239.296 108.688Z" fill="#CCB28B"/>
<path d="M239.15 109.044C240.287 106.669 241.419 104.289 242.556 101.913C242.765 101.479 242.119 101.099 241.91 101.538C240.773 103.913 239.641 106.293 238.504 108.669C238.3 109.098 238.941 109.478 239.15 109.044Z" fill="#CCB28B"/>
<path d="M196.189 95.5822C196.135 93.7287 196.077 91.8801 196.024 90.0266C196.014 89.7095 196.009 89.3827 196.13 89.095C196.232 88.8608 196.407 88.6706 196.582 88.4853C198.409 86.5732 200.441 84.8563 202.622 83.3638C203.036 83.5833 203.036 84.0661 202.865 84.5051C202.695 84.9441 202.336 85.2709 201.986 85.5782C200.985 86.4659 199.984 87.3537 198.978 88.2414C199.741 87.7195 200.606 87.1585 201.466 86.822C201.796 86.6903 202.151 86.5781 202.501 86.622C202.856 86.6708 203.201 86.9244 203.24 87.2805C203.293 87.7878 202.749 88.1341 202.282 88.3438C201.189 88.8413 200.091 89.3388 198.997 89.8364C200.319 89.5096 201.563 89.4218 202.895 89.6949C203.381 89.7925 203.964 90.0851 203.91 90.5778C203.857 91.0606 203.244 91.2216 202.763 91.2655C201.646 91.3679 200.533 91.4655 199.415 91.5679C200.076 92.5629 200.873 93.0995 201.131 94.2701C201.388 95.4407 201.131 96.8016 200.198 97.543C199.838 97.8308 199.401 98.0112 198.959 98.1478C198.23 98.3722 197.472 98.499 196.709 98.5136L196.189 95.5822Z" fill="#71CFB7"/>
<path d="M204.075 43.0794C209.843 47.6253 218.454 47.8009 224.742 44.011C223.547 45.0597 222.769 46.5815 222.623 48.1716C222.516 49.2984 222.857 50.6299 223.892 51.0787C224.766 51.4591 225.762 51.0592 226.627 50.6641C227.624 50.2105 228.678 49.7081 229.237 48.7667C229.592 48.1716 229.698 47.4644 229.801 46.7766C230.248 43.655 230.573 40.3382 229.276 37.4653C227.245 32.9632 221.01 31.0024 216.782 33.5388C215.223 34.4753 213.425 35.9532 211.84 35.0606C210.567 34.3436 210.456 32.5438 210.747 31.1097C211.17 29.0075 212.093 27.0321 212.511 24.9298C212.929 22.8276 212.735 20.4131 211.233 18.8864C209.542 17.1695 206.675 17.1549 204.503 18.1938C194.993 22.7641 196.791 37.3384 204.075 43.0794Z" fill="#FEB75B"/>
<path d="M213.167 53.6686V55.2099C213.167 58.2291 215.266 60.7948 218.109 61.5898C218.702 61.7508 219.324 61.8435 219.97 61.8435H219.99C221.861 61.8435 223.561 61.0972 224.796 59.8924C225.631 59.0778 226.253 58.0438 226.564 56.8976L226.56 56.8341C225.238 56.0196 225.301 53.5661 225.301 53.5661C225.301 53.5661 213.43 53.3613 213.221 53.5661L213.167 53.6686Z" fill="#5D515D"/>
<path d="M225.311 53.5662L228.153 49.947" stroke="#5D515D" stroke-width="1.9385" stroke-miterlimit="10" stroke-linecap="round" stroke-linejoin="round"/>
<path d="M223.007 51.4787H220.102C219.518 51.4787 219.042 51.0007 219.042 50.4154C219.042 49.8301 219.518 49.3521 220.102 49.3521H223.007C223.591 49.3521 224.067 49.8301 224.067 50.4154C224.067 51.0007 223.591 51.4787 223.007 51.4787Z" fill="#FDFDFD"/>
<path d="M220.102 51.4787H221.19C221.768 50.8836 222.191 50.1715 222.458 49.3521H220.102C219.518 49.3521 219.042 49.8301 219.042 50.4154C219.042 51.0007 219.518 51.4787 220.102 51.4787Z" fill="#5D515D"/>
<path d="M216.243 51.5761H213.337C212.754 51.5761 212.278 51.0981 212.278 50.5128C212.278 49.9275 212.754 49.4495 213.337 49.4495H216.243C216.826 49.4495 217.302 49.9275 217.302 50.5128C217.302 51.0981 216.826 51.5761 216.243 51.5761Z" fill="#FDFDFD"/>
<path d="M213.337 51.5761H214.426C215.004 50.981 215.427 50.2689 215.694 49.4495H213.337C212.754 49.4495 212.278 49.9275 212.278 50.5128C212.278 51.0981 212.754 51.5761 213.337 51.5761Z" fill="#5D515D"/>
<path d="M219.261 48.196C220.553 48.3423 221.899 47.8985 222.857 47.0156" stroke="#5D515D" stroke-width="1.5681" stroke-miterlimit="10" stroke-linecap="round" stroke-linejoin="round"/>
<path d="M216.671 48.2888C215.378 48.4351 214.032 47.9912 213.075 47.1084" stroke="#5D515D" stroke-width="1.5681" stroke-miterlimit="10" stroke-linecap="round" stroke-linejoin="round"/>
<path d="M250.642 71.9109H259.18C259.676 71.9109 260.074 71.511 260.074 71.0135V59.3511C260.074 58.8536 259.676 58.4536 259.18 58.4536H250.642C250.147 58.4536 249.748 58.8536 249.748 59.3511V71.0135C249.748 71.511 250.147 71.9109 250.642 71.9109Z" fill="#F2E2C8"/>
<path d="M260.074 61.4482V59.3557C260.074 58.8582 259.676 58.4583 259.18 58.4583H250.642C250.147 58.4583 249.748 58.8582 249.748 59.3557V61.4482H260.074Z" fill="#FDFDFD"/>
<path opacity="0.58" d="M255.113 69.7597C255.283 69.7597 255.419 69.628 255.419 69.4719V56.9462C255.419 56.7853 255.278 56.6584 255.113 56.6584C254.943 56.6584 254.807 56.7901 254.807 56.9462V69.4719C254.802 69.628 254.943 69.7597 255.113 69.7597Z" fill="#CCB28B"/>
<path d="M253.543 51.9029H258.966C259.209 51.9029 259.408 51.7127 259.408 51.4786C259.408 51.2444 259.209 51.0542 258.966 51.0542H253.543C253.3 51.0542 253.101 51.2444 253.101 51.4786C253.101 51.7127 253.3 51.9029 253.543 51.9029Z" fill="#AFA8AF"/>
<path d="M254.009 59.0827H256.25C256.663 59.0827 256.998 58.7462 256.998 58.3316V54.9953C256.998 54.5807 256.663 54.2441 256.25 54.2441H254.009C253.596 54.2441 253.261 54.5807 253.261 54.9953V58.3316C253.256 58.7413 253.596 59.0827 254.009 59.0827Z" fill="#AFA8AF"/>
<path d="M254.495 55.0132H255.787V51.672H254.495V55.0132Z" fill="#AFA8AF"/>
<path d="M260.322 52.737C260.536 52.9565 260.667 53.2443 260.667 53.5613C260.667 54.2344 260.079 54.7807 259.355 54.7807C258.631 54.7807 258.043 54.2344 258.043 53.5613C258.043 53.3662 258.091 53.176 258.189 53.0004C258.291 52.8199 258.456 52.6736 258.587 52.5078C258.689 52.3809 258.791 52.2541 258.898 52.1273C259.053 51.9371 259.204 51.7469 259.36 51.5566V51.5469L259.364 51.5518L259.369 51.5469V51.5566C259.364 51.5566 260.322 52.7321 260.322 52.737Z" fill="#71CFB7"/>
<path d="M212.788 144.558L228.79 145.065" stroke="#928093" stroke-width="2.3522" stroke-miterlimit="10" stroke-linecap="round" stroke-linejoin="round"/>
<path d="M128.007 108.239C127.351 100.879 130.991 93.5187 132.556 86.4608C133.188 83.622 134.014 80.1784 133.173 77.3104C132.264 74.2082 129.645 72.6035 126.783 71.5597C124.295 70.6524 121.685 70.0817 119.047 69.8574C114.571 69.4769 109.994 70.0915 105.825 71.7743C103.186 73.896 101.058 76.4178 100.018 79.8857C98.5211 84.8609 98.9001 90.4116 101.32 95.0454C103.249 98.7377 106.403 101.874 106.908 106.186C107.389 110.303 104.892 114.512 102.666 117.79C101.869 118.96 101.019 120.097 100.154 121.214H132.731C131.433 118.268 129.985 115.375 128.926 112.332C128.455 111.01 128.129 109.644 128.007 108.239Z" fill="#FEB75B"/>
<path d="M105.008 80.359C103.585 78.3104 100.645 77.5787 98.4385 78.725C97.6513 79.1347 92.1506 84.3147 84.366 92.2555L69.2972 62.5801C66.8675 62.9996 65.7936 62.6289 64.9189 62.7508C66.6343 68.3308 68.3545 73.9156 70.0698 79.5005C72.1933 86.4023 73.554 93.6066 76.557 100.211C79.4337 106.532 84.502 105.601 88.7734 101.118C93.5403 96.1137 98.2636 90.1874 103.818 86.0268C105.844 84.8269 106.384 82.3393 105.008 80.359Z" fill="#F3725F"/>
<path d="M72.621 69.1258L69.3021 62.585C66.8724 63.0044 65.7985 62.6337 64.9238 62.7557C65.9151 65.9847 66.9113 69.2136 67.9026 72.4426C69.5693 71.4768 71.1535 70.3843 72.621 69.1258Z" fill="#71CFB7"/>
<path d="M105.008 80.3589C103.584 78.3103 100.644 77.5787 98.4383 78.7249C97.6511 79.1346 92.1504 84.3146 84.3657 92.2554L76.9407 77.6323C74.9532 79.159 72.8977 80.5882 70.7839 81.9246C72.5333 88.0753 73.9036 94.3772 76.5568 100.211C79.4335 106.532 84.5018 105.601 88.7731 101.118C93.5401 96.1136 98.2634 90.1873 103.818 86.0267C105.844 84.8268 106.383 82.3392 105.008 80.3589Z" fill="#FEB75B"/>
<path d="M124.261 72.1889C122.356 74.5009 118.896 75.6374 115.908 75.5594C112.914 75.4862 109.819 74.2814 108.031 71.8768C109.265 71.5207 110.115 70.3988 110.82 69.316C111.525 68.2429 112.263 67.2577 112.798 66.1992C113.041 65.7212 113.25 65.2188 113.381 64.7018C113.522 64.1653 113.595 63.6043 113.575 62.9995H119.902C119.785 63.6238 119.747 64.2579 119.785 64.892C119.941 67.8625 121.651 70.7549 124.261 72.1889Z" fill="#F3725F"/>
<path d="M116.282 67.3845C117.434 66.1797 117.594 64.5896 117.434 62.9995H113.58C113.6 63.6043 113.527 64.1653 113.386 64.7018C113.25 65.2188 113.046 65.7212 112.803 66.1992C112.302 67.1894 111.622 68.121 110.956 69.116C112.837 69.077 114.926 68.8039 116.282 67.3845Z" fill="#5D515D"/>
<path d="M121.812 48.6887V58.3171C121.812 58.5415 121.802 58.761 121.778 58.9805C121.622 60.5413 120.928 61.9461 119.878 63.0045C118.678 64.2141 117.021 64.9604 115.194 64.9604C114.567 64.9604 113.959 64.8726 113.381 64.7019C110.611 63.9069 108.575 61.3412 108.575 58.3171V48.6887C108.575 48.2156 108.629 47.7522 108.721 47.3083C108.881 46.5572 109.168 45.8548 109.552 45.2256C109.601 45.1476 109.649 45.0646 109.703 44.9915C110.014 44.5281 110.383 44.1086 110.796 43.7379C110.864 43.6745 110.932 43.616 111.005 43.5575C111.36 43.2599 111.748 43.0014 112.161 42.7868C112.239 42.7478 112.322 42.7088 112.404 42.6697C112.579 42.5868 112.754 42.5137 112.934 42.4454C113.031 42.4112 113.133 42.3771 113.23 42.3478C113.347 42.3137 113.454 42.2795 113.571 42.2503C113.595 42.2405 113.619 42.2356 113.643 42.2308C113.707 42.2161 113.77 42.1966 113.833 42.1869C113.92 42.1673 114.003 42.1527 114.086 42.1381C114.183 42.1234 114.28 42.1039 114.372 42.0942C114.44 42.0844 114.508 42.0795 114.581 42.0747C114.781 42.0503 114.99 42.0405 115.194 42.0405C118.833 42.0454 121.812 45.0305 121.812 48.6887Z" fill="#F3725F"/>
<path d="M121.812 48.6887V58.3171C121.812 58.5415 121.802 58.761 121.778 58.9805C120.884 58.9756 119.985 58.8293 119.12 58.5268C118.046 58.1464 116.986 57.4977 116.34 56.5368C116.204 56.3319 116.083 56.1173 115.99 55.8832C115.339 54.3175 116.019 52.7176 116.962 51.4397C117.054 51.3129 116.928 51.147 116.792 51.1421C114.236 51.1031 110.975 49.5472 108.726 47.3083C108.886 46.5572 109.173 45.8548 109.557 45.2256C109.605 45.1476 109.654 45.0646 109.707 44.9915C110.018 44.5281 110.387 44.1086 110.801 43.7379C110.869 43.6745 110.937 43.616 111.009 43.5575C111.364 43.2599 111.753 43.0014 112.166 42.7868C112.244 42.7478 112.326 42.7088 112.409 42.6697C112.584 42.5868 112.759 42.5137 112.939 42.4454C113.036 42.4112 113.138 42.3771 113.235 42.3478C113.352 42.3137 113.459 42.2795 113.575 42.2503C113.599 42.2405 113.624 42.2356 113.648 42.2308C113.711 42.2161 113.774 42.1966 113.838 42.1869C113.925 42.1673 114.008 42.1527 114.09 42.1381C114.187 42.1234 114.285 42.1039 114.377 42.0942C114.445 42.0844 114.513 42.0795 114.586 42.0747C114.785 42.0503 114.994 42.0405 115.198 42.0405C118.833 42.0454 121.812 45.0305 121.812 48.6887Z" fill="#5D515D"/>
<path d="M125.175 55.3857C125.175 56.7954 124.033 57.9416 122.628 57.9416C122.453 57.9416 122.283 57.927 122.118 57.8879H122.113C122.006 57.8684 121.909 57.8392 121.807 57.805C121.695 57.7709 121.584 57.7221 121.481 57.6684C121.452 57.6587 121.428 57.6441 121.399 57.6294C121.326 57.5904 121.263 57.5514 121.2 57.5075C121.136 57.4636 121.078 57.4197 121.02 57.3758C120.976 57.3416 120.932 57.3026 120.893 57.2587C120.864 57.2343 120.835 57.2051 120.811 57.1807C120.772 57.1368 120.733 57.0929 120.694 57.049C120.675 57.0295 120.655 57.0051 120.641 56.9856C120.621 56.9612 120.607 56.9417 120.587 56.9173C120.262 56.4881 120.072 55.9564 120.072 55.3857C120.072 54.2541 120.796 53.303 121.807 52.9664C122.065 52.8738 122.337 52.8298 122.623 52.8298C124.037 52.825 125.175 53.9712 125.175 55.3857Z" fill="#F3725F"/>
<path d="M69.3215 64.614C69.6277 63.5556 69.8026 62.4581 69.8415 61.3558C69.8949 59.8389 69.5839 58.1317 68.3496 57.2586C67.8491 56.9025 67.2466 56.727 66.6586 56.5562C65.3029 56.1611 63.952 55.7709 62.5962 55.3759C62.2512 55.2734 61.8673 55.1759 61.5466 55.332C61.0704 55.5612 60.9829 56.2538 61.2307 56.7221C61.4786 57.1903 61.9548 57.4879 62.4067 57.7659C61.8382 57.9659 61.396 58.5073 61.3036 59.1072C61.2113 59.7072 61.4737 60.3461 61.9596 60.7071C61.6243 60.8388 61.6001 61.1851 61.4737 61.5216C61.2453 62.1509 61.5563 62.8776 62.0665 63.3069C62.5768 63.7361 63.2425 63.9214 63.8985 64.0482C65.4195 64.3458 67.9123 63.9751 69.3215 64.614Z" fill="#71CFB7"/>
<path d="M65.5604 56.8197C65.089 56.7807 64.6614 56.4783 64.4038 56.0734C64.1512 55.6686 64.054 55.1808 64.0686 54.7077C64.0686 54.6053 64.0783 54.4979 64.1414 54.415C64.2726 54.2443 64.5448 54.3028 64.744 54.3809C65.7936 54.7808 66.8481 55.1759 67.8977 55.5759C68.1941 55.6881 68.5051 55.81 68.7286 56.0344C68.9862 56.2978 69.1028 56.6685 69.1854 57.0294C69.3944 57.9562 69.4332 58.9268 69.3069 59.8682L65.5604 56.8197Z" fill="#71CFB7"/>
<path d="M107.943 71.9353C107.943 71.9353 107.623 73.901 107.589 74.2424C106.743 82.549 109.115 89.6508 113.021 97.0209C114.003 92.431 115.169 88.5875 116.826 84.1927C118.483 79.798 120.864 75.413 124.261 72.1792C120.66 71.9304 117.555 72.8377 113.945 72.945C112.166 73.0035 109.46 72.8767 107.943 71.9353Z" fill="#F3725F"/>
<path d="M147.717 158.211L123.61 157.923L115.495 142.358L113.503 157.796L92.6074 157.547C86.888 132.579 105.669 112.371 105.669 112.371C105.854 112.571 129.305 113.561 129.305 113.561C140.501 125.975 147.717 158.211 147.717 158.211Z" fill="#5D515D"/>
<path d="M112.322 158.698L112.317 158.734C112.307 158.724 112.307 158.719 112.322 158.698Z" fill="#F3E9E0"/>
<path d="M116.18 55.8245H113.425C112.871 55.8245 112.419 55.3709 112.419 54.8148C112.419 54.2588 112.871 53.8052 113.425 53.8052H116.18C116.734 53.8052 117.186 54.2588 117.186 54.8148C117.186 55.366 116.734 55.8245 116.18 55.8245Z" fill="#FDFDFD"/>
<path d="M113.425 55.8245H114.46C115.009 55.2587 115.412 54.5807 115.665 53.8052H113.425C112.871 53.8052 112.419 54.2588 112.419 54.8148C112.419 55.366 112.871 55.8245 113.425 55.8245Z" fill="#5D515D"/>
<path d="M109.761 55.9124H107.006C106.452 55.9124 106 55.4588 106 54.9027C106 54.3467 106.452 53.8931 107.006 53.8931H109.761C110.315 53.8931 110.767 54.3467 110.767 54.9027C110.767 55.4588 110.315 55.9124 109.761 55.9124Z" fill="#FDFDFD"/>
<path d="M107.006 55.9124H108.041C108.59 55.3466 108.993 54.6686 109.246 53.8931H107.006C106.452 53.8931 106 54.3467 106 54.9027C106 55.4588 106.452 55.9124 107.006 55.9124Z" fill="#5D515D"/>
<path d="M112.628 52.7029C113.857 52.8395 115.135 52.42 116.044 51.5811" stroke="#5D515D" stroke-width="1.4887" stroke-miterlimit="10" stroke-linecap="round" stroke-linejoin="round"/>
<path d="M110.164 52.7957C108.935 52.9322 107.657 52.5128 106.748 51.6738" stroke="#5D515D" stroke-width="1.4887" stroke-miterlimit="10" stroke-linecap="round" stroke-linejoin="round"/>
<path d="M122.118 57.8878C122.011 57.8683 121.914 57.839 121.812 57.8049V58.317C121.812 58.5414 121.802 58.7609 121.778 58.9804C121.622 60.5412 120.928 61.9459 119.878 63.0044C118.678 64.214 117.021 64.9603 115.194 64.9603C114.567 64.9603 113.959 64.8725 113.381 64.7018C110.611 63.9067 108.575 61.3411 108.575 58.317V57.0147L108.629 56.8879L116.34 56.5367L120.213 56.3611C120.213 56.3611 120.349 56.6245 120.592 56.922C120.607 56.9464 120.626 56.9659 120.646 56.9903C120.66 57.0098 120.68 57.0342 120.699 57.0537C120.738 57.0976 120.777 57.1415 120.816 57.1854C120.84 57.2147 120.869 57.2391 120.898 57.2634C120.937 57.3025 120.981 57.3415 121.025 57.3805C121.078 57.4293 121.141 57.4732 121.205 57.5122C121.268 57.561 121.336 57.6049 121.404 57.6341C121.433 57.6488 121.457 57.6634 121.486 57.6732C121.588 57.7219 121.695 57.7561 121.812 57.7707C121.846 57.7805 121.885 57.7805 121.924 57.7853C121.992 57.7805 122.055 57.8195 122.118 57.8878Z" fill="#71CFB7"/>
<path d="M112.594 99.3867C112.462 93.8555 112.341 88.2706 113.366 82.8321C114.392 77.3935 116.675 72.0379 120.709 68.2626C122.531 66.5555 124.727 65.1849 127.162 64.6532C129.596 64.1216 132.288 64.502 134.295 65.9848C136.302 67.4676 137.493 70.121 136.944 72.5598C136.54 74.3597 135.311 75.8376 134.077 77.2033C133.547 77.7886 132.259 78.0179 131.496 78.2032C127.998 79.0519 124.28 78.9446 120.835 77.9008C121.068 77.891 120.733 78.2813 120.699 78.5154C119.713 85.2855 117.351 91.8508 113.804 97.6893" fill="#FEB75B"/>
<path d="M113.084 97.1528C111.068 94.6457 110.315 91.363 109.746 88.1926C108.871 83.3052 108.298 78.291 108.988 73.3744C109.119 72.4379 109.309 71.477 109.833 70.6868C110.149 70.2137 110.567 69.8235 110.956 69.4089C112.113 68.1749 113.011 66.697 113.57 65.0922C113.619 64.9557 113.663 64.7996 113.599 64.6679C113.536 64.5313 113.376 64.4679 113.235 64.4191C110.383 63.4777 107.151 63.7509 104.493 65.1556C103.23 65.8239 102.073 66.7604 101.335 67.9895C100.557 69.2772 100.28 70.8185 100.275 72.3208C100.27 73.9987 100.601 75.7157 101.485 77.1448C102.744 79.1739 104.94 80.3884 107.039 81.5151C106.738 82.4809 106.787 83.0467 107 84.032C107.865 88.0463 108.784 92.1874 111.18 95.5139" fill="#FEB75B"/>
<path d="M133.008 74.345C133.134 74.4523 133.265 74.5645 133.387 74.6816L133.571 74.8572C133.63 74.9108 133.712 74.9889 133.717 74.9986L134.009 75.3059L134.582 75.9107L135.695 77.1009L137.901 79.4714L142.299 84.2173L153.033 93.6994L153.3 93.9872C154.588 95.3822 154.544 97.5429 152.45 98.894L130.359 119.643C130.262 120.56 128.8 120.575 127.886 119.687C127.031 118.853 126.968 117.507 127.692 116.59L145.657 93.9335L145.861 99.1282L136.123 90.6509L131.249 86.422L128.814 84.3149L127.599 83.2711L127.002 82.7638L126.71 82.515C126.671 82.4809 126.705 82.515 126.71 82.5199L126.749 82.5589C126.773 82.5833 126.802 82.6028 126.832 82.6223C124.557 80.9103 124.096 77.6667 125.801 75.384C127.502 73.0964 130.734 72.633 133.008 74.345Z" fill="#FEB75B"/>
<path d="M136.351 105.674L127.696 116.59C126.972 117.507 127.036 118.853 127.891 119.687C128.804 120.58 130.262 120.56 130.364 119.643L139.427 111.132C138.202 109.42 137.158 107.605 136.351 105.674Z" fill="#F3725F"/>
<path d="M131.783 111.429L127.696 116.585C126.972 117.502 127.036 118.848 127.891 119.682C128.804 120.575 130.262 120.555 131.151 119.638L134.558 116.131C133.489 114.663 132.57 113.078 131.783 111.429Z" fill="#71CFB7"/>
<path d="M123.692 115.078C125.004 117.292 126.71 120.063 129.46 120.316C129.718 120.277 129.975 120.214 130.223 120.121C130.962 119.838 131.603 119.253 131.846 118.497L129.742 116.78C127.706 115.668 127.4 112.785 125.685 111.22C124.805 110.42 123.629 110.039 122.492 109.683C121.7 109.434 120.913 109.186 120.121 108.937C119.436 108.722 118.522 108.586 118.153 109.205C117.783 109.83 118.357 110.586 118.935 111.02C120.466 112.166 122.405 112.907 123.42 114.619C123.513 114.771 123.6 114.922 123.692 115.078Z" fill="#71CFB7"/>
<path d="M127.186 51.8641C130.748 51.8641 133.635 48.9662 133.635 45.3915C133.635 41.8168 130.748 38.9189 127.186 38.9189C123.625 38.9189 120.738 41.8168 120.738 45.3915C120.738 48.9662 123.625 51.8641 127.186 51.8641Z" fill="#5D515D"/>
<path d="M140.292 57.7564C145.123 57.7564 149.039 53.8256 149.039 48.9767C149.039 44.1278 145.123 40.197 140.292 40.197C135.461 40.197 131.545 44.1278 131.545 48.9767C131.545 53.8256 135.461 57.7564 140.292 57.7564Z" fill="#5D515D"/>
<path d="M159.458 72.071C163.925 67.5871 163.925 60.3172 159.458 55.8333C154.991 51.3494 147.749 51.3494 143.282 55.8333C138.814 60.3172 138.814 67.5871 143.282 72.071C147.749 76.5549 154.991 76.5549 159.458 72.071Z" fill="#5D515D"/>
<path d="M122.857 49.8058H103.842C103.342 49.8058 102.933 49.396 102.933 48.8936V48.5181C102.933 48.0157 103.342 47.606 103.842 47.606H122.857C123.357 47.606 123.765 48.0157 123.765 48.5181V48.8936C123.765 49.396 123.357 49.8058 122.857 49.8058Z" fill="#FEB75B"/>
<path opacity="0.66" d="M104.158 49.8838V65.7994C104.158 69.1065 106.855 71.8086 110.145 71.8086C113.439 71.8086 116.131 69.1016 116.131 65.7994V49.8838H104.158Z" fill="white"/>
<path d="M111.714 46.9035C112.433 47.1474 113.162 47.3864 113.901 47.5766C116.097 48.1522 118.386 48.2546 120.646 48.0985C121.379 48.0497 122.108 47.9619 122.837 47.8644C122.818 47.8107 122.808 47.7571 122.789 47.7034C119.577 39.2359 112.331 42.1332 112.331 42.1332C108.813 36.085 105.718 31.5049 101.505 25.9249C100.086 24.047 98.56 22.1399 96.451 21.1009C94.3469 20.062 91.4994 20.1547 89.9638 21.935C88.3505 23.8031 88.7538 26.6712 89.6431 28.9783C93.0009 37.7092 101.582 43.3916 110.397 46.4401C110.776 46.5718 111.223 46.7279 111.714 46.9035Z" fill="#FEB75B"/>
<path d="M117.38 47.7718C116.763 47.7718 116.262 47.2645 116.262 46.6499C116.262 46.0305 116.768 45.5281 117.38 45.5281C117.997 45.5281 118.498 46.0353 118.498 46.6499C118.503 47.2645 117.997 47.7718 117.38 47.7718Z" fill="#969696"/>
<path d="M127.497 73.4671C130.223 73.2915 133.003 74.2085 135.087 75.9742" stroke="#D17F13" stroke-width="1.335" stroke-miterlimit="10" stroke-linecap="round" stroke-linejoin="round"/>
<path d="M124.737 106.888C123.012 105.801 121.758 104.059 121.039 102.147C120.32 100.235 120.14 98.3281 120.218 96.2844H108.687C108.347 100.196 108.643 104.211 110.436 107.698" stroke="#D17F13" stroke-width="1.335" stroke-miterlimit="10" stroke-linecap="round" stroke-linejoin="round"/>
<path d="M113.877 107.03H119.392" stroke="#D17F13" stroke-width="1.335" stroke-miterlimit="10" stroke-linecap="round" stroke-linejoin="round"/>
<path d="M123.765 93.0261H114.683" stroke="#D17F13" stroke-width="1.335" stroke-miterlimit="10" stroke-linecap="round" stroke-linejoin="round"/>
<path d="M108.687 93.353H103.978" stroke="#D17F13" stroke-width="1.335" stroke-miterlimit="10" stroke-linecap="round" stroke-linejoin="round"/>
<path d="M127.575 84.4902C128.945 85.9779 130.559 87.2363 132.337 88.1923" stroke="#D17F13" stroke-width="1.335" stroke-miterlimit="10" stroke-linecap="round" stroke-linejoin="round"/>
<path d="M99.3958 84.2856C98.6134 86.1879 98.7397 88.1877 99.4784 90.1046C99.8914 88.5292 100.611 87.0317 101.582 85.7245" stroke="#D17F13" stroke-width="1.335" stroke-miterlimit="10" stroke-linecap="round" stroke-linejoin="round"/>
<path d="M69.1172 53.7322C69.1172 53.7322 64.7293 53.7322 64.6952 53.7322C62.6543 53.7322 61.663 55.2979 62.4891 57.2392C63.2083 58.9317 65.3755 59.8633 65.3513 61.9071C65.3367 62.9265 64.7001 63.8922 63.8206 64.3117C63.2374 64.5946 62.5085 64.4824 61.9594 64.8482C59.9671 66.175 60.7446 70.4136 60.7446 72.4232C60.7446 73.867 61.8817 75.0522 63.2715 75.0522H70.6382C72.028 75.0522 73.165 73.867 73.165 72.4232V57.9464C73.165 55.6296 71.3428 53.7322 69.1172 53.7322Z" fill="#5D515D"/>
<path d="M68.9717 48.7715H65.0356V51.7615H68.9717V48.7715Z" fill="#FDFDFD"/>
<path d="M63.1452 48.2935L60.4629 51.1469L61.1675 51.8785C61.1675 51.8785 64.9335 50.8835 64.9966 48.8885L63.1452 48.2935Z" fill="#5D515D"/>
<path d="M62.4454 45.9817H60.594V48.3034H62.4454V45.9817Z" fill="#5D515D"/>
<path d="M62.4456 48.3082L64.812 49.9666L69.9192 49.8983V45.8499H62.4456V48.3082Z" fill="#FDFDFD"/>
<path d="M69.0444 54.2929H64.9869C64.3017 54.2929 63.7429 53.7125 63.7429 53.0003C63.7429 52.2882 64.3017 51.7078 64.9869 51.7078H69.0444C69.7296 51.7078 70.2884 52.2882 70.2884 53.0003C70.2884 53.7076 69.7247 54.2929 69.0444 54.2929Z" fill="#FDFDFD"/>
<path d="M69.9192 45.8499L72.3294 48.2204C72.7862 48.6691 72.4801 49.469 71.8532 49.469H70.619H68.9668L69.9192 45.8499Z" fill="#FDFDFD"/>
<path d="M67.5963 60.8388H63.2909C62.7224 60.8388 62.2559 60.3559 62.2559 59.7608C62.2559 59.1706 62.7224 58.6829 63.2909 58.6829H67.5963C68.1648 58.6829 68.6313 59.1657 68.6313 59.7608C68.6313 60.351 68.1648 60.8388 67.5963 60.8388Z" stroke="#FDFDFD" stroke-width="0.5205" stroke-miterlimit="10"/>
<path d="M66.9744 64.1117H62.6691C62.1005 64.1117 61.634 63.6288 61.634 63.0338C61.634 62.4436 62.1005 61.9558 62.6691 61.9558H66.9744C67.543 61.9558 68.0095 62.4387 68.0095 63.0338C68.0095 63.6288 67.543 64.1117 66.9744 64.1117Z" stroke="#FDFDFD" stroke-width="0.5205" stroke-miterlimit="10"/>
<path d="M67.844 67.5261H66.4348V72.2379H67.844V67.5261Z" fill="#FDFDFD"/>
<path d="M69.4097 70.6186V69.1504H64.8808V70.6186H69.4097Z" fill="#FDFDFD"/>
<path d="M65.9927 57.2831H61.6485C61.0702 57.2831 60.594 56.81 60.594 56.2247C60.594 55.6443 61.0702 55.1663 61.6485 55.1663H65.9927C66.571 55.1663 67.0472 55.6394 67.0472 56.2247C67.0423 56.8051 66.571 57.2831 65.9927 57.2831Z" fill="#71CFB7"/>
<path d="M128.887 113.605C128.877 113.346 128.965 113.019 129.217 112.971C129.251 113.766 129.752 114.468 130.296 115.044C130.845 115.624 131.467 116.146 131.871 116.834C132.216 117.429 132.376 118.136 132.313 118.824C132.293 119.029 132.255 119.248 132.123 119.409C131.807 119.799 131.186 119.673 130.748 119.434C130.058 119.058 128.445 117.926 128.77 117.024C128.96 116.507 129.271 116.283 129.247 115.663C129.227 114.966 128.911 114.307 128.887 113.605Z" fill="#71CFB7"/>
<path d="M65.8666 112.561C64.438 112.561 63.2717 111.39 63.2717 109.956C63.2717 108.522 64.438 107.352 65.8666 107.352C67.2952 107.352 68.4615 108.522 68.4615 109.956C68.4615 111.39 67.2952 112.561 65.8666 112.561Z" fill="#F9A813"/>
<path d="M91.3294 113.863C90.5276 113.863 89.8716 113.205 89.8716 112.4C89.8716 111.595 90.5276 110.937 91.3294 110.937C92.1312 110.937 92.7872 111.595 92.7872 112.4C92.792 113.205 92.136 113.863 91.3294 113.863Z" fill="#F9A813"/>
<path d="M98.9536 200.47C98.1519 200.47 97.4958 199.812 97.4958 199.007C97.4958 198.202 98.1519 197.544 98.9536 197.544C99.7554 197.544 100.411 198.202 100.411 199.007C100.411 199.812 99.7554 200.47 98.9536 200.47Z" fill="#443FE0"/>
<path d="M259.511 13.4236C258.709 13.4236 258.053 12.7652 258.053 11.9604C258.053 11.1555 258.709 10.4971 259.511 10.4971C260.312 10.4971 260.968 11.1555 260.968 11.9604C260.973 12.7652 260.317 13.4236 259.511 13.4236Z" fill="#443FE0"/>
<path d="M182.641 51.3521C181.392 51.3521 180.372 50.3278 180.372 49.0742C180.372 47.8207 181.392 46.7964 182.641 46.7964C183.89 46.7964 184.91 47.8207 184.91 49.0742C184.91 50.3278 183.89 51.3521 182.641 51.3521Z" fill="#F9A813"/>
<path d="M231.132 21.7254C230.33 21.7254 229.674 21.0669 229.674 20.2621C229.674 19.4573 230.33 18.7988 231.132 18.7988C231.934 18.7988 232.59 19.4573 232.59 20.2621C232.59 21.0669 231.934 21.7254 231.132 21.7254Z" fill="#F9A813"/>
<path d="M256.595 26.9347C256.06 26.9347 255.623 26.4957 255.623 25.9592C255.623 25.4226 256.06 24.9836 256.595 24.9836C257.129 24.9836 257.567 25.4226 257.567 25.9592C257.567 26.4957 257.129 26.9347 256.595 26.9347Z" fill="#F9A813"/>
<path d="M123.931 16.5161C122.861 16.5161 121.982 15.6381 121.982 14.5651C121.982 13.492 122.857 12.6091 123.931 12.6091C125 12.6091 125.874 13.4871 125.874 14.5651C125.874 15.6381 125 16.5161 123.931 16.5161Z" fill="#F9A813"/>
<path d="M83.224 35.7241C82.602 35.7241 82.0869 35.212 82.0869 34.5828C82.0869 33.9584 82.5971 33.4414 83.224 33.4414C83.846 33.4414 84.3611 33.9536 84.3611 34.5828C84.3562 35.212 83.846 35.7241 83.224 35.7241Z" fill="#F9A813"/>
<path d="M86.9509 71.2136C85.7021 71.2136 84.6816 70.1893 84.6816 68.9358C84.6816 67.6823 85.7021 66.658 86.9509 66.658C88.1998 66.658 89.2202 67.6823 89.2202 68.9358C89.2251 70.1893 88.1998 71.2136 86.9509 71.2136Z" fill="#F9A813"/>
<path d="M86.7906 187.774C85.2745 187.774 84.0354 186.53 84.0354 185.008C84.0354 183.486 85.2745 182.243 86.7906 182.243C88.3067 182.243 89.5459 183.486 89.5459 185.008C89.5459 186.525 88.3067 187.774 86.7906 187.774Z" fill="#F9A813"/>
<path d="M243.295 183.54C242.226 183.54 241.346 182.662 241.346 181.584C241.346 180.511 242.221 179.628 243.295 179.628C244.364 179.628 245.244 180.506 245.244 181.584C245.239 182.662 244.364 183.54 243.295 183.54Z" fill="#F9A813"/>
<path d="M205.509 179.96C204.707 179.96 204.051 179.302 204.051 178.497C204.051 177.692 204.707 177.033 205.509 177.033C206.311 177.033 206.967 177.692 206.967 178.497C206.967 179.302 206.311 179.96 205.509 179.96Z" fill="#F9A813"/>
<path d="M107.875 172.473C106.894 172.473 106.092 171.668 106.092 170.683C106.092 169.697 106.894 168.893 107.875 168.893C108.857 168.893 109.659 169.697 109.659 170.683C109.659 171.663 108.857 172.473 107.875 172.473Z" fill="#F9A813"/>
<path d="M86.6302 56.5613C85.5612 56.5613 84.6816 55.6833 84.6816 54.6102C84.6816 53.5371 85.5563 52.6543 86.6302 52.6543C87.6993 52.6543 88.574 53.5323 88.574 54.6102C88.574 55.6833 87.6993 56.5613 86.6302 56.5613Z" fill="#5D515D"/>
<path d="M168.855 58.1904C168.233 58.1904 167.718 57.6783 167.718 57.0491C167.718 56.4247 168.228 55.9077 168.855 55.9077C169.482 55.9077 169.992 56.4199 169.992 57.0491C169.987 57.6783 169.477 58.1904 168.855 58.1904Z" fill="#5D515D"/>
<path d="M190.26 11.9605C189.638 11.9605 189.123 11.4483 189.123 10.8191C189.123 10.1948 189.633 9.67773 190.26 9.67773C190.887 9.67773 191.397 10.1899 191.397 10.8191C191.397 11.4483 190.887 11.9605 190.26 11.9605Z" fill="#5D515D"/>
<path d="M106.252 10.98C105.63 10.98 105.115 10.4678 105.115 9.83863C105.115 9.21429 105.625 8.69727 106.252 8.69727C106.874 8.69727 107.389 9.20941 107.389 9.83863C107.389 10.4678 106.874 10.98 106.252 10.98Z" fill="#5D515D"/>
<path d="M136.419 25.959C135.797 25.959 135.282 25.4468 135.282 24.8176C135.282 24.1933 135.792 23.6763 136.419 23.6763C137.046 23.6763 137.556 24.1884 137.556 24.8176C137.551 25.4468 137.041 25.959 136.419 25.959Z" fill="#5D515D"/>
<path d="M68.4613 164.659C67.7469 164.659 67.1638 164.074 67.1638 163.357C67.1638 162.64 67.7469 162.054 68.4613 162.054C69.1756 162.054 69.7587 162.64 69.7587 163.357C69.7636 164.069 69.1756 164.659 68.4613 164.659Z" fill="#5D515D"/>
<path d="M89.3856 172.146C89.1183 172.146 88.8997 171.926 88.8997 171.658C88.8997 171.39 89.1183 171.17 89.3856 171.17C89.6529 171.17 89.8715 171.39 89.8715 171.658C89.8715 171.926 89.6529 172.146 89.3856 172.146Z" fill="#5D515D"/>
<path d="M251.079 171.819C250.365 171.819 249.782 171.234 249.782 170.517C249.782 169.8 250.365 169.215 251.079 169.215C251.794 169.215 252.377 169.8 252.377 170.517C252.377 171.234 251.794 171.819 251.079 171.819Z" fill="#5D515D"/>
<path d="M199.017 203.402C198.395 203.402 197.88 202.89 197.88 202.26C197.88 201.636 198.39 201.119 199.017 201.119C199.644 201.119 200.154 201.631 200.154 202.26C200.154 202.89 199.644 203.402 199.017 203.402Z" fill="#5D515D"/>
<path d="M241.346 36.0509C240.812 36.0509 240.374 35.6119 240.374 35.0754C240.374 34.5388 240.812 34.0999 241.346 34.0999C241.881 34.0999 242.318 34.5388 242.318 35.0754C242.323 35.6119 241.886 36.0509 241.346 36.0509Z" fill="#5D515D"/>
<path d="M185.556 35.0753C184.842 35.0753 184.259 34.49 184.259 33.773C184.259 33.056 184.842 32.4707 185.556 32.4707C186.271 32.4707 186.854 33.056 186.854 33.773C186.854 34.49 186.271 35.0753 185.556 35.0753Z" fill="#5D515D"/>
<path d="M67.6546 25.9591C66.4932 25.9591 65.5457 25.008 65.5457 23.8422C65.5457 22.6765 66.4932 21.7253 67.6546 21.7253C68.816 21.7253 69.7635 22.6765 69.7635 23.8422C69.7635 25.008 68.8111 25.9591 67.6546 25.9591Z" fill="white"/>
<path d="M80.7894 14.2381C80.4346 14.2381 80.1431 13.9455 80.1431 13.5845C80.1431 13.2284 80.4346 12.9309 80.7894 12.9309C81.1441 12.9309 81.4356 13.2236 81.4356 13.5845C81.4405 13.9455 81.1441 14.2381 80.7894 14.2381Z" fill="white"/>
<path d="M116.146 29.5392C115.432 29.5392 114.848 28.9539 114.848 28.2369C114.848 27.5199 115.432 26.9346 116.146 26.9346C116.86 26.9346 117.443 27.5199 117.443 28.2369C117.443 28.9539 116.86 29.5392 116.146 29.5392Z" fill="white"/>
<path d="M78.1945 50.0497C77.66 50.0497 77.2227 49.6107 77.2227 49.0742C77.2227 48.5376 77.66 48.0986 78.1945 48.0986C78.729 48.0986 79.1664 48.5376 79.1664 49.0742C79.1664 49.6107 78.729 50.0497 78.1945 50.0497Z" fill="white"/>
<path d="M69.7637 100.84C69.0494 100.84 68.4663 100.255 68.4663 99.5379C68.4663 98.8209 69.0494 98.2356 69.7637 98.2356C70.4781 98.2356 71.0612 98.8209 71.0612 99.5379C71.0563 100.255 70.4732 100.84 69.7637 100.84Z" fill="white"/>
<path d="M88.2484 124.287C87.1794 124.287 86.3047 123.409 86.3047 122.331C86.3047 121.258 87.1794 120.375 88.2484 120.375C89.3175 120.375 90.197 121.253 90.197 122.331C90.197 123.404 89.3223 124.287 88.2484 124.287Z" fill="white"/>
<path d="M271.051 109.518C269.982 109.518 269.103 108.64 269.103 107.562C269.103 106.489 269.977 105.606 271.051 105.606C272.12 105.606 273 106.484 273 107.562C273 108.64 272.125 109.518 271.051 109.518Z" fill="white"/>
<path d="M69.1125 147.729C68.578 147.729 68.1406 147.29 68.1406 146.753C68.1406 146.217 68.578 145.778 69.1125 145.778C69.647 145.778 70.0844 146.217 70.0844 146.753C70.0844 147.285 69.647 147.729 69.1125 147.729Z" fill="white"/>
<path d="M54.9719 91.9581C54.4373 91.9581 54 91.5191 54 90.9826C54 90.4461 54.4373 90.0071 54.9719 90.0071C55.5064 90.0071 55.9437 90.4461 55.9437 90.9826C55.9486 91.5191 55.5064 91.9581 54.9719 91.9581Z" fill="white"/>
<path d="M90.9308 9.69226C90.3963 9.69226 89.959 9.25327 89.959 8.71673C89.959 8.1802 90.3963 7.74121 90.9308 7.74121C91.4654 7.74121 91.9027 8.1802 91.9027 8.71673C91.9027 9.24839 91.4654 9.69226 90.9308 9.69226Z" fill="white"/>
<path d="M211.447 11.6434C210.912 11.6434 210.475 11.2044 210.475 10.6679C210.475 10.1314 210.912 9.69238 211.447 9.69238C211.981 9.69238 212.419 10.1314 212.419 10.6679C212.419 11.1996 211.981 11.6434 211.447 11.6434Z" fill="white"/>
<path d="M100.576 179.96C99.8622 179.96 99.2791 179.375 99.2791 178.658C99.2791 177.941 99.8622 177.355 100.576 177.355C101.291 177.355 101.874 177.941 101.874 178.658C101.874 179.375 101.291 179.96 100.576 179.96Z" fill="white"/>
<path d="M73.4907 186.798C73.0436 186.798 72.6792 186.432 72.6792 185.984C72.6792 185.535 73.0436 185.169 73.4907 185.169C73.9378 185.169 74.3022 185.535 74.3022 185.984C74.3022 186.428 73.9378 186.798 73.4907 186.798Z" fill="white"/>
<path d="M197.073 189.403C196.451 189.403 195.936 188.891 195.936 188.261C195.936 187.632 196.446 187.12 197.073 187.12C197.695 187.12 198.21 187.632 198.21 188.261C198.21 188.886 197.695 189.403 197.073 189.403Z" fill="white"/>
<path d="M128.955 197.217C128.153 197.217 127.497 196.558 127.497 195.754C127.497 194.949 128.153 194.29 128.955 194.29C129.757 194.29 130.413 194.949 130.413 195.754C130.418 196.553 129.762 197.217 128.955 197.217Z" fill="white"/>
<path d="M265.997 160.425C265.463 160.425 265.026 159.986 265.026 159.45C265.026 158.913 265.463 158.474 265.997 158.474C266.532 158.474 266.969 158.913 266.969 159.45C266.974 159.986 266.537 160.425 265.997 160.425Z" fill="white"/>
<path d="M187.831 128.843C187.296 128.843 186.859 128.404 186.859 127.867C186.859 127.331 187.296 126.892 187.831 126.892C188.365 126.892 188.802 127.331 188.802 127.867C188.802 128.404 188.365 128.843 187.831 128.843Z" fill="white"/>
<path d="M144.063 121.224C143.528 121.224 143.091 120.785 143.091 120.248C143.091 119.712 143.528 119.273 144.063 119.273C144.597 119.273 145.035 119.712 145.035 120.248C145.035 120.785 144.597 121.224 144.063 121.224Z" fill="white"/>
<path d="M164.311 75.1206C163.685 75.1206 163.174 74.6085 163.174 73.9792C163.174 73.3549 163.685 72.8379 164.311 72.8379C164.933 72.8379 165.448 73.35 165.448 73.9792C165.448 74.6085 164.938 75.1206 164.311 75.1206Z" fill="white"/>
<path d="M204.372 52.0055C203.657 52.0055 203.074 51.4202 203.074 50.7032C203.074 49.9862 203.657 49.4009 204.372 49.4009C205.086 49.4009 205.669 49.9862 205.669 50.7032C205.669 51.4202 205.086 52.0055 204.372 52.0055Z" fill="white"/>
<path d="M172.247 88.7096C171.532 88.7096 170.949 88.1243 170.949 87.4073C170.949 86.6903 171.532 86.105 172.247 86.105C172.961 86.105 173.544 86.6903 173.544 87.4073C173.544 88.1194 172.956 88.7096 172.247 88.7096Z" fill="white"/>
<path d="M173.559 11.6337C173.024 11.6337 172.587 11.1947 172.587 10.6581C172.587 10.1216 173.024 9.68262 173.559 9.68262C174.093 9.68262 174.531 10.1216 174.531 10.6581C174.531 11.1947 174.093 11.6337 173.559 11.6337Z" fill="white"/>
<path d="M237.294 11.3069C236.672 11.3069 236.156 10.7947 236.156 10.1655C236.156 9.5412 236.667 9.02417 237.294 9.02417C237.916 9.02417 238.431 9.53632 238.431 10.1655C238.431 10.7947 237.92 11.3069 237.294 11.3069Z" fill="white"/>
<path d="M266.974 43.216C266.26 43.216 265.677 42.6307 265.677 41.9136C265.677 41.1966 266.26 40.6113 266.974 40.6113C267.689 40.6113 268.272 41.1966 268.272 41.9136C268.272 42.6307 267.689 43.216 266.974 43.216Z" fill="white"/>
<path d="M269.108 97.1625C268.393 97.1625 267.81 96.5772 267.81 95.8602C267.81 95.1432 268.393 94.5579 269.108 94.5579C269.822 94.5579 270.405 95.1432 270.405 95.8602C270.405 96.5772 269.822 97.1625 269.108 97.1625Z" fill="white"/>
<path d="M266.192 172.278C265.478 172.278 264.895 171.692 264.895 170.975C264.895 170.258 265.478 169.673 266.192 169.673C266.906 169.673 267.489 170.258 267.489 170.975C267.489 171.692 266.906 172.278 266.192 172.278Z" fill="white"/>
<path d="M56.2694 176.18C55.555 176.18 54.9719 175.595 54.9719 174.878C54.9719 174.161 55.555 173.575 56.2694 173.575C56.9837 173.575 57.5668 174.161 57.5668 174.878C57.5668 175.595 56.9837 176.18 56.2694 176.18Z" fill="white"/>
<path d="M214.805 143.368C214.562 141.978 214.353 140.583 214.183 139.183C214.09 138.432 214.013 137.642 214.285 136.935C214.562 136.208 215.169 135.671 215.752 135.159C216.982 134.081 218.269 132.974 219.834 132.516C220.456 132.33 221.195 132.277 221.7 132.691C222.176 133.081 222.288 133.754 222.371 134.364C222.434 134.847 222.468 135.413 222.099 135.73C222.628 137.061 223.153 138.515 223.085 139.944C223.075 140.168 223.061 140.398 222.944 140.588C222.861 140.72 222.735 140.817 222.609 140.91C221.506 141.744 220.398 142.578 219.295 143.412C218.357 144.119 217.419 144.827 216.447 145.48C216.126 145.695 215.781 145.914 215.393 145.914C215.014 145.914 214.873 143.749 214.805 143.368Z" fill="#FEB75B"/>
<path d="M117.963 186.374C117.327 185.033 116.642 183.716 115.84 182.472L132.998 168.346L140.384 149.192C141.424 146.49 144.456 145.149 147.153 146.187C149.85 147.231 151.196 150.26 150.156 152.962L142.032 174.043C141.555 175.282 140.627 176.292 139.432 176.873L118.376 187.111C118.24 186.857 118.104 186.613 117.963 186.374Z" fill="#F3725F"/>
<path d="M125.354 174.634L115.835 182.472C116.637 183.716 117.322 185.033 117.958 186.374C118.104 186.613 118.24 186.857 118.367 187.106L129.397 181.74C128.255 179.248 126.929 176.863 125.354 174.634Z" fill="#FEB75B"/>
<path d="M116.885 181.701C112.637 185.54 108.658 190.193 107.754 195.846C107.691 196.232 107.739 196.763 108.123 196.842C108.871 195.886 109.557 194.881 110.164 193.827C109.887 196.139 110.805 198.563 112.545 200.114C112.88 199.763 112.822 199.202 112.74 198.724C112.477 197.202 112.22 195.676 111.957 194.154C111.797 193.227 112.895 192.593 113.464 191.847C113.648 191.608 113.886 191.34 114.188 191.374C114.61 191.418 114.732 191.969 114.746 192.393C114.79 193.505 114.882 194.617 115.019 195.72C115.057 196.037 115.125 196.388 115.388 196.563C115.446 196.603 115.519 196.632 115.587 196.612C115.655 196.593 115.699 196.529 115.738 196.466C116 196.032 116.19 195.554 116.292 195.056C116.933 191.964 118.658 189.788 118.405 186.638C118.969 186.199 120.092 185.033 120.655 184.594C120.927 184.384 120.233 184.379 120.31 184.043C120.417 183.594 120.101 183.155 119.766 182.833C119.023 182.097 117.915 181.945 116.885 181.701Z" fill="#FEB75B"/>
<path d="M174.817 143.573C176.98 142.212 180.046 142.7 181.669 144.661C182.247 145.363 185.386 152.436 189.575 163.025L215.616 141.115C217.745 142.48 218.901 142.559 219.684 143.027C215.84 147.597 211.996 152.163 208.152 156.733C203.4 162.381 199.25 168.62 193.783 173.634C188.55 178.433 184.138 175.531 181.888 169.6C179.38 162.981 177.276 155.513 173.685 149.377C172.257 147.441 172.733 144.885 174.817 143.573Z" fill="#F3725F"/>
<path d="M176.319 157.933C176.314 157.933 176.314 157.928 176.319 157.933C176.314 157.928 176.314 157.933 176.319 157.933Z" fill="#F3725F"/>
<path d="M206.826 155.479C207.054 156.123 207.307 156.772 207.589 157.416C207.778 157.186 207.963 156.962 208.152 156.733C211.996 152.163 215.84 147.597 219.683 143.027C218.906 142.559 217.749 142.48 215.616 141.115L205.314 149.782C205.669 151.728 206.175 153.645 206.826 155.479Z" fill="#FEB75B"/>
<path d="M176.319 157.933C176.314 157.933 176.314 157.928 176.319 157.933C176.314 157.928 176.314 157.933 176.319 157.933Z" fill="#FEB75B"/>
<path d="M183.802 213.328H141.395C141.429 205.085 142.236 199.251 143.28 194.871C144.826 188.379 146.896 185.072 147.751 181.804C147.78 181.682 147.814 181.56 147.843 181.438C147.999 178.98 148.169 176.526 148.339 174.068C148.402 173.166 148.47 172.258 148.533 171.356C148.635 169.985 148.737 168.61 148.839 167.239L151.323 167.434L151.595 167.454L166.469 168.615L176.392 169.39L179.58 169.639L179.978 173.205L180.765 180.292L181.645 188.203L183.802 213.328Z" fill="#FEB75B"/>
<path d="M179.944 161.801C179.706 165.42 180.226 169.063 180.702 172.678C180.872 173.96 181.037 175.243 181.159 176.516C181.265 177.648 181.368 178.828 180.954 179.887C180.901 180.028 180.838 180.16 180.77 180.292C179.662 182.379 176.834 182.999 174.409 183.223C168.077 183.808 161.682 183.75 155.36 183.052C153.621 182.857 151.886 182.618 150.161 182.33C149.354 182.194 148.533 182.043 147.751 181.804C147.027 181.584 146.332 181.287 145.705 180.857C144.495 180.028 143.713 178.838 143.256 177.472C142.629 175.599 142.619 173.404 142.974 171.395C143.013 171.185 143.052 170.975 143.096 170.771C143.878 167.166 145.481 163.644 145.234 159.967C145.083 157.757 144.281 155.669 143.309 153.616C142.201 151.27 140.87 148.982 140.049 146.631C139.762 145.817 139.538 144.987 139.407 144.153C139.247 143.149 139.223 142.129 139.383 141.085C139.582 139.793 140.049 138.608 140.714 137.539C142.721 134.32 146.546 132.111 150.287 130.891C151.39 130.53 152.508 130.228 153.635 129.974C158.694 128.847 163.995 128.794 169.078 129.808C170.264 130.042 171.435 130.335 172.587 130.686C173.233 130.886 173.879 131.101 174.516 131.335C176.839 132.189 178.894 133.559 180.546 135.301C181.518 136.325 182.354 137.481 183.02 138.729C183.792 140.183 184.346 141.773 184.623 143.451C185.245 147.148 184.118 149.963 182.816 152.738C181.679 155.167 180.405 157.562 180.056 160.489C180.012 160.932 179.968 161.366 179.944 161.801Z" fill="#5D515D"/>
<path d="M149.403 174.414C140.127 171.629 132.818 163.152 131.428 153.562C133.294 149.416 135.831 144.188 138.368 140.407C139.257 139.086 140.214 137.754 141.56 136.9C142.906 136.047 144.728 135.764 146.079 136.608C147.085 137.232 147.663 138.344 148.154 139.422C153.388 150.875 153.509 162.513 149.403 174.414Z" fill="#5D515D"/>
<path d="M196.432 154.909C193.482 162.381 187.243 167.839 180.702 172.678C179.434 173.614 178.156 174.531 176.887 175.434C177.057 170.463 175.323 164.42 174.336 159.547C174.166 158.703 173.977 157.86 173.777 157.021C172.135 150.109 169.759 143.261 170.186 136.213C170.191 136.115 170.196 136.013 170.206 135.915C170.264 135.125 170.376 134.291 170.867 133.672C171.066 133.428 171.309 133.233 171.581 133.081C172.062 132.813 172.631 132.676 173.185 132.623C175.872 132.364 178.331 133.647 180.551 135.31C181.445 135.979 182.301 136.71 183.117 137.427C183.234 137.53 183.35 137.632 183.462 137.73C185.095 139.169 186.727 140.603 188.36 142.037C192.374 145.568 198.395 149.929 196.432 154.909Z" fill="#5D515D"/>
<path d="M169.885 130.164C168 132.686 164.744 133.945 161.6 134.027C158.461 134.11 154.821 132.915 152.814 130.491C153.096 130.335 153.368 130.164 153.635 129.974C153.635 129.974 153.635 129.974 153.64 129.974C155.914 128.36 157.367 125.648 157.518 122.863C157.557 122.194 157.518 121.521 157.392 120.863H164.049C164.03 121.497 164.102 122.087 164.253 122.648C164.345 123.014 164.472 123.365 164.627 123.711C165.191 125.004 166.085 126.184 166.94 127.482C167.523 128.365 168.189 129.267 169.073 129.803C169.073 129.803 169.073 129.803 169.078 129.803C169.331 129.964 169.598 130.086 169.885 130.164Z" fill="#F3725F"/>
<path d="M169.312 105.874V115.941C169.312 119.117 167.169 121.814 164.263 122.653C163.66 122.824 163.024 122.921 162.363 122.921H162.344C160.429 122.921 158.694 122.136 157.436 120.868C156.58 120.009 155.944 118.926 155.628 117.717C155.477 117.151 155.395 116.556 155.395 115.941V105.874C155.395 102.035 158.519 98.8989 162.339 98.8989H162.358C166.182 98.8941 169.312 102.035 169.312 105.874Z" fill="#F3725F"/>
<path d="M169.312 114.322V115.941C169.312 119.117 167.169 121.814 164.263 122.653C163.66 122.824 163.024 122.921 162.363 122.921H162.344C160.429 122.921 158.694 122.136 157.436 120.868C156.58 120.009 155.944 118.926 155.628 117.717L155.633 117.653C156.984 116.795 156.916 114.215 156.916 114.215C156.916 114.215 169.04 114 169.253 114.215L169.312 114.322Z" fill="#5D515D"/>
<path d="M151.352 113.376C151.352 114.859 152.552 116.058 154.029 116.058C155.511 116.058 156.707 114.859 156.707 113.376C156.707 111.893 155.506 110.693 154.029 110.693C152.552 110.693 151.352 111.898 151.352 113.376Z" fill="#F3725F"/>
<path d="M153.038 201.295C156.498 204.455 159.384 208.192 161.566 212.347C161.755 212.708 162.3 212.386 162.11 212.03C159.904 207.835 156.979 204.046 153.485 200.851C153.188 200.573 152.741 201.021 153.038 201.295Z" fill="#E2933D"/>
<path d="M164.175 212.44C164.175 208.314 164.175 204.192 164.175 200.065C164.175 199.661 163.544 199.656 163.544 200.065C163.544 204.192 163.544 208.314 163.544 212.44C163.544 212.85 164.175 212.85 164.175 212.44Z" fill="#E2933D"/>
<path d="M175.046 183.404C175.225 188.018 177.811 192.354 181.771 194.705C182.121 194.915 182.437 194.368 182.087 194.159C178.321 191.925 175.847 187.793 175.677 183.404C175.663 182.999 175.031 182.994 175.046 183.404Z" fill="#E2933D"/>
<path d="M143.334 170.951C142.586 166.317 142.396 161.61 142.746 156.928C142.785 156.421 142.002 156.426 141.964 156.928C141.604 161.684 141.818 166.454 142.581 171.156C142.658 171.658 143.412 171.444 143.334 170.951Z" fill="#928093"/>
<path d="M181.552 172.029C183.059 167.868 184.191 163.586 184.935 159.22C185.017 158.723 184.264 158.513 184.181 159.011C183.438 163.371 182.306 167.659 180.799 171.819C180.624 172.297 181.382 172.502 181.552 172.029Z" fill="#928093"/>
<path d="M181.1 172.297C180.979 167.888 181.202 163.483 181.761 159.108C181.824 158.606 181.042 158.611 180.979 159.108C180.42 163.483 180.197 167.888 180.318 172.297C180.328 172.804 181.115 172.804 181.1 172.297Z" fill="#928093"/>
<path d="M149.549 171.463C150.691 174.98 152.581 178.936 156.546 179.818C158.461 180.243 160.264 179.609 161.838 178.521C163.636 177.277 165.269 175.755 166.95 174.355C169.025 172.624 171.1 170.892 173.175 169.161C173.564 168.839 173.005 168.283 172.621 168.605C169.36 171.326 166.11 174.068 162.834 176.775C161.411 177.95 159.788 179.175 157.863 179.179C156.085 179.184 154.418 178.228 153.232 176.945C151.77 175.355 150.968 173.282 150.312 171.258C150.147 170.775 149.389 170.98 149.549 171.463Z" fill="#928093"/>
<path d="M213.838 133.481L209.299 154.709V155.977H223.323V154.596L218.551 133.481H213.838Z" fill="#71CFB7"/>
<path d="M213.923 130.742H218.491V127.508H213.923V130.742Z" fill="#FDFDFD"/>
<path d="M220.689 126.989L223.804 130.082L222.988 130.872C222.988 130.872 218.614 129.794 218.537 127.638L220.689 126.989Z" fill="white"/>
<path d="M221.496 127.003H223.648V124.486H221.496V127.003Z" fill="white"/>
<path d="M221.501 127.004L218.755 128.799L212.822 128.73V124.341H221.501V127.004Z" fill="white"/>
<path d="M213.838 133.481H218.551C219.343 133.481 219.995 132.852 219.995 132.081C219.995 131.311 219.343 130.681 218.551 130.681H213.838C213.046 130.681 212.395 131.311 212.395 132.081C212.395 132.852 213.041 133.481 213.838 133.481Z" fill="#FDFDFD"/>
<path d="M212.822 124.341L210.018 126.906C209.489 127.394 209.843 128.257 210.572 128.257H212.006H213.92L212.822 124.341Z" fill="#FDFDFD"/>
<path d="M215.229 152.919H216.867V147.817H215.229V152.919Z" fill="#FDFDFD"/>
<path d="M218.679 151.162V149.572H213.416V151.162H218.679Z" fill="#FDFDFD"/>
<path d="M224.159 124.341H221.049V127.355H224.159V124.341Z" fill="#71CFB7"/>
<path d="M222.21 133.759H217.929C216.928 133.759 216.112 132.94 216.112 131.935C216.112 130.93 216.928 130.111 217.929 130.111H222.21C223.211 130.111 224.028 130.93 224.028 131.935C224.033 132.94 223.211 133.759 222.21 133.759Z" fill="#FEB75B"/>
<path d="M155.545 111.361C158.854 110.883 161.921 108.908 163.733 106.084C164.715 107.947 166.688 109.644 168.631 110.439C171.673 111.683 175.172 111.883 178.248 110.742C181.324 109.596 183.914 107.049 184.861 103.894C185.153 102.928 185.289 101.904 185.134 100.909C184.667 97.9966 181.29 95.9382 178.501 96.8747C176.197 97.6503 174.701 99.9574 172.451 100.87C171.688 98.9428 169.258 97.4308 167.446 96.4406C165.633 95.4505 163.568 94.9822 161.508 94.8261C159.335 94.6603 156.998 94.8847 155.288 96.2358C153.354 97.7673 152.659 100.474 152.916 102.933C153.169 105.391 154.496 109.122 155.545 111.361Z" fill="#5D515D"/>
<path d="M160.607 93.0302C161.185 89.459 158.769 86.0942 155.211 85.5146C151.653 84.935 148.301 87.3602 147.724 90.9313C147.146 94.5025 149.562 97.8673 153.12 98.4469C156.678 99.0264 160.03 96.6013 160.607 93.0302Z" fill="#5D515D"/>
<path d="M162.295 113.141H159.656C159.127 113.141 158.694 112.707 158.694 112.176C158.694 111.644 159.127 111.21 159.656 111.21H162.295C162.825 111.21 163.257 111.644 163.257 112.176C163.257 112.707 162.825 113.141 162.295 113.141Z" fill="#FDFDFD"/>
<path d="M159.656 113.141H160.648C161.172 112.6 161.556 111.951 161.799 111.21H159.656C159.127 111.21 158.694 111.644 158.694 112.176C158.694 112.707 159.127 113.141 159.656 113.141Z" fill="#5D515D"/>
<path d="M168.641 113.102H166.003C165.473 113.102 165.041 112.668 165.041 112.137C165.041 111.605 165.473 111.171 166.003 111.171H168.641C169.171 111.171 169.603 111.605 169.603 112.137C169.608 112.668 169.171 113.102 168.641 113.102Z" fill="#FDFDFD"/>
<path d="M166.003 113.102H166.994C167.519 112.561 167.903 111.912 168.146 111.171H166.003C165.473 111.171 165.041 111.605 165.041 112.137C165.041 112.668 165.473 113.102 166.003 113.102Z" fill="#5D515D"/>
<path d="M155.545 111.361C155.482 111.064 159.287 117.868 159.287 117.868" stroke="#5D515D" stroke-width="1.7615" stroke-miterlimit="10" stroke-linecap="round" stroke-linejoin="round"/>
<path d="M159.753 108.913C160.701 109.532 161.697 110.088 162.722 110.561" stroke="#5D515D" stroke-width="1.7615" stroke-miterlimit="10" stroke-linecap="round" stroke-linejoin="round"/>
<path d="M167.747 109.381C166.994 110.034 166.119 110.547 165.181 110.888" stroke="#5D515D" stroke-width="1.7615" stroke-miterlimit="10" stroke-linecap="round" stroke-linejoin="round"/>
<path d="M144.719 133.569C146.303 132.393 148.091 131.452 150.039 131.067" stroke="#928093" stroke-width="1.335" stroke-miterlimit="10" stroke-linecap="round" stroke-linejoin="round"/>
<path d="M133.43 148.967C135.816 143.924 138.824 139.105 142.838 135.203" stroke="#928093" stroke-width="1.335" stroke-miterlimit="10" stroke-linecap="round" stroke-linejoin="round"/>
<path d="M131.428 153.562C131.807 152.626 132.196 151.694 132.609 150.768" stroke="#928093" stroke-width="1.335" stroke-miterlimit="10" stroke-linecap="round" stroke-linejoin="round"/>
</g>
</svg>
