<svg width="34" height="32" viewBox="0 0 34 32" fill="none" xmlns="http://www.w3.org/2000/svg">
<path d="M33.9983 23.3197C33.9543 23.5811 33.9068 23.8425 33.8696 24.1056C33.751 24.9394 33.4766 25.727 33.1362 26.4946C32.6331 27.6279 31.9302 28.6405 31.129 29.5852C30.5599 30.2552 29.9653 30.9038 29.1913 31.367C28.5984 31.7211 27.9632 31.9163 27.2637 31.9345C25.7257 31.9759 24.2352 31.7294 22.7852 31.2413C21.6368 30.8525 20.546 30.3462 19.5619 29.6348C18.8302 29.1054 18.4271 28.3956 18.2814 27.5221C18.1899 26.9728 18.2085 26.4218 18.1967 25.8693C18.0832 25.6922 18.151 25.4953 18.1374 25.3084C18.1865 24.4878 18.2221 23.6655 18.3 22.8465C18.3712 22.1186 18.4525 21.3923 18.6134 20.6759C18.8386 19.6683 19.2299 18.7368 19.9176 17.9411C21.0389 16.6456 22.4668 15.8961 24.1843 15.6777C24.7365 15.6066 25.2955 15.5421 25.8561 15.6248C25.9628 15.6413 26.0746 15.6248 26.183 15.6149C26.3456 15.6215 26.5015 15.6811 26.6675 15.6777C26.9012 15.729 27.1468 15.7175 27.3704 15.8151C27.9887 15.9822 28.6204 16.1096 29.2251 16.3263C30.4599 16.7697 31.5863 17.3802 32.4671 18.353C33.2005 19.1604 33.6087 20.1249 33.8323 21.1755C33.9035 21.5048 33.9153 21.8423 34 22.1682C33.9983 22.552 33.9983 22.9359 33.9983 23.3197Z" fill="white"/>
<path d="M0 19.7394C0.108404 19.5525 0.0999352 19.3374 0.15075 19.1355C0.382803 18.2355 0.809645 17.4149 1.22463 16.5893C2.62542 13.7999 4.0262 11.0105 5.43038 8.22269C5.87416 7.34251 6.47716 6.58808 7.30543 6.0206C8.67912 5.07921 10.1002 5.17186 11.3249 6.29028C11.4519 6.40609 11.5146 6.38789 11.6399 6.29855C12.4868 5.69467 12.6748 4.84096 12.6325 3.88799C12.5986 3.14514 12.5105 2.39732 12.7019 1.66274C12.9001 0.904992 13.3117 0.320966 14.1146 0.071142C14.1756 0.0529429 14.2416 0.0479795 14.306 0.0380527C14.4364 -0.00827232 14.577 0.0579063 14.7074 0C14.7227 0 14.7362 0 14.7515 0C15.7847 0.228316 16.3403 0.913265 16.6045 1.86789C16.7129 2.26 16.7451 2.66369 16.7603 3.06903C16.784 3.71262 16.7773 4.35952 16.9297 4.99318C17.1008 5.70294 17.5513 6.17446 18.2018 6.49543C18.3119 6.55003 18.344 6.48219 18.3982 6.43256C18.8403 6.01894 19.3383 5.69632 19.9379 5.54742C20.7781 5.3373 21.5521 5.51599 22.2652 5.96435C23.2595 6.58973 23.915 7.4848 24.3537 8.54035C25.3632 10.9658 26.3643 13.3929 27.3687 15.8183C27.1299 15.8365 26.9012 15.7704 26.6708 15.7323C26.5912 15.6744 26.5574 15.5884 26.5218 15.5023C25.7206 13.5385 24.9008 11.5813 24.0912 9.62071C23.8422 9.01683 23.6237 8.39806 23.2493 7.84713C22.936 7.38884 22.5854 6.96861 22.1246 6.64599C22.0552 6.59139 21.9891 6.53514 21.9061 6.50039C21.1575 6.04872 20.3783 5.95938 19.5873 6.373C19.0199 6.66915 18.5795 7.11254 18.2407 7.64859C17.7698 8.39641 17.5649 9.22861 17.4345 10.0823C17.304 10.931 17.2719 11.7914 17.1753 12.6434C17.0957 13.3449 16.9551 14.0315 16.7332 14.7032C16.4554 15.547 16.1285 16.3775 15.9134 17.2412C15.7152 18.037 15.6136 18.8427 15.5475 19.6584C15.4629 20.7073 15.5628 21.7413 15.7339 22.7721C15.8253 23.3197 15.9693 23.8557 16.2556 24.3438C16.6418 25.0023 17.2193 25.3017 17.9951 25.2356C18.0696 25.2289 18.1408 25.2306 18.2001 25.2852C18.2001 25.4821 18.1984 25.6773 18.1984 25.8742C17.0229 25.995 16.1455 25.5648 15.5984 24.5291C15.4629 24.271 15.3545 23.9997 15.2748 23.7184C15.0157 22.8118 14.9174 21.882 14.8751 20.9439C14.7819 18.8692 15.2037 16.8822 15.949 14.9531C16.3843 13.8247 16.5418 12.6484 16.6299 11.4572C16.6739 10.8698 16.7248 10.2825 16.8281 9.70178C16.8416 9.62733 16.8535 9.57439 16.7637 9.53137C16.3928 9.34938 16.0659 9.0979 15.7186 8.87951C15.5357 8.7637 15.346 8.65947 15.1461 8.57675C14.7142 8.39806 14.2941 8.40799 13.8995 8.66443C13.5556 8.88779 13.2253 9.13265 12.8866 9.36262C12.8273 9.40398 12.8256 9.45196 12.8324 9.50986C13.0017 10.7524 12.9035 12.0048 12.9967 13.2506C13.0644 14.1573 13.3117 15.0225 13.5522 15.8911C13.9079 17.1783 14.0943 18.4903 14.0739 19.8221C14.0502 21.2979 13.8588 22.7489 13.3151 24.1386C13.1965 24.4447 13.0339 24.7293 12.8374 24.994C12.2598 25.7683 11.4756 26.081 10.5169 25.9404C9.10935 25.7352 7.72042 25.4324 6.32302 25.1743C5.33214 24.9923 4.33617 24.8335 3.37747 24.5142C2.21551 24.1271 1.23479 23.5099 0.604693 22.4445C0.321825 21.9663 0.138893 21.4551 0.0491207 20.9108C0.0423454 20.8727 0.0592836 20.8231 0.00169382 20.8049C0.00169382 20.7619 0.00169382 20.7189 0.00169382 20.6775C0.037264 20.5915 0.037264 20.5071 0.00169382 20.4211C0.00169382 20.335 0.00169382 20.2507 0.00169382 20.1646C0.037264 20.0786 0.037264 19.9942 0.00169382 19.9082C0 19.8536 0 19.7957 0 19.7394Z" fill="#2E2E2E"/>
<path d="M14.7074 0.00163492C14.5804 0.0843582 14.4415 0.0347242 14.306 0.0396876C14.3111 0.0264519 14.3128 0.0148706 14.3145 0.00163492C14.4466 0.00163492 14.577 0.00163492 14.7074 0.00163492Z" fill="#404040"/>
<path d="M0 20.421C0.0609774 20.5071 0.074528 20.5915 0 20.6775C0 20.5915 0 20.5071 0 20.421Z" fill="#404040"/>
<path d="M0 19.9098C0.0728341 19.9958 0.0626712 20.0802 0 20.1663C0 20.0802 0 19.9942 0 19.9098Z" fill="#3A3A3A"/>
<path d="M18.1984 25.2819C18.0459 25.2885 17.8935 25.3001 17.7427 25.2984C16.8924 25.2869 16.386 24.8071 16.0591 24.0973C15.7288 23.3826 15.6255 22.6166 15.5391 21.8472C15.2765 19.5211 15.6831 17.2892 16.5266 15.1169C16.9348 14.0679 17.1093 12.971 17.1973 11.8559C17.2837 10.7607 17.3532 9.6621 17.7173 8.60987C18.0171 7.74789 18.4999 7.01496 19.274 6.48719C20.1259 5.90482 21.1541 5.90316 21.9536 6.47561C22.0298 6.5302 22.0874 6.60465 22.167 6.65429C22.8462 7.2499 23.2527 8.01426 23.5729 8.82825C24.1843 10.3768 24.789 11.9287 25.4005 13.479C25.6596 14.1341 25.9171 14.7893 26.1712 15.4478C26.1966 15.5123 26.2406 15.5768 26.1881 15.648C26.0458 15.734 25.8849 15.7042 25.7443 15.681C25.2701 15.6016 24.8077 15.6959 24.3402 15.7257C23.6677 15.7687 23.0241 15.9408 22.4126 16.2039C20.6002 16.9864 19.3603 18.2769 18.8098 20.1597C18.5541 21.0316 18.4406 21.9267 18.3661 22.83C18.3136 23.4703 18.2441 24.1105 18.2356 24.7541C18.2356 24.9295 18.1882 25.1049 18.1984 25.2819Z" fill="#FFEBB5"/>
<path d="M23.9997 25.8394C23.9997 25.6243 24.0082 25.4142 24.1572 25.2355C24.2436 25.133 24.3469 25.0767 24.4807 25.1181C24.6247 25.1611 24.6129 25.2835 24.6162 25.3993C24.6196 25.5102 24.5671 25.6574 24.7704 25.664C24.8839 25.6674 24.9499 25.6574 24.9719 25.5168C25.0295 25.166 25.1396 24.8285 25.3243 24.5192C25.4056 24.3835 25.3073 24.2875 25.248 24.1883C25.1888 24.0906 25.099 24.1088 24.999 24.1486C24.8618 24.2048 24.7788 24.1403 24.7433 24.0046C24.6721 23.7267 25.0651 23.1956 25.4377 23.2733C25.6562 23.318 25.763 23.4917 25.6495 23.6803C25.597 23.7664 25.5394 23.8375 25.6444 23.9169C25.7596 24.0063 25.7985 23.8838 25.851 23.8342C26.183 23.5281 26.5574 23.2882 26.9927 23.1509C27.2417 23.0731 27.1383 22.8895 27.1366 22.7456C27.1349 22.6182 27.0926 22.4858 26.9029 22.5073C26.8487 22.5139 26.7792 22.5206 26.7589 22.4461C26.7437 22.3948 26.7691 22.3518 26.8013 22.3104C26.9723 22.0904 27.3992 21.9795 27.6516 22.0954C27.8243 22.1748 27.8548 22.3386 27.7125 22.466C27.5618 22.6 27.7058 22.7241 27.7227 22.8498C27.7346 22.9491 27.8091 22.9772 27.9107 22.9822C28.4443 23.0037 28.9592 23.1013 29.4368 23.3494C29.5114 23.3891 29.5893 23.4454 29.6553 23.3279C29.7129 23.2254 29.8264 23.1327 29.6892 23.0136C29.5995 22.9358 29.5419 22.8283 29.6062 22.7307C29.674 22.6264 29.8044 22.6678 29.9026 22.7059C30.0839 22.7737 30.2804 22.8101 30.4243 22.9573C30.5192 23.0533 30.5446 23.1608 30.4633 23.2634C30.382 23.366 30.2651 23.3461 30.177 23.2684C30.0788 23.1823 30.0483 23.2353 30.0077 23.318C29.923 23.4884 29.8925 23.6026 30.1093 23.7416C30.526 24.0063 30.8495 24.3752 31.09 24.8054C31.1408 24.8947 31.1747 24.9609 31.3034 24.8997C31.4254 24.8418 31.4186 24.7806 31.3593 24.6863C31.3322 24.6416 31.2797 24.587 31.3475 24.5374C31.4051 24.4943 31.4559 24.5357 31.5033 24.5688C31.7269 24.7227 31.8234 24.946 31.8573 25.1991C31.8658 25.2554 31.8878 25.3365 31.7997 25.3629C31.7252 25.3844 31.649 25.3729 31.6032 25.3067C31.5406 25.219 31.483 25.1793 31.3729 25.2422C31.2543 25.31 31.3238 25.3944 31.3407 25.4655C31.4745 26.0198 31.4389 26.5591 31.1984 27.0819C31.1544 27.1762 31.1662 27.2407 31.2425 27.3069C31.3136 27.3681 31.3797 27.4343 31.444 27.5022C31.5185 27.5799 31.5914 27.6147 31.6828 27.522C31.7709 27.4343 31.8912 27.4178 31.9793 27.4889C32.0843 27.5733 32.0521 27.704 31.986 27.8C31.8251 28.0332 31.6049 28.2036 31.3441 28.3244C31.3034 28.3426 31.2611 28.3608 31.2255 28.3211C31.195 28.2847 31.195 28.2351 31.2204 28.2003C31.3661 28.0018 31.2357 27.9257 31.0714 27.8579C31.0189 27.8364 30.9714 27.8 30.924 27.7685C30.8495 27.7205 30.7868 27.7073 30.7157 27.7834C30.3752 28.1375 29.9653 28.4071 29.552 28.6702C29.4385 28.743 29.4301 28.8042 29.4826 28.925C29.5622 29.112 29.6045 29.3105 29.8874 29.2493C29.9653 29.2327 30.028 29.2906 30.0568 29.3601C30.094 29.4511 30.0585 29.5438 29.9873 29.5901C29.7502 29.744 29.4944 29.8614 29.2048 29.8862C29.1387 29.8929 29.0676 29.8879 29.0371 29.8151C29.0083 29.7473 29.0422 29.6761 29.0964 29.6463C29.2556 29.5553 29.2438 29.4726 29.1252 29.3518C29.0405 29.2658 29.0049 29.0971 28.9101 29.0656C28.8203 29.0342 28.6848 29.1351 28.5679 29.1732C28.2359 29.2807 27.8972 29.2675 27.5567 29.2195C27.489 29.2096 27.4043 29.1699 27.3704 29.2658C27.3348 29.3667 27.3941 29.423 27.4907 29.4561C27.5516 29.4759 27.6177 29.4974 27.6651 29.5371C27.8057 29.6546 27.782 29.825 27.6075 29.8912C27.2942 30.012 26.9673 30.007 26.6488 29.9127C26.5607 29.8862 26.4794 29.8118 26.4947 29.7042C26.515 29.5702 26.6302 29.5024 26.7471 29.514C26.9554 29.5322 26.9842 29.4098 27.0079 29.2642C27.035 29.0954 26.891 29.0938 26.7894 29.0574C26.3541 28.9051 25.9544 28.6983 25.6546 28.3426C25.6071 28.2864 25.5597 28.2516 25.4886 28.293C25.4039 28.341 25.3005 28.3708 25.2989 28.4981C25.2955 28.738 25.121 28.8274 24.9093 28.6868C24.7856 28.604 24.6806 28.4899 24.5773 28.3807C24.5129 28.3145 24.4536 28.2351 24.5112 28.1325C24.5756 28.0167 24.7111 28.0266 24.7788 28.068C25.016 28.2169 25.1091 28.063 25.2311 27.9125C25.2989 27.8297 25.2938 27.7735 25.2531 27.6858C25.0922 27.3351 24.9855 26.9694 24.9567 26.5839C24.933 26.2745 24.6349 26.1372 24.3554 26.301C24.208 26.387 24.0505 26.3192 24.0132 26.1422C23.9963 26.0413 24.0048 25.9387 23.9997 25.8394Z" fill="#FFEBB5"/>
<path d="M23.9946 18.2554C24.142 18.2256 24.2453 18.2852 24.3334 18.3779C24.3655 18.4109 24.4299 18.4374 24.4062 18.4953C24.3842 18.5532 24.3266 18.5334 24.2741 18.5334C24.1606 18.5317 24.147 18.5996 24.2182 18.6657C24.4536 18.8808 24.6061 19.134 24.6637 19.4466C24.6857 19.5625 24.8822 19.6055 24.9821 19.5161C25.0329 19.4715 25.0753 19.4136 25.1447 19.4549C25.2141 19.4963 25.2158 19.5625 25.1955 19.6419C25.165 19.7593 25.1345 19.8718 25.0261 19.986C25.0024 19.8172 24.8906 19.8189 24.7704 19.8222C24.6298 19.8255 24.6484 19.9413 24.6145 20.0191C24.5536 20.163 24.4994 20.3086 24.4435 20.4559C24.3859 20.6048 24.4333 20.671 24.5891 20.6494C24.6535 20.6395 24.728 20.6097 24.7704 20.671C24.8178 20.7388 24.7721 20.8099 24.7314 20.8678C24.6908 20.9257 24.6383 20.977 24.5874 21.0267C24.5078 21.1061 24.4587 21.1359 24.4316 20.9803C24.4113 20.8579 24.3198 20.7884 24.2063 20.9208C24.0742 21.0746 23.9269 21.207 23.7321 21.2848C23.6846 21.303 23.6067 21.3178 23.6525 21.4006C23.6846 21.4585 23.6948 21.5462 23.8032 21.5048C23.8659 21.48 23.9218 21.5015 23.9472 21.5627C23.976 21.6289 23.9556 21.6918 23.8981 21.7348C23.8235 21.791 23.7439 21.8423 23.6626 21.887C23.5983 21.9234 23.5153 21.9465 23.4594 21.8886C23.3984 21.8241 23.439 21.7579 23.5051 21.71C23.5983 21.6421 23.5169 21.5842 23.4915 21.5263C23.4644 21.4601 23.4289 21.3973 23.3323 21.4171C23.0291 21.48 22.7293 21.48 22.438 21.3278C22.3872 21.4188 22.5278 21.5247 22.3889 21.5925C22.2788 21.6454 22.1924 21.5759 22.0941 21.571C22.0382 21.5677 21.9993 21.5313 21.9976 21.4734C21.9959 21.4155 22.0332 21.3824 22.0874 21.3691C22.2991 21.3195 22.2212 21.2053 22.1399 21.1077C22.0349 20.982 21.9027 20.8811 21.8011 20.7487C21.7147 20.6346 21.6165 20.7073 21.5521 20.7835C21.4607 20.8893 21.3878 20.8529 21.3218 20.7702C21.2693 20.704 21.2252 20.6296 21.188 20.5535C21.1422 20.4559 21.1422 20.3516 21.2455 20.2888C21.3455 20.2259 21.381 20.3318 21.4353 20.3781C21.4657 20.4046 21.4759 20.4575 21.5369 20.4294C21.6046 20.398 21.5792 20.3516 21.564 20.3037C21.5149 20.1465 21.5115 19.9843 21.5047 19.8206C21.4996 19.6981 21.4776 19.5542 21.2828 19.6766C21.1981 19.7296 21.127 19.6965 21.0948 19.6055C21.0474 19.4764 21.0762 19.349 21.149 19.2398C21.2117 19.1455 21.3726 19.1737 21.4234 19.2812C21.4437 19.3259 21.4437 19.3871 21.5115 19.3821C21.5606 19.3788 21.5758 19.3259 21.586 19.2878C21.6131 19.1737 21.6876 19.0843 21.7469 18.9884C21.8485 18.8262 21.791 18.7121 21.6012 18.6988C21.5809 18.6972 21.5504 18.7104 21.5403 18.7005C21.4911 18.6542 21.4962 18.5896 21.525 18.5433C21.5877 18.4407 21.6605 18.3365 21.8062 18.3382C21.8773 18.3398 21.9349 18.3564 21.9332 18.4457C21.9282 18.6426 22.0196 18.6657 22.1754 18.5714C22.3685 18.454 22.582 18.3894 22.8039 18.3481C22.8564 18.3382 22.9275 18.353 22.9444 18.2753C22.9597 18.2058 22.914 18.1711 22.8597 18.1446C22.8123 18.1214 22.7666 18.0949 22.7869 18.0321C22.8055 17.9775 22.853 17.9626 22.9055 17.956C22.9766 17.946 23.0478 17.9229 23.1189 17.9229C23.1748 17.9229 23.2341 17.9494 23.251 18.0139C23.2646 18.0701 23.2459 18.1131 23.1833 18.1231C23.1138 18.133 23.0749 18.1628 23.102 18.2372C23.1223 18.2951 23.1562 18.3382 23.2256 18.3365C23.4627 18.3266 23.6846 18.3845 23.8981 18.4804C23.954 18.5053 23.9929 18.4953 24.0336 18.454C24.1233 18.3646 23.9827 18.3348 23.9946 18.2554Z" fill="#FFEBB5"/>
<path d="M22.1771 27.9671C22.1771 28.2252 22.0399 28.3609 21.7808 28.3609C21.5132 28.3609 21.42 28.255 21.4166 27.9539C21.4149 27.6792 21.5657 27.4873 21.7825 27.4923C21.9976 27.4973 22.1754 27.7123 22.1771 27.9671Z" fill="#F7BA28"/>
<path d="M26.7826 18.4059C26.7776 18.1759 26.9249 17.9972 27.1231 17.9923C27.3043 17.9873 27.5211 18.2173 27.5279 18.4191C27.533 18.6143 27.3568 18.7947 27.1638 18.7914C26.9571 18.7881 26.7877 18.616 26.7826 18.4059Z" fill="#F7BA28"/>
<path d="M20.3343 23.093C20.5189 23.0914 20.6442 23.2022 20.6493 23.3677C20.6527 23.548 20.5291 23.6621 20.3309 23.6588C20.1446 23.6555 20.0277 23.5447 20.0277 23.3743C20.0277 23.2055 20.1479 23.0947 20.3343 23.093Z" fill="#F7BA28"/>
<path d="M25.912 21.3674C26.0441 21.3823 26.1221 21.4551 26.1221 21.5759C26.1238 21.7198 26.0526 21.8241 25.89 21.8274C25.7579 21.8307 25.6783 21.743 25.6766 21.6305C25.6732 21.4865 25.7765 21.4038 25.912 21.3674Z" fill="#F7BA28"/>
<path d="M31.9081 21.2202C31.8996 21.3525 31.8387 21.4419 31.6964 21.4419C31.5778 21.4419 31.4965 21.3724 31.5101 21.2549C31.5253 21.1325 31.5744 21.0117 31.7354 21.0167C31.8607 21.02 31.903 21.1093 31.9081 21.2202Z" fill="#F7BA28"/>
<path d="M11.894 9.19558C11.916 9.36764 11.938 9.53805 11.9617 9.71012C12.0549 9.92354 12.06 10.1519 12.0634 10.3769C12.0718 10.9443 12.0684 11.5118 12.0651 12.081C12.06 13.1646 12.1904 14.2318 12.475 15.2807C12.7392 16.2568 12.934 17.2462 13.017 18.2538C13.1593 19.9959 12.9967 21.7133 12.5105 23.3942C12.2937 24.1404 11.9465 24.8237 11.3113 25.3299C10.9658 25.4226 10.6185 25.3779 10.2781 25.315C8.34713 24.9527 6.41617 24.5937 4.4903 24.2082C3.61968 24.0345 2.78632 23.74 2.06984 23.1973C0.797782 22.2328 0.315044 20.6461 0.801169 19.0463C1.02306 18.3166 1.37029 17.6383 1.71075 16.9583C3.11831 14.1557 4.52757 11.353 5.93852 8.55199C6.41279 7.6106 7.04458 6.80322 8.00836 6.28868C9.03651 5.7394 10.1206 5.90319 10.9251 6.73704C11.0928 6.91076 11.2012 7.13411 11.3164 7.34588C11.4045 7.37897 11.4451 7.45177 11.4807 7.53118C11.6806 7.97127 11.811 8.43287 11.9075 8.90439C11.9296 9.00697 11.8991 9.09962 11.894 9.19558Z" fill="#FFEBB5"/>
<path d="M17.0568 6.44251C17.2702 6.61292 17.4887 6.77506 17.7309 6.90576C17.8359 6.96201 17.8799 7.0133 17.7902 7.14069C17.4412 7.62711 17.2143 8.17143 17.0483 8.74056C16.9771 8.98211 16.9754 8.98377 16.7485 8.83983C16.3826 8.60821 16.0354 8.34845 15.6492 8.14992C14.8717 7.75119 14.118 7.76277 13.393 8.27069C13.2338 8.3832 13.0763 8.49736 12.9205 8.61317C12.7036 8.772 12.7036 8.772 12.6359 8.52714C12.5004 8.03907 12.3107 7.57251 12.038 7.14069C11.872 6.87763 11.8686 6.87433 12.1227 6.67414C12.6799 6.23239 13.0441 5.67649 13.1728 4.98327C13.2609 4.51175 13.244 4.03526 13.222 3.56043C13.1965 2.99957 13.144 2.44036 13.2711 1.88446C13.3541 1.51882 13.4997 1.18296 13.7877 0.919903C14.4415 0.324295 15.1495 0.643607 15.5222 1.087C15.5916 1.16973 15.6966 1.23921 15.7152 1.35999C15.7661 1.4361 15.7966 1.52378 15.8355 1.60651C16.0151 2.06148 16.0726 2.53962 16.0794 3.02273C16.0896 3.63819 16.1014 4.25531 16.2115 4.86249C16.2911 5.29927 16.4554 5.70627 16.7078 6.07522C16.779 6.1629 16.8484 6.25225 16.9314 6.33001C16.9687 6.36971 17.0144 6.40446 17.0568 6.44251Z" fill="#F7BA28"/>
<path d="M11.3113 25.3299C11.2893 25.3133 11.2131 25.3084 11.2622 25.272C12.1277 24.6168 12.4021 23.6605 12.6274 22.6877C12.7697 22.0772 12.8849 21.4601 12.9255 20.8297C12.9577 20.3284 13.0153 19.8304 13.0051 19.3275C12.9814 18.2388 12.8645 17.1601 12.6122 16.0963C12.4326 15.3402 12.2107 14.5924 12.1057 13.823C12.0498 13.4177 12.0176 13.0074 12.0092 12.5987C11.9939 11.9039 12.0075 11.2073 12.0007 10.5125C11.999 10.2444 11.9753 9.97641 11.9617 9.70839C11.9905 9.70673 12.0227 9.7117 12.0481 9.70177C12.2039 9.64221 12.2548 9.68357 12.27 9.85398C12.3378 10.6183 12.3547 11.386 12.3462 12.152C12.331 13.4491 12.5749 14.7032 12.9408 15.9424C13.31 17.1982 13.4913 18.482 13.476 19.7874C13.4591 21.1341 13.2829 22.461 12.8256 23.7383C12.6528 24.2247 12.4072 24.6763 11.9905 25.0139C11.7924 25.176 11.5738 25.3001 11.3113 25.3299Z" fill="#FEFEFE"/>
<path d="M16.7129 6.14469C16.2335 5.58052 16.1167 4.89888 16.0608 4.19904C16.0066 3.52071 16.0574 2.83741 15.9304 2.16404C15.8931 1.96882 15.8406 1.77855 15.7965 1.58498C15.7711 1.54031 15.7982 1.53535 15.8338 1.53866C16.0675 1.95393 16.1133 2.41056 16.1472 2.86885C16.1929 3.50251 16.1607 4.14113 16.2708 4.77148C16.3521 5.24466 16.5079 5.68475 16.762 6.09505C16.7756 6.13807 16.7552 6.15131 16.7129 6.14469Z" fill="#FBFAFA"/>
<path d="M11.894 9.19554C11.7957 8.5503 11.6348 7.92491 11.3164 7.34585C11.3858 7.32434 11.435 7.31607 11.4875 7.39714C11.7974 7.88024 11.9871 8.40802 12.1226 8.95895C12.1447 9.0516 12.1057 9.088 12.0244 9.10785C11.9702 9.11944 11.9075 9.1244 11.894 9.19554Z" fill="#F76F39"/>
<path d="M16.7129 6.14474C16.7281 6.1282 16.7451 6.11165 16.7603 6.09511C16.8179 6.16625 16.8755 6.23739 16.9348 6.30854C16.9483 6.32012 16.9517 6.3317 16.9466 6.34163C16.9416 6.35155 16.9365 6.35817 16.9331 6.35817C16.8416 6.30357 16.7705 6.23078 16.7129 6.14474Z" fill="#D8CFD1"/>
<path d="M15.8338 1.53703C15.8219 1.55192 15.8084 1.56847 15.7965 1.58336C15.7491 1.51552 15.7085 1.44438 15.7118 1.36C15.7915 1.39475 15.8101 1.46754 15.8338 1.53703Z" fill="#FBF3F5"/>
<path d="M22.1331 6.59632C22.1314 6.61452 22.1297 6.63437 22.128 6.65257C22.0535 6.60956 21.9908 6.55496 21.9536 6.47554C22.0264 6.49705 22.0823 6.54172 22.1331 6.59632Z" fill="#FEFBFB"/>
<path d="M16.9331 6.35651C16.9331 6.33997 16.9348 6.32342 16.9348 6.30853C16.9822 6.34658 17.0381 6.37802 17.055 6.44254C17.0025 6.43096 16.9568 6.40945 16.9331 6.35651Z" fill="#D4C0C5"/>
<path d="M30.0365 26.8818C30.0314 27.3169 29.8027 27.6362 29.4572 27.8744C29.1777 28.068 28.8101 27.977 28.6221 27.6941C28.2867 27.1878 28.4561 26.4781 28.9897 26.1687C29.2082 26.043 29.4318 26.0446 29.652 26.1654C29.901 26.3027 30.0382 26.5641 30.0365 26.8818Z" fill="#F7BA28"/>
<path d="M27.013 25.669C26.6353 25.6657 26.3541 25.4572 26.3609 25.1859C26.3694 24.8732 26.6776 24.5175 26.9453 24.5142C27.3027 24.5109 27.6719 24.7574 27.6685 24.9973C27.6651 25.3083 27.3094 25.6706 27.013 25.669Z" fill="#F7BA28"/>
<path d="M28.451 24.5076C28.451 24.1254 28.6323 24.0063 28.9931 24.1569C29.3403 24.3025 29.5537 24.5804 29.6994 24.9014C29.8247 25.1793 29.6655 25.3795 29.3572 25.3746C28.8982 25.368 28.451 24.9411 28.451 24.5076Z" fill="#F7BA28"/>
<path d="M26.6438 27.0207C26.9707 27.0273 27.2857 27.3169 27.2772 27.6031C27.2705 27.8132 27.1231 27.934 26.8843 27.9274C26.5235 27.9158 26.2237 27.6643 26.2305 27.3781C26.2355 27.1448 26.3846 27.0158 26.6438 27.0207Z" fill="#F7BA28"/>
<path d="M24.1826 19.9181C24.1826 20.1663 24.1149 20.259 23.9336 20.259C23.7355 20.259 23.5695 20.077 23.5695 19.8619C23.5695 19.6435 23.6762 19.5178 23.8625 19.5227C24.0624 19.5277 24.1809 19.6733 24.1826 19.9181Z" fill="#F7BA28"/>
<path d="M23.0071 18.7964C23.1951 18.7881 23.3239 18.8328 23.4357 18.9139C23.5491 18.9949 23.5661 19.0992 23.4492 19.1968C23.2934 19.3258 22.9377 19.2729 22.8242 19.1041C22.7751 19.0297 22.7446 18.9453 22.7937 18.8659C22.853 18.7683 22.9614 18.8063 23.0071 18.7964Z" fill="#F7BA28"/>
<path d="M22.8936 20.9769C22.7361 20.972 22.6176 20.9124 22.6159 20.7585C22.6159 20.6113 22.7429 20.5567 22.875 20.555C23.0207 20.5534 23.168 20.5964 23.168 20.7685C23.168 20.9356 23.0139 20.9504 22.8936 20.9769Z" fill="#F7BA28"/>
<path d="M22.1026 19.445C22.2754 19.4301 22.3262 19.5211 22.3364 19.6369C22.3516 19.7974 22.2398 19.9099 22.0789 19.9148C21.9315 19.9181 21.8706 19.8437 21.8638 19.708C21.8553 19.5211 21.9705 19.4598 22.1026 19.445Z" fill="#F7BA28"/>
<path d="M11.7365 12.2629C11.7687 12.4747 11.7094 12.6782 11.6873 12.88C11.6535 13.1894 11.3875 13.3648 11.0759 13.1563C10.9167 13.0505 10.8049 12.9148 10.7456 12.7477C10.583 12.2993 10.5948 11.8361 10.6287 11.3662C10.7015 10.3768 10.8794 9.3825 10.5576 8.40141C10.4272 8.00103 10.1849 7.66848 9.90545 7.35744C9.74793 7.18206 9.67001 6.9918 9.68695 6.75687C9.70558 6.50208 9.95966 6.36145 10.1866 6.49215C10.4695 6.65429 10.6338 6.919 10.749 7.20026C11.1182 8.09367 11.3723 9.02183 11.5214 9.9748C11.6162 10.582 11.7111 11.1875 11.6992 11.8046C11.6975 11.9585 11.7602 12.1107 11.7365 12.2629Z" fill="#F7BA28"/>
</svg>
