<svg width="117" height="136" viewBox="0 0 117 136" fill="none" xmlns="http://www.w3.org/2000/svg">
<path d="M111.267 26.3085C111.267 26.3085 83.8289 22.6552 55.7276 0.155287V0L55.6293 0.0735529L55.531 0V0.155287C27.4297 22.6225 0 26.3085 0 26.3085C0.58971 108.356 52.0255 133.373 55.531 135.008V135.098L55.6293 135.057L55.7276 135.098V135.008C59.2331 133.373 110.677 108.364 111.267 26.3085Z" fill="#443FE0"/>
<path d="M66.588 39.565H46.0956V93.4324H66.588V39.565Z" fill="white"/>
<path d="M83.3292 76.7189V56.2703H29.3462V76.7189L83.3292 76.7189Z" fill="white"/>
<path d="M73.73 109.672C73.73 107.424 75.6794 105.52 76.3428 103.493C77.0062 101.466 76.5885 98.7121 77.8662 96.9549C79.1439 95.1977 81.8549 94.7809 83.5995 93.4978C85.3441 92.2146 86.5644 89.7791 88.6694 89.1008C90.7743 88.4224 93.1167 89.681 95.3609 89.681C97.6051 89.681 100.029 88.4469 102.061 89.1008C104.092 89.7546 105.386 92.2228 107.131 93.4978C108.875 94.7727 111.602 95.1896 112.864 96.9549C114.125 98.7202 113.683 101.385 114.387 103.493C115.092 105.602 117 107.424 117 109.672C117 111.919 115.042 113.824 114.387 115.842C113.732 117.861 114.133 120.632 112.864 122.381C111.594 124.13 108.875 124.563 107.131 125.846C105.386 127.129 104.166 129.556 102.061 130.235C99.9558 130.913 97.6133 129.655 95.3609 129.655C93.1086 129.655 90.7006 130.897 88.6694 130.235C86.6381 129.573 85.3441 127.113 83.5995 125.846C81.8549 124.579 79.1275 124.146 77.8662 122.381C76.6049 120.615 77.0472 117.951 76.3428 115.842C75.6384 113.734 73.73 111.903 73.73 109.672Z" fill="white"/>
<path d="M77.465 110.113C77.465 108.274 79.357 106.754 79.9221 105.095C80.4872 103.436 79.8647 101.009 80.9131 99.6029C81.9615 98.1971 84.394 98.0255 85.8274 96.9712C87.2607 95.9169 88.1289 93.702 89.857 93.1054C91.5852 92.5088 93.5509 93.8655 95.3938 93.8655C97.2366 93.8655 99.276 92.566 100.939 93.1054C102.601 93.6448 103.535 95.9251 104.968 96.9712C106.402 98.0173 108.842 98.1563 109.883 99.6029C110.923 101.049 110.308 103.371 110.874 105.095C111.439 106.82 113.331 108.274 113.331 110.113C113.331 111.952 111.439 113.48 110.874 115.139C110.308 116.799 110.923 119.226 109.883 120.632C108.842 122.037 106.402 122.209 104.968 123.263C103.535 124.318 102.659 126.573 100.939 127.129C99.2187 127.685 97.2448 126.369 95.3938 126.369C93.5427 126.369 91.4787 127.652 89.8407 127.129C88.2026 126.606 87.2443 124.309 85.811 123.263C84.3776 122.217 81.9369 122.078 80.8967 120.632C79.8565 119.185 80.4626 116.864 79.9057 115.139C79.3487 113.415 77.465 111.96 77.465 110.113Z" fill="#443FE0"/>
<path d="M84.1073 105.659C84.1073 106.467 84.3475 107.257 84.7975 107.929C85.2474 108.601 85.887 109.125 86.6353 109.434C87.3836 109.744 88.207 109.825 89.0014 109.667C89.7958 109.509 90.5255 109.12 91.0982 108.548C91.6709 107.977 92.061 107.249 92.219 106.456C92.377 105.664 92.2959 104.842 91.986 104.095C91.676 103.348 91.1511 102.71 90.4777 102.261C89.8042 101.812 89.0124 101.573 88.2025 101.573C87.1164 101.573 86.0748 102.003 85.3068 102.769C84.5388 103.536 84.1073 104.575 84.1073 105.659Z" fill="white"/>
<path d="M87.3835 116.97C87.3835 117.467 87.531 117.952 87.8073 118.364C88.0836 118.777 88.4763 119.098 88.9357 119.288C89.3952 119.478 89.9007 119.528 90.3885 119.431C90.8763 119.334 91.3243 119.095 91.676 118.744C92.0276 118.394 92.2671 117.946 92.3641 117.46C92.4611 116.973 92.4113 116.469 92.221 116.01C92.0307 115.552 91.7084 115.16 91.2949 114.884C90.8814 114.608 90.3953 114.461 89.898 114.461C89.2311 114.461 88.5915 114.726 88.12 115.196C87.6484 115.667 87.3835 116.305 87.3835 116.97Z" fill="white"/>
<path d="M103.239 115.691C106.819 114.851 109.038 111.274 108.196 107.702C107.353 104.13 103.769 101.915 100.189 102.756C96.609 103.596 94.3898 107.173 95.2321 110.745C96.0743 114.317 99.6591 116.532 103.239 115.691Z" fill="white"/>
</svg>
