<svg width="31" height="25" viewBox="0 0 31 25" fill="none" xmlns="http://www.w3.org/2000/svg">
<path d="M1.0221 9.48166V15.2735C1.0221 18.1695 2.47007 19.6174 5.366 19.6174H7.4366C7.97235 19.6174 8.5081 19.7767 8.97145 20.0518L13.1995 22.7016C16.8484 24.9894 19.8457 23.3242 19.8457 19.0238V5.73142C19.8457 1.41647 16.8484 -0.234218 13.1995 2.05357L8.97145 4.70336C8.5081 4.97847 7.97235 5.13775 7.4366 5.13775H5.366C2.47007 5.13775 1.0221 6.58572 1.0221 9.48166Z" stroke="white" stroke-width="2"/>
<path d="M24.1897 6.58573C26.7671 10.0174 26.7671 14.7378 24.1897 18.1695" stroke="white" stroke-width="2" stroke-linecap="round" stroke-linejoin="round"/>
<path d="M26.8395 2.96573C31.0241 8.54041 31.0241 16.2146 26.8395 21.7893" stroke="white" stroke-width="2" stroke-linecap="round" stroke-linejoin="round"/>
</svg>
