<svg width="17" height="16" viewBox="0 0 17 16" fill="none" xmlns="http://www.w3.org/2000/svg">
<path d="M16.0766 11.5599C16.0766 12.2489 15.8852 12.8996 15.5407 13.4507C14.9053 14.5149 13.7416 15.2345 12.4019 15.2345C11.0622 15.2345 9.89093 14.5149 9.26318 13.4507C8.92634 12.8996 8.7273 12.2489 8.7273 11.5599C8.7273 9.53116 10.3732 7.88524 12.4019 7.88524C14.4306 7.88524 16.0766 9.53116 16.0766 11.5599Z" stroke="#19CFE5" stroke-width="1.5" stroke-miterlimit="10" stroke-linecap="round" stroke-linejoin="round"/>
<path d="M10.9704 11.5598L11.8737 12.4632L13.8335 10.6565" stroke="#19CFE5" stroke-width="1.5" stroke-linecap="round" stroke-linejoin="round"/>
<path d="M16.0765 5.04498C16.0765 6.55311 15.6861 7.88514 15.0736 9.04112C14.4 8.32916 13.4507 7.88518 12.4019 7.88518C10.3732 7.88518 8.72725 9.5311 8.72725 11.5598C8.72725 12.5014 9.08705 13.3588 9.66887 14.0096C9.38562 14.1397 9.12533 14.2469 8.89567 14.3234C8.63538 14.4153 8.20667 14.4153 7.94639 14.3234C5.7263 13.5655 0.765548 10.4038 0.765548 5.04498C0.765548 2.67944 2.67176 0.765548 5.022 0.765548C6.40764 0.765548 7.64782 1.43926 8.42103 2.47275C9.19423 1.43926 10.4344 0.765548 11.8201 0.765548C14.1703 0.765548 16.0765 2.67944 16.0765 5.04498Z" stroke="#19CFE5" stroke-width="1.5" stroke-linecap="round" stroke-linejoin="round"/>
</svg>
