<svg width="13" height="19" viewBox="0 0 13 19" fill="none" xmlns="http://www.w3.org/2000/svg">
<path d="M6.4958 8.22605C6.4116 8.21763 6.31056 8.21763 6.21794 8.22605C4.21405 8.1587 2.62273 6.51685 2.62273 4.49612C2.62273 2.4333 4.28983 0.757774 6.36108 0.757774C8.42391 0.757774 10.0994 2.4333 10.0994 4.49612C10.091 6.51685 8.49968 8.1587 6.4958 8.22605Z" stroke="#6461BC" stroke-width="1.5" stroke-linecap="round" stroke-linejoin="round"/>
<path d="M2.28595 11.333C0.248381 12.697 0.248381 14.9198 2.28595 16.2754C4.60137 17.8246 8.39866 17.8246 10.7141 16.2754C12.7516 14.9114 12.7516 12.6886 10.7141 11.333C8.40708 9.7922 4.60979 9.7922 2.28595 11.333Z" stroke="#6461BC" stroke-width="1.5" stroke-linecap="round" stroke-linejoin="round"/>
</svg>
