<svg width="19" height="19" viewBox="0 0 19 19" fill="none" xmlns="http://www.w3.org/2000/svg">
<path d="M18.1895 15.017C18.1895 15.3308 18.1198 15.6532 17.9716 15.967C17.8234 16.2808 17.6317 16.5771 17.3789 16.856C16.9519 17.3266 16.4812 17.6666 15.9496 17.8844C15.4266 18.1023 14.8601 18.2156 14.25 18.2156C13.361 18.2156 12.411 18.0065 11.4087 17.5794C10.4064 17.1523 9.40415 16.5771 8.41057 15.8537C7.40827 15.1216 6.45827 14.311 5.55185 13.4133C4.65414 12.5069 3.84359 11.5569 3.12019 10.5633C2.40551 9.56975 1.83028 8.57617 1.41193 7.5913C0.99358 6.59772 0.784405 5.64772 0.784405 4.7413C0.784405 4.14863 0.888993 3.58212 1.09817 3.05918C1.30734 2.52753 1.63854 2.03945 2.10046 1.60367C2.65826 1.05459 3.26836 0.784405 3.91331 0.784405C4.15735 0.784405 4.40139 0.836699 4.61928 0.941287C4.84588 1.04587 5.04634 1.20276 5.20322 1.42936L7.22525 4.27937C7.38213 4.49726 7.49543 4.69772 7.57387 4.88946C7.65231 5.07249 7.69589 5.25552 7.69589 5.42111C7.69589 5.63029 7.63488 5.83946 7.51286 6.03992C7.39956 6.24038 7.23396 6.44956 7.02479 6.65873L6.3624 7.34726C6.26653 7.44314 6.22295 7.55644 6.22295 7.69589C6.22295 7.76561 6.23167 7.82662 6.2491 7.89635C6.27524 7.96607 6.30139 8.01837 6.31882 8.07066C6.4757 8.35828 6.74589 8.73305 7.12937 9.18626C7.52158 9.63947 7.93993 10.1014 8.39314 10.5633C8.86378 11.0253 9.31699 11.4523 9.77892 11.8445C10.2321 12.228 10.6069 12.4895 10.9032 12.6464C10.9468 12.6638 10.9991 12.6899 11.0601 12.7161C11.1298 12.7422 11.1996 12.7509 11.278 12.7509C11.4262 12.7509 11.5395 12.6987 11.6353 12.6028L12.2977 11.9491C12.5156 11.7312 12.7248 11.5656 12.9253 11.461C13.1257 11.339 13.3262 11.278 13.5441 11.278C13.7097 11.278 13.884 11.3129 14.0757 11.3913C14.2675 11.4698 14.4679 11.5831 14.6858 11.7312L17.5707 13.7794C17.7973 13.9363 17.9542 14.1193 18.05 14.3372C18.1372 14.5551 18.1895 14.773 18.1895 15.017Z" stroke="#443FE0" stroke-width="1.5" stroke-miterlimit="10"/>
<path d="M15.1651 6.88529C15.1651 6.36236 14.7555 5.56052 14.1454 4.90685C13.5876 4.30547 12.8468 3.83483 12.1147 3.83483" stroke="#443FE0" stroke-width="1.5" stroke-linecap="round" stroke-linejoin="round"/>
<path d="M18.2156 6.88534C18.2156 3.51239 15.4876 0.784405 12.1147 0.784405" stroke="#443FE0" stroke-width="1.5" stroke-linecap="round" stroke-linejoin="round"/>
</svg>
