<svg width="15" height="18" viewBox="0 0 15 18" fill="none" xmlns="http://www.w3.org/2000/svg">
<path d="M7.29959 1.32564C4.50505 1.32564 2.23397 3.59673 2.23397 6.39126V8.8312C2.23397 9.3462 2.01446 10.1314 1.75274 10.5704L0.781827 12.1829C0.182396 13.1792 0.596088 14.2852 1.69364 14.6567C5.33244 15.8724 9.25829 15.8724 12.8971 14.6567C13.9187 14.3189 14.3661 13.1116 13.8089 12.1829L12.838 10.5704C12.5847 10.1314 12.3652 9.3462 12.3652 8.8312V6.39126C12.3652 3.60517 10.0857 1.32564 7.29959 1.32564Z" stroke="#7E808A" stroke-miterlimit="10" stroke-linecap="round"/>
<path d="M8.86157 1.57034C8.59985 1.49436 8.32968 1.43526 8.05107 1.40149C7.24057 1.30017 6.46385 1.35927 5.73777 1.57034C5.98261 0.945581 6.59049 0.506561 7.29967 0.506561C8.00886 0.506561 8.61673 0.945581 8.86157 1.57034Z" stroke="#7E808A" stroke-miterlimit="10" stroke-linecap="round" stroke-linejoin="round"/>
<path d="M9.83244 14.9606C9.83244 16.3537 8.69267 17.4934 7.29963 17.4934C6.60733 17.4934 5.96568 17.2064 5.50978 16.7505C5.05387 16.2946 4.76682 15.6529 4.76682 14.9606" stroke="#7E808A" stroke-miterlimit="10"/>
</svg>
