<svg width="65" height="65" viewBox="0 0 65 65" fill="none" xmlns="http://www.w3.org/2000/svg">
<path d="M32.5 65C50.4493 65 65 50.4493 65 32.5C65 14.5507 50.4493 0 32.5 0C14.5507 0 0 14.5507 0 32.5C0 50.4493 14.5507 65 32.5 65Z" fill="#EAEAFF"/>
<mask id="mask0_2_3419" style="mask-type:alpha" maskUnits="userSpaceOnUse" x="0" y="-1" width="65" height="66">
<path d="M32.5 64.5999C50.4493 64.5999 65 50.0491 65 32.0999C65 14.1506 50.4493 -0.400146 32.5 -0.400146C14.5507 -0.400146 0 14.1506 0 32.0999C0 50.0491 14.5507 64.5999 32.5 64.5999Z" fill="#F6F3EF"/>
</mask>
<g mask="url(#mask0_2_3419)">
<g opacity="0.4">
<g opacity="0.4">
<path opacity="0.4" d="M36.5366 21.7504C36.1733 21.9775 36.0371 22.4259 36.2471 22.8118C36.4288 23.1524 36.8545 23.3113 37.2234 23.2148C37.6264 23.107 37.9272 22.7154 37.8705 22.2953C37.8194 21.9378 37.5356 21.654 37.1837 21.5688C36.5196 21.4099 35.7931 21.8923 35.8271 22.6132C35.8441 22.9538 35.9974 23.2886 36.2698 23.4986C36.5423 23.7087 36.9055 23.7597 37.2348 23.6632C37.8534 23.4816 38.4097 22.7494 37.9953 22.1194C37.7002 21.6653 37.0985 21.4723 36.582 21.4723C36.0485 21.4666 35.5149 21.6767 35.2084 22.1194C34.919 22.5394 34.953 23.1184 35.2595 23.5157C35.9577 24.4182 37.4391 24.0492 38.1826 23.4022C38.631 23.0105 38.8183 22.3067 38.4721 21.7845C38.1713 21.3361 37.5867 21.0466 37.0701 20.9331C35.9463 20.689 34.7771 21.251 34.4138 22.3691C34.323 22.6416 34.2889 22.9538 34.357 23.2319C34.4365 23.5441 34.6465 23.7824 34.8963 23.9697C35.2992 24.2706 35.8498 24.3954 36.3436 24.3954C36.8488 24.3954 37.3937 24.2649 37.8137 23.9754C38.2167 23.6973 38.58 23.2886 38.6651 22.7891C38.7673 22.1818 38.5573 21.6142 38.0634 21.2396C37.581 20.865 36.9793 20.7912 36.389 20.899C36.1506 20.9445 35.9236 21.0296 35.6966 21.1147C35.3787 21.2339 35.129 21.5575 35.2425 21.9094C35.3447 22.2215 35.7022 22.4883 36.0371 22.3634C36.179 22.3124 36.3152 22.2613 36.4571 22.2159C36.5366 22.1932 36.6217 22.1705 36.7012 22.1534C36.7239 22.1478 36.8374 22.1364 36.7523 22.1421C36.6615 22.1534 36.8147 22.1421 36.8318 22.1421C36.8715 22.1421 36.9055 22.1421 36.9453 22.1421C37.1042 22.1421 36.9282 22.1478 36.9282 22.1364C36.9282 22.1307 37.1042 22.1818 37.1212 22.1818C37.2461 22.2159 37.1042 22.1818 37.0985 22.1705C37.0985 22.1705 37.1723 22.2045 37.1837 22.2102C37.212 22.2272 37.2348 22.2443 37.2631 22.2556C37.388 22.3237 37.1723 22.1648 37.2745 22.2613C37.2972 22.2783 37.3142 22.301 37.3369 22.3237C37.4221 22.3975 37.3142 22.3067 37.3142 22.2897C37.3142 22.2953 37.3596 22.3634 37.3653 22.3748C37.4448 22.4883 37.3483 22.3578 37.3596 22.3521C37.3653 22.3521 37.3823 22.4316 37.388 22.4429C37.4277 22.5621 37.371 22.4259 37.388 22.4089C37.388 22.4089 37.388 22.4883 37.388 22.4997C37.3937 22.6359 37.4277 22.3862 37.388 22.511C37.3767 22.5394 37.371 22.5735 37.3596 22.6018C37.3369 22.6927 37.3426 22.5621 37.3823 22.5564C37.3653 22.5564 37.3142 22.6756 37.3029 22.6983C37.2518 22.7891 37.3142 22.6813 37.3312 22.67C37.3142 22.6813 37.2915 22.7154 37.2745 22.7324C37.2291 22.7778 37.1439 22.8289 37.1099 22.88C37.1212 22.8629 37.2291 22.8005 37.1326 22.8573C37.1042 22.8743 37.0815 22.8913 37.0531 22.9083C37.0418 22.914 36.8885 23.0048 36.8828 22.9935C36.8772 22.9878 37.0361 22.9424 36.9055 22.9821C36.8715 22.9935 36.8431 23.0048 36.8147 23.0162C36.7353 23.0389 36.6558 23.0559 36.5707 23.0729C36.5253 23.0843 36.4798 23.1127 36.5934 23.0729C36.5707 23.0843 36.5139 23.0786 36.4912 23.0843C36.4231 23.09 36.355 23.09 36.2869 23.09C36.2528 23.09 36.1109 23.1013 36.0825 23.0729C36.0825 23.0729 36.2415 23.107 36.1052 23.0729C36.0655 23.0616 36.0258 23.0559 35.9804 23.0446C35.9066 23.0275 35.8385 23.0048 35.7647 22.9765C35.7022 22.9537 35.7079 22.9821 35.7817 22.9821C35.7647 22.9821 35.7022 22.9424 35.6966 22.9367C35.6682 22.9197 35.6398 22.9027 35.6114 22.8856C35.532 22.8346 35.6057 22.9027 35.6285 22.9027C35.6171 22.9027 35.566 22.8402 35.566 22.8402C35.4809 22.7608 35.6171 22.914 35.5774 22.8516C35.532 22.7778 35.6171 22.9821 35.5944 22.8913C35.5717 22.8062 35.583 23.0048 35.6001 22.9197C35.6057 22.897 35.6001 22.7891 35.5944 22.8856C35.5944 22.9878 35.6057 22.8459 35.6057 22.8346C35.6171 22.7721 35.6398 22.7154 35.6568 22.6586C35.6795 22.5848 35.6398 22.6189 35.6455 22.6813C35.6455 22.6529 35.6852 22.6018 35.7022 22.5735C35.7193 22.5451 35.7363 22.5224 35.7533 22.494C35.7931 22.4145 35.6795 22.5735 35.742 22.5053C35.7874 22.4543 35.8328 22.4089 35.8782 22.3634C35.8952 22.3464 35.9747 22.2897 35.9009 22.3407C35.8271 22.3918 35.9122 22.3351 35.9293 22.3237C35.9633 22.301 35.9974 22.284 36.0314 22.2613C36.0485 22.2499 36.1677 22.1818 36.0825 22.2329C36.0031 22.2726 36.0996 22.2272 36.1223 22.2216C36.1563 22.2102 36.1847 22.1988 36.2188 22.1932C36.2528 22.1818 36.2812 22.1761 36.3152 22.1705C36.3379 22.1648 36.4458 22.1421 36.355 22.1591C36.2642 22.1761 36.372 22.1591 36.3947 22.1591C36.4288 22.1591 36.4685 22.1534 36.5025 22.1534C36.5366 22.1534 36.5763 22.1534 36.6104 22.1591C36.6388 22.1591 36.6615 22.1648 36.6899 22.1648C36.6672 22.1648 36.6444 22.1591 36.6217 22.1591C36.6672 22.1421 36.8147 22.2045 36.8545 22.2159C36.8885 22.2272 36.9226 22.2386 36.9566 22.2499C36.9737 22.2556 37.0815 22.301 37.002 22.267C36.9226 22.2329 37.0247 22.2783 37.0418 22.2897C37.0701 22.3067 37.1042 22.318 37.1326 22.3351C37.2007 22.3691 37.2631 22.4089 37.3256 22.4486C37.4391 22.5224 37.3029 22.4372 37.3085 22.4316C37.3029 22.4429 37.3767 22.4826 37.3767 22.494C37.3767 22.4997 37.3085 22.3805 37.3539 22.4656C37.4107 22.5678 37.3483 22.4486 37.3426 22.4316C37.3823 22.5224 37.3426 22.4145 37.3369 22.3862C37.3539 22.5167 37.371 22.2953 37.3426 22.3634C37.3426 22.3691 37.3369 22.3805 37.3369 22.3862C37.3199 22.4429 37.3199 22.4429 37.3369 22.3918C37.3596 22.3407 37.3539 22.3464 37.3256 22.3975C37.3142 22.4089 37.3085 22.4259 37.2972 22.4372C37.3653 22.3975 37.3596 22.3691 37.3085 22.4089C37.2858 22.4316 37.2631 22.4486 37.2404 22.4713C37.1439 22.5621 37.2575 22.4543 37.2575 22.4599C37.2575 22.4656 37.1837 22.5053 37.178 22.511C37.1212 22.5451 37.0588 22.5735 37.002 22.6075C36.8942 22.6643 37.002 22.6132 37.0191 22.6018C36.985 22.6245 36.9226 22.6416 36.8828 22.6529C36.8204 22.6756 36.758 22.6927 36.6955 22.7097C36.6615 22.7154 36.6331 22.721 36.599 22.7324C36.4685 22.7664 36.6161 22.721 36.6274 22.7324C36.6161 22.721 36.4571 22.7437 36.4344 22.7437C36.4344 22.7437 36.3436 22.7494 36.3379 22.7381C36.4231 22.7494 36.4401 22.7551 36.3947 22.7437C36.372 22.7381 36.3493 22.7324 36.3266 22.7267C36.3152 22.721 36.2415 22.6983 36.2358 22.6983C36.2471 22.687 36.3663 22.7721 36.2698 22.7097C36.2585 22.704 36.2074 22.67 36.2017 22.67C36.2415 22.67 36.3096 22.7608 36.2471 22.6983C36.1733 22.6245 36.2812 22.7381 36.2812 22.7494C36.2812 22.7494 36.2528 22.6927 36.2471 22.6927C36.3209 22.7551 36.2869 22.8232 36.2755 22.7551C36.2698 22.7381 36.2642 22.721 36.2642 22.704C36.2528 22.6529 36.2585 22.6813 36.2755 22.7948C36.2755 22.7891 36.2755 22.7324 36.2755 22.7267C36.2812 22.7437 36.2358 22.8913 36.2698 22.8005C36.2755 22.7835 36.2925 22.7494 36.2925 22.7381C36.2925 22.7437 36.2301 22.897 36.2755 22.8005C36.3096 22.7324 36.3152 22.8289 36.2358 22.8459C36.2415 22.8459 36.2869 22.7891 36.2869 22.7948C36.2869 22.8459 36.1677 22.8686 36.2471 22.8289C36.2528 22.8232 36.3493 22.7721 36.3493 22.7721C36.3493 22.7891 36.196 22.8232 36.3096 22.7948C36.3436 22.7891 36.3777 22.7778 36.4117 22.7664C36.4174 22.7664 36.4231 22.7608 36.4344 22.7608C36.4912 22.7494 36.4912 22.7494 36.4344 22.7608C36.3777 22.7664 36.3777 22.7664 36.4344 22.7608C36.4515 22.7608 36.4628 22.7608 36.4798 22.7608C36.5423 22.7551 36.6388 22.7835 36.6955 22.7664C36.6785 22.7721 36.5423 22.7381 36.6501 22.7608C36.6899 22.7721 36.7353 22.7778 36.775 22.7891C36.8034 22.7948 36.8261 22.8062 36.8545 22.8175C36.968 22.8516 36.7693 22.7664 36.8318 22.8062C36.8545 22.8175 36.8772 22.8346 36.8999 22.8459C36.9737 22.8856 36.9396 22.8743 36.8942 22.8346C37.002 22.931 36.8261 22.6983 36.8261 22.687C36.8488 22.4656 36.8488 22.3975 36.8204 22.4883C36.8091 22.5337 36.8147 22.5167 36.8431 22.4372C36.8488 22.4259 36.9283 22.3351 36.8601 22.4089C36.7864 22.4883 36.9453 22.3634 36.8828 22.3918C36.8374 22.4145 36.8261 22.4599 36.8658 22.4089C36.9169 22.3862 36.9169 22.3862 36.8658 22.4089C36.8091 22.4202 36.8091 22.4259 36.8715 22.4145C36.8885 22.4145 36.8999 22.4089 36.9169 22.4089C36.8601 22.4089 36.8601 22.4089 36.9226 22.4202C36.9793 22.4316 36.985 22.4316 36.9282 22.4202C36.9566 22.4316 36.9793 22.4429 37.0077 22.4543C37.0191 22.4656 37.1099 22.5337 37.1099 22.5678C37.1099 22.5678 37.0191 22.3805 37.0985 22.5564C37.0758 22.511 37.0985 22.4543 37.0985 22.5848C37.0929 22.6132 37.0872 22.6359 37.0815 22.6643C37.0418 22.7437 37.0304 22.7664 37.0531 22.7267C37.0985 22.6586 36.9623 22.8289 37.0191 22.7664C37.0701 22.7154 36.8999 22.8402 37.002 22.7835C36.9453 22.8175 36.8999 22.8232 36.8374 22.8289C36.968 22.8289 36.7126 22.7778 36.8318 22.8232C36.6842 22.7664 36.7466 22.7835 36.7807 22.8062C36.6161 22.7154 36.565 22.5848 36.6217 22.4032C36.565 22.2272 36.6104 22.091 36.7693 22.0059C37.2291 21.7391 37.7342 22.5224 37.161 22.88C37.4504 22.6983 37.5867 22.2953 37.3937 21.9945C37.2404 21.6937 36.8488 21.5575 36.5366 21.7504Z" fill="#DD8DA6"/>
</g>
</g>
<g opacity="0.4">
<g opacity="0.4">
<path opacity="0.4" d="M44.7217 20.6211C44.3585 20.8481 44.2222 21.2965 44.4323 21.6825C44.6139 22.023 45.0396 22.1819 45.4085 22.0854C45.8115 21.9776 46.1123 21.586 46.0556 21.1659C46.0045 20.8084 45.7207 20.5246 45.3688 20.4394C44.7047 20.2805 43.9782 20.7629 44.0122 21.4838C44.0293 21.8244 44.1825 22.1592 44.455 22.3692C44.7274 22.5793 45.0907 22.6303 45.4199 22.5339C46.0386 22.3522 46.5948 21.62 46.1805 20.99C45.8853 20.5359 45.2836 20.3429 44.7671 20.3429C44.2336 20.3373 43.7001 20.5473 43.3935 20.99C43.1041 21.41 43.1381 21.989 43.4446 22.3863C44.1428 23.2888 45.6242 22.9198 46.3678 22.2728C46.8162 21.8811 47.0035 21.1773 46.6572 20.6551C46.3564 20.2067 45.7718 19.9172 45.2553 19.8037C44.1314 19.5596 42.9622 20.1216 42.5989 21.2397C42.5081 21.5122 42.474 21.8244 42.5422 22.1025C42.6216 22.4147 42.8316 22.653 43.0814 22.8404C43.4844 23.1412 44.0349 23.2661 44.5287 23.2661C45.0339 23.2661 45.5788 23.1355 45.9988 22.846C46.4018 22.5679 46.7651 22.1592 46.8502 21.6598C46.9524 21.0524 46.7424 20.4848 46.2486 20.1102C45.7661 19.7356 45.1645 19.6618 44.5742 19.7697C44.3358 19.8151 44.1087 19.9002 43.8817 19.9853C43.5638 20.1045 43.3141 20.4281 43.4276 20.78C43.5298 21.0922 43.8874 21.3589 44.2222 21.2341C44.3641 21.183 44.5004 21.1319 44.6423 21.0865C44.7217 21.0638 44.8069 21.0411 44.8863 21.024C44.909 21.0184 45.0226 21.007 44.9374 21.0127C44.8466 21.024 44.9998 21.0127 45.0169 21.0127C45.0566 21.0127 45.0907 21.0127 45.1304 21.0127C45.2893 21.0127 45.1134 21.0184 45.1134 21.007C45.1134 21.0013 45.2893 21.0524 45.3064 21.0524C45.4312 21.0865 45.2893 21.0524 45.2836 21.0411C45.2836 21.0411 45.3574 21.0751 45.3688 21.0808C45.3972 21.0978 45.4199 21.1149 45.4483 21.1262C45.5731 21.1943 45.3574 21.0354 45.4596 21.1319C45.4823 21.1489 45.4993 21.1716 45.522 21.1943C45.6072 21.2681 45.4993 21.1773 45.4993 21.1603C45.4993 21.1659 45.5447 21.2341 45.5504 21.2454C45.6299 21.3589 45.5334 21.2284 45.5447 21.2227C45.5504 21.2227 45.5674 21.3022 45.5731 21.3135C45.6129 21.4327 45.5561 21.2965 45.5731 21.2795C45.5731 21.2795 45.5731 21.3589 45.5731 21.3703C45.5788 21.5065 45.6129 21.2568 45.5731 21.3816C45.5618 21.41 45.5561 21.4441 45.5447 21.4724C45.522 21.5633 45.5277 21.4327 45.5674 21.427C45.5504 21.427 45.4993 21.5462 45.488 21.5689C45.4369 21.6598 45.4993 21.5519 45.5164 21.5406C45.4993 21.5519 45.4766 21.586 45.4596 21.603C45.4142 21.6484 45.3291 21.6995 45.295 21.7506C45.3064 21.7335 45.4142 21.6711 45.3177 21.7279C45.2893 21.7449 45.2666 21.7619 45.2382 21.7789C45.2269 21.7846 45.0736 21.8698 45.068 21.8641C45.0623 21.8584 45.2212 21.813 45.0907 21.8527C45.0566 21.8641 45.0282 21.8754 44.9998 21.8868C44.9204 21.9095 44.8409 21.9265 44.7558 21.9436C44.7104 21.9549 44.665 21.9833 44.7785 21.9436C44.7558 21.9549 44.699 21.9492 44.6763 21.9549C44.6082 21.9606 44.5401 21.9606 44.472 21.9606C44.4379 21.9606 44.296 21.9719 44.2676 21.9436C44.2676 21.9436 44.4266 21.9776 44.2904 21.9436C44.2506 21.9322 44.2109 21.9265 44.1655 21.9152C44.0917 21.8981 44.0236 21.8754 43.9498 21.8471C43.8874 21.8244 43.893 21.8527 43.9668 21.8527C43.9498 21.8527 43.8874 21.813 43.8817 21.8073C43.8533 21.7903 43.8249 21.7733 43.7965 21.7562C43.7171 21.7052 43.7909 21.7733 43.8136 21.7733C43.8022 21.7733 43.7511 21.7108 43.7511 21.7108C43.666 21.6314 43.8022 21.7846 43.7625 21.7222C43.7171 21.6484 43.8022 21.8527 43.7795 21.7619C43.7568 21.6768 43.7682 21.8754 43.7852 21.7903C43.7909 21.7676 43.7852 21.6598 43.7795 21.7562C43.7795 21.8584 43.7909 21.7165 43.7909 21.7052C43.8022 21.6427 43.8249 21.586 43.842 21.5292C43.8647 21.4554 43.8249 21.4895 43.8306 21.5519C43.8306 21.5235 43.8703 21.4724 43.8874 21.4441C43.9044 21.4157 43.9214 21.393 43.9384 21.3646C43.9782 21.2851 43.8647 21.4441 43.9271 21.376C43.9725 21.3249 44.0179 21.2795 44.0633 21.2341C44.0803 21.217 44.1598 21.1603 44.086 21.2113C44.0122 21.2624 44.0974 21.2057 44.1144 21.1943C44.1485 21.1716 44.1825 21.1546 44.2166 21.1319C44.2336 21.1205 44.3528 21.0524 44.2676 21.1035C44.1882 21.1432 44.2847 21.0978 44.3074 21.0922C44.3414 21.0808 44.3698 21.0695 44.4039 21.0638C44.4379 21.0524 44.4663 21.0467 44.5004 21.0411C44.5231 21.0354 44.6309 21.0127 44.5401 21.0297C44.4493 21.0467 44.5571 21.0297 44.5798 21.0297C44.6139 21.0297 44.6536 21.024 44.6877 21.024C44.7217 21.024 44.7615 21.024 44.7955 21.0297C44.8239 21.0297 44.8466 21.0354 44.875 21.0354C44.8523 21.0354 44.8296 21.0297 44.8069 21.0297C44.8523 21.0127 44.9998 21.0751 45.0396 21.0865C45.0736 21.0978 45.1077 21.1092 45.1417 21.1205C45.1588 21.1262 45.2666 21.1716 45.1872 21.1376C45.1077 21.1035 45.2099 21.1489 45.2269 21.1603C45.2553 21.1773 45.2893 21.1886 45.3177 21.2057C45.3858 21.2397 45.4483 21.2795 45.5107 21.3192C45.6242 21.393 45.488 21.3078 45.4937 21.3022C45.488 21.3135 45.5618 21.3532 45.5618 21.3646C45.5618 21.3703 45.4937 21.2511 45.5391 21.3362C45.5958 21.4384 45.5334 21.3192 45.5277 21.3022C45.5674 21.393 45.5277 21.2851 45.522 21.2568C45.5391 21.3873 45.5561 21.1659 45.5277 21.2341C45.5277 21.2397 45.522 21.2511 45.522 21.2568C45.505 21.3135 45.505 21.3135 45.522 21.2624C45.5447 21.2113 45.5391 21.217 45.5107 21.2681C45.4993 21.2795 45.4937 21.2965 45.4823 21.3078C45.5504 21.2681 45.5447 21.2397 45.4937 21.2795C45.471 21.3022 45.4483 21.3192 45.4255 21.3419C45.3291 21.4327 45.4426 21.3249 45.4426 21.3305C45.4426 21.3362 45.3688 21.376 45.3631 21.3816C45.3064 21.4157 45.2439 21.4441 45.1872 21.4781C45.0793 21.5349 45.1872 21.4838 45.2042 21.4724C45.1701 21.4951 45.1077 21.5122 45.068 21.5235C45.0055 21.5462 44.9431 21.5633 44.8807 21.5803C44.8466 21.586 44.8182 21.5916 44.7842 21.603C44.6536 21.637 44.8012 21.5916 44.8125 21.603C44.8012 21.5916 44.6423 21.6143 44.6196 21.6143C44.6196 21.6143 44.5287 21.62 44.5231 21.6087C44.6082 21.62 44.6252 21.6257 44.5798 21.6143C44.5571 21.6087 44.5344 21.603 44.5117 21.5973C44.5004 21.5916 44.4266 21.5689 44.4209 21.5689C44.4323 21.5576 44.5514 21.6427 44.455 21.5803C44.4436 21.5746 44.3925 21.5406 44.3868 21.5406C44.4266 21.5406 44.4947 21.6314 44.4323 21.5689C44.3585 21.4951 44.4663 21.6087 44.4663 21.62C44.4663 21.62 44.4379 21.5633 44.4323 21.5633C44.506 21.6257 44.472 21.6938 44.4606 21.6257C44.455 21.6087 44.4493 21.5916 44.4493 21.5746C44.4379 21.5235 44.4436 21.5519 44.4606 21.6654C44.4606 21.6598 44.4606 21.603 44.4606 21.5973C44.4663 21.6143 44.4209 21.7619 44.455 21.6711C44.4606 21.6541 44.4777 21.62 44.4777 21.6087C44.4777 21.6143 44.4152 21.7676 44.4606 21.6711C44.4947 21.603 44.5004 21.6995 44.4209 21.7165C44.4266 21.7165 44.472 21.6598 44.472 21.6654C44.472 21.7165 44.3528 21.7392 44.4323 21.6995C44.4379 21.6938 44.5344 21.6427 44.5344 21.6427C44.5344 21.6598 44.3812 21.6938 44.4947 21.6654C44.5287 21.6598 44.5628 21.6484 44.5969 21.637C44.6025 21.637 44.6082 21.6314 44.6196 21.6314C44.6763 21.62 44.6763 21.62 44.6196 21.6314C44.5628 21.637 44.5628 21.637 44.6196 21.6314C44.6366 21.6314 44.6479 21.6314 44.665 21.6314C44.7274 21.6257 44.8239 21.6541 44.8807 21.637C44.8636 21.6427 44.7274 21.6087 44.8352 21.6314C44.875 21.6427 44.9204 21.6484 44.9601 21.6598C44.9885 21.6654 45.0112 21.6768 45.0396 21.6881C45.1531 21.7222 44.9544 21.637 45.0169 21.6768C45.0396 21.6881 45.0623 21.7052 45.085 21.7165C45.1588 21.7562 45.1247 21.7449 45.0793 21.7052C45.1872 21.8017 45.0112 21.5689 45.0112 21.5576C45.0339 21.3362 45.0339 21.2681 45.0055 21.3589C44.9942 21.4043 44.9999 21.3873 45.0282 21.3078C45.0339 21.2965 45.1134 21.2057 45.0453 21.2795C44.9715 21.3589 45.1304 21.2341 45.068 21.2624C45.0226 21.2851 45.0112 21.3305 45.0509 21.2795C45.102 21.2568 45.102 21.2568 45.0509 21.2795C44.9942 21.2908 44.9942 21.2965 45.0566 21.2851C45.0736 21.2851 45.085 21.2795 45.102 21.2795C45.0453 21.2795 45.0453 21.2795 45.1077 21.2908C45.1645 21.3022 45.1701 21.3022 45.1134 21.2908C45.1418 21.3022 45.1645 21.3135 45.1928 21.3249C45.2042 21.3362 45.295 21.4043 45.295 21.4384C45.295 21.4384 45.2042 21.2511 45.2836 21.427C45.2609 21.3816 45.2836 21.3249 45.2836 21.4554C45.278 21.4838 45.2723 21.5065 45.2666 21.5349C45.2269 21.6143 45.2155 21.637 45.2382 21.5973C45.2836 21.5292 45.1474 21.6995 45.2042 21.637C45.2553 21.586 45.085 21.7108 45.1872 21.6541C45.1304 21.6881 45.085 21.6938 45.0226 21.6995C45.1531 21.6995 44.8977 21.6484 45.0169 21.6938C44.8693 21.637 44.9317 21.6541 44.9658 21.6768C44.8012 21.586 44.7501 21.4554 44.8069 21.2738C44.7501 21.0978 44.7955 20.9616 44.9544 20.8765C45.4142 20.6097 45.9194 21.393 45.3461 21.7506C45.6356 21.5689 45.7718 21.1659 45.5788 20.8651C45.4199 20.5643 45.0282 20.4281 44.7217 20.6211Z" fill="#DD8DA6"/>
</g>
</g>
<path d="M35.7137 25.474C35.7137 25.474 38.8355 25.1447 39.6358 23.4363" stroke="#F76F39" stroke-width="0.9328" stroke-miterlimit="10" stroke-linecap="round" stroke-linejoin="round"/>
<path d="M46.634 24.8779C46.634 24.8779 44.8518 24.6509 44.0344 23.0786" stroke="#F76F39" stroke-width="0.9328" stroke-miterlimit="10" stroke-linecap="round" stroke-linejoin="round"/>
<path d="M38.3586 28.6697C38.3586 28.6697 40.0954 26.6944 42.8085 28.034" stroke="#2E2E2E" stroke-width="1.1703" stroke-miterlimit="10" stroke-linecap="round"/>
<path d="M22.2618 21.8696C22.9372 21.4155 23.8964 21.3417 24.6911 21.6482C24.061 17.3232 24.9124 12.9583 28.2669 10.3133C28.9764 9.75708 29.7313 9.33706 30.5203 9.04759C34.2324 7.66833 38.5859 9.11002 41.6452 11.8004C44.7045 14.4908 46.5606 18.5151 46.9693 22.6245C47.5198 28.1359 45.2438 34.0332 39.687 35.5146C39.4032 35.5884 39.1194 35.6452 38.8299 35.6906L39.0286 44.7097C39.1364 48.524 35.833 51.5436 32.0471 51.0895C28.7664 50.6979 26.3598 47.8202 26.5528 44.5224C26.5528 44.5224 27.058 30.8433 27.0863 28.9816C27.0863 28.8794 26.9842 28.8284 26.899 28.8681C25.8206 29.3846 24.447 29.4414 23.3913 28.9475C22.0801 28.3345 21.0925 26.9439 20.8938 25.4284C20.7122 24.0662 21.2003 22.5848 22.2618 21.8696Z" stroke="#000402" stroke-width="1.191" stroke-miterlimit="10" stroke-linecap="round" stroke-linejoin="round"/>
<path d="M25.0032 26.1154C24.2085 26.1154 23.5615 25.6216 23.5615 25.0086C23.5615 24.5488 23.919 24.1515 24.4356 23.9812" stroke="#2E2E2E" stroke-width="1.258" stroke-miterlimit="10" stroke-linecap="round"/>
<path d="M38.9433 38.7898L38.9319 35.5488C38.9319 35.5488 33.517 36.6443 29.2147 31.7402C29.2147 31.7402 31.4453 37.5865 38.9433 38.7898Z" fill="#000402" stroke="#000402" stroke-width="0.696" stroke-miterlimit="10" stroke-linecap="round" stroke-linejoin="round"/>
<path d="M32.518 8.04877C35.9633 8.08282 48.3312 6.60707 45.7714 11.8063C43.2115 17.0055 32.535 13.7418 32.535 13.7418C32.535 13.7418 30.7811 26.2346 23.8451 21.5689C23.8451 21.5689 23.3513 20.78 22.2615 21.8754C22.2615 21.8698 16.6593 7.89552 32.518 8.04877Z" fill="#040302"/>
<path d="M35.5376 22.579C37.0417 22.159 39.1191 22.2839 39.1191 22.2839L37.5866 21.2622" stroke="#2E2E2E" stroke-width="1.0855" stroke-miterlimit="10" stroke-linecap="round" stroke-linejoin="round"/>
<path d="M45.9133 20.8195C45.9133 20.8195 44.4375 20.9047 43.4953 21.4212L44.2559 20.1611" stroke="#2E2E2E" stroke-width="1.0855" stroke-miterlimit="10" stroke-linecap="round" stroke-linejoin="round"/>
<path d="M59.7344 72.9307C59.7344 72.9307 53.4057 44.1024 39.2555 41.6277C34.7261 43.217 30.2874 42.7516 25.7978 41.1226C10.2229 45.232 5.85806 72.2836 5.85806 72.2836L59.7344 72.9307Z" fill="#443FE0"/>
<path d="M41.9514 24.8327C42.0365 24.583 42.1614 24.3786 42.3033 24.1856C42.4452 23.9927 42.6041 23.8224 42.7744 23.6578L42.8936 24.2367C42.536 24.0608 42.3714 23.8337 42.1954 23.618C42.0365 23.391 41.8889 23.164 41.7697 22.9256C41.5256 22.4545 41.3383 21.9607 41.2248 21.4385C41.5711 21.8415 41.8889 22.2501 42.2068 22.6418C42.3714 22.8348 42.5246 23.0334 42.6949 23.2037C42.8538 23.374 43.0411 23.5443 43.1603 23.5783L43.6768 23.7372L43.2795 24.1629C43.1206 24.3332 42.9503 24.5035 42.7573 24.6454C42.57 24.7873 42.3657 24.9178 42.116 25.0087C42.0478 25.0314 41.9684 24.9973 41.9457 24.9292C41.94 24.8895 41.94 24.8611 41.9514 24.8327Z" fill="#2E2E2E"/>
<path d="M39.6698 16.9033C39.6698 16.9033 38.6311 19.9059 34.9814 19.6448" stroke="#2E2E2E" stroke-width="1.1703" stroke-miterlimit="10" stroke-linecap="round"/>
<path d="M41.7755 16.4775C41.7755 16.4775 42.6496 18.9579 45.6692 18.7252" stroke="#2E2E2E" stroke-width="1.1703" stroke-miterlimit="10" stroke-linecap="round"/>
<path d="M40.9073 21.4497C42.5306 20.5529 43.9723 22.7722 44.4151 23.9982C45.9646 28.2836 44.8691 33.6701 47.9909 36.9905C48.7175 37.7624 49.6256 38.3527 50.2954 39.1757C50.9651 39.9988 51.3625 41.185 50.8573 42.1216C50.0513 43.603 47.9058 43.2965 46.2484 43.6087C44.8748 43.8641 43.6715 44.6644 42.4625 45.3626C41.2479 46.0607 39.9027 46.6907 38.5121 46.5432C37.1214 46.4013 35.7535 45.198 35.9181 43.813C35.9862 43.2284 36.3041 42.7062 36.6049 42.1954C37.5244 40.6288 38.3475 38.9771 38.705 37.1948C39.284 34.2887 38.5972 31.2067 39.4372 28.363C39.9992 26.4559 41.0946 25.315 40.7427 23.3625C40.6689 22.9538 40.6803 21.8016 40.9073 21.4497C41.1287 21.0978 41.8722 21.2624 41.7303 21.654L40.9073 21.4497Z" fill="#FFE094"/>
<path d="M50.2443 27.012C49.0524 27.8294 50.0456 25.5419 48.831 25.6214C48.2407 25.6611 47.8888 26.0641 47.5482 26.6431C47.3893 26.9212 46.9749 26.8247 46.9409 26.5069C46.8614 25.7122 46.5776 25.173 45.9419 25.1446C44.8294 25.0992 45.204 29.6003 45.1359 30.0316C45.0678 30.4517 44.2902 29.4243 43.5977 27.2788C43.1437 25.8768 41.4976 25.5022 41.7928 26.8361C42.2412 28.8908 42.4569 32.8867 43.5467 34.7995L41.7531 43.8697L48.235 47.0482C48.235 47.0482 50.0059 37.3991 50.3862 36.4455C51.2035 34.4135 52.3955 24.736 50.2443 27.012Z" fill="#F6F3EF"/>
<path d="M50.2442 27.0122C49.0522 27.8295 50.0455 25.5421 48.8308 25.6216C48.2178 25.6613 47.8602 26.0984 47.5083 26.7114C47.3608 26.9668 46.9748 26.8817 46.9521 26.5865C46.884 25.7521 46.6059 25.1732 45.9474 25.1505C44.835 25.1051 45.2096 29.6061 45.1415 30.0375C45.0733 30.4575 44.2957 29.4302 43.6033 27.2847C43.1492 25.8827 41.5032 25.5081 41.7983 26.8419C42.2467 28.8966 42.4624 32.8925 43.5522 34.8053L41.7586 43.8755L48.2405 47.0541C48.2405 47.0541 50.0114 37.4049 50.3917 36.4513C51.2034 34.4137 52.8551 27.0122 50.2442 27.0122Z" stroke="#2E2E2E" stroke-width="1.1703" stroke-miterlimit="10" stroke-linecap="round"/>
<path d="M40.9128 38.6592L54.274 44.1138L45.0562 72.9307L27.9091 72.1361L40.9128 38.6592Z" fill="#443FE0"/>
<path d="M40.9128 38.6592L27.9091 72.1361" stroke="#2E2E2E" stroke-width="1.0855" stroke-miterlimit="10" stroke-linecap="round" stroke-linejoin="round"/>
</g>
</svg>
