<svg width="327" height="190" viewBox="0 0 327 190" fill="none" xmlns="http://www.w3.org/2000/svg">
<rect width="327" height="190" rx="6" fill="#EAEAFF"/>
<mask id="mask0_2_5811" style="mask-type:alpha" maskUnits="userSpaceOnUse" x="0" y="0" width="327" height="190">
<rect width="327" height="190" rx="6" fill="white"/>
</mask>
<g mask="url(#mask0_2_5811)">
<path d="M184.911 52.3306C178.641 45.4182 176.26 35.7511 175.701 26.6365C174.547 7.72628 179.338 -11.7254 190.894 -26.9274C203.095 -42.9784 221.891 -53.0357 241.184 -57.7927C282.073 -67.8805 329.525 -50.1217 345.742 -9.18881C345.919 -8.74386 346.091 -8.29528 346.259 -7.8516C347.808 -3.73577 349.149 0.658419 349.346 5.08135" stroke="#263238" stroke-miterlimit="10" stroke-linecap="round" stroke-linejoin="round" stroke-dasharray="5 5"/>
<path d="M197.491 69.1558L181.121 63.1111L186.447 58.5803L197.491 69.1558Z" fill="white" stroke="#263238" stroke-miterlimit="10"/>
<path d="M197.491 69.1558L194.213 52.3717L188.381 57.2013L197.491 69.1558Z" fill="white" stroke="#263238" stroke-miterlimit="10"/>
<path d="M186.447 58.5803L187.437 54.6275L188.381 57.2013L197.491 69.1558L186.447 58.5803Z" fill="white" stroke="#263238" stroke-miterlimit="10"/>
<path d="M187.436 54.6275L189.443 56.2102L188.381 57.2013L187.436 54.6275Z" fill="white" stroke="#263238" stroke-miterlimit="10"/>
</g>
<path d="M235.3 104.576V53.6427C235.3 41.2907 245.441 31.2428 257.908 31.2428C270.375 31.2428 280.517 41.2907 280.517 53.6427V104.576H289.846V53.6427C289.84 36.1953 275.513 22 257.903 22C240.293 22 225.966 36.1953 225.966 53.6427V104.576H235.3Z" fill="#263238"/>
<path d="M297.442 82.4147H221.32V166.659H297.442V82.4147Z" fill="#443FE0"/>
<path d="M297.443 89.5811L221.32 165.001V166.665H228.928L297.443 98.7816V89.5811Z" fill="white"/>
<path d="M221.32 103.395V130.928L270.285 82.4147H242.496L221.32 103.395Z" fill="white"/>
<path d="M297.442 82.4147H221.32V166.659H297.442V82.4147Z" stroke="#263238" stroke-miterlimit="10"/>
<path d="M297.443 82.4147H281.42V166.659H297.443V82.4147Z" fill="#263238" stroke="#263238" stroke-miterlimit="10"/>
<path d="M253.439 115.752C253.439 112.834 251.049 110.466 248.104 110.466C245.158 110.466 242.768 112.834 242.768 115.752C242.768 117.94 244.11 119.815 246.019 120.62L245.04 132.098H251.172L250.194 120.62C252.103 119.81 253.439 117.935 253.439 115.752Z" fill="#F76F39" stroke="#263238" stroke-miterlimit="10"/>
<path d="M49.087 98.9422L43.6184 127.18L34.8575 152.997L32.6955 157.029C32.6955 157.029 30.2792 160.557 30.0249 163.203C29.7705 165.849 32.314 167.361 34.2216 166.479C36.1293 165.597 37.1467 161.943 37.5282 160.305C37.9097 158.667 38.6728 155.769 38.9271 154.761C39.1815 153.753 39.6902 152.997 39.6902 152.997C39.6902 152.997 54.8098 128.062 54.8098 127.306C54.8098 126.55 61.9316 108.147 61.9316 108.147L63.3305 108.273L67.5273 128.818L55.8201 152.899C55.8201 152.899 52.1321 157.183 52.3864 157.687C52.6408 158.191 54.6756 160.207 55.4386 160.711C56.2017 161.215 58.9995 165.625 61.0343 166.129C63.0691 166.633 63.8322 167.137 63.4506 165.499C63.0691 163.861 61.9245 161.341 61.6702 160.585C61.4158 159.829 60.9142 154.558 60.9142 154.558L78.4714 131.59L76.1822 103.226L49.087 98.9422Z" fill="white" stroke="#263238" stroke-miterlimit="10" stroke-linecap="round" stroke-linejoin="round"/>
<path d="M57.0141 160.606C56.1521 159.969 54.1668 157.925 52.9021 156.609C52.5488 157.141 52.3228 157.554 52.3934 157.687C52.6478 158.191 54.6826 160.207 55.4456 160.711C56.2087 161.215 59.0065 165.625 61.0413 166.129C62.3978 166.465 63.1891 166.801 63.4505 166.5C59.3244 165.422 58.1163 161.418 57.0141 160.606Z" fill="white" stroke="#263238" stroke-miterlimit="10" stroke-linecap="round" stroke-linejoin="round"/>
<path d="M36.5884 163.336C35.2601 164.659 33.7057 165.66 32.0525 165.17C30.1095 164.596 30.5758 161.698 31.0916 159.843C30.5829 160.914 30.1237 162.132 30.0177 163.21C29.7633 165.856 32.3068 167.368 34.2144 166.486C35.2601 166.003 36.0373 164.694 36.5884 163.336Z" fill="white" stroke="#263238" stroke-miterlimit="10" stroke-linecap="round" stroke-linejoin="round"/>
<path d="M49.0867 98.9421L43.6182 127.18L34.8573 152.997C34.8573 152.997 35.6415 155.762 39.0894 154.243C39.3508 153.508 39.6899 152.997 39.6899 152.997C39.6899 152.997 54.8096 128.062 54.8096 127.306C54.8096 126.55 61.9314 108.147 61.9314 108.147L63.3303 108.273L67.5271 128.818L55.8199 152.899C55.8199 152.899 57.346 155.44 60.9634 154.502L78.4712 131.597L76.182 103.233L49.0867 98.9421Z" fill="#263238" stroke="#263238" stroke-miterlimit="10" stroke-linecap="round" stroke-linejoin="round"/>
<path d="M70.5725 59.5737L67.4002 60.1547L52.8599 102.036C52.8599 102.036 55.6153 106.838 64.5529 106.754C73.4904 106.67 76.0834 105.263 76.0834 105.263L75.8361 79.9369L79.503 63.1717C79.503 63.1717 73.8296 59.7347 70.5725 59.5737Z" fill="white" stroke="#263238" stroke-miterlimit="10"/>
<path d="M86.9497 48.0657C86.9497 48.0657 86.9497 51.9157 86.7519 52.4407C86.554 52.9727 85.5437 53.7007 85.5437 54.1627C85.5437 54.6248 86.6812 56.4868 86.4834 56.9488C86.2856 57.4108 84.272 57.9428 84.272 57.9428C84.272 57.9428 82.5975 61.1908 81.7921 61.5268C80.9866 61.8558 77.8426 60.2668 77.8426 60.2668L76.0339 65.7689C76.0339 65.7689 75.2284 67.2949 72.2186 66.8329C69.2088 66.3709 68.1349 65.2439 68.0007 64.5089C67.8664 63.7738 67.5344 63.5778 67.9371 62.7868C68.3398 61.9888 68.9404 60.2668 68.9404 60.2668L72.7556 52.3077L73.3561 48.6607C73.3561 48.6607 74.6985 46.0707 79.6513 45.5457C84.604 45.0137 86.9497 48.0657 86.9497 48.0657Z" fill="white" stroke="#263238" stroke-miterlimit="10"/>
<path d="M81.7922 56.5567C81.7922 56.5567 81.9265 57.7537 83.4667 58.1457" stroke="#263238" stroke-miterlimit="10" stroke-linecap="round" stroke-linejoin="round"/>
<path d="M85.4095 52.1117C85.4095 52.1117 84.5405 51.0477 83.403 51.3837" stroke="#263238" stroke-miterlimit="10" stroke-linecap="round" stroke-linejoin="round"/>
<path d="M84.3993 53.6936C84.3286 54.0366 84.0813 54.2746 83.8411 54.2256C83.608 54.1766 83.4737 53.8616 83.5444 53.5186C83.615 53.1756 83.8623 52.9376 84.1025 52.9866C84.3357 53.0356 84.4699 53.3506 84.3993 53.6936Z" fill="#263238"/>
<path d="M77.8427 60.2738L75.9069 58.5448L77.3128 62.1288L77.8427 60.2738Z" fill="#263238" stroke="#263238" stroke-miterlimit="10" stroke-linecap="round" stroke-linejoin="round"/>
<path d="M76.5074 51.2506C76.5074 51.2506 79.2487 50.3196 79.9905 49.8576C80.7253 49.3956 79.7221 47.8696 80.3226 47.3376C80.9232 46.8056 83.5373 46.5396 84.9433 47.0086C86.3493 47.4706 86.4129 48.5346 87.7553 48.3386C89.0906 48.1426 90.7651 47.0786 90.0303 45.2236C89.2955 43.3686 87.0841 41.7726 85.2754 41.5766C83.4666 41.3806 81.5943 41.8426 79.2487 41.5766C76.903 41.3105 74.4938 40.4495 73.222 42.9696C71.9503 45.4896 70.8764 48.2126 71.3497 49.5356C71.816 50.8586 72.0209 52.5177 72.5579 52.7837C73.0948 53.0427 76.5074 51.2506 76.5074 51.2506Z" fill="#263238" stroke="#263238" stroke-miterlimit="10"/>
<path d="M76.8395 52.1817C76.8395 52.1817 76.571 48.9967 75.165 49.5917C73.759 50.1867 73.8933 53.2387 74.7623 53.8337C75.6313 54.4287 76.3661 53.5047 76.3661 53.5047" fill="white"/>
<path d="M76.8395 52.1817C76.8395 52.1817 76.571 48.9967 75.165 49.5917C73.759 50.1867 73.8933 53.2387 74.7623 53.8337C75.6313 54.4287 76.3661 53.5047 76.3661 53.5047" stroke="#263238" stroke-miterlimit="10"/>
<path d="M66.9976 66.0418L53.6089 109.085C53.6089 109.085 50.1257 106.369 48.1828 104.507C46.2398 102.652 45.7735 102.12 45.7735 102.12L50.592 91.5711L51.4611 88.19L37.3376 97.4791L34.9283 92.7681L46.911 82.156C46.911 82.156 54.273 61.9258 54.7464 61.6598C55.2127 61.3938 68.6014 59.6017 68.6014 59.6017L66.9976 66.0418Z" fill="#443FE0" stroke="#263238" stroke-miterlimit="10"/>
<path d="M69.88 58.4817C69.88 58.4817 67.8734 57.9497 66.8702 58.9437C65.8669 59.9377 62.1859 65.1808 63.1185 65.7058C64.0582 66.2378 66.6017 64.8448 66.6017 64.8448L67.0044 66.0418L69.88 58.4817Z" fill="white" stroke="#263238" stroke-miterlimit="10"/>
<path d="M55.8203 68.3658L51.4681 88.197" stroke="#263238" stroke-miterlimit="10" stroke-linecap="round" stroke-linejoin="round"/>
<path d="M62.9845 73.7348L56.223 72.9368L55.8203 75.1278L62.6454 76.3248L62.9845 75.1278" stroke="#263238" stroke-miterlimit="10" stroke-linecap="round" stroke-linejoin="round"/>
<path d="M55.241 70.8158C55.241 70.8158 54.5274 66.8748 54.3649 64.7467" stroke="#263238" stroke-miterlimit="10" stroke-linecap="round" stroke-linejoin="round"/>
<path d="M54.8453 71.6838C54.8453 71.6838 53.6513 69.7168 52.86 68.4498" stroke="#263238" stroke-miterlimit="10" stroke-linecap="round" stroke-linejoin="round"/>
<path d="M76.0411 65.7758C76.0411 65.7758 72.7487 79.489 72.8264 83.661C72.9041 87.84 74.0205 109.988 74.0205 109.988C74.0205 109.988 78.3161 109.197 79.0297 108.966C79.7433 108.728 82.527 107.86 82.527 107.86C82.527 107.86 77.6732 92.2571 77.6732 91.7041C77.6732 91.1511 78.5493 87.448 78.5493 87.448C78.5493 87.448 81.4107 93.8321 81.8134 94.3081C82.2091 94.7841 93.1673 99.6772 93.1673 99.6772L94.1423 93.9161L87.2184 87.6091C87.2184 87.6091 85.7064 75.7089 85.7064 74.7639C85.7064 73.8189 86.1021 67.8268 86.1021 67.8268L77.433 61.0508L76.0411 65.7758Z" fill="#443FE0" stroke="#263238" stroke-miterlimit="10"/>
<path d="M102.557 97.7312C102.557 97.7312 99.088 98.4802 98.1978 98.5712C97.3075 98.6622 95.619 98.4802 94.863 98.2212C94.107 97.9552 92.6374 97.3812 92.6374 97.3812C92.6374 97.3812 92.3265 96.4992 92.5456 96.0162C92.7646 95.5332 93.9727 95.5752 93.9727 95.5752L101.49 96.3242L102.557 97.7312Z" fill="white" stroke="#263238" stroke-miterlimit="10"/>
<path d="M82.4491 73.4198L78.5491 87.4479" stroke="#263238" stroke-miterlimit="10" stroke-linecap="round" stroke-linejoin="round"/>
<path d="M80.3013 77.1229L75.61 75.9399L75.3698 77.8299L79.5029 78.9359" stroke="#263238" stroke-miterlimit="10" stroke-linecap="round" stroke-linejoin="round"/>
<path d="M80.9373 79.4049L83.3253 76.0169" stroke="#263238" stroke-miterlimit="10" stroke-linecap="round" stroke-linejoin="round"/>
<path d="M75.6877 67.9808L76.5638 67.1128C76.5638 67.1128 78.5492 69.4018 78.9519 68.6878C79.3476 67.9808 80.1459 66.1678 79.5101 63.1717C78.8742 60.1757 77.8497 60.2737 77.8497 60.2737L76.041 65.7758L75.6877 67.9808Z" fill="white" stroke="#263238" stroke-miterlimit="10"/>
<path d="M120.305 99.7751L116.129 127.761L106.542 155.013C106.542 155.013 103.235 158.52 102.317 162.475C101.405 166.43 104.026 166.661 105.397 165.639C106.768 164.624 110.074 155.916 110.187 155.461C110.3 155.006 124.565 130.925 124.798 130.582C125.031 130.239 131.878 110.457 131.878 110.457L136.901 129.903L147.287 158.17C147.287 158.17 147.972 163.035 149.682 164.953C151.392 166.878 153.907 168.229 154.359 166.535C154.819 164.841 154.472 161.901 153.215 160.543C151.957 159.185 150.021 156.357 150.021 156.357L146.369 127.18L144.108 99.8941L120.305 99.7751Z" fill="white" stroke="#263238" stroke-miterlimit="10"/>
<path d="M146.368 127.194L144.108 99.908L120.305 99.775L116.129 127.761L108.555 149.294L112.957 150.645C117.147 143.476 124.643 130.834 124.805 130.589C125.031 130.253 131.885 110.464 131.885 110.464L136.908 129.91L145.139 152.325L149.35 150.918L146.368 127.194Z" fill="#263238" stroke="#263238" stroke-miterlimit="10"/>
<path d="M105.397 165.646C106.111 165.121 107.34 162.517 108.379 160.074L105.969 162.818L103.115 162.027L103.61 159.171C103.066 160.186 102.585 161.313 102.317 162.482C101.405 166.437 104.026 166.661 105.397 165.646Z" fill="#263238" stroke="#263238" stroke-miterlimit="10"/>
<path d="M154.359 166.549C154.819 164.855 154.472 161.915 153.215 160.557C153.13 160.466 153.038 160.361 152.946 160.256L153.561 164.064L151.279 164.855L147.654 160.095C148.022 161.677 148.672 163.833 149.682 164.967C151.392 166.885 153.9 168.243 154.359 166.549Z" fill="#263238" stroke="#263238" stroke-miterlimit="10"/>
<path d="M120.305 99.7751C120.305 99.7751 125.208 108.364 132.019 108.749C138.83 109.134 144.108 99.9081 144.108 99.9081L120.75 98.9841L120.305 99.7751Z" fill="white" stroke="#263238" stroke-miterlimit="10"/>
<path d="M128.013 67.2108C128.013 67.2108 120.368 70.8928 120.305 71.3618C120.241 71.8308 115.105 92.11 115.105 92.11C115.105 92.11 113.275 96.1631 115.571 97.4371C117.867 98.7111 121.986 94.4831 121.986 94.4831L120.298 99.7751C120.298 99.7751 125.738 102.484 133.135 102.855C138.823 103.142 144.101 99.9081 144.101 99.9081L143.288 94.35C143.288 94.35 148.036 97.5141 149.725 96.7791C151.413 96.0441 152.685 94.5531 152.685 93.545C152.685 92.537 151.872 92.271 150.523 90.801C149.174 89.331 146.941 82.0229 146.941 82.0229C146.941 82.0229 145.047 71.9708 144.574 71.1658C144.101 70.3608 138.215 67.7498 138.215 67.7498L128.013 67.2108Z" fill="#443FE0" stroke="#263238" stroke-miterlimit="10"/>
<path d="M123.251 75.3379L124.58 79.3699L121.994 94.4831" stroke="#263238" stroke-miterlimit="10"/>
<path d="M143.281 76.0379L142.341 79.2159L143.295 94.3501" stroke="#263238" stroke-miterlimit="10"/>
<path d="M120.906 97.7451C120.906 97.7451 132.408 101.231 143.832 98.0531" stroke="#263238" stroke-miterlimit="10"/>
<path d="M35.7901 87.1399C35.7901 87.1399 33.6988 87.5809 33.2466 87.8049C32.8015 88.0289 32.7238 88.9179 32.1232 89.282C31.5227 89.653 30.6325 90.171 31.1553 90.542C31.6781 90.913 32.7662 91.186 33.3102 90.458C33.8472 89.7299 35.1966 89.1139 35.4156 89.1979" fill="white"/>
<path d="M35.7901 87.1399C35.7901 87.1399 33.6988 87.5809 33.2466 87.8049C32.8015 88.0289 32.7238 88.9179 32.1232 89.282C31.5227 89.653 30.6325 90.171 31.1553 90.542C31.6781 90.913 32.7662 91.186 33.3102 90.458C33.8472 89.7299 35.1966 89.1139 35.4156 89.1979" stroke="#263238" stroke-miterlimit="10"/>
<path d="M111.707 97.3112C111.707 97.3112 110.908 97.2622 110.442 96.8912C109.976 96.5202 109.227 96.3802 108.803 96.2892C108.379 96.1982 108.52 95.8271 109.128 95.5961C109.735 95.3651 110.859 95.4561 111.424 95.6871C111.989 95.9182 112.265 96.1982 112.265 96.1982L111.707 97.3112Z" fill="white" stroke="#263238" stroke-miterlimit="10"/>
<path d="M212.931 90.1151H84.1309V96.0092H212.931V90.1151Z" fill="#F76F39" stroke="#263238" stroke-miterlimit="10"/>
<path d="M60.9284 66.5738C46.162 66.5738 34.1935 78.4319 34.1935 93.0621C34.1935 107.692 46.162 119.55 60.9284 119.55C75.6948 119.55 87.6634 107.692 87.6634 93.0621C87.6563 78.4319 75.6877 66.5738 60.9284 66.5738ZM60.9284 112.613C50.0267 112.613 41.1881 103.856 41.1881 93.0551C41.1881 82.254 50.0267 73.4969 60.9284 73.4969C71.8301 73.4969 80.6688 82.254 80.6688 93.0551C80.6688 103.856 71.8301 112.613 60.9284 112.613Z" fill="#F76F39" stroke="#263238" stroke-miterlimit="10"/>
<path d="M189.771 90.1151V117.758H195.26C195.26 117.709 195.253 117.66 195.253 117.604C195.253 114.062 198.157 111.185 201.732 111.185C205.307 111.185 208.211 114.062 208.211 117.604C208.211 117.653 208.204 117.702 208.204 117.758H212.93V90.1151H189.771Z" fill="#F76F39" stroke="#263238" stroke-miterlimit="10"/>
<path d="M159.665 90.1151V105.977H162.817C162.817 105.949 162.809 105.921 162.809 105.893C162.809 103.856 164.477 102.211 166.526 102.211C168.582 102.211 170.242 103.863 170.242 105.893C170.242 105.921 170.235 105.949 170.235 105.977H172.948V90.1151H159.665Z" fill="#F76F39" stroke="#263238" stroke-miterlimit="10"/>
<path d="M137.353 46.3506C137.353 46.3506 139.211 44.8456 138.363 43.3405C137.523 41.8355 133.806 39.6025 132.287 40.1625C130.768 40.7225 127.787 43.8446 127.561 45.0136C127.335 46.1826 129.701 47.7996 130.146 47.8556C130.599 47.9116 134.428 45.6786 137.353 46.3506Z" fill="#263238" stroke="#263238" stroke-miterlimit="10"/>
<path d="M133.693 45.8466C133.693 45.8466 127.617 47.5196 125.929 50.7537C124.24 53.9877 124.127 54.7157 125.088 56.2767C126.042 57.8378 128.409 60.6238 130.606 61.7438C132.803 62.8568 139.777 61.2398 139.777 61.2398C139.777 61.2398 141.917 60.2948 142.589 58.6218C143.267 56.9487 144.786 54.6107 143.768 52.0977C142.758 49.5917 138.25 46.1336 136.845 45.7416C135.439 45.3426 133.693 45.8466 133.693 45.8466Z" fill="#263238" stroke="#263238" stroke-miterlimit="10"/>
<path d="M138.116 50.0746C138.116 50.0746 135.085 51.9226 133.531 53.0006C131.976 54.0786 130.111 54.6946 130.111 54.6946C130.111 54.6946 128.712 55.3106 129.023 56.9277C129.334 58.5447 129.92 64.1307 129.92 64.1307L128.868 66.3988L133.375 71.3268L136.95 66.7068L137.339 64.3197C137.339 64.3197 140.603 62.3177 140.681 61.8557C140.759 61.3937 141.691 54.6176 141.613 53.9246C141.536 53.2316 138.116 50.0746 138.116 50.0746Z" fill="white" stroke="#263238" stroke-miterlimit="10"/>
<path d="M138.646 54.8206C138.646 54.8206 138.476 56.3256 138.476 56.5496C138.476 56.7736 139.826 57.9426 139.317 58.3906C138.809 58.8386 137.798 59.1186 137.798 59.1186" stroke="#263238" stroke-miterlimit="10" stroke-linecap="round" stroke-linejoin="round"/>
<path d="M137.975 60.5116C137.975 60.5116 137.41 61.1277 136.173 59.8396" stroke="#263238" stroke-miterlimit="10" stroke-linecap="round" stroke-linejoin="round"/>
<path d="M137.339 64.3268C137.339 64.3268 136.053 64.1938 135.552 63.8578C135.043 63.5218 133.58 62.4088 133.58 62.4088L136.449 67.3158L136.95 66.7138L137.339 64.3268Z" fill="#263238" stroke="#263238" stroke-miterlimit="10" stroke-linecap="round" stroke-linejoin="round"/>
<path d="M130.712 56.1647C130.712 56.1647 129.645 52.9867 128.401 54.7717C127.165 56.5567 129.136 59.0627 130.09 59.0067" fill="white"/>
<path d="M130.712 56.1647C130.712 56.1647 129.645 52.9867 128.401 54.7717C127.165 56.5567 129.136 59.0627 130.09 59.0067" stroke="#263238" stroke-miterlimit="10"/>
<path d="M135.862 56.6687C136.128 56.6687 136.343 56.3678 136.343 55.9967C136.343 55.6255 136.128 55.3246 135.862 55.3246C135.597 55.3246 135.382 55.6255 135.382 55.9967C135.382 56.3678 135.597 56.6687 135.862 56.6687Z" fill="#263238"/>
<path d="M140.08 56.6687C140.346 56.6687 140.561 56.3678 140.561 55.9967C140.561 55.6255 140.346 55.3246 140.08 55.3246C139.815 55.3246 139.6 55.6255 139.6 55.9967C139.6 56.3678 139.815 56.6687 140.08 56.6687Z" fill="#263238"/>
<path d="M134.598 54.5477C134.598 54.5477 135.608 53.5467 136.965 54.3237" stroke="#263238" stroke-miterlimit="10" stroke-linecap="round" stroke-linejoin="round"/>
<path d="M139.155 54.2116C139.155 54.2116 140.674 53.5956 141.013 54.7716" stroke="#263238" stroke-miterlimit="10" stroke-linecap="round" stroke-linejoin="round"/>
<path d="M128.854 64.6907L132.796 69.6538L130.09 72.5518L127.052 67.1477L128.854 64.6907Z" fill="white" stroke="#263238" stroke-miterlimit="10"/>
<path d="M132.796 69.6539L133.375 71.3339L132.005 70.6619L132.796 69.6539Z" fill="white" stroke="#263238" stroke-miterlimit="10"/>
<path d="M134.202 68.8209L136.117 72.5519L139.042 67.6449L137.071 66.0839L134.202 68.8209Z" fill="white" stroke="#263238" stroke-miterlimit="10"/>
<path d="M134.202 68.8208L133.375 71.3338L134.767 69.9898L134.202 68.8208Z" fill="white" stroke="#263238" stroke-miterlimit="10"/>
<path d="M111.911 94.518C111.911 94.518 111.113 96.765 111.339 97.08C111.572 97.402 112.335 97.794 112.554 97.052C112.766 96.31 112.978 94.665 112.703 94.203C112.413 93.734 111.911 94.518 111.911 94.518Z" fill="white" stroke="#263238" stroke-miterlimit="10"/>
<path d="M113.176 95.211C113.176 95.211 112.378 97.4581 112.604 97.7731C112.837 98.0951 113.6 98.4871 113.819 97.7451C114.031 97.0031 114.243 95.358 113.967 94.896C113.678 94.434 113.176 95.211 113.176 95.211Z" fill="white" stroke="#263238" stroke-miterlimit="10"/>
<path d="M114.808 95.12C114.808 95.12 114.01 97.367 114.236 97.682C114.469 98.004 115.232 98.396 115.451 97.654C115.663 96.912 115.875 95.267 115.599 94.805C115.317 94.343 114.808 95.12 114.808 95.12Z" fill="white" stroke="#263238" stroke-miterlimit="10"/>
<path d="M116.115 95.519C116.115 95.519 115.507 97.43 115.677 97.689C115.854 97.9621 116.433 98.2911 116.595 97.6681C116.758 97.038 116.92 95.645 116.708 95.253C116.497 94.861 116.115 95.519 116.115 95.519Z" fill="white" stroke="#263238" stroke-miterlimit="10"/>
<path d="M34.8224 91.095C34.8224 91.095 32.4273 90.64 32.2153 91.004C31.9892 91.382 31.8903 92.453 32.6604 92.537C33.4306 92.621 35.0556 92.481 35.3947 92.012C35.7268 91.536 34.8224 91.095 34.8224 91.095Z" fill="white" stroke="#263238" stroke-miterlimit="10"/>
<path d="M34.5962 92.8731C34.5962 92.8731 32.2011 92.4181 31.9891 92.7821C31.763 93.1601 31.6641 94.2311 32.4342 94.3151C33.2044 94.3991 34.8294 94.2591 35.1685 93.7901C35.5076 93.3211 34.5962 92.8731 34.5962 92.8731Z" fill="white" stroke="#263238" stroke-miterlimit="10"/>
<path d="M35.2532 94.938C35.2532 94.938 32.8581 94.483 32.6461 94.847C32.42 95.225 32.3211 96.2961 33.0912 96.3801C33.8613 96.4641 35.4864 96.3241 35.8255 95.8551C36.1576 95.3791 35.2532 94.938 35.2532 94.938Z" fill="white" stroke="#263238" stroke-miterlimit="10"/>
<path d="M35.317 96.6951C35.317 96.6951 33.3105 96.4011 33.1197 96.6811C32.9219 96.9751 32.8088 97.7941 33.4588 97.8501C34.1018 97.8991 35.4724 97.7591 35.7762 97.3881C36.08 97.0171 35.317 96.6951 35.317 96.6951Z" fill="white" stroke="#263238" stroke-miterlimit="10"/>
<path d="M153.434 94.518C153.434 94.518 154.232 96.765 154.006 97.08C153.773 97.402 153.01 97.794 152.791 97.052C152.572 96.31 152.367 94.665 152.642 94.203C152.925 93.734 153.434 94.518 153.434 94.518Z" fill="white" stroke="#263238" stroke-miterlimit="10"/>
<path d="M152.169 95.2111C152.169 95.2111 152.967 97.4581 152.741 97.7731C152.508 98.0951 151.745 98.4871 151.526 97.7451C151.314 97.0031 151.102 95.3581 151.378 94.8961C151.667 94.4341 152.169 95.2111 152.169 95.2111Z" fill="white" stroke="#263238" stroke-miterlimit="10"/>
<path d="M150.53 95.12C150.53 95.12 151.328 97.367 151.102 97.682C150.869 98.004 150.106 98.396 149.887 97.654C149.675 96.912 149.463 95.267 149.739 94.805C150.028 94.343 150.53 95.12 150.53 95.12Z" fill="white" stroke="#263238" stroke-miterlimit="10"/>
<path d="M149.223 95.519C149.223 95.519 149.83 97.43 149.661 97.689C149.484 97.9621 148.905 98.2911 148.742 97.6681C148.58 97.038 148.417 95.645 148.629 95.253C148.841 94.861 149.223 95.519 149.223 95.519Z" fill="white" stroke="#263238" stroke-miterlimit="10"/>
<path d="M93.1672 99.6702L92.3688 96.0581" stroke="#263238" stroke-miterlimit="10"/>
<path d="M98.8053 98.2911L103.355 97.6471L105.482 95.834C105.482 95.834 106.252 93.433 106.365 93.139C106.485 92.845 106.245 92.264 105.659 92.439C105.065 92.614 104.888 93.496 104.888 93.496C104.888 93.496 104.415 91.858 103.942 92.208C103.468 92.558 103.412 93.027 103.412 93.027C103.412 93.027 102.642 92.089 102.288 92.383C101.935 92.677 101.815 93.552 101.815 93.552C101.815 93.552 100.932 92.852 100.635 93.258C100.338 93.671 100.635 94.371 100.635 94.371L100.988 95.778L100.395 95.897L97.915 96.016" fill="white"/>
<path d="M98.8053 98.2911L103.355 97.6471L105.482 95.834C105.482 95.834 106.252 93.433 106.365 93.139C106.485 92.845 106.245 92.264 105.659 92.439C105.065 92.614 104.888 93.496 104.888 93.496C104.888 93.496 104.415 91.858 103.942 92.208C103.468 92.558 103.412 93.027 103.412 93.027C103.412 93.027 102.642 92.089 102.288 92.383C101.935 92.677 101.815 93.552 101.815 93.552C101.815 93.552 100.932 92.852 100.635 93.258C100.338 93.671 100.635 94.371 100.635 94.371L100.988 95.778L100.395 95.897L97.915 96.016" stroke="#263238" stroke-miterlimit="10"/>
<path d="M103.419 93.02C103.419 93.02 103.913 94.826 103.977 95.029C104.048 95.232 103.595 97.409 103.355 97.64" stroke="#263238" stroke-miterlimit="10"/>
<path d="M104.895 93.489C104.895 93.489 105.446 95.239 105.178 95.946" stroke="#263238" stroke-miterlimit="10"/>
<path d="M101.822 93.545L102.606 95.0991C102.606 95.0991 102.571 97.0661 102.296 97.5771" stroke="#263238" stroke-miterlimit="10"/>
<path d="M100.995 95.7711L101.03 96.5201" stroke="#263238" stroke-miterlimit="10"/>
<path d="M98.1622 96.114C98.1622 96.114 97.4769 96.723 98.0562 97.535" stroke="#263238" stroke-miterlimit="10"/>
<path d="M306 167.5H21" stroke="#263238" stroke-miterlimit="10"/>
</svg>
