<svg width="22" height="24" viewBox="0 0 22 24" fill="none" xmlns="http://www.w3.org/2000/svg">
<path d="M10.2234 11.7764C13.2648 11.7764 15.7303 9.31082 15.7303 6.26943C15.7303 3.22803 13.2648 0.762498 10.2234 0.762498C7.182 0.762498 4.71647 3.22803 4.71647 6.26943C4.71647 9.31082 7.182 11.7764 10.2234 11.7764Z" stroke="#F76F39" stroke-width="1.5" stroke-linecap="round" stroke-linejoin="round"/>
<path d="M0.762498 22.7903C0.762498 18.5279 5.00286 15.0806 10.2234 15.0806C11.2808 15.0806 12.3051 15.2237 13.2633 15.4881" stroke="#F76F39" stroke-width="1.5" stroke-linecap="round" stroke-linejoin="round"/>
<path d="M21.2374 18.3847C21.2374 18.7371 21.1934 19.0785 21.1053 19.409C21.0061 19.8495 20.8299 20.2791 20.5986 20.6535C19.8386 21.9311 18.4399 22.7902 16.8319 22.7902C15.6974 22.7902 14.6732 22.3606 13.9022 21.6558C13.5718 21.3694 13.2854 21.028 13.0652 20.6535C12.6576 19.9927 12.4263 19.2107 12.4263 18.3847C12.4263 17.1952 12.8999 16.1048 13.6709 15.3118C14.4749 14.4858 15.5983 13.9791 16.8319 13.9791C18.1315 13.9791 19.31 14.5409 20.103 15.444C20.8078 16.226 21.2374 17.2613 21.2374 18.3847Z" stroke="#F76F39" stroke-width="1.5" stroke-miterlimit="10" stroke-linecap="round" stroke-linejoin="round"/>
<path d="M18.4727 18.3626H15.1906" stroke="#F76F39" stroke-width="1.5" stroke-miterlimit="10" stroke-linecap="round" stroke-linejoin="round"/>
</svg>
