<svg width="327" height="190" viewBox="0 0 327 190" fill="none" xmlns="http://www.w3.org/2000/svg">
<rect width="327" height="190" rx="6" fill="#EAEAFF"/>
<path d="M304.624 169.275H23V169.9H304.624V169.275Z" fill="#01002F" fill-opacity="0.42"/>
<path d="M256.606 96.6611C261.909 95.4016 266.091 90.521 269.938 87.2963L265.644 79.8026C261.708 83.2922 256.996 87.9482 255.069 90.0285C251.249 93.9923 253.873 97.7594 256.606 96.6611Z" fill="#FFA88F"/>
<path d="M266.341 79.0518C263.021 80.751 259.91 83.6051 257.363 86.2624C260.643 87.3462 261.878 93.5565 260.991 94.7584L268.706 89.5475C271.615 86.4573 272.788 77.5005 266.341 79.0518Z" fill="#F76F39"/>
<path d="M286.598 125.325L285.063 166.545H280.205L277.222 125.361L286.598 125.325Z" fill="#FFA88F"/>
<path d="M273.834 124.228L265.699 166.405H260.351L265.121 124.263L273.834 124.228Z" fill="#FFA88F"/>
<path d="M276.893 128.453L275.18 107.922H287.459C287.952 111.058 287.701 118.896 287.177 128.453C284.237 129.299 280.825 129.327 276.893 128.453Z" fill="#443FE0"/>
<path d="M264.003 128.453L265.89 108.151H278.716L274.278 128.453C270.582 129.394 267.204 129.232 264.003 128.453Z" fill="#443FE0"/>
<path d="M285.125 163.45C285.591 164.505 287.679 164.908 290.048 165.314C292.6 165.121 293.803 167.923 292.528 169.096C286.353 169.096 279.917 169.096 279.917 169.096C279.721 168.24 279.898 165.77 280.032 164.551C281.131 165.275 282.287 165.14 283.481 164.684C282.6 162.53 284.942 162.176 285.125 163.45Z" fill="#FFA88F"/>
<path d="M288.892 165.05C288.892 165.05 285.574 165.46 285.429 167.839C284.099 167.839 279.53 167.839 279.53 167.839V169.267H293.041C293.041 169.267 293.365 167.986 292.852 166.595C292.34 165.204 289.074 165.023 288.892 165.05Z" fill="#154B73"/>
<path d="M257.228 165.035C258.755 164.679 260.381 164.138 260.762 163.277C260.955 161.941 263.967 162.466 263.043 164.726C264.296 165.204 264.902 165.145 266.055 164.385C266.194 165.663 266.379 168.254 266.174 169.152C266.174 169.152 261.972 169.152 257.017 169.152L257.228 165.035Z" fill="#FFA88F"/>
<path d="M259.708 164.355C259.708 164.355 263.182 165.338 263.336 167.833C264.73 167.833 266.582 167.833 266.582 167.833V169.33H254.464C253.69 166.828 256.914 163.938 259.708 164.355Z" fill="#154B73"/>
<path d="M260.59 167.811H255.084C255.133 167.075 255.941 165.799 258.205 165.817C260.869 165.838 260.59 167.811 260.59 167.811Z" fill="#FFA88F"/>
<path d="M292.504 167.811H288.435C288.472 167.184 288.791 165.761 290.464 165.776C292.431 165.795 292.504 167.811 292.504 167.811Z" fill="#FFA88F"/>
<path d="M296.125 94.8035C290.676 94.8967 285.415 91.2035 280.889 89.032L283.193 80.7079C287.871 83.1136 293.589 86.4583 295.97 87.9962C300.655 90.8906 299.045 95.1904 296.125 94.8035Z" fill="#FFA88F"/>
<path d="M282.332 80.1539C285.969 80.9776 289.691 82.9715 292.816 84.9155C289.908 86.7789 290.249 93.1005 291.406 94.0451L282.64 90.9078C279.057 88.6355 275.702 80.248 282.332 80.1539Z" fill="#F76F39"/>
<path d="M291.836 88.0355C291.132 85.625 289.759 78.736 289.231 72.0784L291.895 71.5485C293.94 75.6707 297.595 82.3965 298.567 88.1757C299.098 91.3322 299.445 94.5731 296.497 94.7354C294.666 94.8362 293.196 92.8816 291.836 88.0355Z" fill="#FFA88F"/>
<path d="M279.406 79.4896C281.502 79.7392 283.224 80.3421 284.2 81.1773C285.702 85.7699 286.698 90.6314 287.313 95.6886L287.337 95.8826L287.474 97.1238C288.02 102.195 288.199 107.455 288.152 112.834C287.112 113.54 285.022 114.08 282.466 114.426C282.849 91.5347 280.239 81.9453 279.406 79.4896Z" fill="#F76F39"/>
<path d="M265.718 98.105C265.765 97.6307 265.813 97.1574 265.86 96.6832C266.338 92.0013 266.869 87.423 267.575 81.7312C268.754 81.088 269.996 80.5907 271.252 80.2202C272.358 83.6205 274.813 93.64 274.46 114.852C270.45 114.78 266.592 114.284 264.391 113.284C264.864 107.308 265.277 102.603 265.718 98.105Z" fill="#F76F39"/>
<path d="M271.251 80.2211C274.087 79.385 276.994 79.2035 279.406 79.4906C280.239 81.9453 282.849 91.5357 282.466 114.427C280.051 114.752 277.22 114.904 274.46 114.854C274.812 93.64 272.358 83.6214 271.251 80.2211Z" fill="white"/>
<path d="M266.767 70.2429C266.767 70.2429 264.764 75.1168 266.767 76.2947C270.27 78.354 276.597 63.7619 276.597 63.7619L266.767 70.2429Z" fill="#267FBF"/>
<path d="M280.309 65.8077C279.777 64.4915 278.357 59.8038 272.061 60.28C265.909 60.7446 262.49 70.1181 270.628 74.6656C277.196 78.3347 282.7 70.4416 280.309 65.8077Z" fill="#59330B"/>
<path d="M279.572 81.1053L279.354 80.1722L278.567 76.8304L277.532 72.4134L271.956 72.5632L271.767 81.8522C272.413 85.2198 280.869 83.8595 279.572 81.1053Z" fill="#FFA88F"/>
<path opacity="0.5" d="M273.473 75.9933C273.473 75.9933 277.279 79.4983 279.353 80.1722L278.566 76.8304L273.473 75.9933Z" fill="#2E2E2E"/>
<path d="M281.11 67.4992C283.006 70.2035 283.658 74.6714 280.503 76.913C277.347 79.1546 272.588 77.6359 269.974 73.9552C267.36 70.2755 267.799 65.4746 270.955 63.233C274.11 60.9914 279.3 62.7434 281.11 67.4992Z" fill="#FFA88F"/>
<path d="M278.542 71.4198C278.552 71.4198 278.563 71.417 278.572 71.4112C278.602 71.3939 279.296 70.9744 279.22 70.3734C279.162 69.9165 278.648 69.976 278.308 70.0163C278.204 70.0288 278.086 70.0422 278.038 70.0307L277.566 69.4C277.546 69.3731 277.508 69.3674 277.481 69.3875C277.454 69.4077 277.448 69.4461 277.468 69.473L277.96 70.1306L277.973 70.1373C278.042 70.1699 278.16 70.1565 278.322 70.1373C278.723 70.0902 279.059 70.0768 279.098 70.3888C279.165 70.9101 278.516 71.3027 278.509 71.3066C278.48 71.3238 278.471 71.3613 278.488 71.3901C278.5 71.4093 278.521 71.4198 278.542 71.4198Z" fill="#733602"/>
<path d="M278.718 68.224L278.889 68.105C278.679 67.8016 278.646 67.4896 278.757 67.4128C278.867 67.336 279.148 67.4771 279.357 67.7805L279.528 67.6615C279.252 67.2621 278.869 67.0807 278.637 67.241C278.407 67.4023 278.442 67.8237 278.718 68.224Z" fill="#522601"/>
<path d="M273.587 71.0435L273.758 70.9245C273.548 70.6211 273.515 70.3091 273.625 70.2323C273.736 70.1555 274.017 70.2967 274.226 70.6L274.397 70.481C274.121 70.0816 273.737 69.9002 273.505 70.0605C273.276 70.2218 273.31 70.6442 273.587 71.0435Z" fill="#522601"/>
<path d="M276.7 74.4918C278.769 74.4918 280.135 72.8311 280.152 72.809C280.174 72.7831 280.17 72.7446 280.143 72.7235C280.117 72.7024 280.079 72.7062 280.057 72.7331C280.035 72.761 277.802 75.472 274.739 73.8554C274.709 73.84 274.673 73.8506 274.656 73.8813C274.641 73.911 274.653 73.9475 274.682 73.9638C275.406 74.344 276.085 74.4918 276.7 74.4918Z" fill="#733602"/>
<path d="M279.353 64.6672C279.353 64.6672 277.981 63.3962 273.886 66.0102C268.005 69.7648 270.335 74.4352 270.335 74.4352C270.335 74.4352 264.839 68.2365 270.042 63.0333C275.245 57.8301 279.023 64.1114 279.353 64.6672Z" fill="#59330B"/>
<path d="M266.785 71.2423L279.059 63.1494C279.059 63.1494 275.269 57.1533 268.966 60.9203C262.392 64.8438 266.785 71.2423 266.785 71.2423ZM273.112 63.0477C274.866 61.8342 276.064 63.5315 276.064 63.5315L272.476 66.1005C272.477 66.0995 271.007 64.4982 273.112 63.0477Z" fill="#267FBF"/>
<path d="M269.478 74.3229C270.308 74.3229 270.981 73.6502 270.981 72.8205C270.981 71.9907 270.308 71.3181 269.478 71.3181C268.648 71.3181 267.976 71.9907 267.976 72.8205C267.976 73.6502 268.648 74.3229 269.478 74.3229Z" fill="#FFA88F"/>
<path opacity="0.25" d="M262.37 85.385C262.37 85.385 265.85 85.5434 267.063 86.703C270.015 85.1738 281.139 83.2231 285.146 85.4378C287.465 84.3309 290.467 83.5187 290.467 83.5187L290.313 81.4845L262.37 85.385Z" fill="#2E2E2E"/>
<path d="M258.393 85.7353L290.472 83.5165L288.253 51.4375L256.174 53.6563L258.393 85.7353Z" fill="white"/>
<path d="M266.438 67.3494L267.215 76.8659C267.302 77.9258 280.239 76.8698 280.153 75.8109L279.376 66.2944L266.438 67.3494ZM271.602 70.5434C271.53 69.6602 272.185 68.8902 273.067 68.8182C273.951 68.7462 274.726 69.4 274.798 70.2832C274.851 70.9283 274.507 71.5206 273.974 71.8154L274.194 74.5187C274.224 74.8778 273.955 75.2003 273.591 75.2301C273.231 75.2598 272.915 74.9853 272.885 74.6253L272.665 71.9286C272.084 71.7242 271.655 71.1952 271.602 70.5434Z" fill="#444444"/>
<path d="M267.516 66.5786L268.825 66.472L268.773 65.8317C268.592 63.6112 270.251 61.6576 272.471 61.4771C274.692 61.2957 276.645 62.9546 276.826 65.175L276.877 65.8154L278.187 65.7088L278.135 65.0685C277.895 62.1261 275.306 59.9277 272.364 60.1677C269.421 60.4077 267.223 62.9968 267.463 65.9392L267.516 66.5786Z" fill="#444444"/>
<path d="M253.093 88.2966C253.379 85.8016 254.785 78.9194 256.882 72.5786L259.543 73.1238C259.829 77.7165 260.589 85.3341 259.243 91.0365C258.507 94.1517 257.571 97.2736 254.79 96.28C253.062 95.6627 252.465 93.2906 253.093 88.2966Z" fill="#FFA88F"/>
<path d="M258.897 70.9427C258.865 71.8528 259.898 71.8365 259.569 73.5155C259.265 75.0649 256.956 74.2307 256.694 72.9769C256.694 72.9769 255.999 70.9523 255.782 69.6093C255.566 68.2653 256.77 64.9216 256.897 65.0224C257.54 65.1251 257.087 68.0954 257.087 68.0954C257.087 68.0954 258.234 66.3837 258.864 65.9747C259.63 66.2061 257.764 68.7558 257.764 68.7558C258.15 68.319 258.642 68.0445 259.087 68.0022C259.726 67.9418 260.291 68.2826 260.503 68.6512C260.59 68.9891 259.421 68.9382 259.279 68.7587L258.566 69.4192C259.064 69.183 260.309 69.4038 260.695 70.3533C260.614 70.9801 259.484 70.1622 259.484 70.1622C259.484 70.1622 258.917 70.3686 258.897 70.9427Z" fill="#FFA88F"/>
<path d="M289.327 70.2688C289.72 71.0906 288.765 71.488 289.738 72.8963C290.635 74.1952 292.419 72.5085 292.159 71.2547C292.159 71.2547 291.988 69.1216 291.651 67.8035C291.312 66.4854 288.874 63.9002 288.797 64.0442C288.248 64.3946 289.85 66.9367 289.85 66.9367C289.85 66.9367 288.116 65.825 287.374 65.7021C286.765 66.2205 289.493 67.8122 289.493 67.8122C288.965 67.5655 288.404 67.5107 287.979 67.6499C287.37 67.8496 286.987 68.3882 286.939 68.8106C286.994 69.1552 288.046 68.6416 288.105 68.4198L289.023 68.7415C288.472 68.7242 287.418 69.424 287.443 70.4483C287.768 70.9907 288.477 69.7898 288.477 69.7898C288.477 69.7898 289.079 69.7514 289.327 70.2688Z" fill="#FFA88F"/>
<path d="M224.772 99.2877L228.923 84.1792C227.802 80.5158 211.122 80.5878 209.892 84.1792L210.111 98.0848C213.167 97.8736 219.041 97.9849 224.772 99.2877Z" fill="#F7BA28"/>
<path d="M210.111 98.0848C208.261 102.361 207.514 105.992 207.479 108.318L227.936 107.003C227.713 105.335 226.908 101.695 224.85 98.9037C220.31 97.3274 215.398 97.0566 210.111 98.0848Z" fill="#154B73"/>
<path d="M228.927 78.8301C229.331 78.8301 229.73 78.7216 230.087 78.5094C231.17 77.8672 231.529 76.4637 230.887 75.3808C230.337 74.4534 229.198 74.0349 228.181 74.3862C228.059 74.4285 227.994 74.5609 228.036 74.6838C228.078 74.8057 228.212 74.871 228.334 74.8288C229.143 74.5494 230.048 74.8825 230.486 75.6198C230.997 76.4809 230.711 77.5974 229.85 78.1081C229.434 78.3558 228.945 78.4259 228.475 78.3059C228.005 78.1859 227.61 77.8902 227.362 77.4726C226.977 76.8227 227.037 75.9913 227.512 75.4038C227.593 75.304 227.577 75.1561 227.477 75.0755C227.376 74.9939 227.23 75.0102 227.149 75.1101C226.552 75.8483 226.476 76.8937 226.961 77.7107C227.272 78.2349 227.768 78.6073 228.359 78.7581C228.546 78.8061 228.737 78.8301 228.927 78.8301Z" fill="#FE931F"/>
<path d="M215.999 109.169L216.692 118.564L217.725 132.539C216.107 137.634 215.64 142.925 215.678 148.011C215.714 153.769 216.541 159.264 216.915 163.912L220.304 163.881L223.89 138.466L225.848 124.43L227.83 110.254C228.521 102.691 216.695 101.601 215.999 109.169Z" fill="#FFA88F"/>
<path d="M223.417 111.798C220.798 111.669 218.203 111.99 215.668 112.604C215.152 107.402 216.816 104.613 218.811 103.02C221.284 101.045 225.694 101.712 227.391 105.146C228.357 107.099 227.936 110.307 227.53 112.385C227.463 112.368 224.861 111.87 223.417 111.798Z" fill="#154B73"/>
<path d="M215.677 148.011L223.889 138.466L225.847 124.43L216.691 118.564L217.724 132.54C216.107 137.634 215.639 142.924 215.677 148.011Z" fill="#F58160"/>
<path d="M224.206 169.27C224.113 168.488 221.738 167.623 221.738 167.623L220.765 160.924V160.743L220.072 160.746L218.583 160.752L216.561 160.759C215.664 161.199 215.696 162.269 215.858 163.429L219.414 169.271H224.206V169.27Z" fill="#0E324D"/>
<path d="M216.48 169.27L218.575 163.075L215.854 163.411L215.858 169.27H216.48Z" fill="#0E324D"/>
<path d="M215.035 110.385L215.105 112.846C215.105 112.846 218.901 111.51 222.064 111.721C225.227 111.932 227.759 112.697 227.759 112.697L227.893 110.983C227.894 110.983 222.484 108.33 215.035 110.385Z" fill="white"/>
<path d="M219.238 107.418C219.238 107.418 232.38 122.006 232.38 125.496C232.38 128.986 212.205 144.521 212.205 144.521L209.652 142.305C213.864 134.985 218.034 128.14 223.615 124.384L210.875 115.196C207.199 110.953 213.772 102.556 219.238 107.418Z" fill="#FFA88F"/>
<path d="M210.964 115.39C208.235 112.769 207.349 110.197 207.494 108.104C207.712 104.948 210.506 102.895 214.861 103.222C216.654 103.356 218.938 105.948 219.692 107.926C215.892 108.724 212.667 111.842 210.964 115.39Z" fill="#154B73"/>
<path d="M210.958 90.1417C210.958 90.1417 203.536 84.28 200.191 80.8557C198.396 79.0173 199.894 75.3069 203.599 76.8985C209.356 79.3715 214.523 83.0781 214.523 83.0781C218.411 86.1213 214.327 91.7891 210.958 90.1417Z" fill="#F7BA28"/>
<path d="M204.226 66.8953L205.802 63.5882L207.495 63.7033L207.033 67.7027L204.226 66.8953Z" fill="#FFA88F"/>
<path d="M199.503 78.2483C199.139 80.9709 202.263 83.2182 203.843 80.4083C205.391 78.6602 205.933 73.096 207.401 65.9017L205.056 65.1913C201.913 70.5549 199.503 78.2483 199.503 78.2483Z" fill="#F7BA28"/>
<path d="M216.101 74.8394C216.345 75.1744 216.639 75.5248 216.969 75.88L216.974 75.8848C219.288 78.3414 223.277 80.7885 227.038 78.8493C229.434 77.5754 230.486 72.2522 228.018 69.3654C227.257 67.3245 226.009 64.9101 224.664 63.9712C224.664 63.9664 224.664 63.9664 224.664 63.9664C222.943 62.7635 220.852 62.489 218.68 63.2454C215.024 64.5136 212.969 70.5491 216.101 74.8394Z" fill="#F7BA28"/>
<path d="M215.807 82.6758C216.383 84.135 222.919 85.4118 222.919 83.8067L224.794 74.3949L219.116 72.7062L215.807 82.6758Z" fill="#F7BA28"/>
<path d="M223.583 80.7789C223.583 80.7789 221.988 81.4586 219.8 80.7789C217.612 80.0992 217.005 79.2064 217.005 79.2064C217.005 79.2064 216.22 79.0105 215.738 80.1434C215.256 81.2771 214.344 81.7264 214.127 82.5395C213.91 83.3526 221.146 86.1002 223.109 85.3149C225.072 84.5296 222.992 82.8035 223.583 82.0115C224.176 81.2214 223.583 80.7789 223.583 80.7789Z" fill="#F7BA28"/>
<path d="M225.629 72.9875C225.647 72.9875 225.667 72.9827 225.683 72.9712C226.096 72.7062 226.107 72.2454 226.055 72.039L226.047 72.0026L223.808 70.4656C223.762 70.4349 223.7 70.4454 223.669 70.4915C223.638 70.5366 223.65 70.599 223.695 70.6307L225.869 72.1235C225.886 72.2358 225.91 72.5891 225.576 72.8042C225.53 72.8339 225.517 72.8963 225.547 72.9424C225.564 72.9712 225.595 72.9875 225.629 72.9875Z" fill="#F7BA28"/>
<path d="M227.491 73.8073L222.618 75.3366C222.618 75.3366 223.539 77.3776 225.784 76.9725C228.234 76.5318 227.491 73.8073 227.491 73.8073Z" fill="#F7BA28"/>
<path d="M220.255 71.4592C220.277 71.4592 220.3 71.4515 220.319 71.4371C221.428 70.5606 222.287 70.8112 222.296 70.8141C222.351 70.8314 222.408 70.8006 222.426 70.7459C222.443 70.6912 222.412 70.6336 222.358 70.6163C222.32 70.6038 221.392 70.3264 220.191 71.2749C220.146 71.3104 220.138 71.3757 220.173 71.4198C220.195 71.4458 220.224 71.4592 220.255 71.4592Z" fill="#F7BA28"/>
<path d="M224.656 69.5958C224.694 69.5958 224.73 69.5747 224.749 69.5382C224.764 69.5085 225.12 68.824 226.427 68.7539C226.483 68.751 226.528 68.7021 226.525 68.6454C226.522 68.5878 226.472 68.5427 226.416 68.5475C224.978 68.6253 224.58 69.4144 224.563 69.448C224.538 69.4998 224.56 69.5613 224.611 69.5862C224.626 69.593 224.641 69.5958 224.656 69.5958Z" fill="#F7BA28"/>
<path d="M218.477 74.8617C219.059 74.2802 219.059 73.3374 218.477 72.756C217.896 72.1745 216.953 72.1745 216.372 72.756C215.79 73.3374 215.79 74.2802 216.372 74.8617C216.953 75.4431 217.896 75.4431 218.477 74.8617Z" fill="#F7BA28"/>
<path d="M216.149 78.7283C216.172 78.7283 216.194 78.7283 216.217 78.7273C216.827 78.7101 217.393 78.4557 217.812 78.0121C218.552 77.2278 218.64 76.0182 218.022 75.136C217.948 75.0304 217.802 75.0045 217.697 75.0784C217.591 75.1523 217.565 75.2982 217.639 75.4038C218.13 76.1046 218.059 77.0665 217.471 77.6905C217.138 78.0429 216.688 78.2454 216.203 78.2589C215.719 78.2742 215.257 78.0976 214.904 77.7645C214.552 77.4313 214.349 76.9811 214.335 76.4963C214.32 76.0115 214.496 75.5507 214.829 75.1974C215.347 74.6483 216.163 74.4765 216.858 74.7712C216.978 74.8221 217.115 74.7664 217.165 74.6474C217.216 74.5283 217.16 74.391 217.041 74.3411C216.166 73.9706 215.141 74.1856 214.489 74.8768C214.071 75.3203 213.85 75.9001 213.867 76.5097C213.884 77.1193 214.139 77.6857 214.582 78.1043C215.011 78.5085 215.564 78.7283 216.149 78.7283Z" fill="#F7BA28"/>
<path d="M240.79 89.8528C240.79 89.8547 240.789 89.8566 240.788 89.8576C240.546 90.4307 240.061 90.9251 239.299 91.2026C238.865 91.3629 238.341 91.4512 237.722 91.4435C236.44 91.4282 235.157 91.3322 233.928 91.1882C231.305 90.881 228.927 90.3568 227.316 89.9469C225.995 89.6109 225.19 89.3517 225.19 89.3517C221.63 88.3648 221.668 84.6323 223.482 82.912C223.62 82.7814 223.769 82.6624 223.926 82.5568C224.466 82.1958 225.115 81.9961 225.843 82.0403C225.843 82.0403 227.269 82.4416 229.264 83.0435C230.354 83.3718 231.615 83.7597 232.906 84.1753C233.816 84.4681 234.741 84.7734 235.632 85.0816C237.012 85.5577 238.312 86.0387 239.35 86.4813C240.337 86.9027 240.92 87.8464 240.968 88.7997C240.987 89.1587 240.93 89.5187 240.79 89.8528Z" fill="#F7BA28"/>
<path d="M240.968 88.7997C240.929 89.2182 240.87 89.5725 240.789 89.8528C240.789 89.8547 240.788 89.8566 240.788 89.8576C240.767 89.9296 240.745 89.9968 240.722 90.0582C240.52 90.8051 239.971 91.1536 239.299 91.2025C238.041 91.2957 236.358 90.3357 235.729 88.9504C235.701 87.7024 235.66 86.4121 235.632 85.0816C235.625 84.7033 235.618 84.3213 235.612 83.9363C235.61 83.8317 235.609 83.727 235.608 83.6214C235.577 80.992 235.623 78.2224 235.915 75.3481C236.028 74.2672 236.172 73.1737 236.362 72.0688L239.407 72.1273C239.599 73.3091 239.786 74.5293 239.958 75.7446C240.7 80.9449 241.219 86.1529 240.968 88.7997Z" fill="#F7BA28"/>
<path d="M235.914 75.3482C237.097 75.4643 239.002 75.6515 239.957 75.7446C239.785 74.5293 239.598 73.3081 239.406 72.1273L236.361 72.0688C236.172 73.1737 236.028 74.2672 235.914 75.3482Z" fill="#FFA88F"/>
<path d="M208.92 152.006C209.461 151.434 208.602 149.057 208.602 149.057L213.118 144.014L213.257 143.899L212.81 143.369L211.851 142.23L210.55 140.685C209.637 140.279 208.836 140.99 208.051 141.857L205.849 148.331L208.92 152.006Z" fill="#0E324D"/>
<path d="M203.966 146.079L210.063 143.713L208.059 141.841L203.567 145.601L203.966 146.079Z" fill="#0E324D"/>
<path opacity="0.2" d="M229.264 83.0435C230.354 83.3718 231.615 83.7597 232.906 84.1754L228.758 84.5421C228.758 84.5421 226.358 83.3094 223.482 82.912C223.109 82.8611 222.729 82.839 222.346 82.8045C219.045 82.504 212.591 82.9293 212.502 83.177C212.321 82.5674 211.248 81.927 209.854 81.2742L223.926 82.5568L229.264 83.0435Z" fill="#2E2E2E"/>
<path d="M237.365 83.7817L235.612 83.9363C235.61 83.8317 235.609 83.727 235.608 83.6214L237.365 83.7817Z" fill="#399E9E"/>
<path d="M211.224 115.55C211.224 115.55 213.261 111.718 214.523 110.699C215.784 109.681 218.452 107.788 219.859 107.934C219.441 106.545 218.677 106.339 218.404 106.382C218.404 106.382 215.784 106.625 213.116 109.099C210.449 111.573 209.818 114.387 209.818 114.387C210.149 115.156 210.645 115.469 211.224 115.55Z" fill="white"/>
<path d="M239.58 51.6983L207.501 49.4795L205.282 81.5585L237.361 83.7773L239.58 51.6983Z" fill="white"/>
<path d="M216.376 64.3379L215.599 73.8544C215.513 74.9142 228.451 75.9693 228.537 74.9094L229.314 65.393L216.376 64.3379ZM223.087 69.9722L222.867 72.6688C222.837 73.0278 222.522 73.3024 222.162 73.2736C221.797 73.2438 221.529 72.9213 221.558 72.5622L221.779 69.8589C221.245 69.5642 220.901 68.9718 220.954 68.3267C221.026 67.4435 221.803 66.7898 222.685 66.8618C223.568 66.9338 224.222 67.7046 224.15 68.5869C224.096 69.2397 223.667 69.7686 223.087 69.9722Z" fill="#444444"/>
<path d="M228.237 64.6221L226.927 64.5155L226.979 63.8752C227.16 61.6547 225.501 59.7011 223.281 59.5206C221.061 59.3392 219.107 60.9981 218.926 63.2186L218.875 63.8589L217.565 63.7523L217.617 63.112C217.857 60.1696 220.446 57.9712 223.389 58.2112C226.331 58.4512 228.529 61.0403 228.289 63.9827L228.237 64.6221Z" fill="#444444"/>
<path d="M239.419 72.6918C239.419 72.6918 240.188 70.0768 240.164 69.2147C239.948 68.0474 239.032 67.3629 239.032 67.3629C239.032 67.3629 237.953 67.8083 236.913 68.4333C237.01 68.7088 238.269 68.2941 238.269 68.2941C238.269 68.2941 237.364 69.2474 236.777 69.7936C236.899 70.1536 238.419 69.2147 238.419 69.2147C238.419 69.2147 237.291 70.2986 236.845 70.7939C237.305 71.1952 238.24 70.2477 238.24 70.2477C238.24 70.2477 237.829 72.0563 237.968 72.7888C238.201 74.0272 239.105 73.5559 239.419 72.6918Z" fill="#FFA88F"/>
<path d="M205.642 63.8915C205.642 63.8915 204.965 61.5549 204.99 60.6928C205.673 59.1702 206.437 57.7869 206.908 56.7491C207.25 56.8528 206.656 59.3738 206.656 59.3738C206.656 59.3738 207.939 60.3962 208.528 60.9424C208.405 61.3024 206.728 60.5229 206.728 60.5229C206.728 60.5229 207.865 61.7776 208.311 62.273C207.851 62.6742 206.916 61.7267 206.916 61.7267C206.916 61.7267 206.938 63.0602 206.799 63.7927C206.564 65.0301 205.957 64.7555 205.642 63.8915Z" fill="#FFA88F"/>
<path d="M206.36 59.0224L208.658 58.9149C208.658 58.9149 208.528 59.6167 206.751 59.608C205.787 59.5763 206.36 59.0224 206.36 59.0224Z" fill="#FFA88F"/>
<path d="M164.288 77.7846C161.283 75.8156 156.324 76.9859 150.545 79.3283C144.724 80.2633 142.195 83.8384 143.732 85.9302C143.754 85.9494 143.775 85.9696 143.797 85.9888C147.83 89.4188 157.867 87.4115 161.851 85.8016C164.128 84.8809 166.926 79.6096 164.288 77.7846Z" fill="#443FE0"/>
<path d="M172.022 78.5814C173.705 75.4076 178.614 74.0425 184.807 73.3081C190.357 71.3219 194.296 73.2342 193.958 75.808C193.948 75.8358 193.939 75.8627 193.929 75.8905C192.049 80.8403 182.287 83.9209 178.021 84.4297C175.583 84.7216 170.591 81.4518 172.022 78.5814Z" fill="#443FE0"/>
<path d="M163.45 82.1564C159.662 80.704 159.363 76.5846 162.195 75.087C165.027 73.5894 175.622 72.7897 174.886 77.9651C174.151 83.1404 165.788 83.0531 163.45 82.1564Z" fill="#267FBF"/>
<path d="M180.134 105.451C179.313 128.256 177.481 145.018 175.637 167C172.192 167.442 169.851 167.263 170.141 165.41C169.597 147.56 168.91 124.824 167.053 105.098L180.134 105.451Z" fill="#154B73"/>
<path d="M171.025 107.05C167.392 129.579 162.42 146.863 157.873 168.448C154.399 168.46 152.099 168.085 152.615 166.281C153.689 146.153 156.835 125.543 157.43 105.739L171.025 107.05Z" fill="#154B73"/>
<path d="M160.138 79.8294C160.138 79.8294 164.754 75.5824 175.149 76.7123C177.499 79.0624 179.486 101.622 179.931 110.517C174.621 114.245 158.074 112.731 157.283 110.584L160.138 79.8294Z" fill="white"/>
<path d="M174.386 115.21C177.564 114.903 179.793 114.498 181.642 113.199C182.102 96.8051 177.5 79.0624 175.15 76.7123C173.675 75.088 172.028 75.35 172.028 76.7795C175.553 87.1494 176.726 104.349 174.386 115.21Z" fill="#443FE0"/>
<path d="M166.719 80.1165C164.811 77.008 158.466 79.2035 158.145 83.5177C158.743 93.8675 156.853 105.438 155.408 113.092C157.16 114.565 163.719 115.266 166.321 115.21C167.932 106.774 169.669 88.9859 166.719 80.1165Z" fill="#443FE0"/>
<path d="M178.08 165.37L176.679 164.942C175.755 163.124 171.813 163.349 172.362 165.562C170.816 165.793 170.002 165.022 170.002 165.022C169.312 166.345 169.267 167.754 169.539 169.207H177.891L178.08 165.37Z" fill="white"/>
<path d="M173.669 169.207C173.669 169.188 173.667 169.17 173.667 169.151C173.667 167.023 175.392 165.298 177.519 165.298C179.647 165.298 181.372 167.023 181.372 169.151C181.372 169.17 181.371 169.188 181.371 169.207H173.669Z" fill="white"/>
<path d="M175.286 168.376H169.202V169.245H175.286V168.376Z" fill="white"/>
<path d="M150.573 165.398L151.964 164.973C152.881 163.167 156.797 163.391 156.252 165.588C157.788 165.817 158.596 165.051 158.596 165.051C159.281 166.365 159.326 167.765 159.056 169.209H150.761L150.573 165.398Z" fill="white"/>
<path d="M154.954 169.209C154.954 169.19 154.956 169.172 154.956 169.153C154.956 167.04 153.242 165.326 151.129 165.326C149.016 165.326 147.303 167.039 147.303 169.153C147.303 169.172 147.304 169.19 147.305 169.209H154.954Z" fill="white"/>
<path d="M159.336 168.393H153.294V169.256H159.336V168.393Z" fill="white"/>
<path d="M172.32 74.4073C173.149 74.6531 174.206 75.2176 174.902 76.5213C176.363 79.672 175.027 84.2233 174.405 87.6832C173.807 82.9168 172.969 80.4601 172.256 78.231C172.433 77.2989 172.634 76.3609 172.32 74.4073Z" fill="#443FE0"/>
<path d="M165.76 78.3405C166.621 79.5385 167.904 81.6813 166.859 89.272C165.447 86.3853 156.229 78.8205 162.195 75.0861C161.48 77.0944 164.9 77.1424 165.76 78.3405Z" fill="#443FE0"/>
<path opacity="0.2" d="M152.256 81.8915L158.948 82.4166C158.948 82.4166 169.417 78.3414 177.067 81.1004C178.007 79.5961 183.449 77.44 183.449 77.44L182.96 73.7017L151.863 78.9683L152.256 81.8915Z" fill="#2E2E2E"/>
<path opacity="0.5" d="M164.602 77.0157C166.039 76.6374 169.721 74.6598 170.919 72.303L164.98 73.4646L164.602 77.0157Z" fill="#2E2E2E"/>
<path d="M158.793 63.0803C158.662 63.231 158.25 68.5101 161.706 68.6829C165.163 68.8557 160.632 60.9539 158.793 63.0803Z" fill="#59330B"/>
<path d="M159.855 66.8627C159.095 70.4166 162.447 75.3241 166.397 74.9641C170.348 74.6051 173.665 70.1555 173.247 65.5504C172.827 60.9443 169.286 57.5017 165.335 57.8617C161.385 58.2208 158.092 61.9552 159.855 66.8627Z" fill="#FF9475"/>
<path d="M170.608 61.1065C170.608 61.1065 168.653 63.4029 163.278 64.1065C158.372 64.7488 155.227 62.8633 155.383 59.8729C156.534 60.9069 158.594 59.2489 160.129 58.0288C161.401 57.0179 168.677 53.1414 171.132 59.1894C175.556 60.4537 174.596 64.6845 173.57 66.5641C171.59 65.0387 170.608 61.1065 170.608 61.1065Z" fill="#59330B"/>
<path d="M171.203 62.9094C171.203 62.9094 172.496 65.6339 172.311 67.0345C173.164 65.7673 173.974 65.6704 173.981 65.655C173.987 65.6397 173.99 62.2489 171.203 62.9094Z" fill="#59330B"/>
<path d="M164.465 69.0112C164.185 69.0112 163.765 68.9497 163.545 68.6147C163.286 68.2201 163.725 67.9244 164.016 67.7286C164.107 67.6681 164.206 67.6009 164.237 67.5596L164.183 66.7542C164.181 66.7196 164.207 66.6899 164.242 66.688C164.277 66.6851 164.306 66.712 164.308 66.7465L164.365 67.5856L164.358 67.6C164.326 67.672 164.226 67.7392 164.086 67.8332C163.743 68.0646 163.473 68.2777 163.65 68.5465C163.946 68.9977 164.712 68.8691 164.72 68.8681C164.755 68.8624 164.786 68.8844 164.792 68.919C164.798 68.9526 164.776 68.9852 164.741 68.991C164.729 68.9929 164.618 69.0112 164.465 69.0112Z" fill="#733602"/>
<path d="M162.269 66.3116C162.312 66.7331 162.17 67.0931 161.951 67.1161C161.733 67.1392 161.519 66.8156 161.476 66.3942C161.433 65.9728 161.575 65.6128 161.794 65.5897C162.013 65.5667 162.226 65.8902 162.269 66.3116Z" fill="#522601"/>
<path d="M167.962 66.2755C168.182 66.2528 168.324 65.8929 168.281 65.4715C168.237 65.0502 168.024 64.7269 167.805 64.7495C167.586 64.7721 167.443 65.132 167.486 65.5534C167.53 65.9748 167.743 66.2981 167.962 66.2755Z" fill="#522601"/>
<path d="M165.295 71.4956C164.857 71.4956 164.57 71.4447 164.561 71.4428C164.527 71.4361 164.504 71.4035 164.511 71.3699C164.517 71.3363 164.549 71.3132 164.584 71.3199C164.619 71.3267 168.164 71.9478 169.47 68.6483C169.482 68.6166 169.519 68.6003 169.551 68.6128C169.582 68.6252 169.599 68.6617 169.586 68.6934C168.614 71.151 166.438 71.4956 165.295 71.4956Z" fill="#733602"/>
<path d="M171.965 67.5846C172.23 68.2921 173.018 68.6512 173.726 68.3872C174.433 68.1222 174.792 67.334 174.528 66.6265C174.264 65.919 173.475 65.56 172.768 65.824C172.06 66.0889 171.701 66.8771 171.965 67.5846Z" fill="#FF9475"/>
<path d="M179.003 46.2444L147.81 50.6965L152.262 81.8896L183.455 77.4375L179.003 46.2444Z" fill="white"/>
<path d="M159.351 63.1129L160.558 72.3904C160.693 73.4233 173.305 71.7817 173.171 70.7487L171.963 61.4713L159.351 63.1129ZM166.937 67.1363L167.278 69.7657C167.323 70.1161 167.077 70.4435 166.726 70.4895C166.37 70.5356 166.048 70.2822 166.001 69.9318L165.659 67.2966C165.087 67.1238 164.636 66.6265 164.554 65.9977C164.441 65.1366 165.052 64.3513 165.912 64.24C166.772 64.1276 167.558 64.7324 167.67 65.5926C167.753 66.2272 167.451 66.8214 166.937 67.1363Z" fill="#444444"/>
<path d="M170.774 60.9549L169.497 61.1209L169.415 60.496C169.134 58.3312 167.144 56.8 164.979 57.0813C162.814 57.3625 161.283 59.3526 161.564 61.5174L161.646 62.1424L160.369 62.3085L160.287 61.6835C159.914 58.815 161.944 56.1779 164.813 55.8045C167.681 55.431 170.318 57.4614 170.692 60.3299L170.774 60.9549Z" fill="#444444"/>
<path d="M151.034 64.7843C151.002 65.6944 152.035 65.6781 151.706 67.3571C151.402 68.9065 149.093 68.0723 148.831 66.8185C148.831 66.8185 148.136 64.7939 147.919 63.4509C147.703 62.1069 148.907 58.7632 149.034 58.864C149.678 58.9667 149.225 61.9369 149.225 61.9369C149.225 61.9369 150.371 60.2252 151.002 59.8163C151.768 60.0476 149.901 62.5974 149.901 62.5974C150.287 62.1606 150.78 61.8861 151.224 61.8438C151.864 61.7833 152.428 62.1241 152.64 62.4928C152.728 62.8307 151.558 62.7798 151.416 62.6003L150.703 63.2608C151.201 63.0246 152.446 63.2454 152.832 64.1949C152.752 64.8217 151.622 64.0038 151.622 64.0038C151.622 64.0038 151.054 64.2102 151.034 64.7843Z" fill="#FFA88F"/>
<path d="M149.878 78.6765C150.924 74.8144 152.177 69.9817 152.323 67.288C152.031 66.2157 149.008 65.1088 148.252 66.4009C148.252 66.4009 139.69 82.9379 143.86 85.9936C146.76 87.0074 149.257 84.9654 149.89 78.6707C149.886 78.6717 149.882 78.6736 149.878 78.6765Z" fill="#443FE0"/>
<path d="M178.994 59.631C179.168 60.5248 178.144 60.6697 178.731 62.2768C179.272 63.76 181.423 62.5763 181.487 61.2966C181.487 61.2966 181.859 59.1885 181.864 57.8281C181.867 56.4669 180.158 53.3517 180.048 53.4707C179.428 53.6723 180.339 56.535 180.339 56.535C180.339 56.535 178.94 55.0221 178.254 54.7168C177.533 55.0643 179.774 57.2925 179.774 57.2925C179.325 56.9209 178.795 56.727 178.349 56.7549C177.709 56.7952 177.203 57.2195 177.051 57.616C177.017 57.9625 178.165 57.7312 178.277 57.5315L179.084 58.0729C178.555 57.9174 177.36 58.3293 177.126 59.3277C177.304 59.9344 178.292 58.9504 178.292 58.9504C178.292 58.9504 178.885 59.0665 178.994 59.631Z" fill="#FFA88F"/>
<path d="M185.323 72.2176C182.912 69.0246 179.947 65.007 178.807 62.5619C178.678 61.4589 181.07 59.3037 182.252 60.2214C182.252 60.2214 196.364 72.3712 193.634 76.7622C191.322 78.7849 188.243 77.8211 185.308 72.2157C185.314 72.2166 185.319 72.2176 185.323 72.2176Z" fill="#443FE0"/>
<path d="M98.6941 80.9527C98.6941 80.9527 89.3523 91.7431 92.2246 93.4058C95.0979 95.0685 104.344 84.4548 104.671 81.5143C104.998 78.5748 101.162 75.5325 98.6941 80.9527Z" fill="#FFA88F"/>
<path d="M96.6655 82.7373L102.409 86.9037L106.52 80.7664L101.847 76.0922L96.6655 82.7373Z" fill="#443FE0"/>
<path d="M123.976 83.9757L118.233 88.1431L114.122 82.0048L118.795 77.3306L123.976 83.9757Z" fill="#267FBF"/>
<path d="M114.822 83.1213C114.822 83.1213 121.97 96.0986 125.716 95.1357C128.931 94.3092 122.15 80.0647 120.007 78.0247C117.863 75.9847 112.001 77.8759 114.822 83.1213Z" fill="#FFA88F"/>
<path d="M117.009 87.426L123.94 83.2816L118.817 75.522L112.527 77.4055L112.715 81.21L117.009 87.426Z" fill="#443FE0"/>
<path d="M108.591 111.981L122.19 163.219L125.974 163.365L120.446 111.053C118.352 98.5581 106.247 103.943 108.591 111.981Z" fill="#F7BA28"/>
<path d="M99.3853 110.917C99.3757 127.908 100.744 161.459 100.744 161.459L105.14 161.214L112.14 111.367C112.466 104.374 100.908 100.927 99.3853 110.917Z" fill="#F7BA28"/>
<path d="M129.182 169.276C129.09 168.495 126.715 167.63 126.715 167.63L125.741 160.93V160.751L121.538 160.767C120.642 161.207 120.673 162.277 120.836 163.437L124.391 169.278H129.182V169.276Z" fill="#0E324D"/>
<path d="M121.456 169.277L123.55 163.081L120.83 163.418L120.834 169.277H121.456Z" fill="#0E324D"/>
<path d="M106.683 169.56C107.664 168.828 105.671 167.913 105.671 167.913L105.139 161.213V161.033L107.107 147.933L100.12 147.766L100.722 161.034C100.135 161.901 99.8625 162.786 100.37 163.719L102.62 169.561H106.683V169.56Z" fill="#0E324D"/>
<path d="M100.99 169.56L103.085 163.365L100.364 163.701L100.368 169.56H100.99Z" fill="#0E324D"/>
<path d="M117.05 98.5888L104.495 98.514C104.138 96.2666 100.27 86.514 101.791 82.0855C101.628 79.0576 112.412 77.2759 114.032 79.0672C115.653 80.8586 117.527 83.2663 118.036 84.9588C118.545 86.6512 117.05 98.5888 117.05 98.5888Z" fill="#443FE0"/>
<path d="M105.434 79.5108C105.434 79.5108 107.28 82.5127 111.969 83.4804C113.984 81.161 111.459 78.042 111.459 78.042L105.434 79.5108Z" fill="#FFA88F"/>
<path d="M109.892 71.4794C110.156 72.545 111.327 77.5169 111.569 78.4884C110.648 80.0753 106.062 81.2177 105.434 79.5098L104.495 71.4612C105.786 71.4669 108.628 71.4765 109.892 71.4794Z" fill="#FFA88F"/>
<path opacity="0.6" d="M109.893 71.4794L111.145 76.5444C108.692 76.0711 106.747 74.369 105.544 72.5959C105.544 72.5959 106.512 71.8442 107.77 71.4727L109.893 71.4794Z" fill="#2E2E2E"/>
<path d="M113.405 62.8461C116.197 66.616 115.683 71.3987 113.851 72.8848C110.867 75.304 105.018 74.8931 102.226 71.1242C99.4343 67.3543 99.6744 62.4458 102.761 60.16C105.849 57.8743 110.614 59.0772 113.405 62.8461Z" fill="#FFA88F"/>
<path d="M111.642 67.8458C111.606 67.8458 111.576 67.8189 111.571 67.7824C111.566 67.7431 111.594 67.7085 111.633 67.7037C111.925 67.6701 112.141 67.5741 112.242 67.433C112.297 67.3572 112.314 67.2727 112.295 67.1815C112.266 67.049 112.053 66.9895 111.782 66.9136C111.501 66.8349 111.15 66.736 110.849 66.5076L110.391 66.1274C110.361 66.1024 110.356 66.0573 110.381 66.0276C110.406 65.9978 110.451 65.993 110.481 66.018L110.936 66.3962C111.215 66.6064 111.55 66.7005 111.819 66.7764C112.136 66.8656 112.386 66.9357 112.433 67.1517C112.461 67.2813 112.435 67.4071 112.357 67.5156C112.231 67.6912 111.986 67.8055 111.649 67.8439C111.648 67.8458 111.645 67.8458 111.642 67.8458Z" fill="#94503C"/>
<path d="M108.198 66.2128C108.347 66.4653 108.311 66.762 108.117 66.8762C107.923 66.9904 107.645 66.8781 107.497 66.6266C107.348 66.3741 107.384 66.0775 107.578 65.9632C107.773 65.849 108.05 65.9604 108.198 66.2128Z" fill="#6E3B2D"/>
<path d="M112.457 64.4167C112.642 64.2884 112.661 63.996 112.499 63.7635C112.338 63.5309 112.057 63.4464 111.873 63.5746C111.688 63.7028 111.669 63.9953 111.831 64.2278C111.992 64.4603 112.273 64.5449 112.457 64.4167Z" fill="#6E3B2D"/>
<path d="M111.05 63.6352C111.012 63.6352 110.98 63.6045 110.979 63.5661C110.967 63.1898 111.161 62.8423 111.473 62.68C111.72 62.5504 111.988 62.5706 112.206 62.7338C112.238 62.7578 112.244 62.802 112.221 62.8336C112.198 62.8653 112.152 62.872 112.121 62.848C111.948 62.7184 111.736 62.704 111.538 62.8068C111.278 62.9421 111.111 63.2455 111.12 63.5623C111.121 63.6016 111.091 63.6343 111.051 63.6352C111.052 63.6352 111.051 63.6352 111.05 63.6352Z" fill="#94503C"/>
<path d="M106.764 66.1773C106.726 66.1773 106.694 66.1466 106.693 66.1082C106.68 65.7319 106.874 65.3844 107.186 65.2221C107.435 65.0935 107.702 65.1127 107.92 65.2759C107.952 65.2999 107.957 65.344 107.934 65.3757C107.911 65.4074 107.866 65.4141 107.834 65.3901C107.662 65.2605 107.449 65.2461 107.252 65.3488C106.992 65.4842 106.824 65.7876 106.834 66.1044C106.835 66.1437 106.804 66.1764 106.765 66.1773C106.766 66.1773 106.765 66.1773 106.764 66.1773Z" fill="#94503C"/>
<path d="M108.401 58.985C108.401 58.985 103.575 67.5386 105.319 74.8874C98.8996 72.0516 96.6263 68.058 98.3168 63.3549C99.8298 59.1453 104.647 57.472 108.401 58.985Z" fill="#0E0E0E"/>
<path d="M107.874 60.0151C107.874 60.0151 110.712 60.0928 113.288 62.6935C111.451 59.488 105.559 54.8081 99.9719 60.7149C94.3847 66.6218 107.874 60.0151 107.874 60.0151Z" fill="#0E0E0E"/>
<path d="M106.021 71.3862C106.517 70.6261 106.302 69.6085 105.542 69.1133C104.782 68.6181 103.764 68.8328 103.269 69.5929C102.774 70.353 102.988 71.3706 103.748 71.8659C104.508 72.3611 105.526 72.1463 106.021 71.3862Z" fill="#FFA88F"/>
<path d="M106.512 76.5127C106.485 76.5127 106.458 76.5127 106.43 76.5117C105.686 76.4906 104.995 76.1796 104.483 75.6381C103.58 74.68 103.471 73.2036 104.226 72.1274L104.385 72.2388C103.683 73.24 103.784 74.6138 104.625 75.5047C105.1 76.0087 105.743 76.2967 106.436 76.3168C107.129 76.336 107.786 76.0864 108.29 75.6112C109.33 74.6301 109.378 72.9856 108.397 71.946C107.657 71.1616 106.491 70.9168 105.499 71.3383L105.423 71.1588C106.49 70.7056 107.743 70.9687 108.539 71.8125C109.594 72.9309 109.542 74.6983 108.425 75.7533C107.903 76.2448 107.227 76.5127 106.512 76.5127Z" fill="white"/>
<path d="M111.295 71.0234C110.969 71.0234 110.769 70.9236 110.748 70.912C110.713 70.8938 110.7 70.8506 110.718 70.816C110.736 70.7815 110.78 70.768 110.814 70.7863C110.831 70.7949 112.171 71.4458 113.793 69.0218C113.815 68.9892 113.859 68.9805 113.892 69.0026C113.925 69.0247 113.933 69.0688 113.911 69.1015C112.828 70.7181 111.866 71.0234 111.295 71.0234Z" fill="#94503C"/>
<path d="M104.496 98.5149C104.496 98.5149 99.1021 104.05 99.3853 110.917C105.626 112.604 120.354 110.544 120.354 110.544C119.919 105.99 119.68 103.157 117.05 98.5898C107.984 98.5888 104.496 98.5149 104.496 98.5149Z" fill="#F7BA28"/>
<path d="M93.1404 72.81C93.1404 72.81 93.077 70.7671 93.5397 70.5271C94.0024 70.288 94.2261 72.2032 93.8748 72.7456C93.5234 73.289 93.1365 73.1729 93.1404 72.81Z" fill="#FFA88F"/>
<path d="M126.09 74.442C126.09 74.442 125.334 72.5421 125.688 72.1601C126.043 71.777 126.904 73.5021 126.759 74.1319C126.613 74.7616 126.21 74.7847 126.09 74.442Z" fill="#FFA88F"/>
<path d="M127.456 52.2406L95.3772 50.0219L93.1584 82.1008L125.237 84.3196L127.456 52.2406Z" fill="white"/>
<path d="M104.25 64.8794L103.474 74.3959C103.387 75.4557 116.325 76.5108 116.412 75.4509L117.188 65.9345L104.25 64.8794ZM110.962 70.5136L110.742 73.2103C110.712 73.5693 110.396 73.8439 110.036 73.8151C109.672 73.7853 109.404 73.4628 109.433 73.1037L109.653 70.4004C109.12 70.1056 108.776 69.5133 108.829 68.8682C108.901 67.985 109.677 67.3313 110.56 67.4033C111.443 67.4753 112.097 68.2461 112.025 69.1284C111.972 69.7802 111.542 70.3092 110.962 70.5136Z" fill="#444444"/>
<path d="M116.111 65.1636L114.802 65.057L114.854 64.4167C115.035 62.1962 113.376 60.2426 111.156 60.0621C108.935 59.8807 106.982 61.5396 106.801 63.7601L106.749 64.4004L105.44 64.2938L105.492 63.6535C105.732 60.7111 108.321 58.5127 111.263 58.7527C114.206 58.9927 116.404 61.5818 116.164 64.5242L116.111 65.1636Z" fill="#444444"/>
<path d="M90.7875 91.4119C90.5081 87.5488 91.3817 84.5776 92.6902 76.6308L94.9529 76.8698C94.9529 76.8698 96.7615 86.6388 95.2735 89.9124C94.3193 92.0128 92.1027 96.0592 90.7875 91.4119Z" fill="#FFA88F"/>
<path d="M127.454 93.3386C128.347 89.5696 128.185 86.944 128.164 78.8906L126.039 78.737C126.428 83.8 123.02 87.4029 123.64 91.8852C123.955 94.17 125.412 97.7162 127.454 93.3386Z" fill="#FFA88F"/>
<path d="M121.588 161.267L117.857 147.734H124.524L125.817 161.217L121.588 161.267Z" fill="#0E324D"/>
<path d="M92.9965 77.8836C92.9965 77.8836 91.7322 74.3786 91.6631 73.5194C91.7504 72.3348 92.5866 71.5552 92.5866 71.5552C92.5866 71.5552 93.7079 71.8797 94.81 72.3885C94.7437 72.6727 93.4468 72.3981 93.4468 72.3981C93.4468 72.3981 94.4509 73.2468 95.0941 73.7258C95.0116 74.0973 93.3988 73.3293 93.3988 73.3293C93.3988 73.3293 94.6391 74.2845 95.1354 74.728C94.7216 75.1773 93.6887 74.3373 93.6887 74.3373C93.6887 74.3373 95.4128 76.2362 95.0365 76.8794C94.6612 77.5217 93.8231 78.3089 92.9965 77.8836Z" fill="#FFA88F"/>
<path d="M128.163 78.8906C128.163 78.8906 127.797 75.1831 127.49 74.3767C126.902 73.3447 125.812 73 125.812 73C125.812 73 124.939 73.7757 124.163 74.7079C124.345 74.9364 125.397 74.1309 125.397 74.1309C125.397 74.1309 124.856 75.329 124.481 76.0375C124.715 76.338 125.841 74.9508 125.841 74.9508C125.841 74.9508 125.131 76.3457 124.874 76.9601C125.441 77.1885 126.012 75.9847 126.012 75.9847C126.012 75.9847 125.271 78.4404 125.887 78.8599C126.505 79.2794 127.6 79.6289 128.163 78.8906Z" fill="#FFA88F"/>
<path d="M66.464 160.534L66.3047 166.437H61.4471L61.1101 160.567L66.464 160.534Z" fill="#FFA88F"/>
<path d="M45.2567 160.392L44.1604 166.297H38.8123L39.5947 160.427L45.2567 160.392Z" fill="#FFA88F"/>
<path d="M65.9188 107.813C66.9162 114.149 67.6545 139.671 66.4641 159.809L60.7617 159.844L53.6414 107.813H65.9188Z" fill="#443FE0"/>
<path d="M39.4553 160.719L44.3494 108.043H57.176L45.6608 160.719H39.4553Z" fill="#443FE0"/>
<path d="M58.8407 117.94C58.8407 117.94 55.6371 118.622 51.6147 117.463C55.5018 120.071 58.8407 117.94 58.8407 117.94Z" fill="#185078"/>
<path d="M62.4866 116.667C63.076 118.515 64.2933 119.923 65.9186 120.935V121.402C62.5538 120.11 61.6091 117.112 61.6091 117.112L62.4866 116.667Z" fill="#8A86FF"/>
<path d="M46.784 115.589L47.6615 116.036C47.6615 116.036 46.4461 119.135 43.0813 120.427L43.2061 119.92C44.8314 118.907 46.1946 117.436 46.784 115.589Z" fill="#8A86FF"/>
<path d="M66.9641 163.197C67.4259 164.242 68.6047 164.642 70.9529 165.044C73.4825 164.853 74.6748 167.631 73.4105 168.793C67.2895 168.793 60.9104 168.793 60.9104 168.793C60.7164 167.944 60.8912 165.496 61.0236 164.288C62.1132 165.005 63.2585 164.871 64.4422 164.42C63.5696 162.284 66.7817 161.934 66.9641 163.197Z" fill="#195580"/>
<path d="M70.9529 165.043C70.9529 165.043 68.8342 165.188 68.6892 167.546C67.3721 167.546 60.5264 167.546 60.5264 167.546V168.961H73.9193C73.9193 168.961 74.24 167.691 73.7321 166.312C73.2243 164.934 71.1324 165.017 70.9529 165.043Z" fill="white"/>
<path d="M66.0339 164.652C66.0752 164.742 66.1836 164.783 66.2739 164.741L68.1103 163.899C68.2006 163.857 68.2409 163.749 68.1996 163.659C68.1583 163.568 68.0498 163.528 67.9596 163.569L66.1231 164.412C66.032 164.453 65.9916 164.562 66.0339 164.652Z" fill="#F2F2F2"/>
<path d="M66.7567 165.141C66.798 165.231 66.9065 165.271 66.9967 165.23L68.8332 164.387C68.9234 164.346 68.9637 164.237 68.9224 164.147C68.8812 164.057 68.7727 164.017 68.6824 164.058L66.846 164.901C66.7557 164.943 66.7154 165.051 66.7567 165.141Z" fill="#F2F2F2"/>
<path d="M67.6293 165.5C67.6706 165.59 67.7791 165.63 67.8693 165.589L69.7058 164.746C69.7961 164.705 69.8364 164.596 69.7951 164.506C69.7538 164.416 69.6453 164.376 69.5551 164.417L67.7186 165.26C67.6274 165.301 67.5871 165.409 67.6293 165.5Z" fill="#F2F2F2"/>
<path d="M36.2029 164.788C37.6448 164.451 38.2438 163.897 38.6038 163.083C38.7862 161.82 42.5705 162.361 41.6979 164.496C42.8816 164.947 43.4547 164.891 44.5443 164.174C44.6758 165.382 44.8515 167.83 44.6576 168.678C44.6576 168.678 40.6861 168.678 36.0042 168.678L36.2029 164.788Z" fill="#195580"/>
<path d="M37.2896 164.888C37.2896 164.888 39.801 165.074 39.946 167.432C41.2631 167.432 45.0416 167.432 45.0416 167.432V168.847H33.5898C32.8583 166.482 35.481 164.175 37.2896 164.888Z" fill="white"/>
<path d="M39.1702 164.936C39.1491 165.033 39.0522 165.096 38.9552 165.075C38.4339 164.663 37.759 164.551 36.9805 164.645C36.8835 164.624 36.8211 164.527 36.8422 164.43C36.8634 164.333 36.9603 164.271 37.0573 164.292C37.7667 164.246 38.4358 164.352 39.032 164.721C39.129 164.741 39.1914 164.838 39.1702 164.936Z" fill="#F2F2F2"/>
<path d="M39.9498 164.466C39.9287 164.563 39.8317 164.625 39.7347 164.604C39.2135 164.192 38.5386 164.081 37.76 164.175C37.6631 164.154 37.6007 164.057 37.6218 163.96C37.6429 163.863 37.7399 163.801 37.8368 163.822C38.5463 163.776 39.2154 163.881 39.8115 164.251C39.9085 164.272 39.9709 164.369 39.9498 164.466Z" fill="#F2F2F2"/>
<path d="M40.619 163.999C40.5979 164.096 40.5009 164.159 40.4039 164.138C39.8827 163.726 39.2078 163.614 38.4292 163.708C38.3323 163.687 38.2699 163.59 38.291 163.493C38.3121 163.396 38.4091 163.334 38.506 163.355C39.2155 163.309 39.8846 163.415 40.4807 163.784C40.5787 163.805 40.6401 163.902 40.619 163.999Z" fill="#F2F2F2"/>
<path d="M66.8777 159.492C66.8797 159.463 60.2854 159.492 60.2854 159.492V160.907L66.8777 161.048V159.492Z" fill="#8A86FF"/>
<path d="M46.0958 160.276C46.0977 160.248 39.1742 160.276 39.1742 160.276L39.0273 161.763L45.9489 161.904L46.0958 160.276Z" fill="#8A86FF"/>
<path d="M73.7629 95.5436C68.3177 95.3094 63.2883 91.3072 58.9011 88.8688L61.7005 80.6973C66.2259 83.3795 71.7325 87.0611 74.0173 88.7392C78.5196 91.91 76.6544 96.1052 73.7629 95.5436Z" fill="#FFA88F"/>
<path d="M60.8748 80.0924C64.4556 81.1331 68.0508 83.3469 71.0537 85.4752C66.5753 89.1712 68.4165 94.0883 68.7449 95.2662L60.5359 90.8464C57.0962 88.3629 54.2498 79.7881 60.8748 80.0924Z" fill="#F76F39"/>
<path d="M67.4134 94.55C67.4134 94.55 66.2066 91.9552 67.7638 88.5529C68.8495 86.1789 70.2703 85.1929 70.6995 85.2774C71.1286 85.3619 72.415 85.8409 71.8774 87.1206C71.8774 87.1206 70.1859 88.072 69.246 90.6937C68.0307 94.0825 69.4899 94.6864 69.4899 94.6864C69.4899 94.6864 68.3935 96.063 67.4134 94.55Z" fill="white"/>
<path d="M34.9366 95.5494C40.3683 95.1001 45.2355 90.9011 49.5229 88.2909L46.4019 80.2374C41.9869 83.0963 36.6301 86.9939 34.4134 88.7613C30.0397 92.1078 32.0691 96.2253 34.9366 95.5494Z" fill="#FFA88F"/>
<path d="M47.2025 79.6C43.6658 80.7817 40.1609 83.1366 37.2444 85.382C41.8658 88.8976 40.2204 93.8838 39.9391 95.0742L47.9666 90.3318C51.3055 87.7139 53.8102 79.0336 47.2025 79.6Z" fill="#F76F39"/>
<path d="M41.2409 94.3062C41.2409 94.3062 42.344 91.6662 40.6534 88.3273C39.4736 85.9984 38.0163 85.0691 37.5901 85.1708C37.1648 85.2726 35.8986 85.8016 36.4861 87.0592C36.4861 87.0592 38.2141 87.9433 39.2576 90.5248C40.6064 93.8627 39.1721 94.5241 39.1721 94.5241C39.1721 94.5241 40.3232 95.8566 41.2409 94.3062Z" fill="white"/>
<path d="M66.6138 112.725C63.1626 115.065 48.1712 115.591 42.8538 113.176C42.9056 112.521 42.9565 111.882 43.0064 111.256C43.9462 99.5708 44.6586 92.7164 46.0342 81.6227C52.1888 78.2675 60.0618 78.8435 62.6614 81.0707L66.3968 110.987L66.6138 112.725Z" fill="#F76F39"/>
<path d="M55.832 88.7747L56.0807 94.4521L61.4221 94.2352L61.0448 88.5097L55.832 88.7747Z" fill="#FFB497"/>
<path d="M57.8356 79.5798C59.0154 79.8092 60.6272 80.8595 59.1594 83.2432C57.6925 85.6268 49.2061 85.3696 48.8433 82.5568C48.4804 79.744 56.6557 79.3504 57.8356 79.5798Z" fill="white"/>
<path d="M58.0314 80.9958L57.8134 80.0627L57.0272 76.7209L55.9914 72.304L50.4157 72.4537L50.2266 81.7427C50.8736 85.1113 59.3302 83.751 58.0314 80.9958Z" fill="#FFA88F"/>
<path opacity="0.5" d="M51.9333 75.8838C51.9333 75.8838 55.7398 79.3888 57.8134 80.0627L57.0271 76.7209L51.9333 75.8838Z" fill="#2E2E2E"/>
<path d="M59.4789 66.7936C61.4834 69.6515 62.1736 74.3747 58.8376 76.744C55.5016 79.1133 50.4702 77.5081 47.7083 73.6182C44.9455 69.7283 45.4101 64.6537 48.7461 62.2844C52.0811 59.9152 57.5656 61.766 59.4789 66.7936Z" fill="#FFA88F"/>
<path d="M56.7641 70.9379C56.7421 70.9379 56.7209 70.9264 56.7085 70.9062C56.6902 70.8755 56.7008 70.8361 56.7305 70.8179C56.7373 70.8141 57.4237 70.3984 57.3536 69.8473C57.3113 69.5171 56.9571 69.5315 56.5328 69.5814C56.3609 69.6016 56.2371 69.616 56.1641 69.5814L56.1497 69.5747L55.6304 68.8796C55.6092 68.8508 55.615 68.8105 55.6438 68.7894C55.6726 68.7683 55.7129 68.774 55.734 68.8028L56.2323 69.47C56.2832 69.4816 56.408 69.4672 56.5184 69.4547C56.8774 69.4124 57.4208 69.3491 57.4822 69.832C57.5629 70.4675 56.8285 70.911 56.7977 70.9293C56.7872 70.935 56.7757 70.9379 56.7641 70.9379Z" fill="#733602"/>
<path d="M56.9512 67.5596C56.6584 67.1372 56.6219 66.6908 56.8667 66.5209C57.1115 66.352 57.5167 66.542 57.8095 66.9654L57.628 67.0912C57.4063 66.7705 57.1096 66.6217 56.9925 66.7024C56.8754 66.783 56.9109 67.1132 57.1327 67.4339L56.9512 67.5596Z" fill="#522601"/>
<path d="M51.5271 70.5405C51.2343 70.118 51.1979 69.6716 51.4427 69.5017C51.6875 69.3327 52.0926 69.5238 52.3854 69.9462L52.2039 70.072C51.9822 69.7513 51.6855 69.6025 51.5684 69.6832C51.4513 69.7638 51.4868 70.094 51.7086 70.4147L51.5271 70.5405Z" fill="#522601"/>
<path d="M54.818 74.1846C54.1672 74.1846 53.45 74.0291 52.6859 73.6259C52.6542 73.6096 52.6427 73.5702 52.659 73.5385C52.6753 73.5068 52.7147 73.4953 52.7464 73.5116C55.9854 75.2214 58.3441 72.3539 58.3672 72.3251C58.3892 72.2972 58.4296 72.2924 58.4574 72.3155C58.4852 72.3376 58.4891 72.3779 58.467 72.4057C58.4488 72.4288 57.0049 74.1846 54.818 74.1846Z" fill="#733602"/>
<path d="M59.0921 65.9133C59.0921 65.9133 58.2732 62.8326 54.2115 63.3049C54.8076 64.1968 56.1862 64.7641 57.6675 65.2893C57.6675 65.2893 54.1644 66.3769 51.5158 65.1347C51.894 66.1821 53.3791 66.9145 53.3791 66.9145C53.3791 66.9145 50.8774 68.0723 49.3337 67.0653C49.7974 69.2723 48.4102 72.4777 49.7071 75.7456C45.4227 73.3744 43.6534 72.5728 42.6694 69.5641C41.2582 65.2489 45.5427 60.7408 49.6601 59.3785C57.0895 56.6425 60.5187 61.0173 59.0921 65.9133Z" fill="#2E2E2E"/>
<path d="M50.0988 72.4462C50.2411 71.6799 49.7353 70.9433 48.969 70.801C48.2027 70.6587 47.4662 71.1645 47.3238 71.9308C47.1815 72.6971 47.6874 73.4337 48.4537 73.576C49.2199 73.7183 49.9565 73.2125 50.0988 72.4462Z" fill="#FFA88F"/>
<path d="M57.2999 69.1024C57.417 69.4269 58.0784 69.4854 58.7773 69.2329C59.4762 68.9804 59.9476 68.512 59.8295 68.1875C59.7124 67.863 59.0509 67.8044 58.352 68.0569C57.6531 68.3094 57.1818 68.7779 57.2999 69.1024Z" fill="#FF9475"/>
<path d="M51.1558 72.1388C51.2729 72.4633 51.9612 72.5123 52.6927 72.2483C53.4242 71.9843 53.9215 71.5062 53.8044 71.1817C53.6873 70.8573 52.999 70.8083 52.2674 71.0723C51.5359 71.3363 51.0386 71.8134 51.1558 72.1388Z" fill="#FF9475"/>
<path opacity="0.2" d="M38.6672 89.5523C38.6672 89.5523 39.4583 86.6896 42.057 85.8985C44.6557 85.1075 45.7107 86.8403 45.7107 86.8403C45.7107 86.8403 48.9123 85.0326 54.1482 85.4464C59.384 85.8611 62.2093 86.5014 63.3018 87.8569C64.4317 85.4838 69.7808 84.9184 69.7808 84.9184V82.8467L38.6663 83.3737V89.5523H38.6672Z" fill="#2E2E2E"/>
<path d="M69.6561 53.4275H38.1479V84.9356H69.6561V53.4275Z" fill="white"/>
<path d="M47.528 67.1689L47.3677 76.8006C47.3495 77.8729 60.5053 78.0908 60.5226 77.0195L60.6829 67.3878L47.528 67.1689ZM54.6858 72.4038L54.6407 75.134C54.6349 75.4979 54.3325 75.7945 53.9667 75.7888C53.5952 75.783 53.3034 75.4758 53.3091 75.112L53.3543 72.376C52.7946 72.1139 52.4087 71.5408 52.4192 70.887C52.4346 69.9932 53.1767 69.2848 54.0743 69.2992C54.9719 69.3145 55.6842 70.047 55.6698 70.9408C55.6592 71.6003 55.2589 72.1609 54.6858 72.4038Z" fill="#444444"/>
<path d="M59.5435 66.6813L58.212 66.6592L58.2225 66.0102C58.26 63.7629 56.4542 61.9043 54.1963 61.8669C51.9384 61.8294 50.0712 63.6275 50.0337 65.8739L50.0232 66.5229L48.6917 66.5008L48.7022 65.8518C48.7521 62.8739 51.226 60.4912 54.2184 60.5411C57.2097 60.591 59.603 63.0544 59.554 66.0323L59.5435 66.6813Z" fill="#444444"/>
<path d="M47.8247 67.3494L47.7095 76.7037C47.697 77.7453 60.4151 77.9017 60.4276 76.8601L60.5428 67.5059L47.8247 67.3494ZM54.7664 72.4029L54.7338 75.0544C54.729 75.4077 54.4381 75.6976 54.0858 75.6928C53.7268 75.688 53.4436 75.3913 53.4474 75.0381L53.4801 72.3808C52.9386 72.1283 52.5623 71.5734 52.57 70.9389C52.5805 70.071 53.2957 69.3798 54.1636 69.3904C55.0314 69.4009 55.7226 70.1104 55.7121 70.9782C55.7034 71.6185 55.3194 72.1648 54.7664 72.4029Z" fill="#444444"/>
<path d="M59.4379 66.8252L58.1506 66.8089L58.1582 66.1792C58.1851 63.9961 56.4312 62.199 54.2491 62.1721C52.0661 62.1452 50.2689 63.8992 50.2421 66.0812L50.2344 66.711L48.947 66.6947L48.9547 66.0649C48.9902 63.1724 51.3729 60.8483 54.2654 60.8838C57.1579 60.9193 59.4821 63.302 59.4456 66.1945L59.4379 66.8252Z" fill="#444444"/>
<path d="M69.9756 90.7273C69.6146 89.0579 68.7871 75.9837 68.7871 75.9837L70.9663 74.4179C70.9663 74.4179 77.9811 88.5942 76.6438 92.9209C75.4937 96.6409 70.5362 93.3213 69.9756 90.7273Z" fill="#FFA88F"/>
<path d="M68.5203 73.2275C68.7055 74.1184 67.6851 74.2777 68.2937 75.8771C68.8553 77.3526 70.9894 76.1401 71.0364 74.8595C71.0364 74.8595 71.3791 72.7465 71.3657 71.3862C71.3513 70.0259 69.5983 66.9337 69.4899 67.0547C68.8726 67.2649 69.823 70.1152 69.823 70.1152C69.823 70.1152 68.4041 68.6224 67.7129 68.3257C66.9967 68.6838 69.2681 70.8803 69.2681 70.8803C68.814 70.5155 68.2822 70.3283 67.8367 70.3619C67.1964 70.4108 66.6972 70.8428 66.5503 71.2412C66.5215 71.5888 67.6659 71.3411 67.7743 71.1395L68.5884 71.6704C68.0575 71.5225 66.8681 71.9507 66.6483 72.952C66.8335 73.5558 67.8089 72.5584 67.8089 72.5584C67.8089 72.5584 68.4031 72.6659 68.5203 73.2275Z" fill="#FFA88F"/>
<path d="M38.5674 91.0096C38.8967 89.3334 40.1322 76.5529 40.1322 76.5529L37.7936 75.5737C37.7936 75.5737 30.5235 89.0281 31.9424 93.328C33.1616 97.0259 38.0557 93.6131 38.5674 91.0096Z" fill="#FFA88F"/>
<path d="M39.8711 74.1856C39.7415 75.087 40.7706 75.1821 40.2637 76.816C39.7952 78.3232 37.5891 77.247 37.4624 75.9721C37.4624 75.9721 36.9882 73.8851 36.9162 72.5267C36.8451 71.1673 38.4003 67.9715 38.5165 68.0857C39.1453 68.2566 38.3763 71.1606 38.3763 71.1606C38.3763 71.1606 39.6992 69.5814 40.3703 69.2425C41.1075 69.5545 38.9792 71.8893 38.9792 71.8893C39.4093 71.4966 39.9287 71.2758 40.3751 71.2825C41.0173 71.2912 41.5424 71.6905 41.7143 72.0793C41.7651 72.424 40.6074 72.2493 40.4855 72.0544L39.7059 72.6352C40.2263 72.4537 41.4407 72.807 41.7229 73.792C41.576 74.4064 40.5402 73.4723 40.5402 73.4723C40.5402 73.4723 39.9527 73.6173 39.8711 74.1856Z" fill="#FFA88F"/>
<path d="M66.6138 112.725C63.1626 115.065 48.1712 115.591 42.8538 113.176C42.9056 112.521 42.9565 111.882 43.0064 111.256C45.0531 111.955 50.4838 113.635 54.777 113.386C59.0624 113.138 64.3827 111.608 66.3968 110.987L66.6138 112.725Z" fill="white"/>
</svg>
