<svg width="28" height="28" viewBox="0 0 28 28" fill="none" xmlns="http://www.w3.org/2000/svg">
<path d="M12.0527 24.2556V3.74436C12.0527 1.79709 11.2305 1.01818 9.15346 1.01818H3.91746C1.84036 1.01818 1.01818 1.79709 1.01818 3.74436V24.2556C1.01818 26.2029 1.84036 26.9818 3.91746 26.9818H9.15346C11.2305 26.9818 12.0527 26.2029 12.0527 24.2556Z" stroke="white" stroke-width="2" stroke-linecap="round" stroke-linejoin="round"/>
<path d="M26.9819 24.2556V3.74436C26.9819 1.79709 26.1597 1.01818 24.0826 1.01818H18.8466C16.784 1.01818 15.9474 1.79709 15.9474 3.74436V24.2556C15.9474 26.2029 16.7696 26.9818 18.8466 26.9818H24.0826C26.1597 26.9818 26.9819 26.2029 26.9819 24.2556Z" stroke="white" stroke-width="2" stroke-linecap="round" stroke-linejoin="round"/>
</svg>
