<svg width="63" height="63" viewBox="0 0 63 63" fill="none" xmlns="http://www.w3.org/2000/svg">
<circle cx="31.5" cy="31.5" r="31.5" fill="#E9E9FF"/>
<mask id="mask0_20_519" style="mask-type:alpha" maskUnits="userSpaceOnUse" x="0" y="0" width="63" height="63">
<circle cx="31.5" cy="31.5" r="31.5" fill="#E9E9FF"/>
</mask>
<g mask="url(#mask0_20_519)">
<path d="M26.4283 47.0701C25.1453 47.0701 23.7299 46.2208 22.7722 45.5101C22.4469 45.2691 22.0735 44.98 21.6639 44.6668C20.64 43.8778 19.3631 42.89 18.3331 42.2636C16.0262 40.8601 13.9542 38.5653 13.382 37.9148L6.91309 37.6859V23.965H12.1051C12.1653 23.965 13.8398 24.1036 15.1167 24.1036C16.0804 24.1036 16.2972 24.0253 16.3153 24.0193C16.3635 23.9952 21.417 21.4895 25.0068 21.4895C25.1574 21.4895 25.308 21.4955 25.4586 21.5015C28.8556 21.7124 31.801 26.3563 32.1082 26.8441L41.8357 38.4207C41.8598 38.4448 42.7331 39.4086 42.6368 40.6132C42.5825 41.3239 42.2091 41.9564 41.5405 42.4864C40.9683 42.9382 40.2516 43.1731 39.4625 43.1731C39.336 43.1731 39.2095 43.167 39.0951 43.155C39.1433 43.5766 39.059 43.9741 38.8421 44.3295C38.4145 45.0403 37.511 45.48 36.475 45.48C35.8908 45.48 35.3186 45.3354 34.8186 45.0704C34.0898 45.8594 33.1683 46.2569 32.072 46.2569C30.6988 46.2569 29.3736 45.6125 28.5786 45.1366C28.2714 46.8653 27.0125 47.0701 26.4283 47.0701Z" fill="white"/>
<path d="M25.0189 21.9955C25.1635 21.9955 25.302 22.0015 25.4346 22.0075C28.7232 22.2123 31.6987 27.1393 31.6987 27.1393L41.4563 38.74C41.4563 38.74 43.1488 40.571 41.2334 42.0768C40.6552 42.5286 40.0047 42.6551 39.4747 42.6551C38.8422 42.6551 38.3664 42.4804 38.3664 42.4804C39.1554 43.9681 37.9146 44.962 36.4932 44.962C35.8908 44.962 35.2584 44.7873 34.7344 44.3958C33.9815 45.4017 33.0358 45.739 32.0902 45.739C30.1086 45.739 28.1691 44.2271 28.1691 44.2271C28.1691 45.8594 27.4764 46.5581 26.4344 46.5581C25.5189 46.5581 24.3263 46.0221 23.0795 45.0945C21.9049 44.2211 20.0558 42.7033 18.6042 41.8239C15.9962 40.2337 13.6291 37.4089 13.6291 37.4089L7.43117 37.186V24.471H12.1172C12.1172 24.471 13.8158 24.6095 15.1288 24.6095C15.7854 24.6095 16.3455 24.5734 16.5503 24.471C17.1346 24.1759 21.7423 21.9955 25.0189 21.9955ZM25.0189 20.9775C21.4592 20.9775 16.719 23.2543 16.1407 23.5374C16.0685 23.5555 15.8095 23.5916 15.1228 23.5916C13.864 23.5916 12.2136 23.4591 12.1955 23.4591L12.1534 23.4531H12.1112H7.42515H6.40723V24.471V37.186V38.1678L7.38901 38.2039L13.1412 38.4087C13.882 39.2399 15.8697 41.3541 18.0621 42.6912C19.068 43.3056 20.3329 44.2813 21.3508 45.0644C21.7544 45.3776 22.1338 45.6667 22.4591 45.9076C23.477 46.6665 24.9949 47.57 26.4224 47.57C26.9283 47.57 28.3257 47.4255 28.9099 45.8835C29.7532 46.3172 30.8976 46.7569 32.0842 46.7569C33.1804 46.7569 34.1562 46.3834 34.9392 45.6727C35.4271 45.8715 35.9511 45.9799 36.4871 45.9799C37.6978 45.9799 38.7699 45.4438 39.2879 44.5825C39.4626 44.2934 39.565 43.9862 39.6072 43.667C40.4564 43.6429 41.2334 43.3658 41.8598 42.8719C42.8416 42.1009 43.1067 41.2336 43.1488 40.6433C43.2572 39.3062 42.3899 38.2642 42.2152 38.0714L32.5299 26.543C32.036 25.7419 29.0846 21.2124 25.5008 20.9896C25.3442 20.9836 25.1816 20.9775 25.0189 20.9775Z" fill="#443FE0"/>
<path d="M43.6909 39.6554C42.179 39.6554 41.2695 39.2218 41.2334 39.2037L41.1671 39.1736L35.0475 33.6623C33.4574 32.2288 31.8372 28.7293 31.3674 27.6512C29.1689 27.6692 25.4345 27.9102 24.3021 28.7353C23.3324 29.4401 22.3988 29.5846 21.7784 29.5846C20.7906 29.5846 19.8931 29.1991 19.4956 28.6028C19.2667 28.2595 19.1884 27.856 19.2728 27.4404C19.5799 25.9225 22.0073 24.3083 24.1516 22.8868L24.26 22.8145C25.3502 22.0917 28.3196 21.9954 31.801 21.9592C32.2227 21.9532 32.6021 21.9472 32.9394 21.9412H33.0478C34.0176 21.9412 34.9632 22.2182 35.7824 22.7362L43.0946 25.9647H56.0264V39.4024L49.4852 37.74C47.0578 39.3181 45.0039 39.6554 43.6909 39.6554Z" fill="white"/>
<path d="M33.0418 22.4531C33.9272 22.4531 34.7885 22.7061 35.5354 23.188L42.9801 26.4767H55.5084V38.7459L49.3828 37.1859C47.0638 38.752 45.0882 39.1435 43.6848 39.1435C42.2754 39.1435 41.4442 38.7459 41.4442 38.7459C41.4442 38.7459 37.1677 34.8971 35.3788 33.2829C33.5899 31.6747 31.6926 27.1392 31.6926 27.1392C31.6926 27.1392 31.6564 27.1392 31.5902 27.1392C30.7951 27.1392 25.5549 27.1814 23.9889 28.3198C23.242 28.8618 22.453 29.0727 21.7663 29.0727C20.899 29.0727 20.1883 28.7354 19.9052 28.3198C18.9595 26.9043 22.1578 24.8082 24.525 23.2362C25.7537 22.417 30.5964 22.4953 32.9334 22.4471C32.9755 22.4531 33.0117 22.4531 33.0418 22.4531ZM33.0418 21.4292H32.9213C32.59 21.4352 32.2046 21.4412 31.789 21.4473C28.0967 21.4894 25.1815 21.5858 23.9708 22.3869L23.8624 22.4592C21.0857 24.3023 19.092 25.7358 18.7668 27.338C18.6584 27.8921 18.7608 28.4282 19.0679 28.8859C19.5679 29.6328 20.6039 30.0906 21.7784 30.0906C22.471 30.0906 23.5191 29.928 24.5972 29.1389C25.4284 28.5366 28.3618 28.1993 31.03 28.1571C31.6504 29.5304 33.1562 32.6384 34.7042 34.0358L40.7696 39.4988L40.878 39.5952L41.0105 39.6554C41.1189 39.7096 42.0947 40.1554 43.6908 40.1554C45.034 40.1554 47.1241 39.8241 49.5695 38.2761L55.2614 39.7217L56.5323 40.0469V38.7339V26.4767V25.4587H55.5144H43.1969L36.0173 22.2845C35.1198 21.7243 34.0959 21.4292 33.0418 21.4292Z" fill="#443FE0"/>
<path d="M7.90694 22.6279H-0.079834V38.9749H7.90694V22.6279Z" fill="white"/>
<path d="M7.39506 23.1339V38.4569H0.432229V23.1339H7.39506ZM8.41901 22.116H7.40108H0.432229H-0.585693V23.1339V38.4569V39.4749H0.432229H7.40108H8.41901V38.4569V23.1339V22.116Z" fill="#443FE0"/>
<path d="M63.2123 23.9651H55.0027V40.3121H63.2123V23.9651Z" fill="white"/>
<path d="M62.7004 24.471V39.7941H55.5086V24.471H62.7004ZM63.7243 23.4531H62.7064H55.5086H54.4907V24.471V39.7941V40.812H55.5086H62.7004H63.7183V39.7941V24.471V23.4531H63.7243Z" fill="#443FE0"/>
<path d="M28.7353 45.2933L24.9226 40.4988" stroke="#443FE0" stroke-width="1.6936" stroke-miterlimit="10" stroke-linecap="round" stroke-linejoin="round"/>
<path d="M35.138 45.1065C35.138 45.1065 32.6564 43.2092 31.3133 41.6612C29.9701 40.1193 28.8618 38.74 28.8618 38.74" fill="white"/>
<path d="M35.138 45.1065C35.138 45.1065 32.6564 43.2092 31.3133 41.6612C29.9701 40.1193 28.8618 38.74 28.8618 38.74" stroke="#443FE0" stroke-width="1.6936" stroke-miterlimit="10" stroke-linecap="round" stroke-linejoin="round"/>
<path d="M39.083 43.0828C39.083 43.0828 37.77 41.7637 36.6617 40.4928C35.5534 39.2219 33.4995 37.186 33.4995 37.186" fill="white"/>
<path d="M39.083 43.0828C39.083 43.0828 37.77 41.7637 36.6617 40.4928C35.5534 39.2219 33.4995 37.186 33.4995 37.186" stroke="#443FE0" stroke-width="1.6936" stroke-miterlimit="10" stroke-linecap="round" stroke-linejoin="round"/>
<path d="M9.12987 58.8815L59.8754 8.13597C58.6889 6.69643 57.3939 5.34723 56.0025 4.10645L5.10034 55.0086C6.34715 56.4 7.69032 57.695 9.12987 58.8815Z" fill="#F76F39"/>
</g>
<circle cx="31.5" cy="31.5" r="31" stroke="#443FE0" stroke-opacity="0.15"/>
</svg>
