<?xml version="1.0" encoding="UTF-8"?><svg id="Layer_1" xmlns="http://www.w3.org/2000/svg" width="1000" height="1000" viewBox="0 0 1000 1000"><defs><style>.cls-1{fill:#cafa00;}.cls-2{fill:#0e2ca3;}.cls-3{fill:#fff;}</style></defs><path class="cls-2" d="M143.3,797.29h54.72c16.64,0,29.44,11.84,29.44,28.32,0,10.08-4.96,19.04-12,23.36,10.4,4,17.6,15.68,17.6,28.8,0,17.44-13.28,29.92-31.2,29.92h-58.56v-110.41ZM167.3,819.7v20.8h24.48c5.76,0,10.24-4.48,10.24-10.4s-4.32-10.4-10.24-10.4h-24.48ZM167.3,861.46v23.84h28.48c6.72,0,11.84-5.12,11.84-11.84s-5.12-12-11.84-12h-28.48Z"/><path class="cls-2" d="M246.67,797.29h24.8v47.04l37.6-47.04h30.24l-42.08,51.68,43.52,58.72h-30.88l-28.8-40-9.6,10.72v29.28h-24.8v-110.41Z"/><path class="cls-2" d="M348.76,797.29h24.8v43.2h44.32v-43.2h24.8v110.41h-24.8v-43.84h-44.32v43.84h-24.8v-110.41Z"/><path class="cls-2" d="M457.73,866.9c0-24.32,18.88-42.72,44-42.72s44,18.24,44,43.2c0,2.24-.16,4.96-.64,7.04h-62.4c2.56,9.28,10.08,15.2,19.84,15.2,7.52,0,13.6-3.2,16.96-7.68h24.96c-6.08,16.48-22.4,27.68-42.56,27.68-25.28,0-44.16-18.4-44.16-42.72ZM482.85,858.9h37.92c-2.4-8.96-9.76-14.72-19.04-14.72s-16.32,5.76-18.88,14.72Z"/><path class="cls-2" d="M554.7,866.9c0-24.32,16.96-42.72,39.36-42.72,9.92,0,18.4,3.68,24.64,10.08v-8.16h23.36v81.61h-23.36v-8.16c-6.24,6.4-14.72,10.08-24.64,10.08-22.4,0-39.36-18.4-39.36-42.72ZM618.71,866.9c0-11.52-8.48-20.16-20-20.16s-19.84,8.64-19.84,20.16,8.48,20.16,19.84,20.16,20-8.64,20-20.16Z"/><path class="cls-2" d="M660.95,792.49h23.36v115.21h-23.36v-115.21Z"/><path class="cls-2" d="M710.39,881.14v-33.76h-12.16v-21.28h6.72c4.48,0,6.72-2.24,6.72-6.72v-14.72h22.08v21.44h17.76v21.28h-17.76v29.92c0,5.76,3.52,9.12,9.6,9.12h8.16v21.28h-11.68c-19.36,0-29.44-9.12-29.44-26.56Z"/><path class="cls-2" d="M766.72,792.49h23.36v42.24c6.4-6.88,14.72-10.56,24.8-10.56,18.72,0,31.2,12.32,31.2,31.04v52.48h-23.36v-44.64c0-9.92-6.24-16.32-15.68-16.32-10.08,0-16.96,6.56-16.96,16.64v44.32h-23.36v-115.21Z"/><path class="cls-2" d="M146.49,994.13h23.01v5.22h-29.42v-64.07h6.42v58.84Z"/><path class="cls-2" d="M234.11,984.14h-29.15l-5.59,15.21h-6.78l23.37-63.24h7.24l23.28,63.24h-6.78l-5.59-15.21ZM232.19,978.83l-12.65-34.65-12.65,34.65h25.3Z"/><path class="cls-2" d="M314.22,971.77c2.5,2.99,3.76,6.48,3.76,10.45,0,3.24-.81,6.16-2.43,8.75-1.62,2.6-3.99,4.64-7.1,6.14-3.12,1.5-6.84,2.25-11.18,2.25h-22.18v-64.07h21.54c6.48,0,11.41,1.5,14.8,4.49,3.39,2.99,5.09,6.87,5.09,11.64,0,3.97-1.07,7.2-3.21,9.67-2.14,2.48-4.89,4.2-8.25,5.18,3.6.67,6.66,2.51,9.17,5.5ZM281.5,963.61h14.94c4.34,0,7.68-1.02,10.04-3.07,2.35-2.05,3.53-4.87,3.53-8.48s-1.18-6.32-3.53-8.34c-2.35-2.02-5.79-3.02-10.31-3.02h-14.66v22.91ZM307.66,990.65c2.6-2.2,3.9-5.22,3.9-9.07s-1.36-6.92-4.08-9.21c-2.72-2.29-6.37-3.44-10.95-3.44h-15.03v25.02h15.31c4.64,0,8.26-1.1,10.86-3.3Z"/><path class="cls-2" d="M360.78,995.83c-4.83-2.78-8.63-6.66-11.41-11.64-2.78-4.98-4.17-10.62-4.17-16.91s1.39-11.93,4.17-16.91c2.78-4.98,6.58-8.86,11.41-11.64,4.83-2.78,10.2-4.17,16.13-4.17s11.4,1.39,16.22,4.17c4.83,2.78,8.62,6.66,11.37,11.64,2.75,4.98,4.12,10.62,4.12,16.91s-1.37,11.93-4.12,16.91c-2.75,4.98-6.54,8.86-11.37,11.64-4.83,2.78-10.23,4.17-16.22,4.17s-11.31-1.39-16.13-4.17ZM389.74,991.11c3.79-2.2,6.78-5.36,8.98-9.49,2.2-4.12,3.3-8.9,3.3-14.34s-1.1-10.2-3.3-14.3c-2.2-4.09-5.19-7.24-8.98-9.44-3.79-2.2-8.07-3.3-12.83-3.3s-9.04,1.1-12.83,3.3c-3.79,2.2-6.78,5.35-8.98,9.44-2.2,4.09-3.3,8.86-3.3,14.3s1.1,10.22,3.3,14.34c2.2,4.12,5.19,7.29,8.98,9.49,3.79,2.2,8.07,3.3,12.83,3.3s9.04-1.1,12.83-3.3Z"/><path class="cls-2" d="M472.78,999.36l-15.86-26.76h-11.82v26.76h-6.42v-64.07h19.25c7.15,0,12.57,1.71,16.27,5.13,3.7,3.42,5.54,7.91,5.54,13.47,0,4.64-1.33,8.6-3.99,11.87-2.66,3.27-6.59,5.39-11.78,6.37l16.5,27.22h-7.7ZM445.1,967.37h12.92c5.01,0,8.78-1.22,11.32-3.67,2.54-2.44,3.8-5.71,3.8-9.81s-1.22-7.47-3.67-9.76c-2.45-2.29-6.29-3.44-11.55-3.44h-12.83v26.67Z"/><path class="cls-2" d="M547.93,984.14h-29.15l-5.59,15.21h-6.78l23.37-63.24h7.24l23.28,63.24h-6.78l-5.59-15.21ZM546.01,978.83l-12.65-34.65-12.65,34.65h25.3Z"/><path class="cls-2" d="M626.39,935.29v5.32h-17.78v58.75h-6.42v-58.75h-17.87v-5.32h42.07Z"/><path class="cls-2" d="M667.54,995.83c-4.83-2.78-8.63-6.66-11.41-11.64-2.78-4.98-4.17-10.62-4.17-16.91s1.39-11.93,4.17-16.91c2.78-4.98,6.58-8.86,11.41-11.64,4.83-2.78,10.2-4.17,16.13-4.17s11.4,1.39,16.22,4.17c4.83,2.78,8.62,6.66,11.37,11.64,2.75,4.98,4.12,10.62,4.12,16.91s-1.37,11.93-4.12,16.91c-2.75,4.98-6.54,8.86-11.37,11.64-4.83,2.78-10.23,4.17-16.22,4.17s-11.31-1.39-16.13-4.17ZM696.51,991.11c3.79-2.2,6.78-5.36,8.98-9.49,2.2-4.12,3.3-8.9,3.3-14.34s-1.1-10.2-3.3-14.3c-2.2-4.09-5.19-7.24-8.98-9.44-3.79-2.2-8.07-3.3-12.83-3.3s-9.04,1.1-12.83,3.3c-3.79,2.2-6.78,5.35-8.98,9.44-2.2,4.09-3.3,8.86-3.3,14.3s1.1,10.22,3.3,14.34c2.2,4.12,5.19,7.29,8.98,9.49,3.79,2.2,8.07,3.3,12.83,3.3s9.04-1.1,12.83-3.3Z"/><path class="cls-2" d="M779.54,999.36l-15.86-26.76h-11.82v26.76h-6.42v-64.07h19.25c7.15,0,12.57,1.71,16.27,5.13,3.7,3.42,5.54,7.91,5.54,13.47,0,4.64-1.33,8.6-3.99,11.87-2.66,3.27-6.59,5.39-11.78,6.37l16.5,27.22h-7.7ZM751.86,967.37h12.92c5.01,0,8.78-1.22,11.32-3.67,2.54-2.44,3.8-5.71,3.8-9.81s-1.22-7.47-3.67-9.76c-2.45-2.29-6.29-3.44-11.55-3.44h-12.83v26.67Z"/><path class="cls-2" d="M859.92,935.29l-20.53,39.14v24.93h-6.42v-24.93l-20.71-39.14h7.24l16.68,33.27,16.59-33.27h7.15Z"/><rect class="cls-2" x="141.69" y="0" width="716.62" height="716.62"/><path class="cls-3" d="M650.52,440.19c-.33,7.54-1.64,15.53-4.04,23.92-13.27,46.38-47.8,60.29-86.85,63.99-1.01.1-2.04.19-3.06.28h-91.27l18.45-101.71c.72-2.64,1.52-5.2,2.39-7.68,3.44-9.87,7.98-18.43,13.35-25.76,15.38-20.17,39.65-33.18,66.96-33.18,45.13,0,81.96,35.52,84.07,80.13Z"/><path class="cls-3" d="M477.68,375.08l-.81,4.62-25.78,146.25-.43,2.43h-116.57l16.16-91.73s11.11-61.58,70.79-61.58h56.63Z"/><path class="cls-1" d="M665.91,264.92c0,42.35-34.33,76.68-76.68,76.68-2.28,0-4.54-.1-6.77-.29-.59-.05-1.18-.11-1.76-.17-41.77-4.62-71.44-42.98-66.5-84.71l1.44-12.15c.13-1.07.28-2.13.47-3.2l7.2-40.86v-.03s2.11-11.95,2.11-11.95h63.81c40.81,0,74.18,31.88,76.54,72.1.09,1.52.14,3.04.14,4.59Z"/><path class="cls-3" d="M510.61,188.24l-.61,3.43-25.28,143.47-3.89,21.6-.65,3.63h-47.88c-31.54,0-57.1-25.56-57.1-57.1,0-1.5.06-2.99.18-4.45-.09-1.2-.14-2.42-.18-3.65h0s18.84-106.93,18.84-106.93h116.57Z"/></svg>