<svg width="58" height="58" viewBox="0 0 58 58" fill="none" xmlns="http://www.w3.org/2000/svg">
<rect width="58" height="58" rx="6" fill="#E5FCFF"/>
<path d="M28.9999 29C31.9915 29 34.4166 26.5748 34.4166 23.5833C34.4166 20.5917 31.9915 18.1666 28.9999 18.1666C26.0084 18.1666 23.5833 20.5917 23.5833 23.5833C23.5833 26.5748 26.0084 29 28.9999 29Z" stroke="#19CFE5" stroke-width="1.5" stroke-linecap="round" stroke-linejoin="round"/>
<path d="M19.6941 39.8333C19.6941 35.6408 23.865 32.25 29 32.25C30.04 32.25 31.0475 32.3908 31.99 32.6508" stroke="#19CFE5" stroke-width="1.5" stroke-linecap="round" stroke-linejoin="round"/>
<path d="M39.8334 35.5C39.8334 35.8466 39.7901 36.1825 39.7034 36.5075C39.6059 36.9408 39.4326 37.3633 39.2051 37.7316C38.4576 38.9883 37.0817 39.8333 35.5001 39.8333C34.3842 39.8333 33.3768 39.4108 32.6184 38.7174C32.2934 38.4358 32.0118 38.1 31.7951 37.7316C31.3943 37.0816 31.1667 36.3125 31.1667 35.5C31.1667 34.33 31.6326 33.2575 32.3909 32.4775C33.1818 31.665 34.2867 31.1666 35.5001 31.1666C36.7784 31.1666 37.9376 31.7191 38.7176 32.6075C39.4109 33.3766 39.8334 34.395 39.8334 35.5Z" stroke="#19CFE5" stroke-width="1.5" stroke-miterlimit="10" stroke-linecap="round" stroke-linejoin="round"/>
<path d="M37.1141 35.4783H33.8857" stroke="#19CFE5" stroke-width="1.5" stroke-miterlimit="10" stroke-linecap="round" stroke-linejoin="round"/>
<path d="M28.9999 29C31.9915 29 34.4166 26.5748 34.4166 23.5833C34.4166 20.5917 31.9915 18.1666 28.9999 18.1666C26.0084 18.1666 23.5833 20.5917 23.5833 23.5833C23.5833 26.5748 26.0084 29 28.9999 29Z" stroke="#19CFE5" stroke-width="1.5" stroke-linecap="round" stroke-linejoin="round"/>
<path d="M19.6941 39.8333C19.6941 35.6408 23.865 32.25 29 32.25C30.04 32.25 31.0475 32.3908 31.99 32.6508" stroke="#19CFE5" stroke-width="1.5" stroke-linecap="round" stroke-linejoin="round"/>
<path d="M39.8334 35.5C39.8334 35.8466 39.7901 36.1825 39.7034 36.5075C39.6059 36.9408 39.4326 37.3633 39.2051 37.7316C38.4576 38.9883 37.0817 39.8333 35.5001 39.8333C34.3842 39.8333 33.3768 39.4108 32.6184 38.7174C32.2934 38.4358 32.0118 38.1 31.7951 37.7316C31.3943 37.0816 31.1667 36.3125 31.1667 35.5C31.1667 34.33 31.6326 33.2575 32.3909 32.4775C33.1818 31.665 34.2867 31.1666 35.5001 31.1666C36.7784 31.1666 37.9376 31.7191 38.7176 32.6075C39.4109 33.3766 39.8334 34.395 39.8334 35.5Z" stroke="#19CFE5" stroke-width="1.5" stroke-miterlimit="10" stroke-linecap="round" stroke-linejoin="round"/>
<path d="M37.1141 35.4783H33.8857" stroke="#19CFE5" stroke-width="1.5" stroke-miterlimit="10" stroke-linecap="round" stroke-linejoin="round"/>
</svg>
