<svg width="58" height="58" viewBox="0 0 58 58" fill="none" xmlns="http://www.w3.org/2000/svg">
<rect width="58" height="58" rx="6" fill="#E5FFEA"/>
<path d="M23.8649 18.1666H34.1241C34.8283 18.1666 35.4566 18.1883 36.0199 18.2642C39.0208 18.6 39.8333 20.0083 39.8333 23.865V30.7116C39.8333 34.5683 39.0208 35.9766 36.0199 36.3125C35.4566 36.3883 34.8391 36.41 34.1241 36.41H23.8649C23.1608 36.41 22.5324 36.3883 21.9691 36.3125C18.9682 35.9766 18.1558 34.5683 18.1558 30.7116V23.865C18.1558 20.0083 18.9682 18.6 21.9691 18.2642C22.5324 18.1883 23.1608 18.1666 23.8649 18.1666Z" stroke="#46CB5C" stroke-width="1.5" stroke-linecap="round" stroke-linejoin="round"/>
<path d="M30.7117 25.0133H34.6983" stroke="#46CB5C" stroke-width="1.5" stroke-linecap="round" stroke-linejoin="round"/>
<path d="M23.3015 31.2858H23.3232H34.709" stroke="#46CB5C" stroke-width="1.5" stroke-linecap="round" stroke-linejoin="round"/>
<path d="M23.5833 39.8334H34.4166" stroke="#46CB5C" stroke-width="1.5" stroke-linecap="round" stroke-linejoin="round"/>
<path d="M23.7943 24.9916H23.804" stroke="#46CB5C" stroke-width="2" stroke-linecap="round" stroke-linejoin="round"/>
<path d="M27.369 24.9916H27.3787" stroke="#46CB5C" stroke-width="2" stroke-linecap="round" stroke-linejoin="round"/>
</svg>
