<svg width="46" height="46" viewBox="0 0 46 46" fill="none" xmlns="http://www.w3.org/2000/svg">
<rect width="46" height="46" rx="6" transform="matrix(1 0 0 -1 0 46)" fill="#F1E5FF"/>
<path d="M23 23C25.3012 23 27.1667 21.1345 27.1667 18.8333C27.1667 16.5321 25.3012 14.6666 23 14.6666C20.6989 14.6666 18.8334 16.5321 18.8334 18.8333C18.8334 21.1345 20.6989 23 23 23Z" stroke="#7D1BF7" stroke-width="1.5" stroke-linecap="round" stroke-linejoin="round"/>
<path d="M29.0083 26.1167L26.0583 29.0667C25.9416 29.1834 25.8333 29.4 25.8083 29.5584L25.6499 30.6833C25.5916 31.0917 25.875 31.375 26.2833 31.3167L27.4083 31.1583C27.5666 31.1333 27.7916 31.025 27.9 30.9083L30.8499 27.9584C31.3583 27.45 31.5999 26.8583 30.8499 26.1083C30.1083 25.3667 29.5166 25.6083 29.0083 26.1167Z" stroke="#7D1BF7" stroke-width="1.5" stroke-miterlimit="10" stroke-linecap="round" stroke-linejoin="round"/>
<path d="M28.5833 26.5416C28.8333 27.4416 29.5332 28.1416 30.4332 28.3916" stroke="#7D1BF7" stroke-width="1.5" stroke-miterlimit="10" stroke-linecap="round" stroke-linejoin="round"/>
<path d="M15.8417 31.3333C15.8417 28.1083 19.05 25.5 23 25.5C23.8667 25.5 24.7 25.625 25.475 25.8583" stroke="#7D1BF7" stroke-width="1.5" stroke-linecap="round" stroke-linejoin="round"/>
</svg>
