<svg width="46" height="46" viewBox="0 0 46 46" fill="none" xmlns="http://www.w3.org/2000/svg">
<rect width="46" height="46" rx="6" transform="matrix(1 0 0 -1 0 46)" fill="#E5FFEA"/>
<path d="M27.1666 28.3584H23.8333L20.1249 30.825C19.5749 31.1917 18.8333 30.8001 18.8333 30.1334V28.3584C16.3333 28.3584 14.6666 26.6917 14.6666 24.1917V19.1917C14.6666 16.6917 16.3333 15.025 18.8333 15.025H27.1666C29.6666 15.025 31.3333 16.6917 31.3333 19.1917V24.1917C31.3333 26.6917 29.6666 28.3584 27.1666 28.3584Z" stroke="#46CB5C" stroke-width="1.5" stroke-miterlimit="10" stroke-linecap="round" stroke-linejoin="round"/>
<path d="M23 22.4667V22.2917C23 21.725 23.35 21.425 23.7 21.1834C24.0417 20.95 24.3833 20.65 24.3833 20.1C24.3833 19.3334 23.7667 18.7167 23 18.7167C22.2333 18.7167 21.6167 19.3334 21.6167 20.1" stroke="#46CB5C" stroke-width="1.5" stroke-linecap="round" stroke-linejoin="round"/>
<path d="M22.9963 24.4583H23.0038" stroke="#46CB5C" stroke-width="1.5" stroke-linecap="round" stroke-linejoin="round"/>
</svg>
