<svg width="33" height="31" viewBox="0 0 33 31" fill="none" xmlns="http://www.w3.org/2000/svg">
<path d="M33 22.6334C32.9573 22.8871 32.9112 23.1408 32.8751 23.3962C32.76 24.2056 32.4936 24.97 32.1632 25.7151C31.6749 26.8151 30.9926 27.7979 30.2149 28.7149C29.6625 29.3653 29.0855 29.9948 28.3341 30.4444C27.7587 30.7881 27.1422 30.9776 26.4631 30.9952C24.9703 31.0354 23.5235 30.7961 22.1162 30.3224C21.0015 29.945 19.9427 29.4536 18.9875 28.7631C18.2773 28.2492 17.886 27.5602 17.7446 26.7123C17.6558 26.1792 17.6739 25.6444 17.6624 25.1081C17.5522 24.9362 17.618 24.7451 17.6048 24.5637C17.6525 23.7671 17.687 22.969 17.7627 22.1741C17.8317 21.4675 17.9106 20.7625 18.0668 20.0672C18.2855 19.0892 18.6653 18.1851 19.3328 17.4127C20.4211 16.1552 21.8071 15.4278 23.4742 15.2158C24.0102 15.1468 24.5527 15.0841 25.0969 15.1644C25.2005 15.1805 25.309 15.1644 25.4142 15.1548C25.5721 15.1612 25.7233 15.219 25.8844 15.2158C26.1113 15.2656 26.3497 15.2543 26.5667 15.3491C27.1668 15.5113 27.7801 15.6349 28.367 15.8453C29.5655 16.2757 30.6588 16.8683 31.5138 17.8125C32.2256 18.5962 32.6219 19.5324 32.8389 20.5522C32.9079 20.8717 32.9195 21.1993 33.0017 21.5157C33 21.8883 33 22.2608 33 22.6334Z" fill="white"/>
<path d="M0 19.1582C0.105221 18.9768 0.0970008 18.768 0.146323 18.5721C0.371562 17.6985 0.785871 16.902 1.18867 16.1006C2.54833 13.3931 3.90798 10.6856 5.27093 7.97966C5.70167 7.12533 6.28697 6.39304 7.09092 5.84223C8.42427 4.92848 9.80366 5.01841 10.9923 6.10399C11.1156 6.2164 11.1765 6.19873 11.2981 6.11202C12.1202 5.52587 12.3027 4.69723 12.2616 3.77224C12.2287 3.0512 12.1432 2.32534 12.329 1.61233C12.5213 0.876832 12.9208 0.309955 13.7001 0.0674661C13.7593 0.0498014 13.8234 0.0449837 13.8859 0.0353484C14.0125 -0.00961634 14.149 0.054619 14.2756 -0.00158691C14.2904 -0.00158691 14.3035 -0.00158691 14.3183 -0.00158691C15.3212 0.220025 15.8605 0.884861 16.1169 1.81146C16.2222 2.19205 16.2534 2.58389 16.2682 2.97733C16.2912 3.60202 16.2846 4.22992 16.4326 4.84497C16.5986 5.5339 17.036 5.99157 17.6673 6.30311C17.7742 6.35611 17.8054 6.29027 17.858 6.24209C18.2871 5.84062 18.7705 5.52747 19.3525 5.38294C20.1679 5.179 20.9193 5.35243 21.6114 5.78763C22.5765 6.39465 23.2128 7.26343 23.6386 8.28799C24.6185 10.6422 25.5901 12.998 26.5651 15.3523C26.3333 15.3699 26.1113 15.3057 25.8877 15.2688C25.8104 15.2126 25.7776 15.1291 25.743 15.0456C24.9654 13.1394 24.1696 11.2396 23.3838 9.33663C23.1421 8.75048 22.93 8.14988 22.5667 7.61512C22.2625 7.17029 21.9222 6.7624 21.475 6.44925C21.4076 6.39626 21.3435 6.34166 21.2629 6.30793C20.5362 5.86953 19.7799 5.78281 19.0122 6.18428C18.4614 6.47173 18.0339 6.90211 17.7051 7.42242C17.2481 8.14828 17.0491 8.95604 16.9225 9.78467C16.7959 10.6085 16.7647 11.4436 16.671 12.2706C16.5937 12.9515 16.4573 13.6179 16.2419 14.2699C15.9722 15.0889 15.6549 15.8951 15.4461 16.7333C15.2538 17.5058 15.1551 18.2878 15.091 19.0795C15.0088 20.0977 15.1058 21.1013 15.2719 22.1018C15.3607 22.6334 15.5004 23.1537 15.7782 23.6274C16.1531 24.2665 16.7137 24.5572 17.4667 24.493C17.5391 24.4865 17.6081 24.4882 17.6657 24.5411C17.6657 24.7322 17.664 24.9217 17.664 25.1128C16.523 25.2301 15.6714 24.8125 15.1403 23.8073C15.0088 23.5567 14.9036 23.2934 14.8263 23.0204C14.5748 22.1403 14.4794 21.2378 14.4383 20.3273C14.3479 18.3135 14.7573 16.3849 15.4807 14.5124C15.9032 13.4172 16.0561 12.2754 16.1416 11.1192C16.1843 10.5491 16.2337 9.97898 16.3339 9.41532C16.3471 9.34305 16.3586 9.29167 16.2715 9.24991C15.9114 9.07327 15.5941 8.82917 15.2571 8.61719C15.0795 8.50478 14.8954 8.40361 14.7014 8.32332C14.2821 8.14988 13.8744 8.15952 13.4913 8.40843C13.1576 8.62522 12.837 8.8629 12.5082 9.08611C12.4506 9.12626 12.449 9.17283 12.4556 9.22904C12.62 10.4351 12.5246 11.6507 12.615 12.8599C12.6808 13.74 12.9208 14.5798 13.1543 15.4229C13.4996 16.6723 13.6804 17.9458 13.6607 19.2385C13.6377 20.671 13.4519 22.0793 12.9241 23.4283C12.809 23.7254 12.6512 24.0016 12.4605 24.2585C11.8999 25.0101 11.1387 25.3136 10.2081 25.1771C8.84187 24.9779 7.49372 24.6841 6.13736 24.4335C5.17557 24.2569 4.20885 24.1027 3.2783 23.7928C2.15046 23.417 1.19854 22.818 0.586937 21.7838C0.312375 21.3197 0.134815 20.8235 0.0476784 20.2952C0.041102 20.2583 0.0575428 20.2101 0.00164408 20.1924C0.00164408 20.1507 0.00164408 20.1089 0.00164408 20.0688C0.0361698 19.9853 0.0361698 19.9034 0.00164408 19.8198C0.00164408 19.7363 0.00164408 19.6544 0.00164408 19.5709C0.0361698 19.4874 0.0361698 19.4055 0.00164408 19.322C0 19.269 0 19.2128 0 19.1582Z" fill="#2E2E2E"/>
<path d="M14.2756 0C14.1523 0.0802942 14.0175 0.0321177 13.8859 0.0369353C13.8909 0.0240883 13.8925 0.0128471 13.8941 0C14.0224 0 14.149 0 14.2756 0Z" fill="#404040"/>
<path d="M0 19.8198C0.0591869 19.9033 0.0723396 19.9852 0 20.0687C0 19.9852 0 19.9033 0 19.8198Z" fill="#404040"/>
<path d="M0 19.3236C0.0706955 19.4071 0.060831 19.489 0 19.5725C0 19.489 0 19.4055 0 19.3236Z" fill="#3A3A3A"/>
<path d="M17.664 24.538C17.516 24.5444 17.3681 24.5556 17.2218 24.554C16.3964 24.5428 15.9048 24.0771 15.5875 23.3881C15.2669 22.6944 15.1667 21.9509 15.0828 21.2041C14.828 18.9463 15.2226 16.7799 16.0413 14.6714C16.4375 13.6533 16.6069 12.5886 16.6924 11.5062C16.7762 10.4431 16.8436 9.37681 17.1971 8.35546C17.4881 7.5188 17.9567 6.80739 18.708 6.29512C19.535 5.72984 20.5329 5.72824 21.3089 6.28387C21.3829 6.33687 21.4388 6.40913 21.5161 6.45731C22.1754 7.03543 22.57 7.77735 22.8807 8.56744C23.4742 10.0705 24.0611 11.5769 24.6546 13.0816C24.9062 13.7175 25.1561 14.3534 25.4027 14.9926C25.4274 15.0552 25.4701 15.1178 25.4191 15.1869C25.281 15.2704 25.1249 15.2415 24.9884 15.219C24.5281 15.1419 24.0792 15.2335 23.6255 15.2624C22.9728 15.3041 22.348 15.4711 21.7545 15.7265C19.9953 16.4861 18.7919 17.7386 18.2575 19.5661C18.0093 20.4124 17.8991 21.2812 17.8268 22.158C17.7758 22.7795 17.7084 23.401 17.7002 24.0257C17.7002 24.1959 17.6541 24.3661 17.664 24.538Z" fill="#FFEBB5"/>
<path d="M23.295 25.0791C23.295 24.8703 23.3032 24.6664 23.4479 24.493C23.5317 24.3934 23.632 24.3388 23.7619 24.3789C23.9016 24.4207 23.8901 24.5395 23.8934 24.6519C23.8967 24.7595 23.8458 24.9025 24.043 24.9089C24.1532 24.9121 24.2173 24.9025 24.2387 24.766C24.2946 24.4255 24.4014 24.0979 24.5807 23.7976C24.6596 23.6659 24.5642 23.5728 24.5067 23.4764C24.4491 23.3817 24.362 23.3993 24.265 23.4379C24.1318 23.4925 24.0513 23.4299 24.0167 23.2982C23.9477 23.0284 24.3291 22.5129 24.6908 22.5884C24.9029 22.6317 25.0065 22.8003 24.8963 22.9834C24.8454 23.0669 24.7895 23.136 24.8914 23.2131C25.0032 23.2998 25.041 23.1809 25.092 23.1328C25.4142 22.8357 25.7775 22.6028 26.2001 22.4695C26.4418 22.3941 26.3415 22.2158 26.3398 22.0761C26.3382 21.9524 26.2971 21.824 26.1129 21.8448C26.0603 21.8513 25.9929 21.8577 25.9732 21.7854C25.9584 21.7356 25.9831 21.6939 26.0143 21.6537C26.1803 21.4402 26.5947 21.3326 26.8396 21.445C27.0073 21.5221 27.0369 21.681 26.8988 21.8047C26.7525 21.9348 26.8922 22.0552 26.9087 22.1773C26.9202 22.2736 26.9925 22.3009 27.0912 22.3057C27.6091 22.3266 28.1089 22.4214 28.5725 22.6622C28.6448 22.7008 28.7205 22.7554 28.7846 22.6414C28.8405 22.5418 28.9506 22.4519 28.8175 22.3362C28.7303 22.2608 28.6744 22.1564 28.7369 22.0616C28.8027 21.9605 28.9292 22.0006 29.0246 22.0375C29.2005 22.1034 29.3912 22.1387 29.531 22.2816C29.6231 22.3748 29.6477 22.4792 29.5688 22.5787C29.4899 22.6783 29.3764 22.659 29.2909 22.5836C29.1956 22.5 29.166 22.5514 29.1265 22.6317C29.0443 22.7971 29.0147 22.9079 29.2252 23.0428C29.6296 23.2998 29.9436 23.6579 30.1771 24.0754C30.2264 24.1621 30.2593 24.2264 30.3843 24.167C30.5026 24.1107 30.4961 24.0513 30.4385 23.9598C30.4122 23.9164 30.3612 23.8634 30.427 23.8153C30.4829 23.7735 30.5322 23.8137 30.5783 23.8458C30.7953 23.9951 30.889 24.2119 30.9219 24.4576C30.9301 24.5122 30.9515 24.5909 30.866 24.6166C30.7936 24.6375 30.7197 24.6262 30.6753 24.562C30.6144 24.4769 30.5585 24.4383 30.4517 24.4994C30.3366 24.5652 30.404 24.6471 30.4204 24.7162C30.5503 25.2541 30.5158 25.7777 30.2823 26.2851C30.2396 26.3767 30.2511 26.4393 30.3251 26.5035C30.3941 26.5629 30.4582 26.6272 30.5207 26.693C30.5931 26.7685 30.6638 26.8022 30.7525 26.7123C30.838 26.6272 30.9548 26.6111 31.0403 26.6802C31.1422 26.7621 31.1109 26.8889 31.0468 26.9821C30.8906 27.2085 30.6769 27.3739 30.4237 27.4911C30.3843 27.5088 30.3432 27.5265 30.3086 27.4879C30.279 27.4526 30.279 27.4044 30.3037 27.3707C30.4451 27.178 30.3185 27.1041 30.159 27.0383C30.1081 27.0174 30.062 26.9821 30.016 26.9516C29.9436 26.905 29.8828 26.8921 29.8138 26.966C29.4833 27.3097 29.0854 27.5714 28.6843 27.8268C28.5741 27.8974 28.5659 27.9568 28.6169 28.0741C28.6941 28.2555 28.7352 28.4482 29.0098 28.3888C29.0854 28.3728 29.1463 28.429 29.1742 28.4964C29.2104 28.5847 29.1759 28.6747 29.1068 28.7196C28.8766 28.869 28.6284 28.983 28.3472 29.0071C28.2831 29.0135 28.2141 29.0087 28.1845 28.938C28.1565 28.8722 28.1894 28.8031 28.242 28.7742C28.3966 28.6859 28.3851 28.6056 28.27 28.4884C28.1878 28.4049 28.1532 28.2411 28.0612 28.2106C27.974 28.1801 27.8425 28.278 27.7291 28.315C27.4068 28.4193 27.078 28.4065 26.7476 28.3599C26.6818 28.3503 26.5996 28.3117 26.5667 28.4049C26.5322 28.5028 26.5897 28.5574 26.6834 28.5896C26.7426 28.6088 26.8067 28.6297 26.8528 28.6683C26.9892 28.7823 26.9662 28.9477 26.7969 29.0119C26.4927 29.1291 26.1754 29.1243 25.8663 29.0328C25.7808 29.0071 25.7019 28.9348 25.7167 28.8304C25.7364 28.7004 25.8482 28.6345 25.9617 28.6458C26.1639 28.6634 26.1919 28.5446 26.2149 28.4033C26.2412 28.2395 26.1014 28.2379 26.0028 28.2025C25.5803 28.0548 25.1923 27.8541 24.9013 27.5088C24.8552 27.4542 24.8092 27.4205 24.7401 27.4606C24.6579 27.5072 24.5576 27.5361 24.556 27.6598C24.5527 27.8926 24.3834 27.9793 24.1779 27.8428C24.0578 27.7625 23.9559 27.6517 23.8556 27.5457C23.7931 27.4815 23.7356 27.4044 23.7915 27.3049C23.854 27.1924 23.9855 27.2021 24.0513 27.2422C24.2814 27.3868 24.3719 27.2374 24.4902 27.0913C24.556 27.011 24.5511 26.9564 24.5116 26.8713C24.3554 26.5308 24.2518 26.1759 24.2239 25.8017C24.2009 25.5014 23.9115 25.3682 23.6402 25.5271C23.4972 25.6106 23.3443 25.5448 23.3081 25.373C23.2917 25.275 23.2999 25.1755 23.295 25.0791Z" fill="#FFEBB5"/>
<path d="M23.29 17.7178C23.4331 17.6889 23.5334 17.7467 23.6189 17.8366C23.6501 17.8688 23.7126 17.8944 23.6896 17.9507C23.6682 18.0069 23.6123 17.9876 23.5613 17.9876C23.4512 17.986 23.438 18.0518 23.5071 18.1161C23.7356 18.3248 23.8836 18.5705 23.9395 18.874C23.9608 18.9865 24.1515 19.0282 24.2485 18.9415C24.2979 18.8981 24.339 18.8419 24.4064 18.8821C24.4738 18.9222 24.4754 18.9865 24.4557 19.0635C24.4261 19.1776 24.3965 19.2868 24.2913 19.3976C24.2683 19.2338 24.1598 19.2354 24.043 19.2386C23.9066 19.2418 23.9247 19.3542 23.8918 19.4297C23.8326 19.5694 23.78 19.7107 23.7257 19.8536C23.6698 19.9982 23.7159 20.0624 23.8671 20.0415C23.9296 20.0319 24.0019 20.003 24.043 20.0624C24.0891 20.1282 24.0447 20.1973 24.0052 20.2535C23.9658 20.3097 23.9148 20.3595 23.8655 20.4077C23.7882 20.4847 23.7405 20.5137 23.7142 20.3627C23.6945 20.2439 23.6057 20.1764 23.4956 20.3049C23.3673 20.4542 23.2243 20.5827 23.0352 20.6582C22.9892 20.6758 22.9135 20.6903 22.9579 20.7706C22.9892 20.8268 22.999 20.9119 23.1043 20.8718C23.1651 20.8477 23.2193 20.8686 23.244 20.928C23.272 20.9922 23.2522 21.0532 23.1963 21.095C23.124 21.1496 23.0467 21.1994 22.9678 21.2427C22.9053 21.2781 22.8248 21.3005 22.7705 21.2443C22.7113 21.1817 22.7508 21.1175 22.8149 21.0709C22.9053 21.0051 22.8264 20.9488 22.8018 20.8926C22.7754 20.8284 22.7409 20.7674 22.6472 20.7867C22.3529 20.8477 22.0619 20.8477 21.7791 20.6999C21.7298 20.7883 21.8663 20.891 21.7315 20.9569C21.6246 21.0083 21.5407 20.9408 21.4454 20.936C21.3911 20.9328 21.3533 20.8975 21.3517 20.8413C21.35 20.785 21.3862 20.7529 21.4388 20.7401C21.6443 20.6919 21.5687 20.5811 21.4898 20.4863C21.3878 20.3643 21.2596 20.2663 21.161 20.1379C21.0771 20.0271 20.9818 20.0977 20.9193 20.1716C20.8305 20.2744 20.7598 20.239 20.6957 20.1587C20.6447 20.0945 20.602 20.0222 20.5658 19.9484C20.5214 19.8536 20.5214 19.7525 20.6217 19.6914C20.7187 19.6304 20.7532 19.7332 20.8058 19.7782C20.8354 19.8038 20.8453 19.8552 20.9045 19.8279C20.9702 19.7974 20.9456 19.7525 20.9308 19.7059C20.8831 19.5533 20.8798 19.396 20.8732 19.237C20.8683 19.1181 20.8469 18.9784 20.6579 19.0973C20.5757 19.1486 20.5066 19.1165 20.4754 19.0282C20.4293 18.9029 20.4573 18.7793 20.528 18.6733C20.5888 18.5818 20.745 18.6091 20.7943 18.7135C20.8141 18.7568 20.8141 18.8162 20.8798 18.8114C20.9275 18.8082 20.9423 18.7568 20.9522 18.7199C20.9785 18.6091 21.0508 18.5224 21.1084 18.4292C21.207 18.2718 21.1511 18.161 20.967 18.1482C20.9472 18.1466 20.9176 18.1594 20.9078 18.1498C20.8601 18.1048 20.865 18.0422 20.893 17.9972C20.9538 17.8977 21.0245 17.7965 21.1659 17.7981C21.2349 17.7997 21.2908 17.8158 21.2892 17.9025C21.2843 18.0936 21.373 18.1161 21.5243 18.0245C21.7117 17.9105 21.9189 17.8479 22.1343 17.8077C22.1852 17.7981 22.2543 17.8125 22.2707 17.7371C22.2855 17.6696 22.2411 17.6359 22.1885 17.6102C22.1425 17.5877 22.0981 17.562 22.1178 17.501C22.1359 17.448 22.1819 17.4336 22.2329 17.4271C22.302 17.4175 22.371 17.395 22.4401 17.395C22.4943 17.395 22.5519 17.4207 22.5683 17.4833C22.5814 17.5379 22.5634 17.5797 22.5025 17.5893C22.4351 17.599 22.3973 17.6279 22.4236 17.7001C22.4433 17.7563 22.4762 17.7981 22.5436 17.7965C22.7738 17.7869 22.9892 17.8431 23.1963 17.9362C23.2506 17.9603 23.2884 17.9507 23.3279 17.9105C23.415 17.8238 23.2785 17.7949 23.29 17.7178Z" fill="#FFEBB5"/>
<path d="M21.5259 27.1443C21.5259 27.3948 21.3928 27.5265 21.1412 27.5265C20.8815 27.5265 20.7911 27.4237 20.7878 27.1315C20.7861 26.8649 20.9324 26.6786 21.1429 26.6834C21.3517 26.6883 21.5243 26.897 21.5259 27.1443Z" fill="#F7BA28"/>
<path d="M25.9962 17.8638C25.9913 17.6406 26.1343 17.4672 26.3267 17.4624C26.5026 17.4575 26.713 17.6808 26.7196 17.8767C26.7245 18.0662 26.5536 18.2412 26.3661 18.238C26.1656 18.2348 26.0011 18.0678 25.9962 17.8638Z" fill="#F7BA28"/>
<path d="M19.7372 22.4133C19.9164 22.4117 20.0381 22.5193 20.043 22.6799C20.0463 22.855 19.9263 22.9658 19.7339 22.9625C19.5531 22.9593 19.4396 22.8517 19.4396 22.6863C19.4396 22.5225 19.5563 22.415 19.7372 22.4133Z" fill="#F7BA28"/>
<path d="M25.1512 20.7384C25.2794 20.7529 25.355 20.8235 25.355 20.9407C25.3567 21.0805 25.2876 21.1816 25.1298 21.1849C25.0015 21.1881 24.9243 21.1029 24.9226 20.9937C24.9193 20.854 25.0196 20.7737 25.1512 20.7384Z" fill="#F7BA28"/>
<path d="M30.9712 20.5955C30.963 20.724 30.9038 20.8107 30.7657 20.8107C30.6506 20.8107 30.5717 20.7432 30.5848 20.6292C30.5996 20.5104 30.6473 20.3932 30.8035 20.398C30.9252 20.4012 30.9663 20.4879 30.9712 20.5955Z" fill="#F7BA28"/>
<path d="M11.5447 8.92398C11.5661 9.09099 11.5875 9.2564 11.6105 9.42341C11.7009 9.63057 11.7059 9.85218 11.7091 10.0706C11.7174 10.6214 11.7141 11.1722 11.7108 11.7246C11.7059 12.7765 11.8324 13.8123 12.1087 14.8304C12.3651 15.7779 12.5542 16.7382 12.6348 17.7162C12.7729 19.4072 12.615 21.0741 12.1432 22.7057C11.9327 23.4299 11.5957 24.0932 10.9792 24.5846C10.6438 24.6745 10.3067 24.6311 9.97628 24.5701C8.10203 24.2184 6.22777 23.8699 4.35845 23.4958C3.5134 23.3272 2.70451 23.0413 2.00906 22.5146C0.774356 21.5784 0.305793 20.0383 0.777644 18.4854C0.993019 17.7772 1.33006 17.1188 1.66052 16.4588C3.02675 13.7384 4.39462 11.0181 5.76414 8.29929C6.22449 7.38554 6.83773 6.60187 7.77321 6.10244C8.77117 5.56928 9.82338 5.72827 10.6043 6.53763C10.7671 6.70625 10.8723 6.92304 10.9841 7.1286C11.0696 7.16072 11.1091 7.23137 11.1436 7.30846C11.3376 7.73562 11.4642 8.18366 11.5579 8.64134C11.5793 8.74091 11.5497 8.83084 11.5447 8.92398Z" fill="#FFEBB5"/>
<path d="M16.5559 6.25175C16.7631 6.41716 16.9751 6.57453 17.2103 6.7014C17.3122 6.756 17.3549 6.80578 17.2678 6.92943C16.9291 7.40156 16.7088 7.9299 16.5477 8.48232C16.4786 8.71678 16.477 8.71839 16.2567 8.57868C15.9016 8.35385 15.5645 8.10173 15.1897 7.90902C14.435 7.52201 13.7034 7.53325 12.9998 8.02625C12.8452 8.13545 12.6923 8.24626 12.5411 8.35867C12.3306 8.51284 12.3306 8.51284 12.2649 8.27516C12.1333 7.80143 11.9492 7.34857 11.6845 6.92943C11.5234 6.6741 11.5201 6.67089 11.7667 6.47657C12.3076 6.0478 12.6611 5.50822 12.786 4.83536C12.8715 4.37768 12.8551 3.91519 12.8337 3.4543C12.809 2.9099 12.7581 2.36711 12.8814 1.82754C12.9619 1.47264 13.1033 1.14664 13.3828 0.891305C14.0174 0.313186 14.7047 0.623122 15.0664 1.0535C15.1338 1.13379 15.2357 1.20124 15.2538 1.31847C15.3031 1.39234 15.3327 1.47745 15.3705 1.55775C15.5448 1.99937 15.6007 2.46347 15.6073 2.93238C15.6171 3.52977 15.6286 4.12877 15.7355 4.71813C15.8128 5.14208 15.9723 5.53713 16.2172 5.89524C16.2863 5.98035 16.3537 6.06707 16.4342 6.14255C16.4704 6.18109 16.5148 6.21481 16.5559 6.25175Z" fill="#F7BA28"/>
<path d="M10.9792 24.5845C10.9578 24.5684 10.8838 24.5636 10.9315 24.5283C11.7716 23.8924 12.038 22.9642 12.2566 22.0199C12.3947 21.4273 12.5065 20.8283 12.546 20.2165C12.5772 19.7299 12.6331 19.2465 12.6233 18.7584C12.6002 17.7017 12.4868 16.6546 12.2418 15.6221C12.0676 14.8882 11.8522 14.1623 11.7502 13.4156C11.696 13.0221 11.6648 12.6239 11.6565 12.2272C11.6417 11.5527 11.6549 10.8767 11.6483 10.2022C11.6467 9.94204 11.6237 9.68188 11.6105 9.42173C11.6384 9.42013 11.6697 9.42494 11.6943 9.41531C11.8456 9.3575 11.8949 9.39764 11.9097 9.56305C11.9755 10.305 11.9919 11.0501 11.9837 11.7936C11.9689 13.0526 12.2057 14.2699 12.5608 15.4727C12.9192 16.6916 13.0951 17.9377 13.0803 19.2048C13.0639 20.512 12.8929 21.7999 12.449 23.0396C12.2813 23.5118 12.0429 23.9502 11.6384 24.2778C11.4461 24.4352 11.234 24.5556 10.9792 24.5845Z" fill="#FEFEFE"/>
<path d="M16.2221 5.96267C15.7569 5.41507 15.6434 4.75344 15.5892 4.07415C15.5366 3.41574 15.5859 2.75251 15.4626 2.09891C15.4264 1.90942 15.3754 1.72474 15.3327 1.53685C15.308 1.4935 15.3343 1.48868 15.3689 1.49189C15.5958 1.89497 15.6401 2.33819 15.673 2.78302C15.7174 3.39808 15.6862 4.01795 15.793 4.62979C15.872 5.08907 16.0232 5.51624 16.2698 5.9145C16.283 5.95625 16.2632 5.9691 16.2221 5.96267Z" fill="#FBFAFA"/>
<path d="M11.5447 8.92394C11.4494 8.29765 11.2932 7.69062 10.9841 7.12856C11.0515 7.10769 11.0992 7.09966 11.1502 7.17835C11.451 7.64726 11.6352 8.15954 11.7667 8.6943C11.7881 8.78423 11.7502 8.81956 11.6713 8.83883C11.6187 8.85007 11.5579 8.85489 11.5447 8.92394Z" fill="#F76F39"/>
<path d="M16.2221 5.96273C16.2369 5.94667 16.2534 5.93061 16.2682 5.91455C16.3241 5.9836 16.38 6.05266 16.4375 6.12171C16.4507 6.13295 16.454 6.14419 16.449 6.15383C16.4441 6.16346 16.4392 6.16989 16.4359 6.16989C16.3471 6.11689 16.278 6.04623 16.2221 5.96273Z" fill="#D8CFD1"/>
<path d="M15.3689 1.49031C15.3574 1.50476 15.3442 1.52082 15.3327 1.53528C15.2867 1.46943 15.2472 1.40038 15.2505 1.31848C15.3278 1.35221 15.3459 1.42286 15.3689 1.49031Z" fill="#FBF3F5"/>
<path d="M21.4832 6.40104C21.4816 6.41871 21.4799 6.43798 21.4783 6.45564C21.4059 6.41389 21.3451 6.3609 21.3089 6.28381C21.3796 6.30469 21.4339 6.34805 21.4832 6.40104Z" fill="#FEFBFB"/>
<path d="M16.4359 6.16827C16.4359 6.15222 16.4375 6.13616 16.4375 6.1217C16.4836 6.15864 16.5378 6.18915 16.5543 6.25178C16.5033 6.24054 16.4589 6.21966 16.4359 6.16827Z" fill="#D4C0C5"/>
<path d="M29.1545 26.0908C29.1496 26.5132 28.9276 26.8231 28.5922 27.0544C28.3209 27.2423 27.9642 27.1539 27.7817 26.8793C27.4562 26.3879 27.6206 25.699 28.1384 25.3987C28.3505 25.2767 28.5676 25.2783 28.7813 25.3955C29.023 25.5288 29.1561 25.7825 29.1545 26.0908Z" fill="#F7BA28"/>
<path d="M26.2198 24.9137C25.8532 24.9105 25.5803 24.7081 25.5868 24.4447C25.5951 24.1412 25.8943 23.796 26.1541 23.7928C26.501 23.7895 26.8594 24.0288 26.8561 24.2617C26.8528 24.5636 26.5075 24.9153 26.2198 24.9137Z" fill="#F7BA28"/>
<path d="M27.6156 23.7864C27.6156 23.4155 27.7915 23.2998 28.1417 23.446C28.4788 23.5873 28.6859 23.8571 28.8273 24.1686C28.949 24.4384 28.7944 24.6327 28.4952 24.6279C28.0497 24.6215 27.6156 24.2072 27.6156 23.7864Z" fill="#F7BA28"/>
<path d="M25.8614 26.2257C26.1787 26.2321 26.4845 26.5132 26.4763 26.791C26.4697 26.9949 26.3267 27.1122 26.0949 27.1057C25.7447 27.0945 25.4537 26.8504 25.4603 26.5726C25.4652 26.3462 25.6099 26.2209 25.8614 26.2257Z" fill="#F7BA28"/>
<path d="M23.4725 19.3317C23.4725 19.5726 23.4068 19.6625 23.2309 19.6625C23.0385 19.6625 22.8774 19.4859 22.8774 19.2771C22.8774 19.0651 22.981 18.9431 23.1618 18.9479C23.3558 18.9527 23.4709 19.094 23.4725 19.3317Z" fill="#F7BA28"/>
<path d="M22.3316 18.2429C22.514 18.2349 22.639 18.2782 22.7475 18.3569C22.8577 18.4356 22.8741 18.5368 22.7607 18.6315C22.6094 18.7568 22.2641 18.7054 22.154 18.5416C22.1063 18.4693 22.0767 18.3874 22.1244 18.3103C22.1819 18.2156 22.2872 18.2525 22.3316 18.2429Z" fill="#F7BA28"/>
<path d="M22.2214 20.3594C22.0685 20.3546 21.9534 20.2967 21.9518 20.1474C21.9518 20.0045 22.0751 19.9515 22.2033 19.9499C22.3447 19.9483 22.4878 19.99 22.4878 20.157C22.4878 20.3192 22.3381 20.3337 22.2214 20.3594Z" fill="#F7BA28"/>
<path d="M21.4536 18.8724C21.6213 18.8579 21.6706 18.9463 21.6805 19.0587C21.6953 19.2145 21.5868 19.3237 21.4306 19.3285C21.2876 19.3317 21.2284 19.2594 21.2218 19.1277C21.2136 18.9463 21.3254 18.8869 21.4536 18.8724Z" fill="#F7BA28"/>
<path d="M11.3918 11.9013C11.4231 12.1068 11.3655 12.3043 11.3442 12.5003C11.3113 12.8006 11.0532 12.9708 10.7507 12.7684C10.5961 12.6657 10.4876 12.534 10.4301 12.3718C10.2722 11.9366 10.2837 11.4869 10.3166 11.0309C10.3873 10.0706 10.5599 9.10542 10.2476 8.15313C10.121 7.7645 9.88587 7.44172 9.6146 7.13981C9.4617 6.96959 9.38607 6.78491 9.40251 6.55688C9.4206 6.30957 9.66721 6.17307 9.88751 6.29993C10.1621 6.45731 10.3216 6.71425 10.4333 6.98725C10.7918 7.85443 11.0384 8.75533 11.183 9.68032C11.2751 10.2697 11.3672 10.8574 11.3557 11.4564C11.354 11.6058 11.4149 11.7535 11.3918 11.9013Z" fill="#F7BA28"/>
</svg>
