<svg width="32" height="30" viewBox="0 0 32 30" fill="none" xmlns="http://www.w3.org/2000/svg">
<path d="M16.9206 30C16.8591 30 16.7976 30 16.7361 30C16.6717 29.9343 16.5902 29.9714 16.5158 29.9643C16.4042 29.9771 16.2869 29.9258 16.1824 30C16.0107 30 15.8391 30 15.6659 30C15.4814 29.94 15.2968 29.9386 15.1123 30C15.0264 30 14.9406 30 14.8547 30C14.8233 29.9443 14.7675 29.9657 14.7217 29.9614C14.0994 29.9029 13.4784 29.8344 12.8632 29.7231C11.0563 29.395 9.35522 28.7714 7.7314 27.9253C6.28069 27.1705 4.9616 26.2316 3.77986 25.1029C2.80986 24.1769 1.97005 23.1424 1.23325 22.0223C0.576572 21.0249 0.138784 19.9476 0.0271912 18.7519C0.0271912 18.6663 0.0271912 18.5793 0.0286218 18.4937C0.0286218 18.3324 0.0286218 18.1726 0.0300525 18.0114C0.125908 17.0283 0.565127 16.2535 1.41495 15.7227C1.80839 15.4772 2.24474 15.3417 2.68825 15.2233C2.71115 15.5828 2.73261 15.9424 2.75693 16.3034C2.80128 16.9683 2.79556 17.6375 2.90715 18.2967C3.04163 19.0915 3.47656 19.5424 4.26486 19.7236C4.48662 19.775 4.71267 19.7978 4.93871 19.8121C6.5611 19.9163 8.18635 19.9676 9.81161 19.9919C9.93321 19.9933 9.98043 20.0204 9.98615 20.1531C10.0233 20.9051 10.102 21.6542 10.1736 22.4019C10.1893 22.5631 10.2623 22.6601 10.4282 22.6887C10.8274 22.7572 11.2223 22.8413 11.6228 22.9013C13.1851 23.1353 14.7603 23.2066 16.3369 23.2252C17.7175 23.2409 19.0996 23.2195 20.4802 23.2023C21.3472 23.1909 21.8307 22.78 22.0081 21.9324C22.1269 21.3645 22.104 20.7881 22.1197 20.213C22.1269 19.9548 22.1212 19.9534 22.3844 19.9705C23.7192 20.0532 25.0555 20.1146 26.3932 20.0432C27.16 20.0019 27.924 19.9476 28.6751 19.7778C29.2731 19.6437 29.6923 19.3041 29.8397 18.6891C29.884 18.5051 29.9098 18.3167 29.9284 18.1284C29.9956 17.4535 30.0557 16.7771 30.1187 16.1008C30.3819 16.1907 30.628 16.3148 30.8598 16.4632C31.7554 17.0354 32.1173 17.8487 31.9628 18.8946C31.887 19.4111 31.6595 19.8749 31.4349 20.3358C30.5808 22.088 29.4262 23.6204 28.0284 24.9788C26.7165 26.2544 25.2458 27.3046 23.6119 28.1265C21.5918 29.141 19.463 29.7859 17.1968 29.9415C17.1066 29.9486 17.0022 29.93 16.9206 30Z" fill="#19CFE5"/>
<path d="M17.2497 0.0299643C17.2497 0.0199762 17.2497 0.00998811 17.2511 0C17.4357 0 17.6202 0 17.8034 0C17.8019 0.00998811 17.8005 0.0199762 17.8005 0.0299643C17.6174 0.0299643 17.4343 0.0299643 17.2497 0.0299643Z" fill="#BDBDBD"/>
<path d="M15.1137 30C15.2982 29.9386 15.4828 29.94 15.6674 30C15.4828 30 15.2982 30 15.1137 30Z" fill="#A0DBBF"/>
<path d="M18.8005 0C18.7991 0.00998811 18.8005 0.0214031 18.802 0.0313912C18.6303 0.0313912 18.4586 0.0313912 18.2869 0.0313912C18.2855 0.0214031 18.2841 0.00998811 18.2841 0C18.4557 0 18.6289 0 18.8005 0Z" fill="#BFBFBF"/>
<path d="M-3.64679e-06 18.0157C0.0100111 18.0142 0.0214565 18.0128 0.0314713 18.0128C0.0314713 18.1741 0.0314713 18.3339 0.0300406 18.4951C0.0200259 18.4951 0.0100111 18.4951 -0.00143433 18.4937C-3.64679e-06 18.3339 -3.64679e-06 18.1741 -3.64679e-06 18.0157Z" fill="#C8EADA"/>
<path d="M18.2841 0C18.2841 0.00998811 18.2855 0.0214031 18.2869 0.0313912C18.1253 0.0313912 17.9636 0.0299643 17.8019 0.0299643C17.8019 0.0199762 17.8034 0.00998811 17.8048 0C17.965 0 18.1238 0 18.2841 0Z" fill="#7F7F7F"/>
<path d="M16.1824 30C16.2868 29.9258 16.4042 29.9772 16.5157 29.9644C16.5143 29.9758 16.5143 29.9872 16.5143 30C16.4042 30 16.294 30 16.1824 30Z" fill="#95D8B7"/>
<path d="M0 18.4923C0.0100148 18.4923 0.0200295 18.4937 0.0314749 18.4937C0.0314749 18.5793 0.0314749 18.6664 0.0300443 18.752C0.0200295 18.752 0.0100148 18.752 0 18.7491C0 18.665 0 18.5793 0 18.4923Z" fill="#D9F0E5"/>
<path d="M16.5143 30C16.5143 29.9886 16.5143 29.9772 16.5157 29.9644C16.5901 29.9715 16.6717 29.933 16.7361 30C16.6617 30 16.5887 30 16.5143 30Z" fill="#B4E3CC"/>
<path d="M17.8019 0.0299534C17.9636 0.0299534 18.1253 0.0313802 18.2869 0.0313802C18.4586 0.0313802 18.6303 0.0313802 18.802 0.0313802C19.6246 0.0584908 20.4444 0.114139 21.2556 0.252545C21.8679 0.356707 22.1741 0.696303 22.2342 1.31414C22.2842 1.82781 22.2614 2.34149 22.2685 2.85659C22.2842 3.93958 22.29 5.02401 22.2914 6.10843C22.2914 6.2397 22.3186 6.28108 22.4588 6.29107C23.8537 6.39238 25.2472 6.50082 26.6421 6.61069C27.3875 6.66919 28.1372 6.6963 28.874 6.84042C29.2545 6.91461 29.6193 7.03732 29.957 7.22995C30.3132 7.434 30.4949 7.73507 30.4921 8.146C30.4792 9.80403 30.4091 11.4606 30.3132 13.1158C30.256 14.1103 30.1845 15.1049 30.1201 16.0994C30.0571 16.7757 29.997 17.4521 29.9298 18.127C29.9112 18.3153 29.8854 18.5051 29.8411 18.6877C29.6937 19.3027 29.2745 19.6423 28.6765 19.7764C27.9254 19.9448 27.1614 20.0005 26.3946 20.0418C25.0569 20.1132 23.7206 20.0518 22.3858 19.9691C22.1226 19.9534 22.1283 19.9534 22.1211 20.2116C22.1054 20.7867 22.1283 21.3631 22.0096 21.931C21.8336 22.7772 21.35 23.1895 20.4816 23.2009C19.101 23.2195 17.7189 23.2395 16.3383 23.2238C14.7617 23.2066 13.1866 23.1353 11.6243 22.8999C11.2251 22.8399 10.8288 22.7558 10.4296 22.6873C10.2637 22.6587 10.1907 22.5617 10.175 22.4005C10.1034 21.6514 10.0248 20.9022 9.98756 20.1517C9.98041 20.0204 9.93462 19.9933 9.81302 19.9905C8.18777 19.9662 6.56251 19.9148 4.94012 19.8107C4.71408 19.7964 4.48803 19.7722 4.26627 19.7222C3.47797 19.541 3.04304 19.0901 2.90856 18.2953C2.79697 17.6361 2.80269 16.9669 2.75834 16.302C2.73402 15.9424 2.71256 15.5829 2.68967 15.2219C2.64675 14.3729 2.60669 13.5239 2.55947 12.6749C2.49652 11.5505 2.42785 10.4276 2.32198 9.30748C2.29337 8.99785 2.23185 8.68964 2.19894 8.38001C2.10738 7.51961 2.43357 7.01021 3.25335 6.71913C3.79701 6.5265 4.36785 6.49654 4.93583 6.44089C5.72986 6.36384 6.52246 6.28108 7.31648 6.20118C8.17775 6.11557 9.04045 6.05421 9.90458 6.02425C10.0648 6.01854 10.1063 5.9686 10.1092 5.8145C10.1378 4.38334 10.2065 2.95219 10.205 1.51961C10.205 1.40974 10.2165 1.29987 10.2365 1.19143C10.3409 0.633521 10.6657 0.346719 11.2365 0.289644C11.7459 0.238277 12.2552 0.28251 12.7645 0.255399C13.8547 0.198324 14.9449 0.132688 16.035 0.0756133C16.4385 0.0542102 16.8434 0.0427952 17.2483 0.0270996C17.4342 0.0299534 17.6174 0.0299534 17.8019 0.0299534ZM28.7151 19.2271C29.1343 19.1201 29.3246 18.8176 29.379 18.4209C29.4376 17.9971 29.4777 17.5719 29.5163 17.1467C29.5592 16.6801 29.5922 16.2121 29.6308 15.7441C29.7438 14.3172 29.8325 12.8889 29.8912 11.4578C29.9327 10.4675 29.957 9.47728 29.9885 8.48703C30.0085 7.82781 29.9369 7.72508 29.3117 7.49107C29.2946 7.48536 29.2774 7.4768 29.2602 7.46967C28.7323 7.28988 28.1829 7.24279 27.6336 7.19713C25.9096 7.05445 24.1856 6.91604 22.4602 6.79333C22.33 6.78477 22.3 6.80903 22.3 6.94172C22.2986 8.57121 22.2943 10.1993 22.2828 11.8288C22.2771 12.722 22.2628 13.6152 22.247 14.5084C22.2184 16.0937 22.1898 17.6775 22.1512 19.2628C22.1469 19.4297 22.1955 19.4625 22.3443 19.4697C24.0855 19.5638 25.8252 19.6423 27.5649 19.444C27.9512 19.3997 28.346 19.3783 28.7151 19.2271ZM21.6333 19.6766C21.6576 18.7462 21.6891 17.8173 21.7048 16.887C21.7349 15.229 21.7592 13.5695 21.7792 11.9115C21.7907 10.9684 21.7907 10.0252 21.7921 9.08203C21.795 6.77335 21.7907 4.46467 21.7535 2.15599C21.7492 1.89345 21.7692 1.62948 21.7291 1.36693C21.6648 0.936018 21.5288 0.800465 21.0968 0.736255C19.5545 0.506529 18.0051 0.49226 16.4514 0.567884C15.2439 0.626386 14.0378 0.700583 12.8318 0.76622C12.311 0.794757 11.7874 0.736255 11.268 0.803318C10.9032 0.850405 10.7658 0.994519 10.7258 1.3598C10.7186 1.42686 10.7101 1.49392 10.7101 1.56099C10.7101 2.81521 10.6671 4.06943 10.6256 5.32365C10.5799 6.712 10.5455 8.10034 10.504 9.48869C10.4597 11.0112 10.401 12.5336 10.3696 14.0561C10.3424 15.3531 10.3481 16.6516 10.3882 17.95C10.4311 19.3384 10.5226 20.7239 10.6571 22.1065C10.6657 22.1964 10.6972 22.2335 10.7873 22.2464C11.0663 22.2892 11.3424 22.3462 11.6214 22.389C13.0249 22.6045 14.4398 22.6858 15.8562 22.7115C17.3727 22.7401 18.8892 22.7286 20.4058 22.7015C20.5875 22.6987 20.7749 22.7001 20.9437 22.6131C21.3429 22.4761 21.463 22.1336 21.5246 21.7741C21.6447 21.0806 21.6004 20.3757 21.6333 19.6766ZM9.92318 11.8002C9.92318 11.6533 9.91889 11.5063 9.92318 11.3593C9.97611 9.78263 10.0291 8.20451 10.0877 6.62781C10.092 6.52793 10.062 6.51794 9.97755 6.52365C9.23073 6.57502 8.48392 6.61069 7.73853 6.6749C6.7857 6.75623 5.8343 6.86182 4.8829 6.95457C4.41363 7.00165 3.94008 7.03162 3.48655 7.1743C2.84704 7.37549 2.61527 7.7208 2.70827 8.37145C2.80555 9.05064 2.87279 9.73126 2.92287 10.4147C3.05878 12.2454 3.14033 14.0775 3.24477 15.9096C3.28626 16.6416 3.29914 17.3764 3.39213 18.1056C3.47225 18.742 3.76697 19.0873 4.34067 19.2185C4.50091 19.2556 4.66686 19.2827 4.83139 19.2927C6.4781 19.4055 8.12625 19.4597 9.77582 19.4868C9.90744 19.4882 9.9475 19.4668 9.93892 19.3227C9.87311 18.2226 9.84878 17.1225 9.84306 16.0209C9.83734 14.614 9.87024 13.2071 9.92318 11.8002Z" fill="#2E2E2E"/>
<path d="M20.9423 22.6117C20.772 22.6987 20.586 22.6973 20.4043 22.7001C18.8878 22.7273 17.3713 22.7387 15.8548 22.7101C14.4384 22.683 13.0235 22.6031 11.62 22.3877C11.341 22.3449 11.0649 22.2878 10.7859 22.245C10.6957 22.2307 10.6643 22.1936 10.6557 22.1051C10.5212 20.7225 10.4311 19.337 10.3867 17.9487C10.3467 16.6502 10.3409 15.3532 10.3681 14.0547C10.3996 12.5323 10.4568 11.0098 10.5026 9.48731C10.5441 8.09896 10.5784 6.71061 10.6242 5.32227C10.6657 4.06805 10.7101 2.81383 10.7086 1.5596C10.7086 1.49254 10.7172 1.42548 10.7244 1.35842C10.7659 0.993136 10.9018 0.850449 11.2666 0.801935C11.7859 0.734872 12.3096 0.793374 12.8303 0.764836C14.0364 0.6992 15.2424 0.62643 16.4499 0.566501C18.0022 0.490877 19.5531 0.503719 21.0954 0.734872C21.5274 0.799081 21.6633 0.934634 21.7277 1.36555C21.7663 1.62809 21.7477 1.89207 21.752 2.15461C21.7892 4.46329 21.7935 6.77197 21.7907 9.08065C21.7892 10.0238 21.7892 10.967 21.7778 11.9101C21.7578 13.5682 21.7334 15.2276 21.7034 16.8856C21.6862 17.816 21.6562 18.7449 21.6319 19.6752C21.3929 19.6666 21.3715 19.8022 21.3743 20.0062C21.3801 20.4699 21.3658 20.9337 21.3357 21.396C21.3085 21.8312 21.2341 22.2592 20.9423 22.6117ZM18.4314 13.7836C18.4314 13.7537 18.4314 13.7223 18.4314 13.6923C18.4372 13.3998 18.3728 13.3342 18.0781 13.3441C17.8334 13.3513 17.5888 13.3698 17.3427 13.3727C16.49 13.3798 15.6359 13.3969 14.7832 13.3499C14.2753 13.3213 13.7674 13.2956 13.2581 13.2728C13.0478 13.2642 12.9877 13.3256 12.972 13.5368C12.9619 13.6766 12.9448 13.8164 12.9391 13.9577C12.9133 14.7097 12.889 15.4616 12.8689 16.2136C12.8418 17.3023 12.8203 18.391 12.7931 19.4797C12.7817 19.9634 12.8017 20.4457 12.7559 20.9294C12.7273 21.2262 12.6944 21.5244 12.7488 21.8255C12.8132 22.1793 13.0106 22.3862 13.3683 22.4233C13.5571 22.4433 13.7488 22.4405 13.9377 22.4105C14.467 22.3263 14.9992 22.3078 15.5343 22.3306C16.3555 22.3648 17.1739 22.4219 17.9879 22.5361C18.2454 22.5717 18.3184 22.4904 18.3198 22.2307C18.3299 20.5598 18.3084 18.8875 18.347 17.2167C18.3742 16.0709 18.3899 14.9265 18.4314 13.7836ZM17.1052 3.65711H17.0995C17.0995 3.46733 17.1038 3.27756 17.098 3.08778C17.0809 2.51989 16.6416 2.10895 16.0651 2.11751C15.5143 2.12607 15.1022 2.54843 15.0994 3.11061C15.0979 3.44165 15.0937 3.77268 15.1008 4.10229C15.1037 4.23071 15.055 4.25354 14.9377 4.24641C14.5157 4.21929 14.0922 4.19218 13.6687 4.1879C13.1265 4.1822 12.6973 4.6231 12.6858 5.17245C12.6758 5.68469 13.1036 6.14415 13.6215 6.17411C14.0321 6.19837 14.4427 6.2269 14.8533 6.23975C15.0007 6.24403 15.045 6.27827 15.0407 6.43665C15.025 6.91323 14.9234 7.3841 14.9348 7.8621C14.9477 8.39004 15.3412 8.83095 15.8276 8.86234C16.417 8.90086 16.8605 8.56698 16.9278 7.99623C16.9836 7.5225 17.0065 7.0445 17.0251 6.56793C17.0322 6.39242 17.0823 6.34676 17.2568 6.3539C17.686 6.37245 18.1138 6.43951 18.543 6.39813C19.0781 6.34676 19.4916 5.87161 19.4558 5.35794C19.4172 4.80574 18.9837 4.40622 18.4357 4.40193C18.0366 4.39908 17.6388 4.36912 17.2411 4.36198C17.1224 4.35913 17.0966 4.31347 17.1009 4.20645C17.1095 4.02524 17.1052 3.84117 17.1052 3.65711Z" fill="#FEFEFE"/>
<path d="M28.7152 19.2271C28.346 19.3784 27.9512 19.3998 27.5635 19.444C25.8252 19.6423 24.084 19.5639 22.3429 19.4697C22.1941 19.4611 22.1455 19.4283 22.1498 19.2628C22.1898 17.679 22.2184 16.0937 22.2456 14.5085C22.2614 13.6152 22.2757 12.722 22.2814 11.8288C22.2914 10.1993 22.2971 8.57124 22.2986 6.94175C22.2986 6.81048 22.3286 6.7848 22.4588 6.79336C24.1842 6.91607 25.9082 7.05448 27.6321 7.19716C28.1829 7.24282 28.7323 7.28991 29.2588 7.4697C29.276 7.4754 29.2931 7.48396 29.3103 7.4911C29.937 7.72511 30.0085 7.82784 29.987 8.48706C29.9556 9.4773 29.9312 10.469 29.8897 11.4578C29.8311 12.8875 29.7424 14.3173 29.6294 15.7441C29.6093 15.8725 29.5607 15.951 29.4105 15.8825C29.3146 15.8397 29.3046 15.8997 29.2989 15.9796C29.2416 16.673 29.1816 17.3651 29.1172 18.0585C29.08 18.478 29.0242 18.8961 28.7152 19.2271ZM24.735 10.1979C24.735 9.71274 24.7364 9.32035 24.7336 8.92796C24.7321 8.72392 24.642 8.61547 24.4589 8.60549C24.147 8.58836 23.8351 8.57409 23.5218 8.56696C23.2557 8.56125 23.1326 8.68254 23.114 8.95364C23.1083 9.04496 23.1112 9.13771 23.1126 9.22903C23.1198 9.96958 23.0954 10.7073 23.0096 11.4435C22.9738 11.7574 22.9767 12.0799 23.1069 12.3838C23.1613 12.5123 23.2428 12.6079 23.3902 12.6093C23.7221 12.6136 24.054 12.6164 24.3859 12.6079C24.5504 12.6036 24.6506 12.5037 24.6563 12.3396C24.662 12.1926 24.6849 12.0485 24.6935 11.9016C24.7307 11.3037 24.7522 10.7044 24.735 10.1979ZM28.4562 12.7948C28.7509 12.7991 28.8196 12.7391 28.8639 12.488C29.0313 11.542 29.223 10.6003 29.3518 9.64568C29.4133 9.18194 29.3761 9.0892 28.9569 9.02356C28.6021 8.96791 28.2473 8.89657 27.8854 8.89799C27.6436 8.89942 27.5735 8.97362 27.5735 9.20335C27.572 9.81547 27.4376 10.4119 27.3717 11.0169C27.3288 11.4093 27.2573 11.7988 27.2086 12.1912C27.1772 12.4409 27.253 12.5779 27.4733 12.625C27.8181 12.7006 28.1701 12.7463 28.4562 12.7948ZM26.1986 8.6383C25.9096 8.63688 25.7966 8.70394 25.7694 8.9037C25.7293 9.19336 25.6907 9.48301 25.6592 9.77409C25.5834 10.4704 25.5104 11.1667 25.4418 11.863C25.426 12.02 25.4217 12.1798 25.4818 12.3339C25.5162 12.4224 25.5777 12.4894 25.6678 12.4923C25.8939 12.498 26.117 12.5579 26.3445 12.5365C26.4804 12.5237 26.5706 12.4652 26.582 12.3096C26.6264 11.7632 26.6764 11.2167 26.7251 10.6716C26.7737 10.1251 26.8195 9.57861 26.8696 9.03355C26.8839 8.87231 26.8367 8.75816 26.6678 8.71393C26.5133 8.67112 26.3588 8.63117 26.1986 8.6383ZM27.8167 13.1544C27.8167 13.1558 27.8167 13.1586 27.8167 13.1601C27.7437 13.1601 27.6693 13.1643 27.5964 13.1586C27.4576 13.1486 27.3889 13.23 27.3617 13.3456C27.2301 13.9092 27.1013 14.4742 26.9783 15.0393C26.9354 15.239 27.037 15.3831 27.2373 15.4003C27.5964 15.4302 27.954 15.4859 28.316 15.4802C28.4734 15.4773 28.5664 15.4188 28.6136 15.2661C28.7266 14.898 28.8496 14.5341 28.9655 14.1674C29.0213 13.9934 29.0757 13.8179 29.1172 13.6395C29.1687 13.4198 29.0642 13.2585 28.8611 13.2385C28.512 13.2057 28.1643 13.1815 27.8167 13.1544ZM23.6491 15.3689C23.8022 15.3689 23.9553 15.3689 24.1084 15.3689C24.3158 15.3689 24.3716 15.3132 24.4059 15.1077C24.5018 14.5156 24.5018 13.922 24.4789 13.3256C24.4718 13.1301 24.3831 13.0459 24.1913 13.0117C23.8809 12.956 23.569 12.9817 23.2571 12.9803C22.9781 12.9788 22.8551 13.1073 22.8565 13.3855C22.8594 13.7579 22.8622 14.1289 22.785 14.497C22.7406 14.7068 22.7349 14.9194 22.8093 15.1263C22.8665 15.2875 22.971 15.3788 23.1527 15.3717C23.3172 15.3646 23.4832 15.3689 23.6491 15.3689ZM25.7894 15.3303V15.3318C25.881 15.3318 25.974 15.3275 26.0655 15.3332C26.2501 15.3432 26.3345 15.2476 26.356 15.0764C26.4246 14.5085 26.5105 13.942 26.6078 13.3784C26.6335 13.23 26.5377 13.073 26.4032 13.0559C26.2158 13.0331 26.0283 12.9945 25.8366 13.0131C25.6621 13.0302 25.5462 13.0959 25.5018 13.2885C25.3731 13.8464 25.2729 14.41 25.1828 14.975C25.1528 15.162 25.2901 15.3146 25.4933 15.3275C25.592 15.336 25.6907 15.3303 25.7894 15.3303Z" fill="#FEFEFE"/>
<path d="M9.92319 11.8002C9.87168 13.2071 9.83735 14.614 9.8445 16.0223C9.85022 17.1239 9.87455 18.2254 9.94036 19.3241C9.94894 19.4682 9.90745 19.4911 9.77726 19.4882C8.12769 19.4611 6.47954 19.4069 4.83283 19.2942C4.66831 19.2827 4.50378 19.2556 4.34211 19.22C3.76841 19.0887 3.47512 18.7434 3.39357 18.107C3.30058 17.3779 3.28913 16.643 3.24621 15.911C3.14177 14.0789 3.06022 12.2468 2.92431 10.4162C2.87423 9.73268 2.80556 9.05207 2.70971 8.37288C2.61671 7.72222 2.84848 7.37835 3.488 7.17573C3.94152 7.03304 4.41508 7.00165 4.88434 6.95599C5.83574 6.86182 6.78714 6.75766 7.73997 6.67632C8.48536 6.61211 9.2336 6.57644 9.97898 6.52507C10.0634 6.51937 10.092 6.52936 10.0891 6.62924C10.0305 8.20593 9.97755 9.78405 9.92462 11.3607C9.9189 11.5063 9.92319 11.6533 9.92319 11.8002ZM9.39956 10.0509C9.39956 9.64279 9.40099 9.3246 9.39956 9.00498C9.39813 8.70106 9.26508 8.55837 8.96463 8.56836C8.51254 8.58405 8.06044 8.61259 7.60835 8.64255C7.40949 8.6554 7.30791 8.80094 7.34081 8.99927C7.36227 9.13197 7.40233 9.26324 7.40376 9.39594C7.41378 9.94672 7.40662 10.4961 7.44096 11.0468C7.46385 11.4064 7.40949 11.7688 7.48245 12.127C7.50963 12.2582 7.54969 12.3909 7.71422 12.3881C8.16775 12.381 8.62127 12.4295 9.07336 12.3567C9.29226 12.3225 9.36522 12.2554 9.3595 12.0342C9.34376 11.3422 9.43676 10.653 9.39956 10.0509ZM3.42648 11.2124C3.42648 11.4449 3.43363 11.6775 3.42505 11.9101C3.41789 12.1041 3.45938 12.2868 3.51232 12.468C3.58671 12.7248 3.75553 12.8204 4.01305 12.789C4.25484 12.7591 4.49949 12.7348 4.7427 12.722C5.02598 12.7063 5.08892 12.6521 5.08892 12.3695C5.08892 11.6475 5.10323 10.9256 5.04887 10.205C5.01882 9.80403 4.98019 9.40308 4.9387 9.00355C4.91724 8.80379 4.80851 8.72103 4.60536 8.70962C4.28631 8.69249 3.9687 8.74101 3.65109 8.751C3.52376 8.75528 3.40215 8.8095 3.37211 8.94933C3.34207 9.09202 3.30487 9.24469 3.32776 9.3831C3.42361 9.99238 3.42791 10.6017 3.42648 11.2124ZM9.62132 14.3672C9.62132 14.1075 9.62275 13.9063 9.62132 13.7037C9.61988 13.4197 9.50114 13.2899 9.215 13.3127C8.7858 13.347 8.35803 13.3384 7.92882 13.3484C7.85729 13.3498 7.78432 13.3741 7.71565 13.3969C7.58546 13.4411 7.52966 13.5353 7.564 13.6694C7.66272 14.0575 7.6713 14.4542 7.66701 14.8509C7.66415 15.0649 7.65413 15.2789 7.70564 15.4887C7.74283 15.6399 7.80721 15.7741 7.99177 15.7698C8.43814 15.7598 8.88595 15.804 9.33232 15.7384C9.49112 15.7156 9.58126 15.6428 9.58269 15.4801C9.58698 15.0906 9.65422 14.7025 9.62132 14.3672ZM5.56534 9.63708C5.53816 9.98952 5.60826 10.4333 5.60254 10.8799C5.59682 11.308 5.59825 11.7346 5.67693 12.1584C5.70269 12.3011 5.76134 12.4166 5.92873 12.4266C6.16193 12.4409 6.39513 12.4209 6.62404 12.3838C6.7528 12.3624 6.82577 12.2868 6.82291 12.1412C6.81718 11.903 6.79429 11.6647 6.79143 11.4278C6.78428 10.8342 6.73134 10.2449 6.7013 9.65421C6.68985 9.42876 6.68413 9.20331 6.67269 8.97787C6.65695 8.67252 6.56109 8.54981 6.29499 8.53839C6.13189 8.53126 5.96593 8.55551 5.80426 8.5812C5.64117 8.60688 5.56534 8.71532 5.56677 8.87941C5.56677 9.10058 5.56534 9.32175 5.56534 9.63708ZM3.65109 14.8766C3.65109 15.0478 3.64823 15.219 3.65252 15.3917C3.65395 15.4573 3.67398 15.5244 3.68686 15.59C3.7355 15.8511 3.90575 15.9967 4.17329 15.9909C4.43654 15.9852 4.69978 15.9653 4.96159 15.9581C5.25631 15.951 5.34502 15.8697 5.34502 15.5714C5.34645 14.9236 5.28779 14.2801 5.16189 13.6437C5.13185 13.4939 5.04887 13.4183 4.89721 13.4183C4.57817 13.4183 4.2577 13.4126 3.93866 13.4212C3.67541 13.4283 3.56096 13.5496 3.5767 13.8178C3.59816 14.1717 3.68114 14.5198 3.65109 14.8766ZM6.47811 15.7712C6.58828 15.7712 6.69987 15.7783 6.81003 15.7698C6.95596 15.7569 7.04466 15.687 7.04609 15.5229C7.04752 15.3574 7.02034 15.1948 7.00747 15.0307C6.96884 14.5441 6.9345 14.059 6.89158 13.5724C6.87727 13.4097 6.77713 13.317 6.6126 13.3113C6.45952 13.3056 6.305 13.3084 6.15192 13.3099C5.88152 13.3127 5.78137 13.4069 5.78996 13.6751C5.80713 14.1745 5.84432 14.6739 5.85863 15.1748C5.87294 15.7227 5.92444 15.7783 6.47811 15.7712Z" fill="#FEFEFE"/>
<path d="M28.7152 19.2271C29.0242 18.8975 29.08 18.478 29.1186 18.0571C29.183 17.365 29.2417 16.6716 29.3003 15.9781C29.3075 15.8982 29.3175 15.8383 29.4119 15.8811C29.5621 15.9496 29.6108 15.8711 29.6308 15.7427C29.5936 16.2107 29.5607 16.6787 29.5164 17.1453C29.4763 17.5705 29.4362 17.9971 29.379 18.4195C29.3232 18.8176 29.1344 19.1201 28.7152 19.2271Z" fill="#19CFE5"/>
<path d="M20.9423 22.6116C21.2341 22.2592 21.3085 21.8311 21.3357 21.3974C21.3658 20.935 21.3801 20.4713 21.3743 20.0076C21.3715 19.8035 21.3929 19.6694 21.6319 19.6765C21.6004 20.3757 21.6433 21.0806 21.5231 21.7726C21.4616 22.1322 21.3414 22.4746 20.9423 22.6116Z" fill="#19CFE5"/>
<path d="M18.4314 13.7835C18.3899 14.9279 18.3756 16.0708 18.3485 17.2152C18.3098 18.8875 18.3327 20.5583 18.3213 22.2292C18.3198 22.4889 18.2469 22.5702 17.9893 22.5345C17.1753 22.4204 16.3569 22.3633 15.5357 22.3291C15.0021 22.3077 14.4684 22.3248 13.9391 22.409C13.7502 22.4389 13.5585 22.4404 13.3697 22.4218C13.012 22.3847 12.8146 22.1778 12.7502 21.824C12.6958 21.5229 12.7287 21.2261 12.7573 20.9279C12.8031 20.4456 12.7831 19.9619 12.7945 19.4782C12.8217 18.3895 12.8418 17.3008 12.8704 16.2121C12.889 15.4601 12.9147 14.7081 12.9405 13.9562C12.9448 13.8164 12.9619 13.6765 12.9734 13.5353C12.9891 13.3227 13.0492 13.2613 13.2595 13.2713C13.7674 13.2941 14.2767 13.3198 14.7846 13.3483C15.6373 13.3954 16.49 13.3783 17.3441 13.3712C17.5888 13.3697 17.8334 13.3512 18.0795 13.3426C18.3742 13.3326 18.4386 13.3983 18.4329 13.6908C18.43 13.7222 18.4314 13.7521 18.4314 13.7835Z" fill="#19CFE5"/>
<path d="M17.1052 3.65707C17.1052 3.84114 17.1109 4.02521 17.1038 4.20785C17.0995 4.31344 17.1238 4.36052 17.244 4.36338C17.6431 4.37194 18.0409 4.40048 18.4386 4.40333C18.9865 4.40761 19.42 4.80713 19.4587 5.35933C19.4944 5.87301 19.0795 6.34816 18.5459 6.39952C18.1152 6.4409 17.6875 6.37384 17.2597 6.35529C17.0852 6.34816 17.0351 6.39382 17.0279 6.56932C17.0093 7.0459 16.9864 7.5239 16.9306 7.99762C16.8634 8.5698 16.4199 8.90226 15.8305 8.86373C15.344 8.83234 14.9506 8.39144 14.9377 7.8635C14.9263 7.38549 15.0278 6.91463 15.0436 6.43805C15.0493 6.27967 15.0049 6.24542 14.8562 6.24114C14.4456 6.2283 14.0349 6.19976 13.6243 6.17551C13.1064 6.14554 12.6787 5.68609 12.6887 5.17384C12.7001 4.62307 13.1293 4.18216 13.6716 4.1893C14.095 4.19358 14.5171 4.22212 14.9406 4.2478C15.0593 4.25493 15.1065 4.23068 15.1037 4.10369C15.0965 3.77265 15.0994 3.44162 15.1022 3.11201C15.1051 2.54982 15.5171 2.12747 16.0679 2.11891C16.6445 2.11034 17.0837 2.52128 17.1009 3.08918C17.1066 3.27895 17.1023 3.46873 17.1023 3.6585C17.1009 3.65707 17.1023 3.65707 17.1052 3.65707Z" fill="#F76F39"/>
<path d="M24.735 10.1979C24.7522 10.7044 24.7293 11.3037 24.6949 11.9016C24.6864 12.0471 24.6635 12.1927 24.6577 12.3396C24.6506 12.5023 24.5519 12.6036 24.3873 12.6079C24.0554 12.615 23.7235 12.6122 23.3916 12.6093C23.2428 12.6079 23.1627 12.5123 23.1083 12.3839C22.9781 12.0799 22.9753 11.7575 23.011 11.4435C23.0969 10.7073 23.1212 9.96958 23.114 9.22903C23.1126 9.13771 23.1097 9.04497 23.1155 8.95365C23.1341 8.68254 23.2585 8.56126 23.5232 8.56696C23.8351 8.5741 24.1484 8.58694 24.4603 8.60549C24.6434 8.61548 24.7336 8.72392 24.735 8.92796C24.7379 9.32035 24.735 9.71274 24.735 10.1979Z" fill="#BFF8FF"/>
<path d="M28.4562 12.7947C28.1686 12.7462 27.8181 12.7006 27.4719 12.6264C27.2516 12.5793 27.1772 12.4423 27.2072 12.1926C27.2559 11.8002 27.3274 11.4107 27.3703 11.0183C27.4376 10.4133 27.5706 9.81685 27.5721 9.20472C27.5735 8.97357 27.6422 8.9008 27.8839 8.89937C28.2459 8.89652 28.6007 8.96929 28.9555 9.02494C29.3747 9.09057 29.4119 9.18332 29.3504 9.64706C29.2231 10.6002 29.0299 11.5419 28.8625 12.4894C28.8196 12.7391 28.7524 12.799 28.4562 12.7947Z" fill="#BFF8FF"/>
<path d="M26.1986 8.63828C26.3603 8.63115 26.5133 8.6711 26.6679 8.71248C26.8367 8.75671 26.8839 8.87229 26.8696 9.0321C26.8195 9.57859 26.7737 10.1251 26.7251 10.6702C26.6764 11.2166 26.6264 11.7617 26.582 12.3082C26.5691 12.4637 26.479 12.5222 26.3445 12.5351C26.117 12.5565 25.8939 12.4966 25.6678 12.4908C25.5777 12.488 25.5176 12.4209 25.4818 12.3325C25.4203 12.1784 25.426 12.0185 25.4418 11.8616C25.5104 11.1653 25.5834 10.4675 25.6592 9.77265C25.6907 9.48157 25.7293 9.19191 25.7694 8.90225C25.7966 8.70392 25.9096 8.63686 26.1986 8.63828Z" fill="#BFF8FF"/>
<path d="M27.8167 13.1543C28.1643 13.1814 28.512 13.2057 28.8582 13.2371C29.0614 13.2556 29.1658 13.4168 29.1143 13.638C29.0728 13.8164 29.0185 13.9919 28.9627 14.1659C28.8468 14.5327 28.7237 14.8979 28.6107 15.2646C28.5635 15.4187 28.4705 15.4758 28.3131 15.4787C27.9512 15.4858 27.5935 15.4302 27.2344 15.3988C27.0341 15.3816 26.9325 15.2375 26.9754 15.0378C27.0985 14.4727 27.2272 13.9077 27.3589 13.3441C27.386 13.2285 27.4562 13.1472 27.5935 13.1572C27.6665 13.1629 27.7409 13.1586 27.8138 13.1586C27.8167 13.1586 27.8167 13.1572 27.8167 13.1543Z" fill="#BFF8FF"/>
<path d="M23.6491 15.3688C23.4832 15.3688 23.3186 15.3645 23.1527 15.3703C22.971 15.376 22.8665 15.2861 22.8093 15.1248C22.7349 14.9179 22.7406 14.7053 22.785 14.4956C22.8623 14.1274 22.8594 13.7565 22.8565 13.384C22.8537 13.1058 22.9781 12.9774 23.2571 12.9788C23.569 12.9802 23.8809 12.9546 24.1914 13.0102C24.3831 13.0445 24.4718 13.1286 24.4789 13.3241C24.5018 13.9206 24.5032 14.5156 24.406 15.1063C24.373 15.3132 24.3173 15.3674 24.1084 15.3674C23.9553 15.3703 23.8022 15.3688 23.6491 15.3688Z" fill="#BFF8FF"/>
<path d="M25.7894 15.3304C25.6907 15.3304 25.592 15.3361 25.4947 15.3289C25.2915 15.3161 25.1542 15.1634 25.1842 14.9765C25.2729 14.4114 25.3731 13.8478 25.5033 13.2899C25.5476 13.0973 25.6635 13.0317 25.8381 13.0145C26.0298 12.996 26.2172 13.0345 26.4046 13.0573C26.5391 13.073 26.6349 13.2314 26.6092 13.3798C26.5105 13.9434 26.4261 14.5099 26.3574 15.0778C26.3359 15.249 26.2515 15.3446 26.067 15.3346C25.9754 15.3289 25.8824 15.3332 25.7908 15.3332C25.7894 15.3318 25.7894 15.3318 25.7894 15.3304Z" fill="#BFF8FF"/>
<path d="M9.39954 10.0509C9.43531 10.653 9.34232 11.3422 9.36092 12.0342C9.36664 12.2554 9.29367 12.3225 9.07478 12.3567C8.62269 12.4281 8.16773 12.3795 7.71564 12.3881C7.55111 12.391 7.50962 12.2568 7.48387 12.127C7.4109 11.7688 7.46527 11.4064 7.44238 11.0468C7.40661 10.4975 7.41377 9.94672 7.40518 9.39595C7.40232 9.26325 7.36369 9.13198 7.34223 8.99928C7.30933 8.80094 7.41234 8.6554 7.60977 8.64256C8.06186 8.61259 8.51396 8.58406 8.96605 8.56836C9.26792 8.55837 9.40097 8.70106 9.40097 9.00498C9.40097 9.3246 9.39954 9.6428 9.39954 10.0509Z" fill="#BFF8FF"/>
<path d="M3.42646 11.2124C3.42789 10.6017 3.4236 9.99239 3.32631 9.38597C3.30342 9.24614 3.34062 9.09346 3.37067 8.9522C3.40071 8.81237 3.52232 8.75815 3.64965 8.75387C3.96869 8.74388 4.28487 8.69537 4.60391 8.71249C4.80707 8.72248 4.9158 8.80666 4.93726 9.00642C4.97875 9.40595 5.01738 9.8069 5.04742 10.2078C5.10179 10.9284 5.08891 11.6504 5.08748 12.3724C5.08748 12.6549 5.02453 12.7092 4.74125 12.7248C4.49804 12.7377 4.25339 12.7605 4.01161 12.7919C3.75409 12.8247 3.58527 12.7277 3.51087 12.4709C3.45794 12.2897 3.41645 12.1056 3.4236 11.913C3.43362 11.679 3.42646 11.4449 3.42646 11.2124Z" fill="#BFF8FF"/>
<path d="M9.62132 14.3672C9.65422 14.7026 9.58698 15.0907 9.58412 15.4816C9.58269 15.6443 9.49256 15.7156 9.33375 15.7399C8.88738 15.8055 8.43958 15.7613 7.99321 15.7713C7.80865 15.7756 7.74427 15.64 7.70707 15.4902C7.65414 15.2804 7.66558 15.065 7.66844 14.8524C7.67273 14.4543 7.66415 14.059 7.56543 13.6709C7.5311 13.5368 7.58689 13.4426 7.71708 13.3984C7.78576 13.3756 7.85872 13.3513 7.93026 13.3499C8.35946 13.3413 8.78723 13.3485 9.21643 13.3142C9.50257 13.2914 9.61989 13.4212 9.62275 13.7052C9.62275 13.9064 9.62132 14.1075 9.62132 14.3672Z" fill="#BFF8FF"/>
<path d="M5.56535 9.6371C5.56535 9.32177 5.56678 9.10203 5.56535 8.88086C5.56391 8.71534 5.63974 8.60833 5.80284 8.58264C5.96451 8.55696 6.13046 8.5327 6.29356 8.53984C6.55967 8.55125 6.65552 8.67396 6.67126 8.97932C6.68271 9.20476 6.68843 9.43021 6.69987 9.65565C6.72992 10.2464 6.78285 10.8371 6.79001 11.4293C6.79287 11.6661 6.81576 11.9044 6.82148 12.1427C6.82434 12.2882 6.75138 12.3639 6.62262 12.3853C6.39228 12.4224 6.16051 12.4423 5.92731 12.4281C5.75992 12.4181 5.70126 12.3011 5.67551 12.1598C5.59682 11.7375 5.59539 11.3094 5.60111 10.8813C5.60827 10.4333 5.53816 9.98811 5.56535 9.6371Z" fill="#BFF8FF"/>
<path d="M3.65107 14.8766C3.68112 14.5198 3.59814 14.1717 3.57668 13.8192C3.56094 13.551 3.6754 13.4297 3.93864 13.4226C4.25768 13.414 4.57672 13.4197 4.8972 13.4197C5.04885 13.4197 5.13183 13.4939 5.16187 13.6452C5.28777 14.2815 5.345 14.9251 5.345 15.5729C5.345 15.8697 5.2563 15.9524 4.96158 15.9595C4.69833 15.9667 4.43652 15.9867 4.17327 15.9924C3.90574 15.9981 3.73692 15.8525 3.68684 15.5914C3.67397 15.5258 3.65537 15.4601 3.65251 15.3931C3.64821 15.2204 3.65107 15.0478 3.65107 14.8766Z" fill="#BFF8FF"/>
<path d="M6.47811 15.7712C5.92444 15.7783 5.87294 15.7227 5.8572 15.1733C5.84289 14.6739 5.80713 14.1745 5.78853 13.6737C5.77995 13.4054 5.88009 13.3127 6.15192 13.3098C6.305 13.3084 6.45952 13.3056 6.6126 13.3113C6.77713 13.3184 6.87727 13.4112 6.89158 13.5724C6.9345 14.0575 6.96884 14.5441 7.00746 15.0307C7.02034 15.1947 7.04752 15.3574 7.04609 15.5229C7.04466 15.687 6.95596 15.7569 6.81003 15.7698C6.69987 15.7798 6.58828 15.7712 6.47811 15.7712Z" fill="#BFF8FF"/>
</svg>
