<svg width="31" height="30" viewBox="0 0 31 30" fill="none" xmlns="http://www.w3.org/2000/svg">
<g clip-path="url(#clip0_2_4499)">
<path d="M30.9568 3.71066C30.9549 3.76745 30.9568 3.82425 30.9474 3.88105C30.9173 4.07226 30.7519 4.21236 30.5751 4.18207C30.3871 4.15178 30.2668 4.03818 30.2762 3.83561C30.2969 3.42857 30.2894 3.02531 30.1522 2.6372C29.7405 1.46719 28.902 0.838637 27.6895 0.698539C27.6331 0.692859 27.5767 0.6815 27.5221 0.683393C27.3285 0.692859 27.2138 0.592519 27.1819 0.412663C27.1499 0.2347 27.2138 0.0946012 27.4037 0.0396978C27.5052 0.0321249 27.6161 0.0870283 27.7064 -0.00195312C27.7553 -0.00195312 27.8041 -0.00195312 27.8511 -0.00195312C27.9282 0.100281 28.0429 0.0396978 28.1369 0.05863C29.7311 0.372905 30.8778 1.69437 30.9568 3.31119C30.9586 3.4456 30.9586 3.57813 30.9568 3.71066Z" fill="#070707"/>
<path d="M3.0963e-06 26.6338C0.135358 26.524 0.257553 26.3896 0.462465 26.4804C0.663617 26.5694 0.669257 26.7398 0.680537 26.9253C0.740694 27.9969 1.78217 29.1101 2.86689 29.271C3.05677 29.2994 3.24664 29.3316 3.44215 29.3108C3.63766 29.29 3.7749 29.3922 3.81062 29.5834C3.84257 29.7576 3.77678 29.9015 3.58878 29.9564C3.42523 29.9715 3.25604 29.909 3.1 30.0037C3.01917 30.0037 2.93833 30.0037 2.85749 30.0037C2.83869 29.9393 2.78042 29.9621 2.73718 29.9507C1.49455 29.6686 0.637298 28.9303 0.163557 27.7394C0.0958794 27.5709 0.0977593 27.3797 -0.00187683 27.2226C3.0963e-06 27.0257 3.0963e-06 26.8288 3.0963e-06 26.6338Z" fill="#070708"/>
<path d="M3.10001 30C3.25604 29.9053 3.42523 29.9697 3.58879 29.9527C3.58691 29.9678 3.58503 29.983 3.58503 30C3.42335 30 3.26168 30 3.10001 30Z" fill="#403F43"/>
<path d="M30.9587 3.31311C30.9737 3.31311 30.9869 3.31311 31 3.3169C31 3.44753 31 3.57627 31 3.7069L30.9775 3.70501L30.9568 3.70879C30.9587 3.57816 30.9587 3.44564 30.9587 3.31311Z" fill="#AEACB0"/>
<path d="M27.7064 0C27.6161 0.0889814 27.5052 0.034078 27.4037 0.0416509C27.4056 0.0265051 27.4093 0.0132526 27.4169 0C27.5127 0 27.6105 0 27.7064 0Z" fill="#3F3E43"/>
<path d="M11.3397 4.28431C12.4771 4.02683 13.6201 3.81857 14.7875 3.76178C14.9022 3.7561 14.9473 3.73338 14.9229 3.61032C14.8289 3.12376 14.8702 2.64288 14.9962 2.16769C15.0206 2.07681 14.9811 2.05788 14.9247 2.02191C14.3213 1.64516 14.3833 0.893547 14.9473 0.458106C15.594 -0.041705 16.863 -0.17991 17.5792 0.874614C17.7465 1.25515 17.8556 1.63758 17.66 2.04273C17.5848 2.12225 17.5115 2.20366 17.4363 2.28317C17.3273 2.3021 17.3235 2.37783 17.3386 2.46492C17.4175 2.90226 17.4608 3.34338 17.4796 3.7845C17.4852 3.90756 17.5454 3.91134 17.6337 3.8962C18.4365 4.05333 19.2392 4.20669 20.0137 4.48499C20.2694 4.57586 20.5232 4.6762 20.777 4.77655C20.8691 4.81252 20.9198 4.81252 20.9875 4.71407C21.2751 4.29188 21.5853 3.88862 21.9162 3.50051C21.9764 3.43046 21.9933 3.37745 21.9444 3.29226C21.747 2.93633 21.685 2.56526 21.9538 2.22448C22.2395 1.86288 22.6456 1.80608 23.0705 1.87992C23.7811 2.00297 24.2849 2.43842 24.6966 3.00449C24.7248 3.04425 24.753 3.08211 24.7831 3.11998C24.8338 3.22978 24.8884 3.3358 24.9372 3.4475C25.1798 4.00222 25.0801 4.27484 24.5425 4.52475C24.518 4.53043 24.4917 4.53611 24.4654 4.53989C24.2999 4.54746 24.1345 4.58533 23.9672 4.53421C23.8958 4.51149 23.8243 4.538 23.7811 4.60994C23.4991 5.07757 23.1551 5.49408 22.7565 5.88787C22.8806 5.98253 22.9896 6.06394 23.0968 6.14534C24.0086 6.96132 24.6665 7.96095 25.1741 9.06848C25.2004 9.12717 25.2023 9.24266 25.3283 9.16314C25.6892 8.93974 26.1047 8.86023 26.4995 8.73338C26.8585 8.61789 27.1067 8.45318 27.0992 8.00828C27.0898 7.52361 27.3454 7.17526 27.8173 7.02948C28.3474 6.86477 28.7967 7.04841 29.1408 7.44788C29.654 8.04235 29.8251 8.77124 29.8514 9.54179C29.8589 9.75951 29.8664 9.97912 29.7875 10.1912C29.6013 10.5111 29.3118 10.655 28.9565 10.6834C28.7667 10.6531 28.5862 10.5963 28.4283 10.4827C28.3437 10.3275 28.2516 10.3294 28.1049 10.4259C27.5184 10.8121 26.9281 11.1927 26.3265 11.5543C26.1254 11.6754 26.0821 11.7947 26.1987 11.9878C26.3904 12.8474 26.5859 13.705 26.7721 14.5645C26.7965 14.6781 26.8322 14.6724 26.93 14.6592C27.1913 14.6251 27.4545 14.5778 27.7195 14.6156C27.8323 14.6308 27.8962 14.5853 27.9376 14.4774C27.979 14.3657 28.0335 14.254 28.0955 14.1518C28.4019 13.6482 28.9847 13.5743 29.4096 13.9795C29.7179 14.2711 29.8608 14.644 29.9209 15.053C30.0168 15.6853 29.9773 16.3138 29.8213 16.9348C29.7311 17.2945 29.5694 17.6183 29.2554 17.8398C28.9001 17.9893 28.5561 18.0045 28.2384 17.7432C28.2046 17.7016 28.1726 17.658 28.1388 17.6164C28.0767 17.3248 27.9038 17.2055 27.6067 17.2605C27.5052 17.2794 27.3981 17.2623 27.2947 17.2642C26.9356 17.268 26.9356 17.268 26.8942 17.6448C26.789 18.5649 26.5596 19.4509 26.1949 20.301C26.1423 20.424 26.1385 20.4979 26.2494 20.5849C26.3566 20.672 26.4036 20.8065 26.4449 20.9409C26.5446 21.2551 26.5483 21.257 26.8642 21.1624C27.0484 21.1075 27.2289 21.045 27.4206 21.0109C28.0485 20.8973 28.5881 21.3385 28.6294 21.9821C28.6651 22.5312 28.4546 23.0102 28.2346 23.4854C27.9808 24.0344 27.7252 24.5891 27.1762 24.9223C26.5596 25.0927 26.287 24.9962 25.928 24.4831C25.7569 24.0969 25.7851 23.7088 25.9204 23.3207C26.0859 23.0253 26.0821 23.0329 25.802 22.8549C25.599 22.7262 25.3903 22.5956 25.2136 22.4327C25.05 22.2832 24.9429 22.2661 24.8432 22.4801C24.1345 23.2336 23.3355 23.8659 22.4087 24.326C22.3204 24.3695 22.3091 24.4093 22.3599 24.4907C22.5855 24.8466 22.7565 25.229 22.8599 25.638C22.8862 25.744 22.9671 25.7497 23.046 25.7553C23.1776 25.7629 23.2979 25.8008 23.4183 25.8462C24.0236 26.0772 24.2078 26.6205 23.83 27.1487C23.2848 27.9098 22.5648 28.4021 21.6173 28.5157C21.4613 28.5346 21.3146 28.4759 21.1623 28.4759C20.5833 28.2563 20.2788 27.8568 20.3408 27.215C20.4273 27.0162 20.5288 26.8288 20.6848 26.6773C20.7168 26.6527 20.7431 26.6224 20.7788 26.6054C20.9668 26.5126 20.9781 26.3971 20.8804 26.2135C20.7337 25.939 20.6416 25.638 20.5664 25.335C20.4875 25.017 20.5213 25.0264 20.1923 25.1287C19.5682 25.2536 18.9403 25.3521 18.3067 25.4202C18.0905 25.4297 17.8744 25.443 17.6563 25.4505C16.1768 25.5016 14.7123 25.3634 13.2629 25.0681C11.5221 24.7141 9.83954 24.184 8.29424 23.279C6.81662 22.4119 5.63227 21.2646 4.91225 19.68C4.40843 18.5687 4.18096 17.3911 4.10388 16.1775C4.00989 14.697 4.1114 13.2298 4.39151 11.772C4.60582 10.6607 4.96489 9.60048 5.44991 8.58192C5.55143 8.45508 5.54391 8.35284 5.43863 8.21274C5.2732 7.99313 5.18108 7.72997 5.11905 7.46113C5.11153 7.44599 5.10401 7.43084 5.09649 7.4157C5.08709 7.33429 5.07957 7.25099 5.07017 7.16958C5.07957 7.12035 5.08333 7.07113 5.04573 7.03137C5.04761 6.94239 5.04949 6.85341 5.04761 6.76443C5.04761 6.19457 4.68854 5.88976 4.1302 5.99767C3.67902 6.08476 3.36319 6.37632 3.09624 6.73035C3.00413 6.82312 2.95337 6.94239 2.91013 7.05977C2.74658 7.5255 2.96277 7.81327 3.44403 7.75458C3.8125 7.70915 4.0926 7.84356 4.30316 8.13323C4.53627 8.45508 4.75434 8.7845 4.97805 9.11202C5.01941 9.17071 5.05513 9.22751 5.01377 9.31081C4.91413 9.51149 4.82578 9.71786 4.72238 9.94693C4.43663 9.52853 4.15088 9.13664 3.89145 8.7277C3.74294 8.49294 3.58126 8.36799 3.29927 8.46644C3.24288 8.48537 3.17144 8.47401 3.1094 8.46454C2.70334 8.40964 2.45519 8.14837 2.26907 7.8057C2.07732 7.27749 2.19952 6.8004 2.51535 6.36307C2.91201 5.81592 3.40643 5.41835 4.09636 5.30097C4.76562 5.18737 5.76762 5.65311 5.73002 6.68113C5.71686 7.03137 5.75446 7.37783 5.93117 7.71104C6.08909 7.50279 6.23948 7.29453 6.40116 7.09574C6.94069 6.4369 7.59115 5.91058 8.32244 5.4865C8.46532 5.4032 8.50103 5.33315 8.42772 5.18737C8.3826 5.09461 8.35064 4.99048 8.33372 4.88825C8.27732 4.5645 8.21341 4.31839 7.8111 4.19154C7.32608 4.04008 7.17569 3.45318 7.43512 2.93444C7.85622 2.09385 8.50667 1.57132 9.488 1.56943C9.5256 1.58079 9.56131 1.59972 9.59891 1.6054C10.522 1.75875 10.9919 2.69021 10.5596 3.5327C10.4656 3.71445 10.4543 3.84697 10.5859 4.00222C10.6912 4.12717 10.6818 4.38086 10.8303 4.41305C10.9882 4.44523 11.1705 4.33353 11.3397 4.28431ZM27.6161 8.78071C27.3548 9.17829 26.9412 9.32785 26.5183 9.45659C26.2513 9.538 25.9806 9.60426 25.7287 9.72732C25.6178 9.78222 25.5614 9.85038 25.6685 9.96208C25.77 10.2252 25.881 10.4846 25.9674 10.7534C26.0238 10.9314 26.0934 10.9049 26.2175 10.8254C26.8886 10.3937 27.5616 9.96587 28.2365 9.53989C28.5411 9.34678 28.7742 9.45091 28.8193 9.80305C28.8343 9.92232 28.8832 9.98859 28.9979 9.98291C29.1088 9.97723 29.169 9.91475 29.1727 9.79358C29.1953 9.2313 29.0919 8.69741 28.8306 8.19949C28.7366 8.01964 28.6257 7.85303 28.4339 7.76216C28.0974 7.57283 27.8361 7.67317 27.7966 8.00449C27.7647 8.21085 27.7327 8.41721 27.7026 8.62168C27.6725 8.67469 27.6443 8.7277 27.6161 8.78071ZM22.3354 26.2854C22.2057 25.8216 22.0929 25.3521 21.8354 24.9337C21.6549 24.6402 21.6586 24.6383 21.3503 24.8182C21.2093 24.8428 21.1529 24.8901 21.1999 25.0624C21.324 25.5263 21.497 25.9674 21.7301 26.3858C21.8579 26.613 21.8053 26.7871 21.5853 26.9178C21.4613 26.9916 21.3315 27.0598 21.215 27.1431C21.1022 27.2245 20.9932 27.3286 21.0289 27.4857C21.0665 27.6599 21.1999 27.7584 21.3616 27.8038C21.4443 27.8265 21.5383 27.8284 21.6248 27.819C22.2301 27.7432 22.702 27.4271 23.0987 26.9784C23.2002 26.8667 23.3788 26.7436 23.3299 26.6111C23.266 26.435 23.0442 26.4369 22.8656 26.4293C22.8486 26.4293 22.8336 26.4274 22.8167 26.4274C22.6982 26.3668 22.5648 26.4369 22.4445 26.3858C22.405 26.3517 22.3711 26.3176 22.3354 26.2854ZM23.1081 2.59555C22.8956 2.5274 22.6475 2.46113 22.5027 2.65614C22.373 2.83031 22.561 2.99881 22.6644 3.14648C22.8186 3.36799 22.811 3.50051 22.6381 3.71066C22.3655 4.04198 22.0948 4.37329 21.8335 4.71218C21.5741 5.04538 21.5797 5.04917 21.9557 5.22335C22.1587 5.40131 22.3241 5.38806 22.5103 5.17034C22.749 4.88635 22.9859 4.60237 23.1814 4.2862C23.2942 4.10066 23.4408 3.96057 23.6495 3.89052C23.8224 3.83183 23.9973 3.85455 24.174 3.87159C24.3112 3.88484 24.3845 3.85644 24.2999 3.69173C24.033 3.17867 23.6683 2.7792 23.1081 2.59555ZM8.52171 2.63342C8.2792 2.81706 8.09685 3.04425 8.02165 3.34906C7.99721 3.4475 8.02165 3.52891 8.09497 3.5876C8.15701 3.63872 8.21905 3.61789 8.29048 3.57246C8.59315 3.37745 8.84882 3.51187 8.85822 3.87537C8.86386 4.12906 8.91086 4.37329 8.96538 4.61751C9.06877 5.07757 9.07441 5.07757 9.51056 4.88825C9.55379 4.86931 9.59703 4.84849 9.64027 4.82766C10.2155 4.64023 10.2268 4.60048 9.84142 4.1196C9.82638 4.10066 9.81134 4.08173 9.7963 4.0628C9.55567 3.76746 9.55943 3.66901 9.83766 3.39449C10.0388 3.1976 10.0745 2.95337 10.0087 2.69968C9.94482 2.45924 9.76247 2.3305 9.51996 2.28885C9.12517 2.21691 8.80182 2.3589 8.52171 2.63342ZM27.9414 22.2377C27.9733 21.736 27.806 21.5978 27.3342 21.736C27.1499 21.7909 26.9676 21.8496 26.7796 21.8856C26.3848 21.9632 26.0671 21.7909 25.896 21.4274C25.864 21.3593 25.834 21.2873 25.7907 21.1908C25.755 21.2665 25.7306 21.3157 25.708 21.365C25.6704 21.4255 25.6385 21.4899 25.5933 21.5448C25.4617 21.7038 25.5012 21.8099 25.6629 21.9291C25.9618 22.1488 26.2682 22.3532 26.6104 22.5028C26.977 22.6637 27.0221 22.8417 26.8021 23.1787C26.6574 23.4002 26.4976 23.6179 26.4919 23.9019C26.4882 24.0647 26.5239 24.2199 26.6781 24.2919C26.8379 24.3676 26.96 24.2578 27.0503 24.1442C27.4921 23.58 27.7947 22.9439 27.9414 22.2377ZM15.4041 0.978742C15.297 1.02607 15.2293 1.11316 15.1955 1.22297C15.1579 1.34981 15.1936 1.39146 15.3515 1.41418C15.7012 1.32709 15.8628 1.46909 15.8422 1.84773C15.6297 2.25288 15.5526 2.69021 15.5526 3.1408C15.5526 3.21842 15.5038 3.34716 15.6504 3.37367C15.8779 3.4191 16.1035 3.47401 16.3328 3.51187C16.8291 3.59328 16.831 3.58949 16.7389 3.06697C16.6806 2.73944 16.6167 2.4157 16.564 2.08817C16.5227 1.82691 16.6336 1.67545 16.8592 1.65841C17.0979 1.64137 17.128 1.59972 17.0397 1.37253C16.9532 1.14345 16.7953 0.971169 16.5716 0.872721C16.1674 0.692865 15.7764 0.740196 15.4041 0.978742ZM28.135 15.3237C27.806 15.3066 27.4751 15.2934 27.1462 15.3161C26.9506 15.3294 26.8379 15.3899 26.9337 15.6096C26.945 15.8917 26.9619 16.1737 26.9657 16.4577C26.9676 16.5675 27.0052 16.594 27.1067 16.5903C27.3642 16.5827 27.6218 16.594 27.8793 16.5846C28.2422 16.5713 28.4922 16.7228 28.6426 17.0598C28.6783 17.1374 28.6839 17.2737 28.8118 17.2642C28.934 17.2548 29.0148 17.162 29.0543 17.0522C29.3194 16.3403 29.3814 15.6152 29.1652 14.8769C29.1182 14.6743 29.0317 14.4774 28.8231 14.4282C28.6802 14.396 28.6501 14.5796 28.5862 14.6819C28.4828 14.9299 28.385 15.1798 28.135 15.3237ZM25.2756 20.6304C25.9618 19.3771 26.2964 18.0215 26.2664 16.6054C26.2476 15.7478 26.163 14.8826 25.9693 14.0325C25.6121 12.4498 25.2249 10.8803 24.565 9.38843C23.7698 7.58609 22.5197 6.25704 20.7018 5.48082C18.7711 4.65727 16.7577 4.35057 14.6747 4.44523C14.4811 4.46227 14.2875 4.4812 14.0938 4.49824C12.9583 4.63077 11.8398 4.84281 10.7419 5.17223C8.32996 5.89544 6.55531 7.32104 5.67362 9.7614C4.73554 12.357 4.49303 15.0132 4.99685 17.7243C5.27696 19.2294 5.98005 20.5263 7.11553 21.5656C8.06301 22.4346 9.16277 23.0499 10.3509 23.51C12.1951 24.2237 14.1089 24.6194 16.0809 24.7425C17.6206 24.839 19.1395 24.7349 20.6209 24.29C22.5836 23.7012 24.1759 22.6126 25.1873 20.7667C25.2512 20.744 25.2587 20.6834 25.2756 20.6304Z" fill="#060606"/>
<path d="M5.04573 7.02953C5.08333 7.07118 5.07957 7.11851 5.07017 7.16773C5.02505 7.25482 5.00437 7.34191 5.09648 7.41385C5.104 7.429 5.11152 7.44414 5.11904 7.45929C5.02881 7.81711 5.10212 8.15789 5.2074 8.50245C5.26192 8.67852 5.33335 8.66716 5.44991 8.58197C4.96677 9.60052 4.60582 10.6607 4.39151 11.772C4.1114 13.2279 4.00989 14.6952 4.10388 16.1776C4.18096 17.3911 4.40843 18.5687 4.91225 19.68C5.63226 21.2666 6.81662 22.4139 8.29424 23.2791C9.83954 24.1859 11.5221 24.7141 13.2629 25.0682C14.7123 25.3635 16.1768 25.5017 17.6563 25.4506C17.8725 25.443 18.0905 25.4298 18.3067 25.4203C17.927 25.5301 17.5284 25.4809 17.1449 25.5585C16.9137 25.5377 16.6825 25.5339 16.455 25.5964C16.4099 25.585 16.3629 25.5642 16.3178 25.5623C16.0377 25.5415 16.017 25.5604 16.0377 25.8463C16.0659 26.2154 16.1429 26.5581 16.4606 26.8061C16.6881 26.9841 16.7765 27.2397 16.7671 27.535C16.7558 27.8531 16.6016 28.0992 16.4249 28.3415C15.7895 28.563 15.1579 28.5706 14.5394 28.2885C14.3119 28.1844 14.1521 27.997 14.0731 27.7565C14.0055 27.5558 13.9998 27.3552 14.1709 27.1942C14.3232 27.0522 14.4792 26.9973 14.6935 27.0977C14.9435 27.2151 15.1597 27.0579 15.1729 26.7758C15.1879 26.4597 15.1804 26.1435 15.2086 25.8292C15.2312 25.5907 15.171 25.4941 14.9153 25.479C14.5337 25.4544 14.5337 25.4335 14.5281 25.8254C14.5206 26.3101 14.5206 26.3101 14.0487 26.437C14.06 26.1795 14.028 25.9201 14.0863 25.6626C14.1239 25.4922 14.0619 25.39 13.8757 25.3673C13.0392 25.2707 12.2176 25.0909 11.4055 24.8675C11.2025 24.8107 11.1799 24.8769 11.1762 25.0549C11.1724 25.2707 11.2156 25.4695 11.289 25.6683C11.0559 25.5377 10.8246 25.3692 10.8585 25.0795C10.8998 24.733 10.7344 24.627 10.4524 24.5854C10.4204 24.5816 10.3904 24.5683 10.3622 24.5551C10.2437 24.4964 10.2005 24.5589 10.1873 24.6649C10.1253 25.2348 10.2042 25.7497 10.7156 26.1094C10.9487 26.2741 10.9656 26.4256 10.8096 26.6622C10.6874 26.8459 10.5163 26.933 10.3001 26.9349C9.63651 26.9405 9.05373 26.6736 8.47659 26.382C8.35252 26.0507 8.2228 25.7213 8.42772 25.3749C8.7567 25.4828 8.8413 25.4392 9.01425 25.0738C9.22668 25.1798 9.347 25.1193 9.394 24.8788C9.42032 24.7463 9.48799 24.6213 9.53311 24.4926C9.61019 24.2692 9.56883 24.22 9.3188 24.2313C9.14021 24.0591 8.92402 23.9758 8.68151 23.9474C8.45403 23.7353 8.15325 23.6463 7.89382 23.4892C7.49527 23.2469 7.10801 22.9875 6.70194 22.6922C6.68878 23.0292 6.54403 23.2677 6.28084 23.421C5.96877 23.6009 5.63414 23.652 5.28072 23.5687C5.0946 23.5233 4.90285 23.4892 4.74306 23.3699C4.83893 23.3661 4.93669 23.3699 5.03257 23.3605C5.57587 23.3075 6.03081 23.1143 6.26016 22.5691C6.29212 22.4915 6.36168 22.3987 6.27896 22.3249C5.95185 22.0276 5.66422 21.6963 5.35215 21.3328C5.32772 21.5846 5.41419 21.7455 5.54015 21.8989C5.7319 22.1318 5.69994 22.3627 5.44427 22.5331C5.22808 22.677 4.98181 22.7111 4.72802 22.6694C4.22796 22.5861 3.83505 22.3268 3.54555 21.9103C3.60758 21.8383 3.57938 21.7569 3.56434 21.6793C3.50419 21.3518 3.5681 21.0545 3.78054 20.7933C3.87829 20.7933 3.97793 20.7951 4.07568 20.7951C4.29188 20.9031 4.48175 21.0962 4.76186 20.9977C5.00249 20.9125 5.02129 20.8747 4.89909 20.6569C4.84833 20.5661 4.79382 20.4752 4.74118 20.3862C4.63026 20.1571 4.51747 19.9281 4.40655 19.699C4.16404 18.9852 3.93845 18.2677 3.85197 17.5142C3.81061 17.1526 3.76362 16.791 3.73918 16.4275C3.72978 16.2741 3.67338 16.2382 3.53427 16.2382C3.24476 16.2382 2.95713 16.2022 2.67138 16.1492C2.76726 15.7819 2.98909 15.6456 3.35755 15.7516C3.43275 15.7724 3.51923 15.7497 3.59818 15.7592C3.76362 15.7781 3.74858 15.6532 3.72414 15.5717C3.67338 15.4089 3.87453 15.1344 3.60758 15.0928C3.2786 15.0398 2.93833 15.0284 2.6037 14.9867C2.33863 14.9546 2.17884 15.1268 2.20328 15.3957C2.23336 15.7365 1.93445 16.0015 1.60546 15.9239C1.26707 15.8425 1.0678 15.6058 0.973805 15.2859C0.85913 14.8997 0.911768 14.5191 1.06968 14.1537C1.44191 13.7656 1.86865 13.6255 2.37999 13.8508C2.47587 13.9682 2.57174 14.0875 2.66574 14.2048C2.70334 14.5816 2.78417 14.7047 3.0436 14.7255C3.23536 14.7425 3.42899 14.7312 3.62074 14.7293C3.81437 14.7274 3.75986 14.5721 3.7749 14.4623C3.79182 14.3355 3.73542 14.2957 3.60946 14.2919C3.41207 14.2862 3.21092 14.3336 3.01729 14.2635C3.07368 14.2597 3.1282 14.2541 3.1846 14.2541C3.83505 14.2503 3.83505 14.2503 3.82377 13.5725C3.96853 12.5445 4.16216 11.5278 4.49867 10.5433C4.52687 10.4619 4.52687 10.3957 4.47047 10.3181C4.20728 9.94888 3.95349 9.57402 3.6903 9.20295C3.5493 9.00416 3.37259 8.90571 3.1094 8.9644C2.81613 9.03066 2.53978 8.9644 2.36119 8.69367C2.17696 8.41726 2.09612 8.12002 2.26907 7.80196C2.45331 8.14463 2.70146 8.4059 3.1094 8.4608C3.17144 8.46838 3.24288 8.48163 3.29927 8.4627C3.58126 8.36425 3.74294 8.4892 3.89145 8.72396C4.149 9.1329 4.43475 9.52479 4.72238 9.9432C4.82578 9.71601 4.91413 9.50776 5.01377 9.30707C5.05513 9.22188 5.01941 9.16698 4.97805 9.10829C4.75434 8.78076 4.53439 8.45134 4.30316 8.12949C4.0926 7.83983 3.81437 7.70541 3.44403 7.75084C2.96277 7.80953 2.74658 7.52176 2.91013 7.05603C2.95149 6.93676 3.00225 6.81749 3.09624 6.72661C3.14888 6.70957 3.20528 6.70011 3.25416 6.67549C4.00425 6.31389 4.45731 6.41802 4.99121 7.06739C5.03257 7.11662 5.02505 7.03899 5.04573 7.02953Z" fill="#C593FF"/>
<path d="M16.455 25.5982C16.6825 25.5358 16.9137 25.5395 17.1449 25.5604C17.1374 25.9939 17.2258 26.3612 17.5698 26.6887C18.1056 27.1999 17.9364 28.1901 17.2878 28.6899C16.9118 28.9814 16.4738 29.1102 16.017 29.1537C15.2895 29.2219 14.5694 29.1954 13.9415 28.7353C13.2892 28.1484 13.1369 27.323 13.6746 26.6982C13.8006 26.613 13.9246 26.5278 14.0506 26.4426C14.5224 26.3158 14.5224 26.3158 14.53 25.8311C14.5356 25.4392 14.5356 25.4619 14.9172 25.4846C15.1729 25.4998 15.2312 25.5963 15.2105 25.8349C15.1804 26.1492 15.1879 26.4653 15.1748 26.7815C15.1616 27.0636 14.9454 27.2207 14.6954 27.1033C14.4811 27.003 14.3232 27.0579 14.1728 27.1999C14.0017 27.3589 14.0073 27.5615 14.075 27.7622C14.1559 28.0026 14.3138 28.1901 14.5412 28.2942C15.1597 28.5782 15.7914 28.5687 16.4268 28.3472C16.5979 28.3491 16.7295 28.2506 16.8573 28.1579C17.2916 27.8398 17.3198 27.3589 16.925 26.9992C16.6956 26.7891 16.564 26.5316 16.5246 26.2249C16.4945 26.0147 16.4776 25.8065 16.455 25.5982Z" fill="#060707"/>
<path d="M3.82378 13.5724C3.83505 14.2502 3.83506 14.2502 3.1846 14.254C3.1282 14.254 3.07368 14.2597 3.01729 14.2635C2.89885 14.2426 2.7823 14.2237 2.66386 14.2029C2.56798 14.0855 2.47211 13.9662 2.37811 13.8488C2.35743 13.6349 2.36495 13.4115 2.1074 13.3112C1.83481 13.2051 1.62238 13.3093 1.43815 13.4929C1.25579 13.6747 1.1242 13.8924 1.0678 14.1499C0.909888 14.5172 0.85725 14.8977 0.971926 15.282C1.0678 15.602 1.26519 15.8386 1.60358 15.92C1.93445 15.9995 2.23148 15.7326 2.2014 15.3918C2.17884 15.123 2.33675 14.9507 2.60182 14.9829C2.93645 15.0245 3.27672 15.0359 3.6057 15.0889C3.87453 15.1324 3.67338 15.4051 3.72226 15.5679C3.7467 15.6493 3.76362 15.7743 3.5963 15.7553C3.51735 15.7459 3.43087 15.7686 3.35567 15.7477C2.98721 15.6417 2.7635 15.7799 2.6695 16.1453C2.6319 16.1908 2.5943 16.2343 2.5567 16.2797C2.15816 16.6016 1.72578 16.7246 1.23136 16.5259C0.994485 16.4312 0.808372 16.2646 0.626019 16.0942C-0.125952 15.1268 0.334631 13.6595 0.906128 13.0461C1.37235 12.5444 2.04536 12.4346 2.56798 12.7773C2.7917 12.925 2.95901 13.1237 2.99285 13.3964C3.01165 13.5516 3.08496 13.5762 3.21656 13.5705C3.41959 13.5668 3.62262 13.5724 3.82378 13.5724Z" fill="#060707"/>
<path d="M8.47659 26.3857C9.05185 26.6754 9.63463 26.9442 10.3001 26.9386C10.5163 26.9367 10.6874 26.8477 10.8096 26.6659C10.9675 26.4293 10.9487 26.2778 10.7156 26.1131C10.2042 25.7515 10.1253 25.2365 10.1873 24.6686C10.1986 24.5645 10.2437 24.5001 10.3622 24.5588C10.3904 24.572 10.4223 24.5853 10.4524 24.5891C10.7363 24.6307 10.8998 24.7348 10.8585 25.0832C10.8246 25.3729 11.0559 25.5414 11.289 25.672C11.3322 25.7193 11.3754 25.7648 11.4187 25.8121C11.4826 25.9579 11.5634 26.0942 11.5804 26.2627C11.6255 26.7265 11.4112 27.0673 11.0972 27.3683C10.7118 27.6504 10.2682 27.6864 9.82826 27.6031C9.19661 27.4819 8.58187 27.2812 8.03857 26.9215C7.68702 26.6887 7.43699 26.3687 7.35992 25.9314C7.249 25.2896 7.58175 24.7822 8.21716 24.6762C8.39388 24.6459 8.48223 24.5777 8.52735 24.413C8.56871 24.2578 8.62887 24.1082 8.68151 23.9548C8.92402 23.9832 9.14021 24.0665 9.3188 24.2388C9.21729 24.519 9.11577 24.7992 9.01425 25.0813C8.8413 25.4467 8.75482 25.4902 8.42772 25.3823C8.14949 25.3312 7.97841 25.494 8.02353 25.7704C8.06865 26.0487 8.24348 26.24 8.47659 26.3857Z" fill="#060707"/>
<path d="M4.40655 19.699C4.51747 19.9281 4.63026 20.1571 4.74118 20.3862C4.54942 20.5717 4.34827 20.744 4.07568 20.7951C3.97793 20.7951 3.87829 20.7933 3.78053 20.7933C3.6527 20.7705 3.53426 20.7232 3.43087 20.6475C3.27107 20.5282 3.23159 20.6134 3.21843 20.7611C3.18084 21.187 3.29363 21.5676 3.54366 21.9103C3.83317 22.3268 4.22608 22.5861 4.72614 22.6694C4.97993 22.7111 5.2262 22.677 5.44239 22.5331C5.69806 22.3646 5.73002 22.1318 5.53827 21.8989C5.41231 21.7474 5.32583 21.5846 5.35027 21.3328C5.66234 21.6963 5.95185 22.0295 6.27708 22.3249C6.35979 22.3987 6.29024 22.4934 6.25828 22.5691C6.02893 23.1125 5.5721 23.3075 5.03069 23.3605C4.93481 23.3699 4.83893 23.368 4.74118 23.3699C3.62074 23.1863 2.90073 22.5426 2.59242 21.4445C2.48902 21.0791 2.48338 20.7062 2.62062 20.3465C2.78793 19.9091 3.18836 19.752 3.60006 19.9527C4.02304 20.1571 4.05688 20.1496 4.34263 19.7709C4.36331 19.7463 4.38587 19.7217 4.40655 19.699Z" fill="#070707"/>
<path d="M2.18072 26.2798C2.15252 26.8174 2.60934 27.304 3.14888 27.3097C3.41771 27.3116 3.56623 27.4252 3.57375 27.6296C3.58127 27.8436 3.41771 27.9856 3.14888 27.9969C2.23148 28.0386 1.38175 27.092 1.50771 26.1718C1.5359 25.9598 1.69194 25.8121 1.87429 25.8216C2.08108 25.833 2.19388 26.0033 2.18072 26.2798Z" fill="#080809"/>
<path d="M27.2665 2.80189C26.9732 2.81704 26.8209 2.70723 26.7984 2.50276C26.7758 2.31534 26.9036 2.15252 27.1273 2.12791C27.9244 2.03514 28.8268 2.63908 28.9565 3.57054C28.9828 3.76365 28.8569 3.90375 28.6689 3.93025C28.4696 3.95865 28.3399 3.85642 28.2835 3.65006C28.1557 3.17297 27.8492 2.88709 27.3605 2.81136C27.3135 2.80189 27.2646 2.80189 27.2665 2.80189Z" fill="#09090A"/>
<path d="M11.3397 4.28432C11.1705 4.33354 10.9882 4.44524 10.8359 4.41306C10.6874 4.38088 10.6968 4.12718 10.5915 4.00223C10.4599 3.84509 10.4712 3.71257 10.5652 3.53271C10.9976 2.68833 10.5276 1.75876 9.60455 1.60541C9.56695 1.59973 9.52936 1.5808 9.49364 1.56944C9.97866 1.35172 10.4599 1.29682 10.8904 1.67357C11.289 2.02192 11.3115 2.70348 10.9468 3.0897C10.8321 3.20897 10.834 3.26766 10.9374 3.39451C11.1461 3.65009 11.304 3.94354 11.3397 4.28432Z" fill="#C593FF"/>
<path d="M23.0987 6.14907C22.9915 6.06766 22.8825 5.98626 22.7584 5.89159C23.1551 5.4978 23.501 5.0813 23.783 4.61367C23.8262 4.54173 23.8976 4.51522 23.9691 4.53794C24.1364 4.59095 24.3018 4.55309 24.4673 4.54362C24.2097 4.69318 24.112 4.97527 23.9522 5.20057C23.6984 5.55081 23.3694 5.82344 23.0987 6.14907Z" fill="#C593FF"/>
<path d="M13.6765 26.6963C13.1388 27.3211 13.2911 28.1465 13.9434 28.7334C13.402 28.6084 12.9922 28.1844 12.8982 27.6505C12.8155 27.1961 13.1557 26.7796 13.6765 26.6963Z" fill="#C593FF"/>
<path d="M0.629776 16.0961C0.812129 16.2665 0.998242 16.4331 1.23511 16.5277C1.72953 16.7265 2.16192 16.6035 2.56046 16.2816C2.50406 16.9102 1.87617 17.2755 1.31407 16.9991C0.938084 16.8155 0.691814 16.5258 0.629776 16.0961Z" fill="#C593FF"/>
<path d="M26.1987 11.9897C26.0821 11.7966 26.1272 11.6773 26.3265 11.5561C26.9281 11.1945 27.5184 10.814 28.1049 10.4278C28.2516 10.3312 28.3437 10.3274 28.4283 10.4846C27.7214 10.9295 27.0146 11.3744 26.3058 11.8193C26.24 11.859 26.1968 11.9083 26.1987 11.9897Z" fill="#C593FF"/>
<path d="M20.1923 25.1287C20.5213 25.0245 20.4875 25.017 20.5664 25.335C20.6416 25.6379 20.7337 25.939 20.8804 26.2135C20.98 26.3971 20.9668 26.5126 20.7788 26.6054C20.745 26.6224 20.7168 26.6527 20.6848 26.6773C20.5119 26.2551 20.3277 25.8386 20.2318 25.3899C20.2167 25.3028 20.2073 25.2157 20.1923 25.1287Z" fill="#C593FF"/>
<path d="M24.5406 4.5266C25.0782 4.27669 25.1779 4.00407 24.9354 3.44935C24.8865 3.33955 24.8338 3.23163 24.7812 3.12183C25.1403 3.38877 25.3283 3.7712 25.458 4.18014C25.505 4.32781 25.3922 4.43004 25.2512 4.49063C25.0181 4.59665 24.7793 4.52849 24.5406 4.5266Z" fill="#C593FF"/>
<path d="M24.8451 22.48C24.9448 22.2661 25.05 22.2831 25.2155 22.4327C25.3922 22.5936 25.6009 22.7243 25.8039 22.8549C26.0821 23.031 26.0878 23.0253 25.9223 23.3206C25.5238 23.0897 25.1534 22.8246 24.8451 22.48Z" fill="#C593FF"/>
<path d="M20.3446 27.215C20.2825 27.8568 20.5871 28.2581 21.1661 28.4759C20.8578 28.5118 20.5683 28.4645 20.3183 28.2714C19.9554 27.9912 19.9686 27.5292 20.3446 27.215Z" fill="#C593FF"/>
<path d="M11.0972 27.3646C11.413 27.0654 11.6274 26.7247 11.5804 26.2589C11.5634 26.0904 11.4826 25.9541 11.4187 25.8083C11.5033 25.867 11.5916 25.9219 11.6725 25.9863C11.9695 26.223 11.9977 26.6281 11.7326 26.9783C11.5747 27.1885 11.3736 27.3437 11.0972 27.3646Z" fill="#C4C2FF"/>
<path d="M25.928 24.4812C26.287 24.9943 26.5615 25.0889 27.1762 24.9204C27.0428 25.1968 26.8134 25.3199 26.5183 25.318C26.2438 25.318 26.1009 25.1344 26.0032 24.9072C25.9468 24.7747 25.911 24.6308 25.928 24.4812Z" fill="#C593FF"/>
<path d="M26.898 17.6447C26.9394 17.268 26.9394 17.268 27.2984 17.2642C27.4037 17.2623 27.5108 17.2794 27.6105 17.2604C27.9075 17.2055 28.0805 17.3248 28.1425 17.6163C27.7684 17.4971 27.3849 17.5766 27.0051 17.5614C26.9713 17.5633 26.9337 17.6163 26.898 17.6447Z" fill="#C593FF"/>
<path d="M17.6337 3.90001C17.5454 3.91327 17.4852 3.91137 17.4796 3.78831C17.4608 3.3453 17.4157 2.90418 17.3386 2.46874C17.3235 2.37976 17.3273 2.30592 17.4363 2.28699C17.5773 2.8133 17.63 3.35287 17.6337 3.90001Z" fill="#C593FF"/>
<path d="M28.2421 17.7451C28.5599 18.0064 28.9039 17.9912 29.2592 17.8417C29.1652 18.0973 28.9659 18.2449 28.7215 18.2411C28.4847 18.2374 28.3418 18.0897 28.2421 17.7451Z" fill="#C593FF"/>
<path d="M28.9565 10.6852C29.3137 10.6568 29.6013 10.5129 29.7875 10.193C29.8044 10.4296 29.7405 10.6398 29.5149 10.7363C29.3325 10.814 29.1295 10.8537 28.9565 10.6852Z" fill="#C593FF"/>
<path d="M17.6582 2.04458C17.8555 1.63943 17.7446 1.25511 17.5773 0.876465C17.8461 1.0904 17.9364 1.38385 17.9138 1.70948C17.9063 1.86094 17.8461 2.0124 17.6582 2.04458Z" fill="#C4C2FF"/>
<path d="M25.1891 20.7686C24.1777 22.6145 22.5854 23.7031 20.6228 24.2919C19.1414 24.7368 17.6224 24.8409 16.0828 24.7443C14.1107 24.6213 12.197 24.2256 10.3528 23.5119C9.16465 23.0518 8.06489 22.4365 7.11741 21.5675C5.98193 20.5281 5.27884 19.2313 4.99873 17.7262C4.49491 15.0151 4.73742 12.3589 5.6755 9.76328C6.55719 7.32292 8.33184 5.89543 10.7438 5.17411C11.8398 4.84469 12.9602 4.63265 14.0957 4.50012C14.1408 4.54556 14.1991 4.53609 14.2555 4.53609C14.7048 4.53609 15.1522 4.5342 15.6015 4.5342C15.8027 4.53988 16.0019 4.55881 16.2031 4.57964C17.4344 4.7027 18.632 4.97721 19.7844 5.43159C20.7356 5.80645 21.621 6.30058 22.3787 7.00107C23.2867 7.84355 23.8864 8.89429 24.3639 10.0226C24.8921 11.2722 25.238 12.5785 25.5294 13.9019C25.7287 14.8106 25.9317 15.7212 25.9562 16.6546C25.9919 18.0177 25.7475 19.3297 25.2286 20.5906C25.1703 20.6398 25.1891 20.7061 25.1891 20.7686ZM15.6015 22.783C17.0321 22.7811 18.3274 21.8401 18.7579 20.4581C19.0568 19.4982 18.9591 18.6046 18.1751 17.8928C17.4965 17.2775 16.7088 16.861 15.8083 16.6906C15.0319 16.5448 14.2668 16.5978 13.6182 17.0995C12.7196 17.7962 12.3511 18.7466 12.447 19.8769C12.5899 21.5618 13.9209 22.7849 15.6015 22.783ZM17.2408 8.99652C17.2352 10.0832 17.6318 10.7345 18.3895 11.0317C18.9534 11.2532 19.5494 11.3138 20.1453 11.1927C21.1379 10.9901 21.8936 9.98289 21.95 8.90186C22.0027 7.88899 21.2112 6.96131 20.2318 6.61864C19.5306 6.37252 18.8782 6.44257 18.3067 6.94427C17.6262 7.54253 17.2841 8.3055 17.2408 8.99652ZM10.1215 15.8443C10.1215 14.8882 9.52747 13.9965 8.64767 13.6273C7.88254 13.3074 7.13809 13.4854 6.67375 14.1556C6.23196 14.7917 6.05901 15.5054 6.23948 16.2797C6.37484 16.8648 6.66999 17.3532 7.20012 17.6504C8.50855 18.3812 10.1215 17.3816 10.1215 15.8443ZM21.1041 18.1219C21.1172 18.2582 21.1172 18.3983 21.1473 18.5308C21.3409 19.3411 21.9049 19.7576 22.7922 19.7027C23.7999 19.6402 24.941 18.7921 24.6571 17.463C24.4391 16.4407 23.4145 15.8197 22.4275 16.1359C21.6436 16.3896 21.1135 17.1866 21.1041 18.1219ZM13.5204 8.56487C13.5317 8.20326 13.4076 7.89845 13.1426 7.65234C12.7422 7.27748 12.2759 7.02379 11.7383 6.94238C11.2551 6.86854 10.787 6.92913 10.4092 7.2983C9.82074 7.87195 9.71735 8.74094 10.1478 9.51716C10.5257 10.1949 11.3341 10.5225 12.1274 10.3161C12.932 10.106 13.5167 9.37138 13.5204 8.56487Z" fill="#C593FF"/>
<path d="M27.7007 8.62173C27.7327 8.41537 27.7647 8.20901 27.7947 8.00454C28.0147 7.94206 28.1952 7.77735 28.432 7.76221C28.6257 7.85308 28.7347 8.01969 28.8287 8.19954C29.09 8.69746 29.1915 9.23324 29.1708 9.79363C29.1652 9.9148 29.105 9.97728 28.996 9.98296C28.8813 9.98864 28.8324 9.92237 28.8174 9.8031C28.7723 9.45096 28.5392 9.34683 28.2346 9.53994C27.5597 9.96592 26.8867 10.3919 26.2156 10.8254C26.0915 10.905 26.022 10.9315 25.9656 10.7535C25.8791 10.4847 25.7682 10.2253 25.6666 9.96213C26.1028 9.73684 26.5841 9.6365 27.039 9.46611C27.3435 9.35251 27.5955 9.18023 27.6631 8.82998C27.7289 8.7694 27.7026 8.69367 27.7007 8.62173Z" fill="#C593FF"/>
<path d="M29.1652 14.8768C29.3814 15.6152 29.3193 16.3403 29.0543 17.0522C29.0129 17.162 28.934 17.2547 28.8118 17.2642C28.682 17.2737 28.6764 17.1392 28.6426 17.0597C28.4941 16.7227 28.2421 16.5713 27.8793 16.5845C27.6218 16.594 27.3642 16.5845 27.1067 16.5902C27.0052 16.5921 26.9676 16.5656 26.9657 16.4577C26.9619 16.1756 26.945 15.8935 26.9337 15.6095C27.1913 15.5622 27.4601 15.5224 27.712 15.5754C27.9602 15.6266 28.0598 15.5186 28.135 15.3255C28.3831 15.1816 28.4828 14.9317 28.5862 14.6837C28.8118 14.6496 28.9998 14.7254 29.1652 14.8768Z" fill="#C593FF"/>
<path d="M15.8421 1.84769C15.8628 1.46905 15.7012 1.32706 15.3515 1.41414C15.3082 1.26079 15.3759 1.12259 15.4022 0.978703C15.7745 0.740157 16.1655 0.692826 16.5716 0.872682C16.7953 0.97113 16.9513 1.14531 17.0397 1.37249C17.1261 1.59968 17.0961 1.64133 16.8592 1.65837C16.6336 1.67541 16.5227 1.82687 16.564 2.08813C16.6167 2.41566 16.6806 2.74129 16.7389 3.06693C16.831 3.58946 16.8291 3.59324 16.3328 3.51183C16.1035 3.47397 15.8779 3.42096 15.6504 3.37363C15.6579 3.36984 15.6692 3.36606 15.6711 3.36227C15.7256 2.85489 15.7463 2.33993 15.9455 1.85716C15.9719 1.79468 15.8797 1.84769 15.8421 1.84769Z" fill="#C593FF"/>
<path d="M23.0949 26.9784C22.6982 27.4252 22.2264 27.7433 21.621 27.819C21.5346 27.8304 21.4406 27.8285 21.3579 27.8039C21.1962 27.7584 21.0627 27.66 21.0251 27.4858C20.9913 27.3287 21.1003 27.2245 21.2112 27.1431C21.3278 27.0579 21.4575 26.9917 21.5816 26.9178C21.8015 26.7872 21.8542 26.613 21.7263 26.3858C21.4932 25.9674 21.3203 25.5282 21.1962 25.0625C21.1511 24.8902 21.2056 24.8428 21.3466 24.8182C21.6925 25.2688 21.8842 25.7857 21.997 26.3385C22.1361 26.4388 22.2922 26.3707 22.4388 26.3839C22.5591 26.4351 22.6926 26.365 22.811 26.4256C22.7922 26.4426 22.734 26.4635 22.7603 26.4748C22.9896 26.5695 23.0536 26.7645 23.0949 26.9784Z" fill="#C593FF"/>
<path d="M27.9414 22.2378C27.7928 22.9439 27.4921 23.5801 27.0484 24.1442C26.9582 24.2578 26.836 24.3676 26.6762 24.2919C26.522 24.2181 26.4863 24.0647 26.4901 23.9019C26.4976 23.6179 26.6555 23.4002 26.8002 23.1787C27.0202 22.8417 26.9751 22.6637 26.6085 22.5028C26.2663 22.3533 25.9618 22.1488 25.661 21.9292C25.4993 21.8099 25.4599 21.7039 25.5914 21.5448C25.6366 21.4899 25.6685 21.4256 25.7061 21.365C25.8283 21.488 25.9016 21.6357 25.9562 21.8004C26.0746 22.1677 26.2607 22.2662 26.6386 22.1715C26.8172 22.1261 26.9939 22.0655 27.1725 22.0238C27.4695 21.9538 27.7364 21.986 27.9414 22.2378Z" fill="#C593FF"/>
<path d="M8.52171 2.63346C8.79994 2.36084 9.12329 2.21696 9.51995 2.287C9.76246 2.33055 9.94482 2.45739 10.0087 2.69783C10.0764 2.95153 10.0388 3.19575 9.83766 3.39265C9.55943 3.66527 9.55567 3.76561 9.7963 4.06095C9.81134 4.07989 9.82638 4.09882 9.84142 4.11775C10.2268 4.59863 10.2155 4.63839 9.64027 4.82582C9.48987 4.35819 9.34512 3.89056 9.33196 3.39075C9.06313 3.48541 8.96913 3.4892 8.80934 3.41537C8.52923 3.28663 8.45404 3.08405 8.52171 2.63346Z" fill="#C593FF"/>
<path d="M23.1081 2.59558C23.6683 2.77922 24.033 3.17869 24.2981 3.69176C24.3827 3.85457 24.3093 3.88487 24.1721 3.87161C23.9954 3.85457 23.8224 3.83185 23.6476 3.89054C23.4389 3.96059 23.2942 4.10259 23.1795 4.28623C22.9859 4.60429 22.749 4.88638 22.5084 5.17036C22.3241 5.38998 22.1587 5.40323 21.9538 5.22337C22.0704 5.16847 22.1174 5.05298 22.1907 4.95832C22.4651 4.61186 22.7283 4.25594 23.0178 3.92273C23.1288 3.79399 23.14 3.71826 23.0442 3.57816C22.7678 3.17491 22.7904 2.93825 23.1081 2.59558Z" fill="#C593FF"/>
<path d="M15.8421 1.84777C15.8797 1.84777 15.97 1.79476 15.9455 1.85724C15.7463 2.3419 15.7256 2.85496 15.6711 3.36235C15.6711 3.36613 15.6579 3.36992 15.6504 3.37371C15.5038 3.34531 15.5526 3.21657 15.5526 3.14084C15.5526 2.69025 15.6297 2.25292 15.8421 1.84777Z" fill="#C593FF"/>
<path d="M28.4339 7.76031C28.197 7.77735 28.0147 7.94017 27.7966 8.00264C27.8361 7.66944 28.0974 7.57099 28.4339 7.76031Z" fill="#F9FAFB"/>
<path d="M14.6766 4.44714C14.8665 4.52666 15.0639 4.46797 15.2575 4.48879C15.3722 4.50205 15.4944 4.45093 15.5996 4.53423C15.1503 4.53612 14.7029 4.53612 14.2536 4.53612C14.1991 4.53612 14.1408 4.54559 14.0938 4.50015C14.2874 4.48311 14.483 4.46608 14.6766 4.44714Z" fill="#DAEAEA"/>
<path d="M15.4041 0.97876C15.3778 1.12264 15.3101 1.26274 15.3534 1.4142C15.1955 1.38959 15.1597 1.34983 15.1973 1.22299C15.2293 1.11318 15.297 1.02609 15.4041 0.97876Z" fill="#E6EAEB"/>
<path d="M21.9989 26.3384C22.1117 26.3233 22.2358 26.3895 22.3335 26.2854C22.3693 26.3176 22.405 26.3517 22.4407 26.3838C22.2941 26.3706 22.138 26.4387 21.9989 26.3384Z" fill="#E4E8EA"/>
<path d="M25.2267 20.5906C25.2437 20.6038 25.2587 20.6171 25.2756 20.6303C25.2568 20.6833 25.2512 20.7439 25.1892 20.7685C25.1892 20.7061 25.1704 20.6398 25.2267 20.5906Z" fill="#D1D4D6"/>
<path d="M27.665 8.82996C27.6481 8.81292 27.633 8.79778 27.6161 8.78074C27.6443 8.72773 27.6725 8.67472 27.7026 8.6217C27.7026 8.69365 27.7289 8.76938 27.665 8.82996Z" fill="#D2DEDE"/>
<path d="M5.09649 7.41384C5.00437 7.34001 5.02505 7.25481 5.07017 7.16772C5.07957 7.25103 5.08897 7.33243 5.09649 7.41384Z" fill="#DFE8E9"/>
<path d="M15.6015 22.783C13.9209 22.7849 12.5899 21.5619 12.447 19.8788C12.3511 18.7467 12.7177 17.7963 13.6182 17.1015C14.2668 16.5998 15.0319 16.5467 15.8083 16.6925C16.7088 16.8629 17.4965 17.2794 18.1751 17.8947C18.9609 18.6066 19.0568 19.5002 18.7579 20.46C18.3274 21.8402 17.0303 22.783 15.6015 22.783Z" fill="#F76F39"/>
<path d="M17.2408 8.99654C17.2841 8.30552 17.6262 7.54255 18.3067 6.94619C18.8782 6.44448 19.5306 6.37443 20.2318 6.62055C21.2112 6.96323 22.0027 7.88901 21.95 8.90378C21.8936 9.98291 21.1379 10.9901 20.1453 11.1946C19.5494 11.3157 18.9553 11.2552 18.3895 11.0336C17.6318 10.7364 17.2352 10.0851 17.2408 8.99654Z" fill="#F76F39"/>
<path d="M10.1215 15.8443C10.1215 17.3797 8.50855 18.3812 7.20012 17.6485C6.66998 17.3513 6.37483 16.8628 6.23948 16.2778C6.05901 15.5054 6.23196 14.7898 6.67374 14.1536C7.13808 13.4853 7.88442 13.3055 8.64767 13.6254C9.52747 13.9965 10.1215 14.8901 10.1215 15.8443Z" fill="#F76F39"/>
<path d="M21.1041 18.1219C21.1135 17.1866 21.6436 16.3877 22.4275 16.1359C23.4145 15.8197 24.4391 16.4407 24.6571 17.463C24.941 18.794 23.7999 19.6421 22.7922 19.7027C21.9049 19.7576 21.3428 19.3411 21.1473 18.5308C21.1172 18.3983 21.1172 18.2582 21.1041 18.1219Z" fill="#F76F39"/>
<path d="M13.5186 8.56483C13.5167 9.37134 12.932 10.1059 12.1255 10.3142C11.3322 10.5186 10.5238 10.193 10.146 9.51523C9.71546 8.7409 9.81886 7.87002 10.4073 7.29637C10.7851 6.92908 11.2532 6.8685 11.7364 6.94044C12.274 7.02185 12.7422 7.27554 13.1407 7.6504C13.4058 7.89841 13.5298 8.20322 13.5186 8.56483Z" fill="#F76F39"/>
</g>
<defs>
<clipPath id="clip0_2_4499">
<rect width="31" height="30" fill="white"/>
</clipPath>
</defs>
</svg>
